<svg width="40" height="40" viewBox="0 0 40 40" fill="none" xmlns="http://www.w3.org/2000/svg">
<path d="M20.3076 39.6924C31.1834 39.5225 39.8623 30.5682 39.6924 19.6924C39.5225 8.81657 30.5682 0.137734 19.6924 0.307635C8.81657 0.477536 0.137732 9.43184 0.307633 20.3076C0.477535 31.1834 9.43184 39.8623 20.3076 39.6924Z" fill="#FDCD02"/>
<path d="M26.145 17.0642C26.8147 17.0629 27.4722 16.8861 28.0522 16.5514C28.6322 16.2167 29.1143 15.7359 29.4505 15.1567C29.4965 15.0772 29.5264 14.9894 29.5385 14.8983C29.5506 14.8072 29.5446 14.7146 29.5209 14.6258C29.4972 14.537 29.4562 14.4538 29.4004 14.3808C29.3445 14.3078 29.2748 14.2466 29.1953 14.2006C29.1157 14.1546 29.0279 14.1247 28.9368 14.1126C28.8457 14.1005 28.7531 14.1065 28.6643 14.1302C28.5755 14.1539 28.4923 14.1948 28.4193 14.2507C28.3464 14.3066 28.2851 14.3763 28.2391 14.4558C28.0268 14.8234 27.7216 15.1286 27.354 15.3408C26.9864 15.553 26.5694 15.6647 26.1449 15.6647C25.7205 15.6647 25.3035 15.553 24.9359 15.3408C24.5683 15.1286 24.263 14.8234 24.0508 14.4558C23.9578 14.2952 23.8048 14.178 23.6255 14.1302C23.4462 14.0823 23.2552 14.1077 23.0945 14.2006C22.9339 14.2936 22.8168 14.4466 22.7689 14.6259C22.721 14.8052 22.7464 14.9962 22.8393 15.1569C23.1756 15.736 23.6578 16.2168 24.2378 16.5515C24.8178 16.8861 25.4754 17.0629 26.145 17.0642Z" fill="black"/>
<path d="M16.5376 15.1568C16.6305 14.9961 16.6558 14.8052 16.608 14.6258C16.5601 14.4465 16.443 14.2936 16.2823 14.2006C16.1217 14.1077 15.9307 14.0823 15.7514 14.1302C15.572 14.1781 15.4191 14.2952 15.3261 14.4559C15.1139 14.8234 14.8086 15.1286 14.441 15.3409C14.0734 15.5531 13.6564 15.6648 13.232 15.6648C12.8075 15.6648 12.3906 15.5531 12.023 15.3409C11.6554 15.1286 11.3501 14.8234 11.1378 14.4559C11.0449 14.2952 10.8919 14.1781 10.7126 14.1303C10.5333 14.0824 10.3423 14.1078 10.1816 14.2007C10.021 14.2937 9.9039 14.4467 9.85605 14.626C9.80821 14.8053 9.83356 14.9963 9.92652 15.1569C10.2617 15.7369 10.7436 16.2185 11.3239 16.5533C11.9041 16.8881 12.5622 17.0643 13.232 17.0643C13.9019 17.0643 14.56 16.8881 15.1402 16.5533C15.7204 16.2185 16.2023 15.7369 16.5376 15.1569V15.1568Z" fill="black"/>
<path d="M19.6881 24.328C17.1932 24.328 14.8072 25.6109 12.9703 27.941C12.9127 28.0131 12.8699 28.0958 12.8444 28.1845C12.8189 28.2732 12.8112 28.3661 12.8217 28.4577C12.8322 28.5494 12.8608 28.6381 12.9057 28.7187C12.9507 28.7993 13.0111 28.8702 13.0836 28.9274C13.156 28.9845 13.2391 29.0267 13.3279 29.0517C13.4168 29.0766 13.5097 29.0837 13.6013 29.0726C13.6929 29.0614 13.7814 29.0323 13.8617 28.9869C13.942 28.9414 14.0125 28.8805 14.0692 28.8077C15.6357 26.8214 17.6313 25.7275 19.6886 25.7275C21.7459 25.7275 23.7417 26.8214 25.3081 28.8079C25.3648 28.8807 25.4353 28.9416 25.5156 28.9871C25.5959 29.0325 25.6844 29.0617 25.776 29.0728C25.8676 29.0839 25.9605 29.0768 26.0493 29.0519C26.1382 29.027 26.2212 28.9847 26.2937 28.9276C26.3661 28.8705 26.4266 28.7995 26.4715 28.7189C26.5165 28.6383 26.545 28.5496 26.5555 28.458C26.5661 28.3663 26.5584 28.2734 26.5329 28.1848C26.5074 28.0961 26.4646 28.0133 26.407 27.9412C24.5693 25.6112 22.1833 24.328 19.6881 24.328Z" fill="black"/>
<path d="M28.8447 24.328C28.3169 24.3274 27.8108 24.1174 27.4375 23.7441C27.0643 23.3709 26.8543 22.8648 26.8538 22.3369C26.8538 21.779 27.4781 20.2982 28.3043 18.6632C28.3548 18.5632 28.4321 18.4793 28.5275 18.4206C28.623 18.3619 28.7328 18.3309 28.8448 18.3309C28.9568 18.3309 29.0666 18.3619 29.162 18.4206C29.2574 18.4793 29.3347 18.5632 29.3853 18.6632C30.2115 20.2986 30.8359 21.7794 30.8359 22.3369C30.8353 22.8648 30.6253 23.3709 30.252 23.7442C29.8787 24.1174 29.3726 24.3274 28.8447 24.328Z" fill="#2099DC"/>
<path opacity="0.1" d="M32.9295 5.36319C36.0667 8.94379 37.7944 13.5433 37.7904 18.3038C37.7904 29.1636 28.9554 37.9987 18.0957 37.9987C13.2328 38.0025 8.54193 36.2 4.93298 32.9407C6.77853 35.062 9.05776 36.7627 11.6168 37.9279C14.1758 39.093 16.955 39.6955 19.7668 39.6947C30.6265 39.6947 39.4616 30.8597 39.4616 19.9999C39.4626 17.2382 38.8813 14.5072 37.7558 11.9852C36.6303 9.46324 34.9858 7.20684 32.9295 5.36319Z" fill="black"/>
</svg>
