<svg width="40" height="40" viewBox="0 0 40 40" fill="none" xmlns="http://www.w3.org/2000/svg">
<path d="M20.3076 39.6924C31.1834 39.5225 39.8623 30.5682 39.6924 19.6924C39.5225 8.81657 30.5682 0.137734 19.6924 0.307635C8.81657 0.477536 0.137732 9.43184 0.307633 20.3076C0.477535 31.1834 9.43184 39.8623 20.3076 39.6924Z" fill="#FDCD02"/>
<path d="M26.4784 24.8488C26.0354 24.8449 25.5984 24.952 25.2073 25.1602C24.8162 25.3683 24.4834 25.671 24.2392 26.0407C24.1186 26.2086 23.9598 26.3455 23.7759 26.4398C23.592 26.5342 23.3883 26.5834 23.1815 26.5834C22.9748 26.5834 22.7711 26.5342 22.5872 26.4398C22.4033 26.3455 22.2445 26.2086 22.1239 26.0407C21.8769 25.6737 21.5435 25.3731 21.1531 25.1652C20.7626 24.9573 20.327 24.8486 19.8847 24.8486C19.4423 24.8486 19.0067 24.9573 18.6163 25.1652C18.2258 25.3731 17.8924 25.6737 17.6454 26.0407C17.5249 26.2086 17.3661 26.3454 17.1822 26.4397C16.9983 26.5341 16.7946 26.5833 16.5879 26.5833C16.3812 26.5833 16.1775 26.5341 15.9936 26.4397C15.8097 26.3454 15.6509 26.2086 15.5304 26.0407C15.2834 25.6737 14.95 25.3731 14.5595 25.1653C14.169 24.9574 13.7335 24.8487 13.2911 24.8487C12.8488 24.8487 12.4132 24.9574 12.0227 25.1653C11.6323 25.3731 11.2989 25.6737 11.0519 26.0407C10.9524 26.1974 10.9192 26.3872 10.9597 26.5683C11.0002 26.7494 11.1109 26.9071 11.2676 27.0066C11.4243 27.106 11.614 27.1392 11.7952 27.0987C11.9763 27.0583 12.134 26.9475 12.2334 26.7909C12.354 26.623 12.5128 26.4862 12.6967 26.3919C12.8806 26.2975 13.0844 26.2483 13.2911 26.2483C13.4978 26.2483 13.7015 26.2975 13.8854 26.3919C14.0693 26.4862 14.2281 26.623 14.3487 26.7909C14.5957 27.1579 14.9291 27.4586 15.3195 27.6665C15.71 27.8744 16.1456 27.9831 16.588 27.9831C17.0303 27.9831 17.4659 27.8744 17.8564 27.6665C18.2469 27.4586 18.5802 27.1579 18.8272 26.7909C18.9478 26.623 19.1066 26.4862 19.2905 26.3919C19.4744 26.2975 19.6781 26.2483 19.8848 26.2483C20.0915 26.2483 20.2952 26.2975 20.4791 26.3919C20.663 26.4862 20.8218 26.623 20.9424 26.7909C21.1893 27.1579 21.5227 27.4585 21.9132 27.6664C22.3037 27.8743 22.7392 27.983 23.1816 27.983C23.624 27.983 24.0595 27.8743 24.45 27.6664C24.8405 27.4585 25.1739 27.1579 25.4209 26.7909C25.5414 26.623 25.7002 26.4862 25.8841 26.3919C26.068 26.2975 26.2717 26.2483 26.4784 26.2483C26.6851 26.2483 26.8888 26.2975 27.0727 26.3919C27.2566 26.4862 27.4154 26.623 27.536 26.7909C27.5853 26.8684 27.6493 26.9356 27.7245 26.9884C27.7997 27.0412 27.8846 27.0787 27.9743 27.0987C28.064 27.1188 28.1567 27.121 28.2472 27.1051C28.3378 27.0893 28.4243 27.0558 28.5019 27.0066C28.5794 26.9573 28.6466 26.8933 28.6994 26.8181C28.7522 26.7429 28.7897 26.658 28.8097 26.5683C28.8298 26.4786 28.8319 26.3859 28.8161 26.2954C28.8003 26.2048 28.7668 26.1183 28.7176 26.0407C28.4733 25.6711 28.1405 25.3684 27.7495 25.1602C27.3584 24.952 26.9214 24.845 26.4784 24.8488Z" fill="black"/>
<path d="M29.3918 14.6796C29.3123 14.6335 29.2244 14.6036 29.1333 14.5915C29.0422 14.5794 28.9496 14.5854 28.8607 14.6091C28.7719 14.6328 28.6887 14.6738 28.6157 14.7297C28.5427 14.7856 28.4815 14.8553 28.4355 14.9349C28.2232 15.3024 27.9179 15.6076 27.5503 15.8198C27.1828 16.032 26.7658 16.1437 26.3414 16.1437C25.9169 16.1437 25.5 16.032 25.1324 15.8198C24.7648 15.6076 24.4595 15.3024 24.2472 14.9349C24.2014 14.855 24.1403 14.7849 24.0673 14.7286C23.9943 14.6724 23.911 14.6311 23.822 14.6072C23.7331 14.5833 23.6403 14.5771 23.5489 14.5892C23.4576 14.6012 23.3695 14.6311 23.2898 14.6772C23.21 14.7234 23.1402 14.7848 23.0842 14.858C23.0283 14.9312 22.9874 15.0147 22.9638 15.1037C22.9402 15.1928 22.9344 15.2856 22.9468 15.3769C22.9591 15.4682 22.9894 15.5561 23.0358 15.6357C23.371 16.2157 23.8529 16.6973 24.4331 17.0321C25.0134 17.3669 25.6715 17.5432 26.3414 17.5432C27.0112 17.5432 27.6693 17.3669 28.2496 17.0321C28.8298 16.6973 29.3117 16.2157 29.6469 15.6357C29.7398 15.4751 29.7652 15.2841 29.7173 15.1048C29.6695 14.9255 29.5524 14.7726 29.3918 14.6796Z" fill="black"/>
<path d="M16.7336 15.6358C16.781 15.5562 16.812 15.468 16.825 15.3764C16.838 15.2847 16.8327 15.1914 16.8093 15.1018C16.786 15.0122 16.7451 14.9281 16.689 14.8544C16.633 14.7808 16.5628 14.7189 16.4827 14.6726C16.4026 14.6262 16.314 14.5962 16.2222 14.5843C16.1304 14.5723 16.0371 14.5788 15.9478 14.6032C15.8585 14.6275 15.7749 14.6694 15.7019 14.7263C15.6289 14.7832 15.5679 14.8541 15.5225 14.9348C15.3102 15.3023 15.0049 15.6075 14.6373 15.8197C14.2697 16.0318 13.8527 16.1436 13.4282 16.1436C13.0038 16.1436 12.5868 16.0318 12.2192 15.8197C11.8516 15.6075 11.5463 15.3023 11.334 14.9348C11.2407 14.7749 11.0878 14.6585 10.9089 14.6111C10.7299 14.5637 10.5395 14.5891 10.3793 14.6818C10.219 14.7745 10.102 14.9269 10.0539 15.1057C10.0058 15.2844 10.0305 15.475 10.1226 15.6356C10.4578 16.2155 10.9397 16.6971 11.5199 17.0319C12.1002 17.3667 12.7582 17.543 13.4281 17.543C14.098 17.543 14.7561 17.3667 15.3363 17.0319C15.9165 16.6971 16.3984 16.2155 16.7336 15.6356V15.6358Z" fill="black"/>
<path opacity="0.1" d="M32.9295 5.36319C36.0667 8.94379 37.7944 13.5433 37.7904 18.3038C37.7904 29.1636 28.9554 37.9987 18.0957 37.9987C13.2328 38.0025 8.54193 36.2 4.93298 32.9407C6.77853 35.062 9.05776 36.7627 11.6168 37.9279C14.1758 39.093 16.955 39.6955 19.7668 39.6947C30.6265 39.6947 39.4616 30.8597 39.4616 19.9999C39.4626 17.2382 38.8813 14.5072 37.7558 11.9852C36.6303 9.46324 34.9858 7.20684 32.9295 5.36319Z" fill="black"/>
</svg>
