<svg width="40" height="40" viewBox="0 0 40 40" fill="none" xmlns="http://www.w3.org/2000/svg">
<path d="M20 40C31.0457 40 40 31.0457 40 20C40 8.9543 31.0457 0 20 0C8.9543 0 0 8.9543 0 20C0 31.0457 8.9543 40 20 40Z" fill="#FDCD02"/>
<path d="M28.5471 25.2726C28.4662 25.2261 28.3769 25.196 28.2844 25.184C28.1918 25.172 28.0978 25.1784 28.0077 25.2027C27.9176 25.227 27.8332 25.2689 27.7593 25.3258C27.6854 25.3828 27.6234 25.4538 27.5769 25.5347C26.8122 26.8675 25.7097 27.9752 24.3806 28.7462C23.0515 29.5173 21.5426 29.9245 20.006 29.9268C18.4694 29.9291 16.9594 29.5264 15.628 28.7593C14.2965 27.9922 13.1908 26.8878 12.4221 25.5573C12.3277 25.3942 12.1723 25.2752 11.9902 25.2266C11.8081 25.178 11.6142 25.2038 11.451 25.2982C11.2879 25.3926 11.1689 25.5479 11.1203 25.73C11.0717 25.9121 11.0975 26.1061 11.1919 26.2692C12.0856 27.8157 13.3711 29.0995 14.9188 29.9911C16.4666 30.8827 18.2219 31.3507 20.0081 31.3481C21.7943 31.3454 23.5483 30.8721 25.0933 29.9758C26.6384 29.0796 27.92 27.792 28.8091 26.2428C28.8556 26.1619 28.8857 26.0726 28.8977 25.9801C28.9097 25.8875 28.9034 25.7935 28.879 25.7034C28.8547 25.6134 28.8129 25.5289 28.7559 25.455C28.699 25.3811 28.628 25.3191 28.5471 25.2726Z" fill="black"/>
<path d="M28.6226 12.9008C28.2687 12.886 27.9156 12.9441 27.5851 13.0713C27.2546 13.1986 26.9537 13.3923 26.7011 13.6405C26.2821 13.2244 25.6614 12.8978 24.7796 12.9008C24.2415 12.9063 23.717 13.0701 23.2715 13.3719C22.826 13.6737 22.4792 14.1 22.2745 14.5976C21.7541 15.7965 22.0575 17.2208 23.0662 18.3147C24.8286 20.2255 26.452 20.6693 26.5202 20.6873C26.6388 20.7184 26.7633 20.7184 26.8818 20.6873C26.95 20.6693 28.5733 20.2254 30.3357 18.3147C31.3445 17.2209 31.6479 15.7965 31.1276 14.5976C30.9228 14.1 30.5761 13.6737 30.1306 13.372C29.6851 13.0702 29.1606 12.9063 28.6226 12.9008Z" fill="#F8203D"/>
<path d="M13.2992 20.7106C13.3602 20.7104 13.421 20.7025 13.48 20.6869C13.5482 20.6689 15.1715 20.225 16.934 18.3143C17.9427 17.2204 18.2461 15.7961 17.7257 14.5972C17.521 14.0996 17.1743 13.6733 16.7288 13.3716C16.2833 13.0698 15.7588 12.9059 15.2208 12.9004C14.3362 12.8912 13.7183 13.224 13.2993 13.6401C13.0465 13.3921 12.7456 13.1985 12.4151 13.0713C12.0846 12.944 11.7315 12.8859 11.3777 12.9004C10.8397 12.906 10.3152 13.0698 9.86967 13.3716C9.42418 13.6734 9.07743 14.0996 8.87267 14.5972C8.35239 15.7961 8.6557 17.2206 9.66453 18.3143C11.427 20.2251 13.0502 20.6689 13.1185 20.6869C13.1774 20.7025 13.2382 20.7104 13.2992 20.7106Z" fill="#F8203D"/>
<path opacity="0.1" d="M33.3667 5.13639C36.5525 8.7725 38.307 13.4433 38.303 18.2776C38.303 29.3057 29.331 38.2776 18.3031 38.2776C13.3649 38.2815 8.6012 36.4511 4.93628 33.1413C6.81043 35.2955 9.12498 37.0226 11.7237 38.2058C14.3223 39.389 17.1447 40.0008 20 40C31.028 40 40 31.0281 40 20C40.001 17.1954 39.4108 14.4222 38.2678 11.8611C37.1249 9.30001 35.4548 7.00862 33.3667 5.13639Z" fill="black"/>
</svg>
