<svg width="40" height="40" viewBox="0 0 40 40" fill="none" xmlns="http://www.w3.org/2000/svg">
<path d="M20.3076 39.6924C31.1834 39.5225 39.8623 30.5682 39.6924 19.6924C39.5225 8.81657 30.5682 0.137734 19.6924 0.307635C8.81657 0.477536 0.137732 9.43184 0.307633 20.3076C0.477535 31.1834 9.43184 39.8623 20.3076 39.6924Z" fill="#FDCD02"/>
<path d="M10.6358 16.4556C10.8481 16.088 11.1533 15.7828 11.5209 15.5706C11.8885 15.3583 12.3055 15.2466 12.73 15.2466C13.1544 15.2466 13.5714 15.3583 13.939 15.5706C14.3066 15.7828 14.6119 16.088 14.8241 16.4556C14.9171 16.6162 15.0701 16.7333 15.2494 16.7811C15.4287 16.829 15.6197 16.8036 15.7803 16.7107C15.941 16.6177 16.058 16.4647 16.1059 16.2854C16.1537 16.1061 16.1284 15.9151 16.0354 15.7545C15.7002 15.1745 15.2183 14.693 14.6381 14.3582C14.0579 14.0234 13.3998 13.8471 12.7299 13.8471C12.0601 13.8471 11.402 14.0234 10.8217 14.3582C10.2415 14.693 9.75962 15.1745 9.42441 15.7545C9.33146 15.9151 9.30613 16.1061 9.354 16.2854C9.40186 16.4648 9.51901 16.6177 9.67965 16.7107C9.84029 16.8036 10.0313 16.8289 10.2106 16.7811C10.3899 16.7332 10.5429 16.6161 10.6358 16.4554V16.4556Z" fill="black"/>
<path d="M27.6031 22.9089C27.5234 22.8631 27.4355 22.8335 27.3443 22.8216C27.2532 22.8098 27.1607 22.8161 27.0719 22.84C26.9832 22.864 26.9001 22.9052 26.8273 22.9613C26.7545 23.0173 26.6934 23.0872 26.6476 23.1669C25.8946 24.4794 24.809 25.5702 23.5001 26.3295C22.1913 27.0888 20.7055 27.4898 19.1923 27.4921C17.6792 27.4943 16.1921 27.0978 14.881 26.3424C13.5699 25.587 12.4811 24.4994 11.7241 23.1892C11.6312 23.0285 11.4782 22.9114 11.2988 22.8635C11.1195 22.8157 10.9285 22.841 10.7679 22.934C10.6072 23.0269 10.4901 23.1799 10.4422 23.3592C10.3944 23.5386 10.4197 23.7296 10.5127 23.8902C11.3928 25.4131 12.6587 26.6772 14.1828 27.5552C15.7069 28.4332 17.4354 28.8941 19.1943 28.8915C20.9533 28.8889 22.6804 28.4228 24.2019 27.5403C25.7234 26.6577 26.9855 25.3898 27.861 23.8643C27.9068 23.7846 27.9365 23.6967 27.9483 23.6056C27.9601 23.5145 27.9539 23.4219 27.9299 23.3332C27.906 23.2445 27.8648 23.1613 27.8087 23.0885C27.7526 23.0157 27.6827 22.9547 27.6031 22.9089Z" fill="black"/>
<path d="M28.2242 13.7848C28.1684 13.6078 28.0445 13.4602 27.8799 13.3746C27.7153 13.2889 27.5234 13.2721 27.3464 13.328L23.1263 14.659C22.9844 14.7038 22.8605 14.7926 22.7725 14.9126C22.6845 15.0326 22.6371 15.1776 22.6371 15.3264C22.6371 15.4752 22.6845 15.6201 22.7725 15.7401C22.8605 15.8601 22.9844 15.9489 23.1263 15.9937L27.3464 17.3248C27.4341 17.3529 27.5266 17.3634 27.6184 17.3557C27.7102 17.3479 27.7996 17.3222 27.8815 17.2798C27.9633 17.2374 28.036 17.1793 28.0953 17.1088C28.1546 17.0383 28.1995 16.9568 28.2272 16.8689C28.2549 16.781 28.265 16.6885 28.2568 16.5967C28.2487 16.5049 28.2226 16.4156 28.1799 16.334C28.1371 16.2523 28.0787 16.1799 28.0079 16.1209C27.9372 16.0619 27.8554 16.0174 27.7674 15.9901L25.6631 15.3264L27.7674 14.6626C27.9444 14.6068 28.092 14.483 28.1776 14.3183C28.2633 14.1537 28.2801 13.9618 28.2242 13.7848Z" fill="black"/>
<path opacity="0.1" d="M32.9295 5.36319C36.0667 8.94379 37.7944 13.5433 37.7904 18.3038C37.7904 29.1636 28.9554 37.9987 18.0957 37.9987C13.2328 38.0025 8.54193 36.2 4.93298 32.9407C6.77853 35.062 9.05776 36.7627 11.6168 37.9279C14.1758 39.093 16.955 39.6955 19.7668 39.6947C30.6265 39.6947 39.4616 30.8597 39.4616 19.9999C39.4626 17.2382 38.8813 14.5072 37.7558 11.9852C36.6303 9.46324 34.9858 7.20684 32.9295 5.36319Z" fill="black"/>
</svg>
