<svg width="40" height="40" viewBox="0 0 40 40" fill="none" xmlns="http://www.w3.org/2000/svg">
<path d="M20.3076 39.6924C31.1834 39.5225 39.8623 30.5682 39.6924 19.6924C39.5225 8.81657 30.5682 0.137734 19.6924 0.307635C8.81657 0.477536 0.137732 9.43184 0.307633 20.3076C0.477535 31.1834 9.43184 39.8623 20.3076 39.6924Z" fill="#FDCD02"/>
<path d="M13.5434 14.418C12.8738 14.4193 12.2162 14.5962 11.6362 14.9308C11.0563 15.2655 10.5741 15.7463 10.2379 16.3253C10.1919 16.4049 10.162 16.4927 10.1499 16.5838C10.1378 16.6749 10.1438 16.7675 10.1675 16.8563C10.1911 16.9451 10.2321 17.0283 10.288 17.1013C10.3438 17.1742 10.4135 17.2355 10.493 17.2815C10.5726 17.3276 10.6604 17.3575 10.7515 17.3696C10.8426 17.3816 10.9352 17.3757 11.024 17.352C11.1128 17.3283 11.196 17.2874 11.269 17.2315C11.3419 17.1756 11.4032 17.1059 11.4492 17.0264C11.6615 16.6589 11.9668 16.3537 12.3344 16.1415C12.702 15.9293 13.1189 15.8176 13.5434 15.8176C13.9678 15.8176 14.3848 15.9293 14.7524 16.1415C15.12 16.3537 15.4253 16.6589 15.6375 17.0264C15.6836 17.1059 15.7448 17.1756 15.8178 17.2315C15.8907 17.2874 15.974 17.3283 16.0628 17.352C16.1516 17.3757 16.2441 17.3817 16.3352 17.3697C16.4263 17.3576 16.5142 17.3277 16.5937 17.2816C16.6733 17.2356 16.7429 17.1744 16.7988 17.1014C16.8547 17.0285 16.8957 16.9452 16.9194 16.8564C16.9431 16.7676 16.949 16.675 16.937 16.5839C16.9249 16.4928 16.895 16.405 16.8489 16.3255C16.5127 15.7464 16.0306 15.2655 15.4506 14.9308C14.8706 14.5961 14.213 14.4193 13.5434 14.418Z" fill="black"/>
<path d="M26.4566 14.418C25.787 14.4194 25.1294 14.5962 24.5494 14.9308C23.9694 15.2655 23.4873 15.7463 23.151 16.3253C23.058 16.486 23.0327 16.677 23.0805 16.8563C23.1284 17.0356 23.2455 17.1886 23.4062 17.2816C23.5668 17.3745 23.7578 17.3999 23.9371 17.352C24.1165 17.3042 24.2694 17.187 24.3624 17.0264C24.5747 16.6589 24.88 16.3537 25.2476 16.1415C25.6152 15.9293 26.0321 15.8176 26.4566 15.8176C26.881 15.8176 27.298 15.9293 27.6656 16.1415C28.0332 16.3537 28.3384 16.6589 28.5507 17.0264C28.5968 17.1059 28.658 17.1756 28.731 17.2315C28.8039 17.2874 28.8872 17.3283 28.976 17.352C29.0647 17.3757 29.1573 17.3817 29.2484 17.3697C29.3395 17.3576 29.4274 17.3277 29.5069 17.2816C29.5864 17.2356 29.6562 17.1744 29.712 17.1014C29.7679 17.0285 29.8089 16.9452 29.8326 16.8564C29.8563 16.7676 29.8622 16.675 29.8502 16.5839C29.8381 16.4928 29.8082 16.405 29.7621 16.3255C29.4259 15.7464 28.9438 15.2655 28.3638 14.9308C27.7838 14.5961 27.1262 14.4193 26.4566 14.418Z" fill="black"/>
<path d="M28.4168 25.1923C28.3371 25.1465 28.2492 25.1168 28.158 25.105C28.0669 25.0932 27.9743 25.0994 27.8856 25.1234C27.7968 25.1473 27.7137 25.1885 27.6409 25.2446C27.5681 25.3007 27.507 25.3706 27.4612 25.4503C26.7051 26.7628 25.6171 27.8534 24.3063 28.6126C22.9956 29.3718 21.5082 29.7729 19.9935 29.7758C19.8079 29.7758 19.6299 29.8495 19.4987 29.9807C19.3674 30.112 19.2937 30.2899 19.2937 30.4755C19.2937 30.6611 19.3674 30.8391 19.4987 30.9703C19.6299 31.1016 19.8079 31.1753 19.9935 31.1753C21.7543 31.1722 23.4834 30.706 25.0072 29.8236C26.531 28.9412 27.796 27.6736 28.6752 26.1479C28.721 26.0682 28.7507 25.9803 28.7625 25.8891C28.7743 25.7979 28.768 25.7053 28.744 25.6166C28.72 25.5278 28.6788 25.4447 28.6226 25.3719C28.5665 25.2991 28.4965 25.2381 28.4168 25.1923Z" fill="black"/>
<path opacity="0.1" d="M33.1628 5.36319C36.3 8.94379 38.0277 13.5433 38.0237 18.3038C38.0237 29.1636 29.1887 37.9987 18.329 37.9987C13.4661 38.0025 8.7752 36.2 5.16626 32.9407C7.01181 35.062 9.29104 36.7627 11.8501 37.9279C14.4091 39.093 17.1883 39.6955 20.0001 39.6947C30.8598 39.6947 39.6949 30.8597 39.6949 19.9999C39.6958 17.2382 39.1146 14.5072 37.9891 11.9852C36.8636 9.46324 35.2191 7.20684 33.1628 5.36319Z" fill="black"/>
</svg>
