<svg width="300" height="300" viewBox="0 0 300 300" fill="none" xmlns="http://www.w3.org/2000/svg">
<path d="M300 229.44H0V229.59H300V229.44Z" fill="#EBEBEB"/>
<path d="M269.94 239.094H238.098V239.244H269.94V239.094Z" fill="#EBEBEB"/>
<path d="M198.732 237.216H163.536V237.366H198.732V237.216Z" fill="#EBEBEB"/>
<path d="M239.634 236.352H228.12V236.502H239.634V236.352Z" fill="#EBEBEB"/>
<path d="M86.1962 234.534H60.2822V234.684H86.1962V234.534Z" fill="#EBEBEB"/>
<path d="M56.9398 234.534H47.6758V234.684H56.9398V234.534Z" fill="#EBEBEB"/>
<path d="M111.402 237.066H78.8818V237.216H111.402V237.066Z" fill="#EBEBEB"/>
<path d="M142.206 202.68H26.3518C24.4618 202.68 22.9258 201.144 22.9258 199.254V36.396C22.9258 34.506 24.4618 32.97 26.3518 32.97H142.212C144.102 32.97 145.638 34.506 145.638 36.396V199.254C145.632 201.144 144.096 202.68 142.206 202.68ZM26.3518 33.12C24.5458 33.12 23.0758 34.59 23.0758 36.396V199.254C23.0758 201.06 24.5458 202.53 26.3518 202.53H142.212C144.018 202.53 145.488 201.06 145.488 199.254V36.396C145.488 34.59 144.018 33.12 142.212 33.12H26.3518Z" fill="#EBEBEB"/>
<path d="M271.986 202.68H156.126C154.236 202.68 152.7 201.144 152.7 199.254V36.396C152.7 34.506 154.236 32.97 156.126 32.97H271.986C273.876 32.97 275.412 34.506 275.412 36.396V199.254C275.412 201.144 273.876 202.68 271.986 202.68ZM156.126 33.12C154.32 33.12 152.85 34.59 152.85 36.396V199.254C152.85 201.06 154.32 202.53 156.126 202.53H271.986C273.792 202.53 275.262 201.06 275.262 199.254V36.396C275.262 34.59 273.792 33.12 271.986 33.12H156.126Z" fill="#EBEBEB"/>
<path d="M251.916 40.794H166.62V120.618H251.916V40.794Z" fill="#E6E6E6"/>
<path d="M256.53 40.794H167.244V120.618H256.53V40.794Z" fill="#F0F0F0"/>
<path d="M251.916 120.624H166.62V124.554H251.916V120.624Z" fill="#E6E6E6"/>
<path d="M264.204 120.624H174.918V124.554H264.204V120.624Z" fill="#F0F0F0"/>
<path d="M250.078 114.177V47.2474L173.692 47.2474V114.177L250.078 114.177Z" fill="#FAFAFA"/>
<path d="M185.982 114.174L193.89 47.244H220.932L213.024 114.174H185.982Z" fill="white"/>
<path d="M250.079 114.176V47.2462H249.263V114.176H250.079Z" fill="#E6E6E6"/>
<g opacity="0.4">
<path opacity="0.4" d="M258.048 47.946H171.222L170.628 45.99H257.46L258.048 47.946Z" fill="#E0E0E0"/>
<path opacity="0.4" d="M258.048 51.204H171.222L170.628 49.248H257.46L258.048 51.204Z" fill="#E0E0E0"/>
<path opacity="0.4" d="M258.048 54.462H171.222L170.628 52.506H257.46L258.048 54.462Z" fill="#E0E0E0"/>
<path opacity="0.4" d="M258.048 57.72H171.222L170.628 55.764H257.46L258.048 57.72Z" fill="#E0E0E0"/>
<path opacity="0.4" d="M258.048 60.978H171.222L170.628 59.022H257.46L258.048 60.978Z" fill="#E0E0E0"/>
<path opacity="0.4" d="M258.048 64.236H171.222L170.628 62.28H257.46L258.048 64.236Z" fill="#E0E0E0"/>
<path opacity="0.4" d="M258.048 67.494H171.222L170.628 65.538H257.46L258.048 67.494Z" fill="#E0E0E0"/>
<path opacity="0.4" d="M258.048 70.752H171.222L170.628 68.796H257.46L258.048 70.752Z" fill="#E0E0E0"/>
<path opacity="0.4" d="M258.048 74.01H171.222L170.628 72.054H257.46L258.048 74.01Z" fill="#E0E0E0"/>
<path opacity="0.4" d="M258.048 77.268H171.222L170.628 75.312H257.46L258.048 77.268Z" fill="#E0E0E0"/>
<path opacity="0.4" d="M258.048 80.526H171.222L170.628 78.57H257.46L258.048 80.526Z" fill="#E0E0E0"/>
<path opacity="0.4" d="M258.048 83.784H171.222L170.628 81.828H257.46L258.048 83.784Z" fill="#E0E0E0"/>
<path opacity="0.4" d="M258.048 87.042H171.222L170.628 85.086H257.46L258.048 87.042Z" fill="#E0E0E0"/>
<path opacity="0.4" d="M258.048 90.3H171.222L170.628 88.344H257.46L258.048 90.3Z" fill="#E0E0E0"/>
<path opacity="0.4" d="M258.048 93.558H171.222L170.628 91.602H257.46L258.048 93.558Z" fill="#E0E0E0"/>
<path opacity="0.4" d="M258.048 96.816H171.222L170.628 94.86H257.46L258.048 96.816Z" fill="#E0E0E0"/>
<path opacity="0.4" d="M258.048 100.074H171.222L170.628 98.118H257.46L258.048 100.074Z" fill="#E0E0E0"/>
<path opacity="0.4" d="M258.048 103.332H171.222L170.628 101.376H257.46L258.048 103.332Z" fill="#E0E0E0"/>
</g>
<path d="M119.215 42.972H48.6367V113.022H119.215V42.972Z" fill="#E6E6E6"/>
<path d="M123.024 42.972H49.3564V113.022H123.024V42.972Z" fill="#F0F0F0"/>
<path d="M119.621 109.627L119.621 46.3752L52.7571 46.3752L52.7571 109.627L119.621 109.627Z" fill="white"/>
<path d="M119.623 109.625L119.623 46.3731H119.203L119.203 109.625H119.623Z" fill="#E6E6E6"/>
<path d="M64.9501 146.778H45.7861V225.714H64.9501V146.778Z" fill="#F0F0F0"/>
<path d="M123.06 225.714H49.4639V229.44H123.06V225.714Z" fill="#F0F0F0"/>
<path d="M64.9513 225.714H126.739L126.739 146.778H64.9513V225.714Z" fill="#F5F5F5"/>
<path d="M72.4871 195.888H119.203V176.61H72.4871V195.888Z" fill="#F0F0F0"/>
<path d="M72.4871 218.679H119.203V199.401H72.4871V218.679Z" fill="#F0F0F0"/>
<path d="M72.4871 173.091H119.203V153.813H72.4871V173.091Z" fill="#F0F0F0"/>
<path d="M129.294 140.298H64.9502V146.778H129.294V140.298Z" fill="#F0F0F0"/>
<path d="M43.1082 146.777H64.9482V140.297H43.1082V146.777Z" fill="#E6E6E6"/>
<path d="M53.1629 140.296H72.2129V126.346H53.1629V140.296Z" fill="#F0F0F0"/>
<path d="M106.009 126.348H72.2109V140.298H106.009V126.348Z" fill="#F5F5F5"/>
<path opacity="0.7" d="M53.163 130.836H106.209V129.27H53.163V130.836Z" fill="#E6E6E6"/>
<path d="M52.1109 129.929H72.2109V125.399H52.1109V129.929Z" fill="#F0F0F0"/>
<path d="M107.058 125.4H72.21V129.93H107.058V125.4Z" fill="#F5F5F5"/>
<path d="M256.986 140.298H192.618L199.626 229.44H263.994L256.986 140.298Z" fill="#F0F0F0"/>
<path d="M260.31 140.298H195.942L202.95 229.44H267.318L260.31 140.298Z" fill="#F5F5F5"/>
<path d="M214.422 217.002L209.37 152.736H248.838L253.89 217.002H214.422Z" fill="white"/>
<path d="M202.202 225.086C208.005 219.282 208.005 209.872 202.202 204.068C196.398 198.265 186.988 198.265 181.184 204.068C175.38 209.872 175.38 219.282 181.184 225.086C186.988 230.89 196.398 230.89 202.202 225.086Z" fill="#E6E6E6"/>
<path opacity="0.7" d="M198.973 205.722C198.091 204.804 197.737 203.712 198.181 203.274C198.631 202.842 199.711 203.232 200.593 204.15C201.475 205.068 201.829 206.16 201.385 206.598C200.935 207.03 199.855 206.634 198.973 205.722Z" fill="#E6E6E6"/>
<path opacity="0.7" d="M192.798 202.932C191.544 202.692 190.626 202.002 190.746 201.39C190.866 200.778 191.976 200.478 193.224 200.718C194.478 200.958 195.396 201.648 195.276 202.26C195.162 202.872 194.052 203.172 192.798 202.932Z" fill="#E6E6E6"/>
<path opacity="0.7" d="M194.065 208.122C192.865 207.702 192.097 206.76 192.355 206.022C192.613 205.284 193.801 205.026 195.001 205.452C196.201 205.872 196.969 206.814 196.711 207.552C196.453 208.284 195.271 208.542 194.065 208.122Z" fill="#E6E6E6"/>
<path d="M150 256.536C214.249 256.536 266.334 253.495 266.334 249.744C266.334 245.993 214.249 242.952 150 242.952C85.7505 242.952 33.666 245.993 33.666 249.744C33.666 253.495 85.7505 256.536 150 256.536Z" fill="#F5F5F5"/>
<path d="M124.404 95.502C116.778 92.832 119.832 71.37 101.502 82.914C97.3504 85.53 92.3044 102.69 95.7904 106.674C100.656 112.236 133.398 98.652 124.404 95.502Z" fill="#263238"/>
<path d="M102.949 115.878C102.799 116.16 102.709 116.316 102.583 116.52L102.235 117.078C102.001 117.444 101.749 117.792 101.497 118.134C100.987 118.818 100.435 119.478 99.8467 120.108C98.6647 121.356 97.3147 122.49 95.7907 123.414C94.2787 124.35 92.5627 125.052 90.7627 125.406C89.8627 125.574 88.9507 125.694 88.0387 125.682C87.5827 125.7 87.1327 125.652 86.6767 125.634L86.0047 125.556L85.6687 125.514C85.5367 125.496 85.3507 125.46 85.2007 125.43C83.9107 125.136 82.9207 124.464 82.1767 123.786C81.4207 123.096 80.8627 122.364 80.3707 121.632C79.3987 120.162 78.7327 118.662 78.1507 117.162C77.0167 114.144 76.3087 111.132 75.8467 108.006L78.4267 107.424C79.3927 110.19 80.5147 112.992 81.8107 115.542C82.4647 116.814 83.1907 118.026 83.9827 119.028C84.3787 119.526 84.7987 119.964 85.2007 120.264C85.6027 120.57 85.9567 120.714 86.1607 120.726L86.9467 120.762C87.2527 120.744 87.5587 120.768 87.8647 120.726C88.4707 120.69 89.0647 120.576 89.6527 120.438C90.8167 120.132 91.9327 119.622 92.9887 118.944C94.0447 118.272 95.0107 117.396 95.9047 116.43C96.3547 115.95 96.7807 115.44 97.1767 114.912C97.3747 114.648 97.5667 114.378 97.7467 114.108L98.0107 113.706L98.2207 113.364L102.949 115.878Z" fill="#FFC3BD"/>
<path d="M104.4 109.644C99.0181 109.668 94.7461 114.636 94.7461 114.636L101.322 123.516C101.322 123.516 106.644 118.512 107.208 115.674C107.802 112.728 107.64 109.626 104.4 109.644Z" fill="#263238"/>
<path d="M78.1803 108.702L80.5383 104.802L75.0783 104.94C75.0783 104.94 74.6463 107.514 76.0863 109.14L78.1803 108.702Z" fill="#FFC3BD"/>
<path d="M80.3161 100.236L76.2841 101.094L75.0781 104.94L80.5321 104.802L80.3161 100.236Z" fill="#FFC3BD"/>
<path d="M131.46 244.2L126.306 244.692L123.678 232.68L128.832 232.188L131.46 244.2Z" fill="#FFC3BD"/>
<path d="M178.249 228.648L174.343 232.122L165.049 224.196L168.949 220.722L178.249 228.648Z" fill="#FFC3BD"/>
<path d="M172.932 231.456L175.194 226.044C175.278 225.846 175.482 225.744 175.686 225.798L180.228 226.974C180.702 227.094 180.96 227.652 180.762 228.108C179.94 229.98 179.448 230.844 178.452 233.226C177.84 234.69 176.7 238.02 175.854 240.042C175.026 242.022 172.962 241.338 173.136 240.42C173.904 236.304 173.43 234.114 172.896 232.392C172.8 232.074 172.812 231.744 172.932 231.456Z" fill="#263238"/>
<path d="M125.658 243.132H131.856C132.084 243.132 132.282 243.288 132.348 243.51L133.698 248.412C133.836 248.922 133.464 249.402 132.942 249.396C130.776 249.36 129.72 249.234 126.99 249.234C125.316 249.234 120.978 249.408 118.662 249.408C116.4 249.408 115.926 247.116 116.862 246.912C121.062 245.982 123.486 244.698 124.782 243.474C125.016 243.252 125.328 243.132 125.658 243.132Z" fill="#263238"/>
<path opacity="0.2" d="M123.678 232.686L125.034 238.878H130.296L128.838 232.194L123.678 232.686Z" fill="black"/>
<path opacity="0.2" d="M168.955 220.722L165.049 224.196L169.843 228.282L173.749 224.808L168.955 220.722Z" fill="black"/>
<path d="M99.3606 111.09C99.3606 111.09 97.2006 112.602 110.221 140.796C118.333 138.54 126.715 136.206 130.663 135.108C128.005 126.882 126.565 121.758 125.791 103.578C125.791 103.578 121.249 103.836 116.791 104.85C113.305 105.642 110.455 106.314 107.509 107.436C103.621 108.906 99.3606 111.09 99.3606 111.09Z" fill="#263238"/>
<path d="M112.957 94.656C113.203 97.806 114.145 103.44 116.785 104.85C116.785 104.85 117.715 111.57 112.537 117.684C105.439 114 107.503 107.436 107.503 107.436C110.611 105.714 109.837 103.266 108.613 101.106L112.957 94.656Z" fill="#FFC3BD"/>
<path opacity="0.2" d="M114.048 100.644L110.484 99.438C110.496 99.804 110.664 100.812 111.012 101.472C111.618 102.642 113.598 103.08 115.014 102.936C114.624 102.258 114.306 101.472 114.048 100.644Z" fill="black"/>
<path d="M102.619 91.362C103.999 96.36 104.473 98.508 107.575 100.566C112.243 103.668 118.087 100.884 118.231 95.574C118.363 90.792 116.089 83.424 110.707 82.452C105.403 81.492 101.245 86.358 102.619 91.362Z" fill="#FFC3BD"/>
<path d="M110.07 81.63C109.662 85.026 107.13 96.702 102.354 96.618C98.4118 93.18 100.362 86.7 101.58 84.072C102.798 81.444 110.07 81.63 110.07 81.63Z" fill="#263238"/>
<path d="M108.06 84.036C110.46 85.314 115.182 85.872 114.426 83.922C113.67 81.972 113.892 80.358 110.64 80.394C107.394 80.43 108.06 84.036 108.06 84.036Z" fill="#263238"/>
<path d="M102.792 96.096C103.116 97.122 103.884 97.902 104.676 98.298C105.864 98.892 106.71 97.89 106.59 96.636C106.482 95.508 105.732 93.84 104.436 93.768C103.164 93.69 102.426 94.92 102.792 96.096Z" fill="#FFC3BD"/>
<path d="M110.221 140.802C110.221 140.802 109.039 182.1 112.351 197.688C115.795 213.9 122.509 237.078 122.509 237.078L132.301 236.604C132.301 236.604 127.561 207.198 126.415 194.664C124.831 177.384 125.197 136.632 125.197 136.632L110.221 140.802Z" fill="#B8BCC7"/>
<path opacity="0.4" d="M110.221 140.802C110.221 140.802 109.039 182.1 112.351 197.688C115.795 213.9 122.509 237.078 122.509 237.078L132.301 236.604C132.301 236.604 127.561 207.198 126.415 194.664C124.831 177.384 125.197 136.632 125.197 136.632L110.221 140.802Z" fill="#FAFAFA"/>
<path opacity="0.2" d="M125.161 152.166C123.637 148.344 122.299 146.238 122.131 150.048C121.783 158.106 123.187 167.316 125.383 171.882C125.245 165.054 125.191 158.082 125.161 152.166Z" fill="black"/>
<path d="M132.984 237.078L121.818 237.612L120.504 233.532L132.6 232.59L132.984 237.078Z" fill="#263238"/>
<path d="M115.62 139.296C115.62 139.296 128.16 173.028 136.608 191.652C143.436 206.694 167.622 227.718 167.622 227.718L173.118 223.074C173.118 223.074 155.634 199.11 150.912 188.91C135.81 156.246 139.752 142.41 130.662 135.114L115.62 139.296Z" fill="#D2D5DB"/>
<path opacity="0.4" d="M115.62 139.296C115.62 139.296 128.16 173.028 136.608 191.652C143.436 206.694 167.622 227.718 167.622 227.718L173.118 223.074C173.118 223.074 155.634 199.11 150.912 188.91C135.81 156.246 139.752 142.41 130.662 135.114L115.62 139.296Z" fill="#C8C8C8"/>
<path d="M173.569 223.02L167.425 228.444L164.299 226.182L171.541 220.008L173.569 223.02Z" fill="#263238"/>
<path d="M130.633 133.824L132.067 135.396C132.175 135.516 132.049 135.708 131.815 135.774L110.377 141.744C110.191 141.798 110.017 141.75 109.969 141.636L109.273 139.86C109.225 139.734 109.357 139.584 109.555 139.53L130.255 133.77C130.411 133.722 130.561 133.746 130.633 133.824Z" fill="#FBFBFB"/>
<path d="M128.496 136.914L129.048 136.758C129.156 136.728 129.228 136.644 129.198 136.578L128.274 134.274C128.25 134.208 128.136 134.178 128.022 134.208L127.47 134.364C127.362 134.394 127.29 134.478 127.32 134.544L128.244 136.848C128.274 136.914 128.388 136.944 128.496 136.914Z" fill="#263238"/>
<path d="M111.985 141.51L112.537 141.354C112.645 141.324 112.717 141.24 112.687 141.174L111.763 138.87C111.739 138.804 111.625 138.774 111.511 138.804L110.959 138.96C110.851 138.99 110.779 139.074 110.809 139.14L111.733 141.444C111.763 141.51 111.877 141.54 111.985 141.51Z" fill="#263238"/>
<path d="M120.24 139.212L120.792 139.056C120.9 139.026 120.972 138.942 120.942 138.876L120.018 136.572C119.994 136.506 119.88 136.476 119.766 136.506L119.214 136.662C119.106 136.692 119.034 136.776 119.064 136.842L119.988 139.146C120.018 139.212 120.132 139.242 120.24 139.212Z" fill="#263238"/>
<path d="M110.598 91.158C110.682 91.572 110.976 91.86 111.246 91.8C111.516 91.746 111.666 91.362 111.576 90.948C111.492 90.534 111.198 90.246 110.928 90.306C110.658 90.366 110.508 90.744 110.598 91.158Z" fill="#263238"/>
<path d="M115.261 90.174C115.345 90.588 115.639 90.876 115.909 90.816C116.179 90.762 116.329 90.378 116.239 89.964C116.155 89.55 115.861 89.262 115.591 89.322C115.321 89.382 115.171 89.766 115.261 90.174Z" fill="#263238"/>
<path d="M115.477 89.376L116.407 88.884C116.407 88.884 116.059 89.76 115.477 89.376Z" fill="#263238"/>
<path d="M114.174 91.146C114.174 91.146 115.248 92.772 116.196 93.468C115.758 94.092 114.786 94.056 114.786 94.056L114.174 91.146Z" fill="#C56A61"/>
<path d="M110.52 95.064C110.484 95.094 110.46 95.142 110.472 95.19C110.49 95.256 110.556 95.298 110.622 95.28C112.41 94.842 113.568 95.886 113.574 95.898C113.622 95.946 113.7 95.946 113.748 95.892C113.796 95.844 113.79 95.766 113.742 95.718C113.694 95.67 112.482 94.566 110.562 95.04C110.55 95.046 110.538 95.052 110.52 95.064Z" fill="#263238"/>
<path d="M108.967 89.91C109.003 89.886 109.033 89.856 109.051 89.814C109.519 88.818 110.425 88.68 110.431 88.68C110.569 88.662 110.659 88.536 110.641 88.398C110.623 88.26 110.497 88.17 110.359 88.188C110.311 88.194 109.183 88.362 108.601 89.604C108.541 89.73 108.595 89.874 108.721 89.934C108.805 89.97 108.901 89.958 108.967 89.91Z" fill="#263238"/>
<path d="M117.012 87.546C117.024 87.54 117.036 87.528 117.048 87.516C117.144 87.42 117.144 87.264 117.042 87.168C116.064 86.208 114.948 86.442 114.9 86.454C114.768 86.484 114.684 86.616 114.714 86.748C114.744 86.88 114.876 86.964 115.008 86.934C115.05 86.928 115.92 86.754 116.7 87.516C116.784 87.6 116.916 87.612 117.012 87.546Z" fill="#263238"/>
<path d="M129.456 108.294C129.918 108.828 130.494 109.458 131.034 110.034C131.586 110.622 132.156 111.192 132.738 111.756C133.896 112.884 135.078 113.982 136.32 114.996C138.804 117.018 141.432 118.848 144.234 120.12C146.874 121.314 150.084 121.83 153.312 122.058C154.932 122.178 156.576 122.22 158.226 122.19C159.87 122.178 161.556 122.094 163.164 121.974L163.656 124.572C160.23 125.466 156.804 125.928 153.252 126.084C151.482 126.132 149.688 126.102 147.876 125.88C146.064 125.664 144.216 125.286 142.398 124.584C140.664 123.918 139.02 123.102 137.466 122.172C135.906 121.248 134.43 120.222 133.026 119.118C131.622 118.014 130.272 116.856 128.994 115.626C128.358 115.008 127.734 114.378 127.122 113.73C126.498 113.07 125.94 112.44 125.316 111.672L129.456 108.294Z" fill="#FFC3BD"/>
<path d="M162.498 124.824L167.664 124.014L163.398 119.952C163.398 119.952 161.37 121.596 161.376 123.768L162.498 124.824Z" fill="#FFC3BD"/>
<path d="M170.448 119.898L166.854 117.87L163.404 119.952L167.664 124.014L170.448 119.898Z" fill="#FFC3BD"/>
<path d="M125.785 103.578C128.005 103.632 132.427 109.998 132.427 109.998L126.061 117.888C126.061 117.888 122.353 112.692 122.479 109.806C122.611 106.8 123.253 103.518 125.785 103.578Z" fill="#263238"/>
<path d="M171.948 234.294C171.888 234.276 171.828 234.246 171.768 234.21C171.588 234.102 171.546 233.952 171.54 233.85C171.522 233.184 173.076 232.116 173.256 231.996C173.298 231.966 173.352 231.966 173.394 231.996C173.436 232.02 173.46 232.074 173.448 232.122C173.334 232.806 173.052 234 172.452 234.282C172.29 234.348 172.122 234.354 171.948 234.294ZM173.148 232.368C172.536 232.812 171.78 233.49 171.786 233.838C171.786 233.88 171.798 233.94 171.888 233.994C172.056 234.096 172.206 234.114 172.344 234.048C172.674 233.898 172.962 233.28 173.148 232.368Z" fill="#407BFF"/>
<path d="M171.181 232.716C171.133 232.698 171.085 232.674 171.043 232.65C170.947 232.584 170.803 232.434 170.887 232.134C170.941 231.942 171.061 231.804 171.241 231.714C171.925 231.384 173.317 231.96 173.371 231.984C173.413 232.002 173.443 232.038 173.443 232.08C173.449 232.122 173.431 232.17 173.395 232.194C172.981 232.512 171.757 232.914 171.181 232.716ZM173.011 232.11C172.531 231.948 171.739 231.744 171.343 231.936C171.229 231.99 171.151 232.08 171.121 232.2C171.079 232.356 171.127 232.41 171.181 232.446C171.481 232.65 172.495 232.428 173.053 232.128C173.041 232.116 173.029 232.116 173.011 232.11Z" fill="#407BFF"/>
<path d="M122.911 244.158C122.431 244.158 121.987 244.086 121.699 243.87C121.507 243.72 121.399 243.522 121.387 243.276C121.375 243.09 121.465 242.988 121.543 242.94C122.107 242.562 124.213 243.516 124.633 243.714C124.681 243.738 124.711 243.786 124.705 243.84C124.699 243.894 124.663 243.936 124.609 243.948C124.153 244.044 123.505 244.158 122.911 244.158ZM121.921 243.09C121.813 243.09 121.729 243.108 121.675 243.144C121.651 243.162 121.621 243.186 121.627 243.264C121.639 243.438 121.705 243.576 121.843 243.678C122.209 243.954 123.061 243.99 124.171 243.786C123.415 243.444 122.419 243.09 121.921 243.09Z" fill="#407BFF"/>
<path d="M124.578 243.948C124.56 243.948 124.548 243.948 124.53 243.936C123.828 243.648 122.418 242.52 122.496 241.932C122.514 241.806 122.598 241.644 122.922 241.608C124.146 241.458 124.674 243.702 124.698 243.792C124.71 243.834 124.692 243.882 124.656 243.912C124.632 243.936 124.608 243.948 124.578 243.948ZM123.036 241.848C123.006 241.848 122.982 241.848 122.952 241.854C122.82 241.872 122.754 241.908 122.742 241.968C122.694 242.31 123.672 243.198 124.386 243.594C124.224 243.054 123.78 241.848 123.036 241.848Z" fill="#407BFF"/>
<path d="M110.814 90.354L111.744 89.862C111.744 89.862 111.402 90.744 110.814 90.354Z" fill="#263238"/>
<path d="M141.558 146.694C141.558 146.694 130.896 155.406 134.862 174.57C137.202 185.868 144.252 191.61 150.426 190.356C156.6 189.102 160.854 181.062 158.598 169.746C154.776 150.558 141.558 146.694 141.558 146.694Z" fill="#ADB2BD"/>
<path opacity="0.2" d="M141.558 146.694C141.558 146.694 130.896 155.406 134.862 174.57C137.202 185.868 144.252 191.61 150.426 190.356C156.6 189.102 160.854 181.062 158.598 169.746C154.776 150.558 141.558 146.694 141.558 146.694Z" fill="white"/>
<path d="M208.77 109.518C208.77 109.518 189.186 105.162 170.832 126.966C160.008 139.824 159.786 153.072 166.782 159.006C173.778 164.94 186.816 162.57 197.736 149.796C216.258 128.13 208.77 109.518 208.77 109.518Z" fill="#ADB2BD"/>
<path d="M183.059 22.998C183.059 22.998 178.685 24.204 177.323 30.504C176.519 34.218 177.881 36.894 179.909 37.338C181.937 37.782 184.289 35.928 185.117 32.22C186.527 25.926 183.059 22.998 183.059 22.998Z" fill="#ADB2BD"/>
<path d="M148.38 216.954C145.812 207.93 144.708 198.642 144.882 189.528C145.05 180.408 146.472 171.48 148.806 162.954C149.976 158.694 151.368 154.524 152.946 150.462C153.732 148.428 154.572 146.424 155.448 144.444C155.874 143.448 156.348 142.476 156.792 141.492L157.464 140.07L158.124 138.69C161.622 131.334 164.946 123.942 167.952 116.43C170.958 108.924 173.652 101.304 175.83 93.552C178.002 85.8 179.676 77.904 180.48 69.9C181.278 61.908 181.218 53.796 179.736 45.846C178.26 37.914 175.296 30.162 170.7 23.31C176.028 29.604 179.97 37.152 182.406 45.192C184.854 53.238 185.874 61.71 185.97 70.14C186.06 78.582 185.238 87.018 183.882 95.328C182.514 103.644 180.606 111.846 178.368 119.934C176.13 128.022 173.562 135.996 170.844 143.88L170.334 145.356L170.076 146.094L169.842 146.79C169.542 147.72 169.206 148.644 168.93 149.58C168.342 151.446 167.796 153.312 167.304 155.19C166.314 158.94 165.51 162.714 164.916 166.482C163.734 174.024 163.422 181.584 164.118 188.916C164.808 196.242 166.518 203.346 169.224 209.916L148.38 216.954Z" fill="#ADB2BD"/>
<path opacity="0.2" d="M148.38 216.954C145.812 207.93 144.708 198.642 144.882 189.528C145.05 180.408 146.472 171.48 148.806 162.954C149.976 158.694 151.368 154.524 152.946 150.462C153.732 148.428 154.572 146.424 155.448 144.444C155.874 143.448 156.348 142.476 156.792 141.492L157.464 140.07L158.124 138.69C161.622 131.334 164.946 123.942 167.952 116.43C170.958 108.924 173.652 101.304 175.83 93.552C178.002 85.8 179.676 77.904 180.48 69.9C181.278 61.908 181.218 53.796 179.736 45.846C178.26 37.914 175.296 30.162 170.7 23.31C176.028 29.604 179.97 37.152 182.406 45.192C184.854 53.238 185.874 61.71 185.97 70.14C186.06 78.582 185.238 87.018 183.882 95.328C182.514 103.644 180.606 111.846 178.368 119.934C176.13 128.022 173.562 135.996 170.844 143.88L170.334 145.356L170.076 146.094L169.842 146.79C169.542 147.72 169.206 148.644 168.93 149.58C168.342 151.446 167.796 153.312 167.304 155.19C166.314 158.94 165.51 162.714 164.916 166.482C163.734 174.024 163.422 181.584 164.118 188.916C164.808 196.242 166.518 203.346 169.224 209.916L148.38 216.954Z" fill="black"/>
<path d="M189.737 195.504L189.119 202.368L185.123 246.966C184.985 248.538 183.665 249.744 182.087 249.744H131.429C129.851 249.744 128.531 248.538 128.393 246.966L124.397 202.368L123.779 195.504H189.737Z" fill="#ADB2BD"/>
<path d="M189.011 220.317L187.579 236.327L188.177 236.38L189.609 220.37L189.011 220.317Z" fill="#ADB2BD"/>
<path d="M189.769 211.849L189.431 215.632L190.028 215.685L190.367 211.903L189.769 211.849Z" fill="#ADB2BD"/>
<path d="M146.808 54.21C146.808 54.21 135.492 69.276 147.03 93.432C153.834 107.676 165.084 112.998 172.872 109.314C180.66 105.63 183.684 93.558 176.988 79.26C165.63 55.02 146.808 54.21 146.808 54.21Z" fill="#ADB2BD"/>
<path opacity="0.2" d="M146.808 54.21C146.808 54.21 135.492 69.276 147.03 93.432C153.834 107.676 165.084 112.998 172.872 109.314C180.66 105.63 183.684 93.558 176.988 79.26C165.63 55.02 146.808 54.21 146.808 54.21Z" fill="black"/>
<path opacity="0.2" d="M189.738 195.504L189.12 202.368H124.404L123.786 195.504H189.738Z" fill="black"/>
<path d="M193.656 198.936H119.862C119.07 198.936 118.428 198.294 118.428 197.502V188.472C118.428 187.68 119.07 187.038 119.862 187.038H193.656C194.448 187.038 195.09 187.68 195.09 188.472V197.502C195.09 198.294 194.448 198.936 193.656 198.936Z" fill="#ADB2BD"/>
<path d="M222.251 88.3431C232.853 80.365 234.979 65.3035 227.001 54.7023C219.023 44.1011 203.961 41.9747 193.36 49.9528C182.759 57.9309 180.633 72.9924 188.611 83.5936C196.589 94.1948 211.65 96.3212 222.251 88.3431Z" fill="#ADB2BD"/>
<path opacity="0.1" d="M227.083 75.114C229.369 66.162 225.073 56.55 216.409 52.47C206.587 47.832 194.863 52.038 190.219 61.86C187.093 68.472 187.981 75.948 191.887 81.54C187.369 75.732 186.211 67.644 189.565 60.534C194.323 50.46 206.341 46.146 216.415 50.904C225.625 55.248 230.023 65.664 227.083 75.114Z" fill="black"/>
<g clip-path="url(#clip0)">
<path d="M217.295 70.4649C217.209 70.2914 217.209 70.0931 217.295 69.9154L218.08 68.3C218.516 67.3993 218.171 66.3292 217.291 65.8623L215.713 65.0195C215.544 64.9286 215.425 64.7674 215.392 64.5774L215.084 62.809C214.912 61.8257 214.007 61.1605 213.021 61.301L211.25 61.5572C211.06 61.5861 210.871 61.5241 210.732 61.3878L209.445 60.14C208.73 59.4459 207.608 59.4459 206.893 60.14L205.607 61.3878C205.467 61.5241 205.278 61.5861 205.089 61.5572L203.317 61.3051C202.331 61.1647 201.427 61.8257 201.254 62.8132L200.954 64.5815C200.921 64.7716 200.802 64.9327 200.633 65.0236L199.055 65.8664C198.176 66.3333 197.83 67.4075 198.266 68.3041L199.051 69.9195C199.137 70.0931 199.137 70.2914 199.051 70.4691L198.266 72.0804C197.83 72.9811 198.176 74.0512 199.055 74.518L200.633 75.3609C200.802 75.4518 200.921 75.6129 200.954 75.803L201.262 77.5713C201.419 78.4678 202.183 79.0959 203.062 79.0959C203.149 79.0959 203.235 79.0917 203.326 79.0752L205.097 78.8232C205.286 78.7942 205.475 78.8562 205.615 78.9926L206.901 80.2403C207.259 80.5874 207.719 80.7609 208.175 80.7609C208.636 80.7609 209.092 80.5874 209.449 80.2403L210.736 78.9926C210.876 78.8562 211.065 78.7942 211.254 78.8232L213.025 79.0752C214.011 79.2157 214.916 78.5546 215.088 77.5672L215.397 75.7988C215.429 75.6088 215.549 75.4476 215.717 75.3567L217.295 74.5139C218.175 74.047 218.52 72.9728 218.084 72.0762L217.295 70.4649ZM216.724 73.4397L215.146 74.2825C214.644 74.5511 214.299 75.0303 214.201 75.5922L213.892 77.3606C213.835 77.6952 213.526 77.9183 213.194 77.8688L211.422 77.6167C210.859 77.5382 210.3 77.72 209.889 78.1167L208.603 79.3644C208.36 79.5999 207.982 79.5999 207.74 79.3644L206.453 78.1167C206.108 77.782 205.656 77.5961 205.183 77.5961C205.097 77.5961 205.011 77.6002 204.92 77.6126L203.149 77.8646C202.816 77.9101 202.508 77.687 202.45 77.3564L202.142 75.5881C202.043 75.0221 201.698 74.5469 201.197 74.2784L199.618 73.4355C199.322 73.2785 199.203 72.915 199.351 72.6092L200.136 70.9938C200.387 70.4773 200.387 69.8906 200.136 69.3742L199.351 67.7587C199.203 67.453 199.322 67.0935 199.618 66.9324L201.201 66.1019C201.702 65.8334 202.047 65.3541 202.146 64.7922L202.454 63.0239C202.512 62.6892 202.82 62.4661 203.153 62.5157L204.924 62.7677C205.487 62.8462 206.046 62.6644 206.457 62.2678L207.744 61.0201C207.986 60.7846 208.364 60.7846 208.607 61.0201L209.893 62.2678C210.304 62.6644 210.863 62.8504 211.426 62.7677L213.198 62.5157C213.531 62.4703 213.839 62.6934 213.896 63.0239L214.205 64.7922C214.303 65.3583 214.649 65.8334 215.15 66.1019L216.728 66.9448C217.024 67.1018 217.143 67.4654 216.995 67.7711L216.21 69.3866C215.96 69.903 215.96 70.4897 216.21 71.0062L216.995 72.6216C217.139 72.9191 217.02 73.2827 216.724 73.4397Z" fill="white"/>
<path d="M212.606 65.7345C212.367 65.4949 211.985 65.4949 211.747 65.7345L203.74 73.787C203.502 74.0267 203.502 74.4109 203.74 74.6505C203.859 74.7704 204.016 74.8282 204.168 74.8282C204.32 74.8282 204.48 74.7704 204.595 74.6505L212.606 66.598C212.844 66.3584 212.844 65.9742 212.606 65.7345Z" fill="white"/>
<path d="M205.746 64.7016C204.517 64.7016 203.522 65.7056 203.522 66.9368C203.522 68.168 204.521 69.172 205.746 69.172C206.971 69.172 207.969 68.168 207.969 66.9368C207.969 65.7056 206.971 64.7016 205.746 64.7016ZM205.746 67.9573C205.187 67.9573 204.735 67.5028 204.735 66.9409C204.735 66.379 205.187 65.9246 205.746 65.9246C206.305 65.9246 206.757 66.379 206.757 66.9409C206.757 67.4987 206.305 67.9573 205.746 67.9573Z" fill="white"/>
<path d="M210.6 71.209C209.372 71.209 208.377 72.213 208.377 73.4442C208.377 74.6754 209.376 75.6794 210.6 75.6794C211.829 75.6794 212.824 74.6754 212.824 73.4442C212.824 72.213 211.829 71.209 210.6 71.209ZM210.6 74.4647C210.041 74.4647 209.589 74.0102 209.589 73.4483C209.589 72.8864 210.041 72.4319 210.6 72.4319C211.159 72.4319 211.612 72.8864 211.612 73.4483C211.612 74.0102 211.159 74.4647 210.6 74.4647Z" fill="white"/>
</g>
<defs>
<clipPath id="clip0">
<rect width="20.1923" height="21.1538" fill="white" transform="translate(198.077 59.6154)"/>
</clipPath>
</defs>
</svg>
