<svg width="300" height="300" viewBox="0 0 300 300" fill="none" xmlns="http://www.w3.org/2000/svg">
<path d="M300 229.44H0V229.59H300V229.44Z" fill="#EBEBEB"/>
<path d="M269.94 239.094H250.068V239.244H269.94V239.094Z" fill="#EBEBEB"/>
<path d="M198.732 240.726H193.518V240.876H198.732V240.726Z" fill="#EBEBEB"/>
<path d="M249.468 233.526H237.954V233.676H249.468V233.526Z" fill="#EBEBEB"/>
<path d="M57.3896 234.534H31.4756V234.684H57.3896V234.534Z" fill="#EBEBEB"/>
<path d="M66.5343 234.534H62.7363V234.684H66.5343V234.534Z" fill="#EBEBEB"/>
<path d="M135.09 237.066H78.8818V237.216H135.09V237.066Z" fill="#EBEBEB"/>
<path d="M142.206 202.68H26.3518C24.4618 202.68 22.9258 201.144 22.9258 199.254V36.396C22.9258 34.506 24.4618 32.97 26.3518 32.97H142.212C144.102 32.97 145.638 34.506 145.638 36.396V199.254C145.632 201.144 144.096 202.68 142.206 202.68ZM26.3518 33.12C24.5458 33.12 23.0758 34.59 23.0758 36.396V199.254C23.0758 201.06 24.5458 202.53 26.3518 202.53H142.212C144.018 202.53 145.488 201.06 145.488 199.254V36.396C145.488 34.59 144.018 33.12 142.212 33.12H26.3518Z" fill="#EBEBEB"/>
<path d="M271.986 202.68H156.126C154.236 202.68 152.7 201.144 152.7 199.254V36.396C152.7 34.506 154.236 32.97 156.126 32.97H271.986C273.876 32.97 275.412 34.506 275.412 36.396V199.254C275.412 201.144 273.876 202.68 271.986 202.68ZM156.126 33.12C154.32 33.12 152.85 34.59 152.85 36.396V199.254C152.85 201.06 154.32 202.53 156.126 202.53H271.986C273.792 202.53 275.262 201.06 275.262 199.254V36.396C275.262 34.59 273.792 33.12 271.986 33.12H156.126Z" fill="#EBEBEB"/>
<path d="M246.888 208.686C246.888 208.686 242.28 199.662 247.548 190.764C252.816 181.866 254.346 179.772 250.986 177.948C247.626 176.124 246.084 185.064 246.084 185.064C246.084 185.064 243.252 178.914 245.592 172.482C247.932 166.044 249.396 155.562 246.204 154.44C243.012 153.318 245.592 167.514 242.826 172.356C242.826 172.356 240.498 166.968 240.114 161.796C239.73 156.63 240.33 148.374 237.81 146.256C235.29 144.138 233.676 145.602 236.154 157.008C238.632 168.414 238.614 177.69 238.614 177.69C238.614 177.69 233.142 162.726 229.47 162.288C225.798 161.85 225.804 166.698 228.948 170.898C232.092 175.104 238.152 182.628 239.148 186.504C239.148 186.504 233.142 175.242 227.742 178.692C222.342 182.142 232.446 188.946 236.946 191.4C241.452 193.86 244.578 209.262 244.578 209.262L246.888 208.686Z" fill="#E0E0E0"/>
<path d="M243.245 212.388C243.245 212.388 247.733 203.304 242.351 194.478C236.963 185.652 235.409 183.582 238.745 181.71C242.081 179.844 243.737 188.76 243.737 188.76C243.737 188.76 246.485 182.574 244.061 176.172C241.637 169.77 240.029 159.306 243.209 158.142C246.383 156.972 243.995 171.21 246.827 176.01C246.827 176.01 249.083 170.592 249.395 165.42C249.707 160.248 248.999 152.004 251.495 149.85C253.991 147.696 255.623 149.142 253.295 160.584C250.967 172.026 251.111 181.296 251.111 181.296C251.111 181.296 256.379 166.26 260.045 165.774C263.711 165.288 263.771 170.136 260.687 174.378C257.603 178.62 251.639 186.234 250.697 190.122C250.697 190.122 256.553 178.782 262.001 182.16C267.449 185.538 257.435 192.474 252.965 194.994C248.495 197.514 245.573 212.958 245.573 212.958L243.245 212.388Z" fill="#E6E6E6"/>
<path d="M263.958 205.914H226.866L229.866 229.722H260.952L263.958 205.914Z" fill="#F0F0F0"/>
<path d="M197.797 55.236H130.225V130.008H197.797V55.236Z" fill="#E9E9E9"/>
<path d="M195 58.2H133.2V127.2H195V58.2Z" fill="#F4F4F4"/>
<path d="M150.666 58.2L133.2 123.612V88.2L141.192 58.2H150.666Z" fill="white"/>
<path d="M158.473 58.2L140.053 127.2H136.579L154.999 58.2H158.473Z" fill="white"/>
<path d="M195 77.016V112.434L191.088 127.2H181.614L195 77.016Z" fill="white"/>
<path d="M165.211 55.236H162.811V130.008H165.211V55.236Z" fill="#E9E9E9"/>
<path d="M196.5 70.41H131.4V72.81H196.5V70.41Z" fill="#E9E9E9"/>
<path d="M105.396 55.236H37.8242V130.008H105.396V55.236Z" fill="#E9E9E9"/>
<path d="M102.6 58.2H40.7998V127.2H102.6V58.2Z" fill="#F4F4F4"/>
<path d="M58.2658 58.2L40.7998 123.612V88.2L48.7918 58.2H58.2658Z" fill="white"/>
<path d="M66.0727 58.2L47.6527 127.2H44.1787L62.5987 58.2H66.0727Z" fill="white"/>
<path d="M102.6 77.016V112.434L98.6879 127.2H89.2139L102.6 77.016Z" fill="white"/>
<path d="M72.8102 55.236H70.4102V130.008H72.8102V55.236Z" fill="#E9E9E9"/>
<path d="M104.1 70.41H39V72.81H104.1V70.41Z" fill="#E9E9E9"/>
<path d="M150 256.536C214.249 256.536 266.334 253.495 266.334 249.744C266.334 245.993 214.249 242.952 150 242.952C85.7505 242.952 33.666 245.993 33.666 249.744C33.666 253.495 85.7505 256.536 150 256.536Z" fill="#F5F5F5"/>
<path d="M228.996 229.722H136.902C134.532 229.722 132.762 227.802 132.948 225.426L144.558 76.482C144.744 74.112 146.814 72.186 149.184 72.186H241.278C243.648 72.186 245.418 74.106 245.232 76.482L233.622 225.426C233.436 227.796 231.366 229.722 228.996 229.722Z" fill="#2E353A"/>
<path opacity="0.2" d="M228.996 229.722H136.902C134.532 229.722 132.762 227.802 132.948 225.426L144.558 76.482C144.744 74.112 146.814 72.186 149.184 72.186H241.278C243.648 72.186 245.418 74.106 245.232 76.482L233.622 225.426C233.436 227.796 231.366 229.722 228.996 229.722Z" fill="white"/>
<path d="M216.522 81.924H172.422C171.594 81.924 170.976 81.252 171.042 80.424L171.72 71.718C171.786 70.89 172.506 70.218 173.334 70.218H217.434C218.262 70.218 218.88 70.89 218.82 71.718L218.142 80.424C218.07 81.252 217.35 81.924 216.522 81.924Z" fill="#545965"/>
<path opacity="0.2" d="M216.522 81.924H172.422C171.594 81.924 170.976 81.252 171.042 80.424L171.72 71.718C171.786 70.89 172.506 70.218 173.334 70.218H217.434C218.262 70.218 218.88 70.89 218.82 71.718L218.142 80.424C218.07 81.252 217.35 81.924 216.522 81.924Z" fill="black"/>
<path d="M198.624 72.918H191.724L191.994 69.468C192.144 67.56 193.806 66.018 195.714 66.018C197.622 66.018 199.044 67.566 198.894 69.468L198.624 72.918Z" fill="#545965"/>
<path opacity="0.4" d="M198.624 72.918H191.724L191.994 69.468C192.144 67.56 193.806 66.018 195.714 66.018C197.622 66.018 199.044 67.566 198.894 69.468L198.624 72.918Z" fill="white"/>
<path d="M227.754 223.5H139.11L150.42 78.402H239.064L227.754 223.5Z" fill="white"/>
<path d="M208.32 85.998H179.988C178.038 85.998 176.58 84.414 176.73 82.458L177.09 77.85C177.24 75.9 178.95 74.31 180.9 74.31H209.232C211.182 74.31 212.64 75.894 212.49 77.85L212.13 82.458C211.974 84.408 210.27 85.998 208.32 85.998ZM180.804 75.516C179.514 75.516 178.386 76.566 178.29 77.85L177.93 82.458C177.828 83.748 178.794 84.792 180.084 84.792H208.416C209.706 84.792 210.834 83.742 210.93 82.458L211.29 77.85C211.392 76.56 210.426 75.516 209.136 75.516H180.804Z" fill="#545965"/>
<g opacity="0.4">
<path opacity="0.4" d="M208.32 85.998H179.988C178.038 85.998 176.58 84.414 176.73 82.458L177.09 77.85C177.24 75.9 178.95 74.31 180.9 74.31H209.232C211.182 74.31 212.64 75.894 212.49 77.85L212.13 82.458C211.974 84.408 210.27 85.998 208.32 85.998ZM180.804 75.516C179.514 75.516 178.386 76.566 178.29 77.85L177.93 82.458C177.828 83.748 178.794 84.792 180.084 84.792H208.416C209.706 84.792 210.834 83.742 210.93 82.458L211.29 77.85C211.392 76.56 210.426 75.516 209.136 75.516H180.804Z" fill="white"/>
</g>
<path d="M206.856 76.968H182.856C182.4 76.968 182.058 76.596 182.094 76.14L182.28 73.74C182.316 73.284 182.712 72.912 183.168 72.912H207.168C207.624 72.912 207.966 73.284 207.93 73.74L207.744 76.14C207.708 76.602 207.312 76.968 206.856 76.968Z" fill="#545965"/>
<path d="M227.178 99.6H159.978L160.548 92.268H227.748L227.178 99.6Z" fill="#545965"/>
<path d="M199.979 109.806H155.243L155.393 107.916H200.129L199.979 109.806Z" fill="#545965"/>
<path d="M199.559 115.266H154.823L154.967 113.37H199.703L199.559 115.266Z" fill="#545965"/>
<path d="M199.133 120.726H154.397L154.541 118.83H199.277L199.133 120.726Z" fill="#545965"/>
<path d="M198.708 126.18H153.972L154.116 124.29H198.852L198.708 126.18Z" fill="#545965"/>
<path d="M228.06 126.18H209.808L211.236 107.916H229.488L228.06 126.18Z" fill="#545965"/>
<path d="M219.545 128.03C219.605 127.27 219.759 126.593 220.01 126C220.261 125.407 220.552 124.897 220.882 124.471C221.215 124.026 221.665 123.488 222.235 122.858C223.05 121.95 223.616 121.245 223.934 120.745C224.272 120.226 224.468 119.614 224.523 118.91C224.595 117.983 224.343 117.279 223.767 116.797C223.211 116.296 222.515 116.046 221.678 116.046C220.47 116.046 219.243 116.398 217.998 117.103L217.923 114.851C219.268 114.054 220.796 113.655 222.506 113.655C223.622 113.655 224.562 113.877 225.327 114.322C226.11 114.767 226.677 115.37 227.026 116.13C227.378 116.871 227.519 117.687 227.449 118.576C227.397 119.244 227.238 119.855 226.972 120.411C226.725 120.949 226.457 121.403 226.168 121.774C225.881 122.126 225.39 122.691 224.697 123.47C223.863 124.397 223.245 125.166 222.844 125.778C222.463 126.371 222.242 127.066 222.18 127.863L222.113 128.725H219.491L219.545 128.03ZM219.153 130.56H222.165L221.935 133.507H218.923L219.153 130.56Z" fill="white"/>
<path d="M197.826 137.448H153.09L153.24 135.552H197.976L197.826 137.448Z" fill="#545965"/>
<path d="M197.4 142.902H152.664L152.814 141.012H197.55L197.4 142.902Z" fill="#545965"/>
<path d="M196.98 148.362H152.244L152.388 146.472H197.124L196.98 148.362Z" fill="#545965"/>
<path d="M196.554 153.822H151.818L151.962 151.926H196.698L196.554 153.822Z" fill="#545965"/>
<path d="M225.905 153.822H207.653L209.075 135.552H227.333L225.905 153.822Z" fill="#545965"/>
<path d="M217.391 155.669C217.45 154.909 217.605 154.232 217.856 153.639C218.107 153.046 218.397 152.536 218.728 152.11C219.06 151.665 219.511 151.128 220.081 150.497C220.895 149.589 221.462 148.885 221.779 148.384C222.117 147.865 222.314 147.254 222.369 146.549C222.441 145.622 222.189 144.918 221.613 144.436C221.057 143.936 220.361 143.685 219.524 143.685C218.316 143.685 217.089 144.038 215.844 144.742L215.769 142.49C217.114 141.693 218.641 141.294 220.352 141.294C221.467 141.294 222.408 141.517 223.172 141.962C223.956 142.406 224.522 143.009 224.872 143.769C225.223 144.51 225.364 145.326 225.295 146.216C225.243 146.883 225.084 147.495 224.817 148.051C224.571 148.588 224.303 149.042 224.014 149.413C223.726 149.765 223.236 150.331 222.543 151.109C221.709 152.036 221.091 152.805 220.69 153.417C220.309 154.01 220.088 154.705 220.025 155.502L219.958 156.364H217.337L217.391 155.669ZM216.999 158.199H220.011L219.781 161.146H216.769L216.999 158.199Z" fill="white"/>
<path d="M195.672 165.084H150.936L151.086 163.194H195.822L195.672 165.084Z" fill="#545965"/>
<path d="M195.246 170.544H150.51L150.66 168.648H195.396L195.246 170.544Z" fill="#545965"/>
<path d="M194.82 176.004H150.09L150.234 174.108H194.97L194.82 176.004Z" fill="#545965"/>
<path d="M194.4 181.458H149.664L149.808 179.568H194.544L194.4 181.458Z" fill="#545965"/>
<path d="M223.752 181.458H205.5L206.922 163.194H225.174L223.752 181.458Z" fill="#545965"/>
<path d="M215.237 183.308C215.296 182.548 215.451 181.872 215.702 181.279C215.952 180.685 216.243 180.176 216.574 179.749C216.906 179.305 217.357 178.767 217.927 178.137C218.741 177.229 219.307 176.524 219.625 176.024C219.963 175.505 220.159 174.893 220.214 174.189C220.287 173.262 220.035 172.557 219.459 172.075C218.903 171.575 218.206 171.325 217.37 171.325C216.161 171.325 214.935 171.677 213.69 172.381L213.614 170.129C214.959 169.332 216.487 168.934 218.198 168.934C219.313 168.934 220.253 169.156 221.018 169.601C221.801 170.046 222.368 170.648 222.718 171.408C223.069 172.15 223.21 172.965 223.141 173.855C223.089 174.522 222.93 175.134 222.663 175.69C222.417 176.228 222.149 176.682 221.86 177.052C221.572 177.405 221.082 177.97 220.389 178.748C219.554 179.675 218.937 180.445 218.536 181.056C218.155 181.649 217.933 182.344 217.871 183.142L217.804 184.003H215.183L215.237 183.308ZM214.844 185.839H217.856L217.627 188.786H214.615L214.844 185.839Z" fill="white"/>
<path d="M193.517 192.726H148.781L148.931 190.83H193.667L193.517 192.726Z" fill="#545965"/>
<path d="M193.091 198.18H148.355L148.505 196.29H193.241L193.091 198.18Z" fill="#545965"/>
<path d="M192.666 203.64H147.93L148.08 201.75H192.816L192.666 203.64Z" fill="#545965"/>
<path d="M192.246 209.1H147.51L147.654 207.204H192.39L192.246 209.1Z" fill="#545965"/>
<path d="M221.598 209.1H203.346L204.768 190.83H223.02L221.598 209.1Z" fill="#545965"/>
<path d="M213.082 210.948C213.142 210.188 213.297 209.511 213.547 208.918C213.798 208.325 214.089 207.815 214.42 207.389C214.752 206.944 215.203 206.406 215.772 205.776C216.587 204.868 217.153 204.163 217.471 203.663C217.809 203.144 218.005 202.532 218.06 201.828C218.132 200.901 217.88 200.197 217.304 199.715C216.748 199.214 216.052 198.964 215.216 198.964C214.007 198.964 212.78 199.316 211.536 200.021L211.46 197.768C212.805 196.971 214.333 196.573 216.043 196.573C217.159 196.573 218.099 196.795 218.864 197.24C219.647 197.685 220.214 198.288 220.564 199.047C220.915 199.789 221.056 200.605 220.986 201.494C220.934 202.162 220.775 202.773 220.509 203.329C220.262 203.867 219.995 204.321 219.705 204.692C219.418 205.044 218.927 205.609 218.235 206.388C217.4 207.315 216.782 208.084 216.381 208.695C216.001 209.289 215.779 209.984 215.717 210.781L215.65 211.643H213.028L213.082 210.948ZM212.69 213.478H215.702L215.472 216.425H212.46L212.69 213.478Z" fill="white"/>
<path opacity="0.7" d="M227.178 99.6H159.978L160.548 92.268H227.748L227.178 99.6Z" fill="white"/>
<path opacity="0.7" d="M199.979 109.806H155.243L155.393 107.916H200.129L199.979 109.806Z" fill="white"/>
<path opacity="0.7" d="M199.559 115.266H154.823L154.967 113.37H199.703L199.559 115.266Z" fill="white"/>
<path opacity="0.7" d="M199.133 120.726H154.397L154.541 118.83H199.277L199.133 120.726Z" fill="white"/>
<path opacity="0.7" d="M198.708 126.18H153.972L154.116 124.29H198.852L198.708 126.18Z" fill="white"/>
<path opacity="0.7" d="M228.06 126.18H209.808L211.236 107.916H229.488L228.06 126.18Z" fill="white"/>
<path opacity="0.7" d="M197.826 137.448H153.09L153.24 135.552H197.976L197.826 137.448Z" fill="white"/>
<path opacity="0.7" d="M197.4 142.902H152.664L152.814 141.012H197.55L197.4 142.902Z" fill="white"/>
<path opacity="0.7" d="M196.98 148.362H152.244L152.388 146.472H197.124L196.98 148.362Z" fill="white"/>
<path opacity="0.7" d="M196.554 153.822H151.818L151.962 151.926H196.698L196.554 153.822Z" fill="white"/>
<path opacity="0.7" d="M225.905 153.822H207.653L209.075 135.552H227.333L225.905 153.822Z" fill="white"/>
<path opacity="0.7" d="M195.672 165.084H150.936L151.086 163.194H195.822L195.672 165.084Z" fill="white"/>
<path opacity="0.7" d="M195.246 170.544H150.51L150.66 168.648H195.396L195.246 170.544Z" fill="white"/>
<path opacity="0.7" d="M194.82 176.004H150.09L150.234 174.108H194.97L194.82 176.004Z" fill="white"/>
<path opacity="0.7" d="M194.4 181.458H149.664L149.808 179.568H194.544L194.4 181.458Z" fill="white"/>
<path opacity="0.7" d="M223.752 181.458H205.5L206.922 163.194H225.174L223.752 181.458Z" fill="white"/>
<path opacity="0.7" d="M193.517 192.726H148.781L148.931 190.83H193.667L193.517 192.726Z" fill="white"/>
<path opacity="0.7" d="M193.091 198.18H148.355L148.505 196.29H193.241L193.091 198.18Z" fill="white"/>
<path opacity="0.7" d="M192.666 203.64H147.93L148.08 201.75H192.816L192.666 203.64Z" fill="white"/>
<path opacity="0.7" d="M192.246 209.1H147.51L147.654 207.204H192.39L192.246 209.1Z" fill="white"/>
<path opacity="0.7" d="M221.598 209.1H203.346L204.768 190.83H223.02L221.598 209.1Z" fill="white"/>
<path d="M120 154.2V170.724C120 173.982 118.746 177.114 116.49 179.466L101.07 195.6H109.8L125.82 179.832C128.238 177.456 129.6 174.204 129.6 170.814V154.2H120Z" fill="#545965"/>
<path opacity="0.4" d="M129.6 154.2V170.814C129.6 171.756 129.498 172.68 129.288 173.58C128.766 175.938 127.572 178.116 125.82 179.832L109.8 195.6H101.07L116.49 179.466C118.746 177.114 120 173.982 120 170.724V154.2H129.6Z" fill="white"/>
<path opacity="0.2" d="M129.6 154.2V170.814C129.6 171.756 129.498 172.68 129.288 173.58L120 169.83V154.2H129.6Z" fill="black"/>
<path d="M95.0038 197.4L82.0858 246.636C81.8458 247.554 81.0118 248.196 80.0638 248.196H56.9638C56.5738 248.196 56.2198 248.022 55.9798 247.71C55.7398 247.404 55.6618 247.008 55.7638 246.636L68.6938 197.4H66.2098L53.4418 246.03C53.1538 247.128 53.3878 248.28 54.0838 249.18C54.7798 250.08 55.8298 250.596 56.9698 250.596H80.0638C82.1038 250.596 83.8918 249.216 84.4078 247.242L97.4878 197.394H95.0038V197.4Z" fill="#545965"/>
<g opacity="0.4">
<path opacity="0.4" d="M95.0038 197.4L82.0858 246.636C81.8458 247.554 81.0118 248.196 80.0638 248.196H56.9638C56.5738 248.196 56.2198 248.022 55.9798 247.71C55.7398 247.404 55.6618 247.008 55.7638 246.636L68.6938 197.4H66.2098L53.4418 246.03C53.1538 247.128 53.3878 248.28 54.0838 249.18C54.7798 250.08 55.8298 250.596 56.9698 250.596H80.0638C82.1038 250.596 83.8918 249.216 84.4078 247.242L97.4878 197.394H95.0038V197.4Z" fill="white"/>
</g>
<path d="M100.29 250.602L86.1599 196.722L83.8379 197.328L97.8059 250.602H100.29Z" fill="#545965"/>
<path d="M129.09 250.602L114.96 196.722L112.638 197.328L126.606 250.602H129.09Z" fill="#545965"/>
<g opacity="0.5">
<path opacity="0.5" d="M100.29 250.602L86.1599 196.722L83.8379 197.328L97.8059 250.602H100.29Z" fill="white"/>
</g>
<g opacity="0.5">
<path opacity="0.5" d="M129.09 250.602L114.96 196.722L112.638 197.328L126.606 250.602H129.09Z" fill="white"/>
</g>
<path opacity="0.2" d="M66.2103 197.4H68.6943L66.7443 204.822L64.4463 204.12L66.2103 197.4Z" fill="black"/>
<path opacity="0.2" d="M86.1599 196.722L89.3699 208.968L86.6759 208.152L83.8379 197.328L86.1599 196.722Z" fill="black"/>
<path opacity="0.2" d="M95.0034 197.4H97.4814L93.4134 212.94L91.1094 212.238L95.0034 197.4Z" fill="black"/>
<path opacity="0.2" d="M120.63 218.49L117.924 217.662L112.638 197.478L114.96 196.818L120.63 218.49Z" fill="black"/>
<path d="M64.02 198.222L52.776 137.484L52.626 136.566C52.41 135.39 52.704 134.196 53.436 133.32C54.144 132.468 55.17 132 56.322 132H80.61C82.848 132 85.014 133.866 85.446 136.152L85.626 137.178L96.84 197.778L94.482 198.216L83.232 137.43L83.082 136.578C82.866 135.426 81.708 134.4 80.61 134.4H56.322C55.89 134.4 55.53 134.556 55.278 134.856C55.002 135.186 54.9 135.66 54.99 136.158L55.158 137.166L66.384 197.79L64.02 198.222Z" fill="#545965"/>
<g opacity="0.5">
<path opacity="0.5" d="M64.02 198.222L52.776 137.484L52.626 136.566C52.41 135.39 52.704 134.196 53.436 133.32C54.144 132.468 55.17 132 56.322 132H80.61C82.848 132 85.014 133.866 85.446 136.152L85.626 137.178L96.84 197.778L94.482 198.216L83.232 137.43L83.082 136.578C82.866 135.426 81.708 134.4 80.61 134.4H56.322C55.89 134.4 55.53 134.556 55.278 134.856C55.002 135.186 54.9 135.66 54.99 136.158L55.158 137.166L66.384 197.79L64.02 198.222Z" fill="white"/>
</g>
<path d="M115.086 192.198H68.9277C67.2717 192.198 65.9277 193.542 65.9277 195.198V199.212H118.086V195.198C118.086 193.542 116.742 192.198 115.086 192.198Z" fill="#545965"/>
<path d="M118.806 195.708H65.2138C64.5478 195.708 64.0078 196.248 64.0078 196.914V198.006C64.0078 198.672 64.5478 199.212 65.2138 199.212H118.806C119.472 199.212 120.012 198.672 120.012 198.006V196.914C120.012 196.248 119.472 195.708 118.806 195.708Z" fill="#545965"/>
<path opacity="0.6" d="M118.806 195.708H65.2138C64.5478 195.708 64.0078 196.248 64.0078 196.914V198.006C64.0078 198.672 64.5478 199.212 65.2138 199.212H118.806C119.472 199.212 120.012 198.672 120.012 198.006V196.914C120.012 196.248 119.472 195.708 118.806 195.708Z" fill="white"/>
<path d="M88.9981 162H58.5001L53.9521 137.4H84.4442L88.9561 161.772L88.9981 162Z" fill="#545965"/>
<path d="M118.997 109.578C118.997 109.578 115.163 100.674 114.827 99.72C114.491 98.766 114.887 93.948 114.599 93.09C114.311 92.232 109.847 91.668 108.905 91.776C107.963 91.884 108.797 99.336 109.181 99.924C109.571 100.518 110.891 101.556 110.891 101.556L114.281 111.78L118.997 109.578Z" fill="#FFC3BD"/>
<path d="M99.5814 126.384C102.197 126.798 112.907 128.34 115.301 126.75C117.233 125.46 111.791 104.574 111.791 104.574L116.633 102.6C116.633 102.6 128.135 127.926 121.991 133.716C118.871 136.656 110.099 137.4 97.4814 137.4L99.5814 126.384Z" fill="#545965"/>
<path opacity="0.8" d="M99.5814 126.384C102.197 126.798 112.907 128.34 115.301 126.75C117.233 125.46 111.791 104.574 111.791 104.574L116.633 102.6C116.633 102.6 128.135 127.926 121.991 133.716C118.871 136.656 110.099 137.4 97.4814 137.4L99.5814 126.384Z" fill="white"/>
<path opacity="0.1" d="M104.034 137.316C102.174 137.37 100.188 137.394 98.0996 137.394L99.8996 130.5C99.8996 130.5 102.948 133.224 104.034 137.316Z" fill="black"/>
<path d="M114.702 140.994L127.398 154.422" stroke="#2E353A" stroke-width="2" stroke-miterlimit="10"/>
<path d="M105.6 148.902C105.6 148.902 115.29 148.602 116.298 148.5C117.3 148.398 121.5 145.998 122.4 145.902C123.3 145.8 125.7 149.604 126 150.504C126.3 151.404 119.202 153.804 118.5 153.702C117.798 153.6 116.298 152.844 116.298 152.844L105.6 154.104V148.902Z" fill="#FFC3BD"/>
<path d="M99.8994 245.898L104.681 245.238L105.341 233.88L100.571 234.54L99.8994 245.898Z" fill="#FFC3BD"/>
<path d="M105.041 244.668L99.6412 244.332C99.4552 244.314 99.2872 244.446 99.2632 244.638V244.644L98.7352 248.904C98.7052 249.372 99.0592 249.774 99.5212 249.804C101.405 249.888 102.311 249.84 104.687 249.966C106.145 250.056 109.019 250.362 111.035 250.17C113.045 249.978 112.799 247.992 111.929 247.896C109.865 247.662 107.135 246.144 105.851 244.998C105.623 244.8 105.341 244.68 105.041 244.668Z" fill="#2E353A"/>
<path d="M106.698 245.592C106.266 245.556 105.84 245.472 105.426 245.34C105.384 245.328 105.348 245.292 105.348 245.25C105.342 245.208 105.366 245.166 105.396 245.136C105.558 245.04 106.98 244.194 107.556 244.458C107.688 244.524 107.778 244.65 107.796 244.794C107.862 245.016 107.79 245.256 107.622 245.412C107.346 245.586 107.016 245.646 106.698 245.592ZM107.46 244.686C107.154 244.542 106.326 244.896 105.744 245.214C106.596 245.436 107.226 245.448 107.466 245.244C107.568 245.142 107.61 244.992 107.574 244.848C107.568 244.776 107.526 244.716 107.46 244.686Z" fill="#545965"/>
<path d="M105.45 245.34C105.438 245.346 105.42 245.346 105.402 245.346C105.372 245.328 105.348 245.292 105.348 245.256C105.348 245.214 105.33 243.804 105.84 243.366C105.978 243.252 106.158 243.21 106.332 243.24C106.53 243.258 106.686 243.408 106.716 243.606C106.794 244.134 106.014 245.1 105.516 245.352C105.492 245.352 105.468 245.352 105.45 245.34ZM106.23 243.468C106.14 243.462 106.05 243.492 105.984 243.558C105.672 243.822 105.594 244.608 105.576 245.064C106.014 244.74 106.518 244.008 106.488 243.654C106.482 243.588 106.446 243.51 106.284 243.48L106.23 243.468Z" fill="#545965"/>
<path opacity="0.2" d="M100.572 234.54L105.342 233.886L104.964 240.378L100.2 240.798L100.572 234.54Z" fill="black"/>
<path d="M100.092 179.106L98.928 171.798L72.132 170.196C72.132 170.196 69.282 185.4 71.472 189.45C75.378 196.68 96.444 193.032 102.606 193.74C98.922 208.806 99.282 238.248 99.282 238.248L108.084 238.92C108.084 238.92 114.858 207.192 116.226 192.12C117.15 181.95 108.72 182.202 100.092 179.106Z" fill="#2E353A"/>
<path d="M98.2493 238.662L108.827 239.358L109.733 234.828L98.1113 234.288L98.2493 238.662Z" fill="#545965"/>
<path d="M110.928 241.656L115.74 242.01L118.752 231.036L113.946 230.688L110.928 241.656Z" fill="#FFC3BD"/>
<path d="M116.214 241.518L111 240.066C110.82 240.006 110.628 240.102 110.568 240.282V240.288L109.164 244.344C109.038 244.794 109.296 245.262 109.746 245.388C111.57 245.868 112.47 246 114.768 246.624C116.178 247.014 118.926 247.914 120.93 248.142C122.94 248.37 123.114 246.378 122.28 246.102C120.312 245.442 117.96 243.396 116.934 241.998C116.754 241.77 116.502 241.596 116.214 241.518Z" fill="#2E353A"/>
<path d="M117.642 242.772C117.228 242.646 116.826 242.472 116.448 242.262C116.406 242.244 116.382 242.202 116.388 242.16C116.394 242.118 116.418 242.076 116.46 242.058C116.64 241.998 118.206 241.47 118.71 241.848C118.824 241.938 118.89 242.082 118.872 242.226C118.89 242.46 118.77 242.676 118.572 242.79C118.272 242.898 117.936 242.892 117.642 242.772ZM118.572 242.04C118.302 241.836 117.42 242.01 116.784 242.202C117.57 242.598 118.188 242.742 118.464 242.586C118.584 242.508 118.656 242.37 118.65 242.22C118.662 242.154 118.626 242.082 118.572 242.04Z" fill="#545965"/>
<path d="M116.472 242.268C116.454 242.274 116.436 242.268 116.424 242.262C116.4 242.238 116.382 242.196 116.388 242.16C116.4 242.118 116.67 240.738 117.258 240.414C117.414 240.336 117.6 240.324 117.762 240.39C117.948 240.45 118.074 240.63 118.062 240.828C118.026 241.362 117.06 242.142 116.526 242.286C116.508 242.286 116.484 242.28 116.472 242.268ZM117.624 240.594C117.534 240.57 117.444 240.582 117.366 240.63C117.012 240.822 116.766 241.578 116.652 242.016C117.144 241.788 117.792 241.182 117.834 240.828C117.84 240.762 117.822 240.678 117.672 240.612L117.624 240.594Z" fill="#545965"/>
<path opacity="0.2" d="M113.945 230.688L118.751 231.042L117.029 237.312L112.277 236.73L113.945 230.688Z" fill="black"/>
<path d="M120.383 236.538L111.911 234.048C111.911 234.048 116.969 205.5 122.099 195.6C121.715 195.474 121.205 195.312 120.575 195.126C119.441 194.784 117.935 194.358 116.165 193.866C103.853 190.452 78.8994 184.05 78.8994 184.05L90.2994 173.412C90.2994 173.412 135.707 180.336 136.649 192.3C137.099 198.054 120.383 236.538 120.383 236.538Z" fill="#2E353A"/>
<path d="M110.819 234.234L121.019 237.12L122.849 232.878L111.593 229.926L110.819 234.234Z" fill="#545965"/>
<path opacity="0.2" d="M120.576 195.126C119.442 194.784 117.936 194.358 116.166 193.866C116.52 190.962 116.526 187.632 115.128 185.934C112.35 182.55 105.204 180.564 101.136 179.844C97.7337 179.244 86.3037 178.05 86.3037 178.05C86.3037 178.05 101.136 176.628 116.298 181.05C123.792 183.24 122.334 190.566 120.576 195.126Z" fill="black"/>
<path d="M99.5817 126.384C99.5817 126.384 103.47 140.784 98.9277 171.798C90.4617 171.618 76.2357 171.288 72.1137 171.198C72.0117 166.878 75.1977 145.71 71.4717 125.292C74.1537 124.824 76.8657 124.56 79.5897 124.488C83.5737 124.344 87.5637 124.428 91.5357 124.746C94.2537 125.082 96.9477 125.628 99.5817 126.384Z" fill="#545965"/>
<path opacity="0.7" d="M99.5817 126.384C99.5817 126.384 103.47 140.784 98.9277 171.798C90.4617 171.618 76.2357 171.288 72.1137 171.198C72.0117 166.878 75.1977 145.71 71.4717 125.292C74.1537 124.824 76.8657 124.56 79.5897 124.488C83.5737 124.344 87.5637 124.428 91.5357 124.746C94.2537 125.082 96.9477 125.628 99.5817 126.384Z" fill="white"/>
<path opacity="0.1" d="M80.8976 151.602C78.5156 151.074 75.6356 148.764 73.2776 146.484C73.2596 142.428 73.0796 138.114 72.6416 133.716C75.9776 138.654 85.0136 152.508 80.8976 151.602Z" fill="black"/>
<path d="M71.4717 125.292C62.2977 128.598 78.4017 153.438 83.3997 156C88.3976 158.562 113.802 153.198 113.802 153.198L112.8 148.062C112.8 148.062 90.3236 148.638 88.2536 148.11C86.1836 147.588 81.2637 136.998 78.4317 132C75.5997 127.002 71.4717 125.292 71.4717 125.292Z" fill="#545965"/>
<path opacity="0.8" d="M71.4717 125.292C62.2977 128.598 78.4017 153.438 83.3997 156C88.3976 158.562 113.802 153.198 113.802 153.198L112.8 148.062C112.8 148.062 90.3236 148.638 88.2536 148.11C86.1836 147.588 81.2637 136.998 78.4317 132C75.5997 127.002 71.4717 125.292 71.4717 125.292Z" fill="white"/>
<path d="M111 147.6L112.302 154.422L114.702 153.6L113.802 147.6H111Z" fill="#545965"/>
<path opacity="0.7" d="M111 147.6L112.302 154.422L114.702 153.6L113.802 147.6H111Z" fill="white"/>
<path d="M111.648 106.068L118.104 103.512L116.85 101.31L111.12 103.314L111.648 106.068Z" fill="#545965"/>
<path opacity="0.7" d="M111.648 106.068L118.104 103.512L116.85 101.31L111.12 103.314L111.648 106.068Z" fill="white"/>
<path opacity="0.1" d="M78.1436 124.548C78.1436 124.548 78.3115 127.35 83.8196 130.05L87.6235 127.296C87.6235 127.296 88.7096 134.322 89.3876 139.572C89.3876 139.572 89.3396 131.172 88.6196 127.944L91.5296 128.976C91.5296 128.976 89.0516 124.716 84.8336 123.744C80.6156 122.772 78.1436 124.548 78.1436 124.548Z" fill="black"/>
<path d="M81.0599 111.096C81.7319 114.954 82.3318 122.01 79.5898 124.518L87.6238 126.75L91.5358 124.776C87.2698 123.66 87.4499 120.48 88.2599 117.51L81.0599 111.096Z" fill="#FFC3BD"/>
<path opacity="0.2" d="M83.9931 113.712L88.2531 117.51C88.0551 118.2 87.9171 118.908 87.8391 119.622C86.2071 119.352 83.9991 117.504 83.8611 115.788C83.7771 115.098 83.8191 114.39 83.9931 113.712Z" fill="black"/>
<path d="M86.7417 100.374C84.9957 102.27 86.5017 104.436 92.0757 107.07C93.4017 104.148 92.5917 99.27 90.7917 98.418C88.9917 97.566 88.2657 98.73 86.7417 100.374Z" fill="#2E353A"/>
<path d="M78.7194 106.338C80.1354 111.36 80.7114 114.366 83.8434 116.424C88.5594 119.514 94.3374 115.824 94.4514 110.478C94.5474 105.678 92.2194 98.268 86.8014 97.326C82.9314 96.63 79.2354 99.204 78.5394 103.074C78.3474 104.166 78.4074 105.282 78.7194 106.338Z" fill="#FFC3BD"/>
<path d="M86.6216 106.086C86.7116 106.5 87.0056 106.788 87.2756 106.728C87.5456 106.668 87.6896 106.29 87.5996 105.876C87.5096 105.462 87.2216 105.174 86.9516 105.228C86.6816 105.282 86.5616 105.672 86.6216 106.086Z" fill="#2E353A"/>
<path d="M91.3318 105.072C91.4218 105.486 91.7158 105.774 91.9858 105.714C92.2558 105.654 92.4058 105.276 92.3158 104.856C92.2258 104.436 91.9318 104.154 91.6618 104.214C91.3918 104.274 91.2418 104.658 91.3318 105.072Z" fill="#2E353A"/>
<path d="M89.8379 105.6C90.6059 106.758 91.5299 107.808 92.5859 108.714C91.9859 109.56 90.6839 109.512 90.6839 109.512L89.8379 105.6Z" fill="#ED968D"/>
<path d="M85.0139 104.88C84.9599 104.898 84.9059 104.898 84.8519 104.88C84.7259 104.82 84.6719 104.676 84.7259 104.55C85.0439 103.812 85.7039 103.278 86.4899 103.116C86.6219 103.092 86.7479 103.176 86.7719 103.308C86.7719 103.314 86.7719 103.32 86.7719 103.326C86.7839 103.458 86.6939 103.584 86.5619 103.608C85.9439 103.746 85.4279 104.172 85.1819 104.754C85.1459 104.82 85.0859 104.868 85.0139 104.88Z" fill="#2E353A"/>
<path d="M93.1319 103.02C93.0359 103.038 92.9399 103.002 92.8799 102.93C92.5019 102.42 91.9079 102.12 91.2719 102.126C91.1339 102.138 91.0139 102.036 91.0019 101.898C90.9899 101.766 91.0919 101.646 91.2239 101.628C92.0279 101.61 92.7899 101.982 93.2699 102.624C93.3539 102.732 93.3359 102.888 93.2279 102.972C93.1979 102.996 93.1679 103.014 93.1319 103.02Z" fill="#2E353A"/>
<path d="M79.7694 101.388C82.3254 101.688 82.5894 104.316 80.0694 109.938C77.1594 108.582 74.5974 104.346 75.4194 102.534C76.2414 100.722 77.5374 101.13 79.7694 101.388Z" fill="#2E353A"/>
<path d="M77.1782 110.934C77.8022 112.092 78.8522 112.956 80.1122 113.334C81.7802 113.82 82.6322 112.332 82.1882 110.748C81.7862 109.32 80.4302 107.346 78.7502 107.556C77.0702 107.766 76.4222 109.512 77.1782 110.934Z" fill="#FFC3BD"/>
<path d="M75.6478 102.114C75.6478 102.114 74.3818 100.476 76.8658 97.212C79.3498 93.948 85.3558 92.946 89.9758 93.846C94.5958 94.746 91.8478 99.846 90.1978 100.698L90.3958 99.9C90.3958 99.9 87.5578 101.448 84.7018 101.448L85.6078 100.596C85.6138 100.602 78.3478 102.48 75.6478 102.114Z" fill="#2E353A"/>
<path d="M90.3773 110.892C90.2333 111.558 90.2093 112.758 90.2093 112.758C90.1013 112.776 89.9933 112.794 89.8793 112.806C88.3973 113.004 87.6413 112.602 87.2573 112.104C87.0473 111.828 86.9513 111.516 86.9093 111.258C86.8553 110.958 86.8853 110.736 86.8853 110.736C87.7313 111.102 89.1293 111.024 89.8733 110.952C90.1793 110.928 90.3773 110.892 90.3773 110.892Z" fill="#2E353A"/>
<path d="M89.8674 110.952L89.8014 111.498C88.4034 111.678 87.3954 111.618 86.9034 111.258C86.8494 110.958 86.8794 110.736 86.8794 110.736C87.7254 111.102 89.1234 111.024 89.8674 110.952Z" fill="white"/>
<path d="M89.8798 112.806C88.3978 113.004 87.6418 112.602 87.2578 112.104C87.7678 112.056 88.3858 112.056 88.9498 112.212C89.3758 112.326 89.6698 112.56 89.8798 112.806Z" fill="#ED968D"/>
<path d="M80.9937 122.148C80.9937 122.148 85.3257 125.4 87.6237 126.15C87.6237 126.15 88.6857 124.146 88.2537 122.49L91.5357 124.776C91.5357 124.776 92.1717 126.864 91.5357 128.982L87.6237 126.75L83.9217 129.45C83.9217 129.45 78.4557 127.866 78.1377 124.548L80.9937 122.148Z" fill="#545965"/>
<path opacity="0.8" d="M80.9937 122.148C80.9937 122.148 85.3257 125.4 87.6237 126.15C87.6237 126.15 88.6857 124.146 88.2537 122.49L91.5357 124.776C91.5357 124.776 92.1717 126.864 91.5357 128.982L87.6237 126.75L83.9217 129.45C83.9217 129.45 78.4557 127.866 78.1377 124.548L80.9937 122.148Z" fill="white"/>
<path d="M152.508 156.078H92.7C92.316 156.078 91.998 155.766 91.998 155.376V153.618C91.998 153.234 92.31 152.916 92.7 152.916H152.508C152.892 152.916 153.21 153.228 153.21 153.618V155.376C153.204 155.766 152.892 156.078 152.508 156.078Z" fill="#545965"/>
<path opacity="0.5" d="M153 153.54V155.298C153 155.688 152.892 156 152.508 156H92.6998C92.3098 156 91.7998 155.688 91.7998 155.298V153.54C91.7998 153.156 92.3098 153 92.6998 153H152.508C152.892 153 153 153.156 153 153.54Z" fill="white"/>
<path opacity="0.2" d="M117 153.54V155.298C117 155.688 116.868 156 116.484 156H92.6998C92.3098 156 91.7998 155.688 91.7998 155.298V153.54C91.7998 153.156 92.3098 153 92.6998 153H116.484C116.868 153 117 153.156 117 153.54Z" fill="black"/>
<path d="M103.416 65.478C101.646 58.992 94.6559 55.326 88.2119 57.786C83.1899 59.706 80.1419 65.016 81.0119 70.32C81.6839 74.418 84.4079 77.616 87.8699 79.098C88.6319 79.422 89.2619 80.004 89.5979 80.766L89.9939 81.654L101.034 78.648L100.926 77.688C100.83 76.854 101.082 76.032 101.58 75.354C103.59 72.618 104.37 69 103.416 65.478Z" fill="#545965"/>
<path d="M93.6 81.672C93.6 81.672 91.938 76.452 88.998 74.148L90.624 73.704L90.75 71.202L93.402 75.048L93.186 70.368L95.808 74.634L96.072 72.216L98.3941 71.586C98.3941 71.586 96.342 75.492 97.746 80.658" stroke="white" stroke-miterlimit="10" stroke-linecap="round" stroke-linejoin="round"/>
<path d="M95.6878 80.796C93.7318 81.33 92.6458 83.574 93.2518 85.812C93.8638 88.05 95.9398 89.436 97.8958 88.902C99.8518 88.368 100.938 86.124 100.332 83.886C99.7198 81.648 97.6438 80.268 95.6878 80.796Z" fill="#2E353A"/>
<path d="M99.4561 86.844L95.5201 87.918C93.5701 88.452 91.5361 87.384 90.8641 85.482L89.5741 81.84C89.4661 81.534 89.6401 81.204 89.9521 81.12L100.806 78.162C101.118 78.078 101.436 78.276 101.496 78.594L102.228 82.386C102.618 84.366 101.406 86.316 99.4561 86.844Z" fill="#545965"/>
<path opacity="0.4" d="M99.4561 86.844L95.5201 87.918C93.5701 88.452 91.5361 87.384 90.8641 85.482L89.5741 81.84C89.4661 81.534 89.6401 81.204 89.9521 81.12L100.806 78.162C101.118 78.078 101.436 78.276 101.496 78.594L102.228 82.386C102.618 84.366 101.406 86.316 99.4561 86.844Z" fill="white"/>
<path d="M77.0284 76.95C75.9484 76.752 74.8564 76.65 73.7644 76.644C73.2184 76.644 72.6784 76.668 72.1384 76.734C71.8744 76.776 71.6044 76.806 71.3404 76.878C71.2084 76.914 71.0764 76.932 70.9504 76.98L70.5664 77.1L70.1344 77.238L70.3924 76.86C71.1184 75.792 71.7064 74.604 72.1144 73.374C72.3184 72.762 72.4744 72.132 72.5644 71.496C72.6064 71.178 72.6423 70.86 72.6543 70.542C72.6663 70.224 72.6664 69.906 72.6364 69.588C72.6184 69.27 72.5643 68.958 72.5043 68.652L72.3904 68.196L72.2404 67.752C72.1264 67.464 72.0124 67.17 71.8504 66.9C71.7064 66.618 71.5264 66.366 71.3524 66.108C71.1544 65.868 70.9684 65.61 70.7404 65.388L70.4104 65.052L70.0504 64.74C69.8164 64.524 69.5464 64.356 69.2944 64.164C69.0304 63.984 68.7544 63.822 68.4844 63.654L67.8604 63.258L68.5264 62.94C68.8444 62.784 69.1804 62.598 69.5044 62.412C69.8283 62.22 70.1404 62.016 70.4524 61.806C71.0704 61.38 71.6584 60.918 72.2104 60.414C72.4864 60.162 72.7504 59.898 73.0024 59.628C73.2544 59.352 73.4944 59.076 73.7224 58.782C73.9444 58.488 74.1604 58.188 74.3464 57.876C74.5324 57.564 74.7244 57.252 74.8744 56.916C75.0364 56.592 75.1624 56.25 75.2824 55.908L75.4384 55.392L75.5524 54.864C75.6063 54.51 75.6724 54.15 75.6724 53.79C75.6964 53.43 75.6723 53.07 75.6543 52.71C75.6063 52.35 75.5763 51.99 75.4863 51.636L75.3664 51.102L75.1984 50.58C75.1024 50.226 74.9344 49.896 74.8024 49.554C74.6524 49.218 74.4784 48.894 74.3164 48.558L73.4584 46.788L75.1024 47.844C75.3904 48.03 75.7263 48.222 76.0443 48.396C76.3684 48.57 76.7043 48.738 77.0403 48.888C77.7123 49.2 78.4023 49.464 79.1043 49.68C79.4583 49.788 79.8124 49.884 80.1664 49.956C80.5204 50.034 80.8803 50.1 81.2403 50.136C81.6003 50.184 81.9604 50.202 82.3144 50.202C82.6744 50.208 83.0284 50.178 83.3764 50.13L83.8924 50.04L84.3964 49.908C84.7264 49.794 85.0503 49.674 85.3563 49.512C85.5183 49.446 85.6563 49.344 85.8063 49.254C85.9563 49.17 86.1003 49.068 86.2323 48.954C86.5144 48.75 86.7604 48.498 87.0124 48.258C87.2344 47.988 87.4864 47.736 87.6784 47.436C87.8944 47.154 88.0744 46.842 88.2484 46.524C88.4344 46.218 88.5603 45.87 88.7223 45.546C88.8603 45.21 88.9804 44.862 89.1124 44.52L89.8683 42.552L90.2403 44.604C90.2943 44.91 90.3904 45.264 90.4984 45.594C90.6063 45.93 90.7324 46.254 90.8764 46.578C91.1584 47.22 91.5063 47.832 91.9324 48.384C92.3524 48.936 92.8383 49.428 93.3903 49.842C93.6603 50.052 93.9543 50.232 94.2543 50.394C94.5543 50.562 94.8724 50.688 95.1964 50.814C95.5264 50.916 95.8563 51.024 96.1983 51.084C96.5343 51.162 96.8883 51.198 97.2304 51.228C97.5784 51.246 97.9323 51.27 98.2863 51.252C98.6403 51.258 98.9943 51.204 99.3483 51.174C99.7023 51.138 100.05 51.06 100.404 51.006L101.454 50.754L102.492 50.442L103.518 50.076L104.946 49.566L104.124 50.832C103.98 51.054 103.824 51.324 103.686 51.582C103.548 51.846 103.422 52.11 103.302 52.38C103.068 52.92 102.876 53.478 102.744 54.048C102.612 54.618 102.54 55.194 102.546 55.77C102.552 56.34 102.648 56.91 102.84 57.444L103.002 57.84L103.2 58.218C103.35 58.458 103.506 58.698 103.698 58.914C103.872 59.142 104.094 59.334 104.298 59.532C104.52 59.718 104.742 59.904 104.994 60.06C105.228 60.234 105.498 60.366 105.75 60.516C106.008 60.66 106.29 60.774 106.554 60.9L107.394 61.218L108.258 61.488L108.876 61.68L108.366 62.07C108.042 62.322 107.712 62.622 107.418 62.934C107.112 63.246 106.842 63.582 106.584 63.93C106.446 64.098 106.338 64.284 106.224 64.47C106.098 64.65 106.008 64.842 105.912 65.034C105.81 65.226 105.72 65.418 105.654 65.622C105.582 65.826 105.492 66.024 105.45 66.234C105.408 66.444 105.336 66.648 105.312 66.864L105.252 67.506C105.252 67.722 105.276 67.938 105.288 68.154C105.288 68.37 105.348 68.58 105.396 68.79C105.456 69 105.468 69.222 105.564 69.42L105.81 70.026C105.876 70.236 106.014 70.416 106.116 70.608L106.452 71.178L106.572 71.388H106.344C105.468 71.394 104.574 71.508 103.716 71.736C103.29 71.862 102.87 72.006 102.48 72.222C102.378 72.27 102.288 72.336 102.198 72.396C102.102 72.45 102.012 72.516 101.928 72.594C101.844 72.666 101.748 72.726 101.676 72.816L101.448 73.062L101.664 72.804C101.73 72.714 101.826 72.648 101.904 72.57C101.988 72.492 102.072 72.42 102.168 72.36C102.264 72.3 102.348 72.222 102.45 72.168C102.834 71.928 103.254 71.754 103.68 71.604C104.538 71.316 105.438 71.172 106.35 71.13L106.242 71.34L105.87 70.764C105.75 70.572 105.606 70.392 105.522 70.176L105.24 69.546C105.132 69.342 105.108 69.108 105.036 68.886C104.976 68.664 104.904 68.442 104.898 68.208C104.88 67.98 104.844 67.746 104.832 67.512L104.868 66.816C104.88 66.582 104.946 66.36 104.988 66.126C105.024 65.892 105.108 65.676 105.18 65.454C105.246 65.232 105.33 65.016 105.438 64.806C105.534 64.596 105.63 64.38 105.75 64.188C105.864 63.99 105.978 63.78 106.116 63.594C106.374 63.21 106.662 62.844 106.974 62.508C107.286 62.16 107.61 61.848 107.988 61.542L108.102 62.124L107.196 61.866L106.302 61.548C106.014 61.416 105.714 61.302 105.432 61.158C105.15 61.008 104.862 60.87 104.598 60.684C104.322 60.522 104.064 60.318 103.812 60.114C103.572 59.898 103.32 59.688 103.11 59.43C102.888 59.19 102.696 58.914 102.516 58.638L102.276 58.2L102.078 57.744C101.838 57.12 101.712 56.46 101.688 55.8C101.664 55.14 101.73 54.486 101.862 53.856C101.994 53.22 102.186 52.602 102.432 52.008C102.552 51.708 102.684 51.42 102.828 51.132C102.978 50.844 103.116 50.568 103.308 50.274L103.914 51.03L102.846 51.42L101.754 51.756C101.388 51.852 101.01 51.942 100.644 52.032C100.266 52.092 99.8883 52.176 99.5043 52.218C99.1203 52.254 98.7363 52.308 98.3463 52.314C97.9564 52.338 97.5664 52.32 97.1764 52.302C96.7864 52.266 96.3963 52.23 96.0063 52.146C95.6163 52.08 95.2384 51.96 94.8604 51.846C94.4884 51.708 94.1163 51.558 93.7683 51.372C93.4143 51.186 93.0723 50.976 92.7543 50.736C92.1123 50.262 91.5484 49.698 91.0624 49.074C90.5764 48.45 90.1804 47.766 89.8624 47.058C89.7004 46.704 89.5563 46.338 89.4363 45.966C89.3103 45.588 89.2084 45.234 89.1304 44.808L90.2523 44.892C90.1143 45.264 89.9883 45.642 89.8383 46.008C89.6643 46.368 89.5323 46.746 89.3223 47.094C89.1303 47.448 88.9323 47.802 88.6863 48.132C88.4703 48.474 88.1823 48.78 87.9243 49.092C87.6303 49.38 87.3364 49.674 86.9944 49.92C86.8324 50.052 86.6644 50.172 86.4784 50.274C86.2984 50.382 86.1304 50.502 85.9324 50.58C85.5604 50.772 85.1703 50.916 84.7743 51.048L84.1743 51.204C83.9703 51.246 83.7664 51.27 83.5624 51.306C83.1544 51.354 82.7463 51.384 82.3383 51.378C81.9303 51.378 81.5284 51.348 81.1324 51.294C80.7304 51.252 80.3404 51.174 79.9504 51.084C79.5604 51 79.1764 50.892 78.7984 50.772C78.0424 50.532 77.3104 50.244 76.5964 49.908C76.2424 49.74 75.8884 49.56 75.5464 49.374C75.1984 49.182 74.8683 48.99 74.5203 48.762L75.3064 48.048C75.4804 48.408 75.6664 48.762 75.8224 49.128C75.9664 49.5 76.1404 49.866 76.2424 50.256L76.4224 50.832L76.5543 51.426C76.6503 51.816 76.6864 52.224 76.7344 52.626C76.7584 53.034 76.7824 53.442 76.7464 53.85C76.7404 54.258 76.6684 54.666 76.6024 55.062L76.4703 55.662L76.2904 56.244C76.1524 56.628 76.0084 57.006 75.8224 57.366C75.6544 57.732 75.4443 58.08 75.2283 58.416C75.0123 58.752 74.7663 59.076 74.5203 59.388C74.2683 59.7 73.9984 59.994 73.7224 60.282C73.4404 60.564 73.1524 60.84 72.8584 61.098C72.2584 61.62 71.6284 62.094 70.9684 62.52C70.6384 62.736 70.3024 62.94 69.9604 63.132C69.6124 63.324 69.2764 63.504 68.8984 63.672L68.9404 62.958C69.2224 63.15 69.5164 63.324 69.7924 63.522C70.0624 63.738 70.3444 63.924 70.5904 64.164L70.9744 64.506L71.3284 64.884C71.5744 65.124 71.7664 65.418 71.9764 65.688C72.1684 65.976 72.3604 66.264 72.5104 66.576C72.6784 66.876 72.7984 67.206 72.9184 67.53L73.0684 68.028L73.1824 68.532C73.2364 68.874 73.2904 69.21 73.3024 69.558C73.3684 70.932 73.0744 72.282 72.6064 73.536C72.3724 74.166 72.0904 74.772 71.7664 75.36C71.4424 75.948 71.0944 76.512 70.6864 77.052L70.5124 76.812L70.9204 76.698C71.0524 76.656 71.1964 76.638 71.3284 76.608C71.6044 76.548 71.8804 76.53 72.1564 76.494C72.7084 76.446 73.2603 76.446 73.8123 76.47C74.8743 76.536 75.9604 76.698 77.0284 76.95Z" fill="#545965"/>
<path opacity="0.7" d="M77.0284 76.95C75.9484 76.752 74.8564 76.65 73.7644 76.644C73.2184 76.644 72.6784 76.668 72.1384 76.734C71.8744 76.776 71.6044 76.806 71.3404 76.878C71.2084 76.914 71.0764 76.932 70.9504 76.98L70.5664 77.1L70.1344 77.238L70.3924 76.86C71.1184 75.792 71.7064 74.604 72.1144 73.374C72.3184 72.762 72.4744 72.132 72.5644 71.496C72.6064 71.178 72.6423 70.86 72.6543 70.542C72.6663 70.224 72.6664 69.906 72.6364 69.588C72.6184 69.27 72.5643 68.958 72.5043 68.652L72.3904 68.196L72.2404 67.752C72.1264 67.464 72.0124 67.17 71.8504 66.9C71.7064 66.618 71.5264 66.366 71.3524 66.108C71.1544 65.868 70.9684 65.61 70.7404 65.388L70.4104 65.052L70.0504 64.74C69.8164 64.524 69.5464 64.356 69.2944 64.164C69.0304 63.984 68.7544 63.822 68.4844 63.654L67.8604 63.258L68.5264 62.94C68.8444 62.784 69.1804 62.598 69.5044 62.412C69.8283 62.22 70.1404 62.016 70.4524 61.806C71.0704 61.38 71.6584 60.918 72.2104 60.414C72.4864 60.162 72.7504 59.898 73.0024 59.628C73.2544 59.352 73.4944 59.076 73.7224 58.782C73.9444 58.488 74.1604 58.188 74.3464 57.876C74.5324 57.564 74.7244 57.252 74.8744 56.916C75.0364 56.592 75.1624 56.25 75.2824 55.908L75.4384 55.392L75.5524 54.864C75.6063 54.51 75.6724 54.15 75.6724 53.79C75.6964 53.43 75.6723 53.07 75.6543 52.71C75.6063 52.35 75.5763 51.99 75.4863 51.636L75.3664 51.102L75.1984 50.58C75.1024 50.226 74.9344 49.896 74.8024 49.554C74.6524 49.218 74.4784 48.894 74.3164 48.558L73.4584 46.788L75.1024 47.844C75.3904 48.03 75.7263 48.222 76.0443 48.396C76.3684 48.57 76.7043 48.738 77.0403 48.888C77.7123 49.2 78.4023 49.464 79.1043 49.68C79.4583 49.788 79.8124 49.884 80.1664 49.956C80.5204 50.034 80.8803 50.1 81.2403 50.136C81.6003 50.184 81.9604 50.202 82.3144 50.202C82.6744 50.208 83.0284 50.178 83.3764 50.13L83.8924 50.04L84.3964 49.908C84.7264 49.794 85.0503 49.674 85.3563 49.512C85.5183 49.446 85.6563 49.344 85.8063 49.254C85.9563 49.17 86.1003 49.068 86.2323 48.954C86.5144 48.75 86.7604 48.498 87.0124 48.258C87.2344 47.988 87.4864 47.736 87.6784 47.436C87.8944 47.154 88.0744 46.842 88.2484 46.524C88.4344 46.218 88.5603 45.87 88.7223 45.546C88.8603 45.21 88.9804 44.862 89.1124 44.52L89.8683 42.552L90.2403 44.604C90.2943 44.91 90.3904 45.264 90.4984 45.594C90.6063 45.93 90.7324 46.254 90.8764 46.578C91.1584 47.22 91.5063 47.832 91.9324 48.384C92.3524 48.936 92.8383 49.428 93.3903 49.842C93.6603 50.052 93.9543 50.232 94.2543 50.394C94.5543 50.562 94.8724 50.688 95.1964 50.814C95.5264 50.916 95.8563 51.024 96.1983 51.084C96.5343 51.162 96.8883 51.198 97.2304 51.228C97.5784 51.246 97.9323 51.27 98.2863 51.252C98.6403 51.258 98.9943 51.204 99.3483 51.174C99.7023 51.138 100.05 51.06 100.404 51.006L101.454 50.754L102.492 50.442L103.518 50.076L104.946 49.566L104.124 50.832C103.98 51.054 103.824 51.324 103.686 51.582C103.548 51.846 103.422 52.11 103.302 52.38C103.068 52.92 102.876 53.478 102.744 54.048C102.612 54.618 102.54 55.194 102.546 55.77C102.552 56.34 102.648 56.91 102.84 57.444L103.002 57.84L103.2 58.218C103.35 58.458 103.506 58.698 103.698 58.914C103.872 59.142 104.094 59.334 104.298 59.532C104.52 59.718 104.742 59.904 104.994 60.06C105.228 60.234 105.498 60.366 105.75 60.516C106.008 60.66 106.29 60.774 106.554 60.9L107.394 61.218L108.258 61.488L108.876 61.68L108.366 62.07C108.042 62.322 107.712 62.622 107.418 62.934C107.112 63.246 106.842 63.582 106.584 63.93C106.446 64.098 106.338 64.284 106.224 64.47C106.098 64.65 106.008 64.842 105.912 65.034C105.81 65.226 105.72 65.418 105.654 65.622C105.582 65.826 105.492 66.024 105.45 66.234C105.408 66.444 105.336 66.648 105.312 66.864L105.252 67.506C105.252 67.722 105.276 67.938 105.288 68.154C105.288 68.37 105.348 68.58 105.396 68.79C105.456 69 105.468 69.222 105.564 69.42L105.81 70.026C105.876 70.236 106.014 70.416 106.116 70.608L106.452 71.178L106.572 71.388H106.344C105.468 71.394 104.574 71.508 103.716 71.736C103.29 71.862 102.87 72.006 102.48 72.222C102.378 72.27 102.288 72.336 102.198 72.396C102.102 72.45 102.012 72.516 101.928 72.594C101.844 72.666 101.748 72.726 101.676 72.816L101.448 73.062L101.664 72.804C101.73 72.714 101.826 72.648 101.904 72.57C101.988 72.492 102.072 72.42 102.168 72.36C102.264 72.3 102.348 72.222 102.45 72.168C102.834 71.928 103.254 71.754 103.68 71.604C104.538 71.316 105.438 71.172 106.35 71.13L106.242 71.34L105.87 70.764C105.75 70.572 105.606 70.392 105.522 70.176L105.24 69.546C105.132 69.342 105.108 69.108 105.036 68.886C104.976 68.664 104.904 68.442 104.898 68.208C104.88 67.98 104.844 67.746 104.832 67.512L104.868 66.816C104.88 66.582 104.946 66.36 104.988 66.126C105.024 65.892 105.108 65.676 105.18 65.454C105.246 65.232 105.33 65.016 105.438 64.806C105.534 64.596 105.63 64.38 105.75 64.188C105.864 63.99 105.978 63.78 106.116 63.594C106.374 63.21 106.662 62.844 106.974 62.508C107.286 62.16 107.61 61.848 107.988 61.542L108.102 62.124L107.196 61.866L106.302 61.548C106.014 61.416 105.714 61.302 105.432 61.158C105.15 61.008 104.862 60.87 104.598 60.684C104.322 60.522 104.064 60.318 103.812 60.114C103.572 59.898 103.32 59.688 103.11 59.43C102.888 59.19 102.696 58.914 102.516 58.638L102.276 58.2L102.078 57.744C101.838 57.12 101.712 56.46 101.688 55.8C101.664 55.14 101.73 54.486 101.862 53.856C101.994 53.22 102.186 52.602 102.432 52.008C102.552 51.708 102.684 51.42 102.828 51.132C102.978 50.844 103.116 50.568 103.308 50.274L103.914 51.03L102.846 51.42L101.754 51.756C101.388 51.852 101.01 51.942 100.644 52.032C100.266 52.092 99.8883 52.176 99.5043 52.218C99.1203 52.254 98.7363 52.308 98.3463 52.314C97.9564 52.338 97.5664 52.32 97.1764 52.302C96.7864 52.266 96.3963 52.23 96.0063 52.146C95.6163 52.08 95.2384 51.96 94.8604 51.846C94.4884 51.708 94.1163 51.558 93.7683 51.372C93.4143 51.186 93.0723 50.976 92.7543 50.736C92.1123 50.262 91.5484 49.698 91.0624 49.074C90.5764 48.45 90.1804 47.766 89.8624 47.058C89.7004 46.704 89.5563 46.338 89.4363 45.966C89.3103 45.588 89.2084 45.234 89.1304 44.808L90.2523 44.892C90.1143 45.264 89.9883 45.642 89.8383 46.008C89.6643 46.368 89.5323 46.746 89.3223 47.094C89.1303 47.448 88.9323 47.802 88.6863 48.132C88.4703 48.474 88.1823 48.78 87.9243 49.092C87.6303 49.38 87.3364 49.674 86.9944 49.92C86.8324 50.052 86.6644 50.172 86.4784 50.274C86.2984 50.382 86.1304 50.502 85.9324 50.58C85.5604 50.772 85.1703 50.916 84.7743 51.048L84.1743 51.204C83.9703 51.246 83.7664 51.27 83.5624 51.306C83.1544 51.354 82.7463 51.384 82.3383 51.378C81.9303 51.378 81.5284 51.348 81.1324 51.294C80.7304 51.252 80.3404 51.174 79.9504 51.084C79.5604 51 79.1764 50.892 78.7984 50.772C78.0424 50.532 77.3104 50.244 76.5964 49.908C76.2424 49.74 75.8884 49.56 75.5464 49.374C75.1984 49.182 74.8683 48.99 74.5203 48.762L75.3064 48.048C75.4804 48.408 75.6664 48.762 75.8224 49.128C75.9664 49.5 76.1404 49.866 76.2424 50.256L76.4224 50.832L76.5543 51.426C76.6503 51.816 76.6864 52.224 76.7344 52.626C76.7584 53.034 76.7824 53.442 76.7464 53.85C76.7404 54.258 76.6684 54.666 76.6024 55.062L76.4703 55.662L76.2904 56.244C76.1524 56.628 76.0084 57.006 75.8224 57.366C75.6544 57.732 75.4443 58.08 75.2283 58.416C75.0123 58.752 74.7663 59.076 74.5203 59.388C74.2683 59.7 73.9984 59.994 73.7224 60.282C73.4404 60.564 73.1524 60.84 72.8584 61.098C72.2584 61.62 71.6284 62.094 70.9684 62.52C70.6384 62.736 70.3024 62.94 69.9604 63.132C69.6124 63.324 69.2764 63.504 68.8984 63.672L68.9404 62.958C69.2224 63.15 69.5164 63.324 69.7924 63.522C70.0624 63.738 70.3444 63.924 70.5904 64.164L70.9744 64.506L71.3284 64.884C71.5744 65.124 71.7664 65.418 71.9764 65.688C72.1684 65.976 72.3604 66.264 72.5104 66.576C72.6784 66.876 72.7984 67.206 72.9184 67.53L73.0684 68.028L73.1824 68.532C73.2364 68.874 73.2904 69.21 73.3024 69.558C73.3684 70.932 73.0744 72.282 72.6064 73.536C72.3724 74.166 72.0904 74.772 71.7664 75.36C71.4424 75.948 71.0944 76.512 70.6864 77.052L70.5124 76.812L70.9204 76.698C71.0524 76.656 71.1964 76.638 71.3284 76.608C71.6044 76.548 71.8804 76.53 72.1564 76.494C72.7084 76.446 73.2603 76.446 73.8123 76.47C74.8743 76.536 75.9604 76.698 77.0284 76.95Z" fill="white"/>
</svg>
