<svg width="300" height="300" viewBox="0 0 300 300" fill="none" xmlns="http://www.w3.org/2000/svg">
<path d="M300 229.44H0V229.59H300V229.44Z" fill="#F1F3F6"/>
<path d="M267.354 234H250.602V234.15H267.354V234Z" fill="#F1F3F6"/>
<path d="M167.442 234H153.702V234.15H167.442V234Z" fill="#F1F3F6"/>
<path d="M136.416 236.556H86.7842V236.706H136.416V236.556Z" fill="#F1F3F6"/>
<path d="M69.3366 235.536H40.1406V235.686H69.3366V235.536Z" fill="#F1F3F6"/>
<path d="M244.788 234H193.62V234.15H244.788V234Z" fill="#F1F3F6"/>
<path d="M35.2442 235.536H30.9902V235.686H35.2442V235.536Z" fill="#F1F3F6"/>
<path d="M142.206 202.68H26.3518C24.4618 202.68 22.9258 201.144 22.9258 199.254V36.396C22.9258 34.506 24.4618 32.97 26.3518 32.97H142.212C144.102 32.97 145.638 34.506 145.638 36.396V199.254C145.632 201.144 144.096 202.68 142.206 202.68ZM26.3518 33.12C24.5458 33.12 23.0758 34.59 23.0758 36.396V199.254C23.0758 201.06 24.5458 202.53 26.3518 202.53H142.212C144.018 202.53 145.488 201.06 145.488 199.254V36.396C145.488 34.59 144.018 33.12 142.212 33.12H26.3518Z" fill="#F1F3F6"/>
<path d="M271.986 202.68H156.126C154.236 202.68 152.7 201.144 152.7 199.254V36.396C152.7 34.506 154.236 32.97 156.126 32.97H271.986C273.876 32.97 275.412 34.506 275.412 36.396V199.254C275.412 201.144 273.876 202.68 271.986 202.68ZM156.126 33.12C154.32 33.12 152.85 34.59 152.85 36.396V199.254C152.85 201.06 154.32 202.53 156.126 202.53H271.986C273.792 202.53 275.262 201.06 275.262 199.254V36.396C275.262 34.59 273.792 33.12 271.986 33.12H156.126Z" fill="#F1F3F6"/>
<path d="M205.049 170.766C204.719 170.772 204.389 170.778 204.053 170.802C197.015 171.282 191.327 177.006 190.877 184.044C190.775 185.652 190.943 187.206 191.333 188.67C192.953 194.688 193.559 200.94 193.559 207.174V225.342C193.559 226.662 194.627 227.73 195.947 227.73H205.049H214.151H253.607V170.778H205.049V170.766Z" fill="#F1F1F1"/>
<path d="M267.816 184.968C267.816 176.796 260.91 170.232 252.618 170.796C245.58 171.276 239.892 177 239.442 184.038C239.34 185.646 239.508 187.2 239.898 188.664C241.518 194.682 242.124 200.934 242.124 207.168V225.336C242.124 226.656 243.192 227.724 244.512 227.724H262.722C264.042 227.724 265.11 226.656 265.11 225.336V206.1C265.11 200.25 265.746 194.4 267.312 188.766C267.636 187.554 267.816 186.282 267.816 184.968Z" fill="#FAFAFA"/>
<path d="M234.036 193.14H153.186V227.718H234.036V193.14Z" fill="#F1F1F1"/>
<path d="M198.029 151.722H121.157C115.217 151.722 110.405 156.534 110.405 162.474V200.964H208.775V162.474C208.775 156.534 203.963 151.722 198.029 151.722Z" fill="#E2E4E7"/>
<path d="M212.081 151.722H134.171C128.519 151.722 123.941 156.3 123.941 161.952V200.958H222.311V161.952C222.311 156.3 217.727 151.722 212.081 151.722Z" fill="#FAFAFA"/>
<path d="M233.375 189.984H156.576C156.06 189.984 155.646 190.404 155.646 190.914V203.13C155.646 203.646 156.066 204.06 156.576 204.06H233.375C235.097 204.06 236.495 202.662 236.495 200.94V193.098C236.495 191.376 235.097 189.984 233.375 189.984Z" fill="#E2E4E7"/>
<path d="M105.3 170.766C104.97 170.772 104.64 170.778 104.304 170.802C97.2659 171.282 91.5779 177.006 91.1279 184.044C91.0259 185.652 91.1939 187.206 91.5839 188.67C93.2039 194.688 93.8099 200.94 93.8099 207.174V225.342C93.8099 226.662 94.8779 227.73 96.1979 227.73H105.3H114.402H153.858V170.778H105.3V170.766Z" fill="#F1F1F1"/>
<path d="M168.066 184.968C168.066 176.796 161.16 170.232 152.868 170.796C145.83 171.276 140.142 177 139.692 184.038C139.59 185.646 139.758 187.2 140.148 188.664C141.768 194.682 142.374 200.934 142.374 207.168V225.336C142.374 226.656 143.442 227.724 144.762 227.724H162.972C164.292 227.724 165.36 226.656 165.36 225.336V206.1C165.36 200.25 165.996 194.4 167.562 188.766C167.886 187.554 168.066 186.282 168.066 184.968Z" fill="#FAFAFA"/>
<path d="M252.594 229.446H106.314C105.36 229.446 104.586 228.672 104.586 227.718H254.328C254.328 228.672 253.554 229.446 252.594 229.446Z" fill="#E2E4E7"/>
<path d="M44.9882 186.252H28.9502V226.866H44.9882V186.252Z" fill="#F1F1F1"/>
<path d="M111.126 226.866H32.0283V229.44H111.126V226.866Z" fill="#F1F1F1"/>
<path d="M44.987 226.867H114.209V186.253H44.987V226.867Z" fill="#FAFAFA"/>
<path d="M51.2933 204.573H107.903V191.253H51.2933V204.573Z" fill="#F1F1F1"/>
<path d="M51.2933 221.866H107.903V208.546H51.2933V221.866Z" fill="#F1F1F1"/>
<path d="M86.6046 192.492H72.5946C72.0906 192.492 71.6826 192.084 71.6826 191.58C71.6826 191.076 72.0906 190.668 72.5946 190.668H86.6046C87.1086 190.668 87.5166 191.076 87.5166 191.58C87.5166 192.078 87.1086 192.492 86.6046 192.492Z" fill="#FAFAFA"/>
<path d="M86.6046 209.784H72.5946C72.0906 209.784 71.6826 209.376 71.6826 208.872C71.6826 208.368 72.0906 207.96 72.5946 207.96H86.6046C87.1086 207.96 87.5166 208.368 87.5166 208.872C87.5166 209.376 87.1086 209.784 86.6046 209.784Z" fill="#FAFAFA"/>
<path d="M204.774 46.164H91.9082V127.236H204.774V46.164Z" fill="#F1F3F6"/>
<path d="M206.67 46.164H92.7959V127.236H206.67V46.164Z" fill="#FAFAFA"/>
<path d="M204.773 127.236H91.9072V129.06H204.773V127.236Z" fill="#F1F3F6"/>
<path d="M215.31 127.236H105.576V129.06H215.31V127.236Z" fill="#FAFAFA"/>
<path d="M204.02 123.799V49.6027L95.4375 49.6027L95.4375 123.799L204.02 123.799Z" fill="#F5FCFF"/>
<path d="M124.991 123.798L140.525 49.602H160.355L144.815 123.798H124.991Z" fill="white"/>
<path d="M150.426 123.798L165.96 49.602H175.164L159.624 123.798H150.426Z" fill="white"/>
<path d="M204.023 116.035V49.1407H203.687V116.035H204.023Z" fill="#F1F3F6"/>
<path d="M89.9219 46.05V74.916H97.5599C97.5599 74.916 111.282 65.964 114.402 47.556C114.72 45.684 113.286 43.974 111.39 43.974H92.0039C90.8519 43.974 89.9219 44.904 89.9219 46.05Z" fill="#F1F3F6"/>
<path d="M89.9219 121.182V77.244H97.5599C97.5599 77.244 101.952 86.112 106.332 96.318C111.378 108.084 102.732 121.182 89.9219 121.182Z" fill="#F1F3F6"/>
<path d="M97.3376 77.244H90.2035C89.7835 77.244 89.4355 76.902 89.4355 76.476V75.678C89.4355 75.258 89.7775 74.91 90.2035 74.91H97.3376C97.7576 74.91 98.1056 75.252 98.1056 75.678V76.476C98.0996 76.902 97.7576 77.244 97.3376 77.244Z" fill="#FAFAFA"/>
<path d="M208.829 46.05V74.916H201.191C201.191 74.916 187.469 65.964 184.349 47.556C184.031 45.684 185.465 43.974 187.361 43.974H206.747C207.899 43.974 208.829 44.904 208.829 46.05Z" fill="#F1F3F6"/>
<path d="M208.829 121.182V77.244H201.191C201.191 77.244 196.799 86.112 192.419 96.318C187.373 108.084 196.019 121.182 208.829 121.182Z" fill="#F1F3F6"/>
<path d="M201.418 77.244H208.552C208.972 77.244 209.32 76.902 209.32 76.476V75.678C209.32 75.258 208.978 74.91 208.552 74.91H201.418C200.998 74.91 200.65 75.252 200.65 75.678V76.476C200.65 76.902 200.992 77.244 201.418 77.244Z" fill="#FAFAFA"/>
<path d="M263.634 55.398H226.158V111.378H263.634V55.398Z" fill="#F1F3F6"/>
<path d="M269.058 55.398H227.118V111.378H269.058V55.398Z" fill="#FAFAFA"/>
<path d="M264.733 107.053V59.7245L231.445 59.7245V107.053H264.733Z" fill="white"/>
<path d="M244.896 87.93V85.236C244.896 81.708 247.752 78.852 251.28 78.852V81.546C251.28 85.068 248.424 87.93 244.896 87.93Z" fill="#F1F3F6"/>
<path d="M244.896 100.686V97.992C244.896 94.464 247.752 91.608 251.28 91.608V94.302C251.28 97.824 248.424 100.686 244.896 100.686Z" fill="#F1F3F6"/>
<path d="M244.896 75.174V72.48C244.896 68.952 247.752 66.096 251.28 66.096V68.79C251.28 72.312 248.424 75.174 244.896 75.174Z" fill="#F1F3F6"/>
<path d="M54.6655 175.482C56.1835 159.786 57.5395 115.944 56.6515 108.072L54.5515 106.542C54.5515 106.542 55.1995 135.168 54.0715 159.216C52.9436 183.264 53.9095 171.912 53.4355 175.482H54.6655Z" fill="#F1F3F6"/>
<path d="M60.5282 144.258C64.7642 140.934 73.4102 138.57 82.2182 138.582C85.6802 138.588 71.6942 142.446 65.8802 146.712C61.3622 150.024 56.2682 155.592 54.5342 158.682C55.6562 152.178 56.2922 147.582 60.5282 144.258Z" fill="#F1F3F6"/>
<path d="M52.1331 149.178C48.6171 145.716 40.4991 143.052 31.7211 142.752C28.2711 142.632 41.3871 146.976 46.2831 151.434C50.0871 154.896 53.9811 160.62 55.0551 163.764C55.3131 157.242 55.6491 152.64 52.1331 149.178Z" fill="#F1F3F6"/>
<path d="M60.7137 120.816C64.2957 118.002 71.6217 115.998 79.0797 116.01C82.0077 116.016 70.1697 119.286 65.2437 122.892C61.4157 125.694 57.1077 130.41 55.6377 133.032C56.5917 127.518 57.1317 123.63 60.7137 120.816Z" fill="#F1F3F6"/>
<path d="M53.6091 124.974C50.6331 122.04 43.7571 119.79 36.3231 119.532C33.4011 119.43 44.5131 123.108 48.6531 126.882C51.8751 129.81 55.1751 134.664 56.0811 137.322C56.3031 131.802 56.5851 127.908 53.6091 124.974Z" fill="#F1F3F6"/>
<path d="M55.3367 103.53C53.2187 101.142 48.0887 99.108 42.4187 98.586C40.1927 98.382 48.4847 101.7 51.4487 104.784C53.7527 107.178 56.0147 111.054 56.5667 113.142C57.0287 108.9 57.4547 105.918 55.3367 103.53Z" fill="#F1F3F6"/>
<path d="M56.7228 105.12C58.2528 103.062 61.8888 101.274 65.8788 100.776C67.4448 100.578 61.5648 103.494 59.4288 106.152C57.7668 108.222 56.1108 111.552 55.6848 113.34C55.4328 109.722 55.1928 107.178 56.7228 105.12Z" fill="#F1F3F6"/>
<path d="M54.3899 186.252C59.0279 186.252 62.8619 182.634 63.1259 178.002L63.8999 170.634H44.8799L45.6539 178.002C45.9179 182.634 49.7519 186.252 54.3899 186.252Z" fill="#F1F1F1"/>
<path d="M43.6432 173.682H65.1293L65.7412 168.108H43.0312L43.6432 173.682Z" fill="#F1F1F1"/>
<path d="M150 256.536C214.249 256.536 266.334 253.495 266.334 249.744C266.334 245.993 214.249 242.952 150 242.952C85.7505 242.952 33.666 245.993 33.666 249.744C33.666 253.495 85.7505 256.536 150 256.536Z" fill="#F4F5F7"/>
<path d="M150.486 239.808L146.418 238.2L149.064 228.36L153.126 229.968L150.486 239.808Z" fill="#FFC3BD"/>
<path d="M191.31 244.326H186.942L183.534 234.198H187.908L191.31 244.326Z" fill="#FFC3BD"/>
<path d="M186.354 243.816H191.682C191.862 243.816 192.018 243.942 192.054 244.116L192.918 248.004C193.008 248.406 192.69 248.79 192.276 248.784C190.56 248.754 189.312 248.652 187.152 248.652C185.826 248.652 181.818 248.79 179.982 248.79C178.188 248.79 177.906 246.978 178.656 246.81C182.022 246.072 184.56 245.058 185.64 244.086C185.844 243.912 186.096 243.816 186.354 243.816Z" fill="#14365B"/>
<path d="M146.634 237.738L151.074 239.496C151.242 239.562 151.338 239.736 151.308 239.91L150.678 243.84C150.612 244.248 150.186 244.488 149.808 244.332C148.218 243.672 145.938 242.664 143.928 241.866C141.576 240.936 139.494 240.258 136.734 239.166C135.066 238.506 135.27 236.634 136.026 236.76C139.482 237.324 142.11 238.278 145.524 237.672C145.902 237.6 146.286 237.6 146.634 237.738Z" fill="#14365B"/>
<path d="M176.958 112.8C176.55 113.124 176.232 113.37 175.872 113.64C175.524 113.904 175.164 114.15 174.804 114.396C174.09 114.888 173.358 115.356 172.62 115.812C171.138 116.718 169.59 117.54 167.958 118.26C166.326 118.974 164.616 119.598 162.768 120C160.926 120.402 158.928 120.63 156.804 120.3C156.264 120.228 155.772 120.102 155.19 119.946C154.032 119.586 153.384 118.992 152.898 118.506C151.962 117.504 151.524 116.604 151.098 115.734C150.288 114.006 149.802 112.35 149.364 110.694C148.524 107.382 148.026 104.124 147.75 100.776L150.972 100.164C151.968 103.182 153.012 106.248 154.176 109.116C154.752 110.544 155.4 111.948 156.084 113.1C156.414 113.664 156.828 114.168 157.038 114.324C157.128 114.402 157.152 114.312 156.78 114.18C156.984 114.204 157.284 114.27 157.554 114.276C158.664 114.354 159.942 114.174 161.25 113.808C162.558 113.436 163.896 112.908 165.216 112.266C166.542 111.636 167.844 110.892 169.134 110.112C169.776 109.716 170.412 109.308 171.042 108.882L171.966 108.24C172.266 108.036 172.596 107.79 172.83 107.616L176.958 112.8Z" fill="#FFC3BD"/>
<path d="M179.688 111.726C178.626 115.77 165.528 120.3 165.528 120.3L161.496 111.204C161.496 111.204 166.818 108.402 171.744 106.176C175.05 104.682 180.84 107.328 179.688 111.726Z" fill="#A1AABF"/>
<path d="M150.996 100.89L151.104 96.99L146.364 98.394C146.364 98.394 146.418 100.446 148.188 101.76L150.996 100.89Z" fill="#FFC3BD"/>
<path d="M151.332 94.278L146.778 95.844L146.364 98.4L151.11 96.99L151.332 94.278Z" fill="#FFC3BD"/>
<path d="M150.467 103.524L154.961 102.528C155.273 102.456 155.441 102.156 155.327 101.85L151.415 91.428C151.301 91.122 150.953 90.93 150.635 91.002L146.141 91.998C145.829 92.07 145.661 92.37 145.775 92.676L149.681 103.098C149.801 103.398 150.155 103.59 150.467 103.524Z" fill="#0053CC"/>
<path d="M151.02 103.398L155.514 102.402C155.826 102.33 155.994 102.03 155.88 101.724L151.968 91.302C151.854 90.996 151.506 90.804 151.188 90.876L146.694 91.872C146.382 91.944 146.214 92.244 146.328 92.55L150.234 102.972C150.354 103.278 150.708 103.47 151.02 103.398Z" fill="#A1AABF"/>
<path d="M146.467 92.91L148.225 97.596L148.387 98.028L149.173 100.134L149.341 100.584L149.977 102.264L155.611 101.016L155.455 100.602L155.287 100.164L153.769 96.114L153.295 94.848L152.107 91.668L150.241 92.076L149.767 92.19L147.211 92.748L146.815 92.838L146.467 92.91Z" fill="#546076"/>
<path d="M150.132 94.824L149.658 98.688C149.622 98.994 149.898 99.252 150.204 99.18L153.24 98.484C153.564 98.412 153.696 98.022 153.486 97.764L150.924 94.596C150.678 94.29 150.18 94.434 150.132 94.824Z" fill="#A1AABF"/>
<path d="M151.765 97.812C151.825 98.022 151.753 98.22 151.591 98.256C151.435 98.292 151.255 98.154 151.195 97.944C151.135 97.734 151.207 97.536 151.369 97.5C151.525 97.464 151.705 97.602 151.765 97.812Z" fill="white"/>
<path d="M151.398 97.14L151.14 97.2C151.086 97.212 151.032 97.17 151.008 97.104L150.504 95.724C150.474 95.646 150.504 95.574 150.558 95.562L150.99 95.46C151.05 95.448 151.11 95.502 151.128 95.58L151.458 97.002C151.476 97.062 151.452 97.128 151.398 97.14Z" fill="white"/>
<path d="M149.064 228.36L147.702 233.43L151.764 235.044L153.132 229.968L149.064 228.36Z" fill="#F29994"/>
<path d="M187.907 234.204H183.533L185.291 239.418H189.665L187.907 234.204Z" fill="#F29994"/>
<path d="M197.351 109.902C195.491 114.558 194.105 119.358 193.037 123.9C192.263 127.224 191.663 130.41 191.195 133.308C190.091 140.1 189.677 145.326 189.287 147.066C185.915 146.46 173.201 144.186 166.271 142.938C165.791 117.876 173.201 105.792 173.201 105.792C173.201 105.792 175.823 105.558 178.823 105.708C179.219 105.726 179.621 105.756 180.029 105.792C182.663 106.02 186.899 106.878 189.815 107.544C190.427 107.682 191.045 107.844 191.645 108.006C194.699 108.846 197.351 109.902 197.351 109.902Z" fill="#A1AABF"/>
<path d="M190.818 115.518C190.386 119.4 191.1 122.802 192.6 125.88C192.738 125.226 192.888 124.566 193.038 123.9C193.62 121.404 194.304 118.824 195.12 116.238L190.818 115.518Z" fill="#A1AABF"/>
<path d="M190.824 96.354C189.642 99.39 187.992 105.048 189.816 107.544C187.902 108.918 185.256 109.902 181.734 109.188C179.034 108.642 179.238 106.728 180.03 105.786C183.69 105.576 184.068 102.96 183.894 100.404L190.824 96.354Z" fill="#FFC3BD"/>
<path d="M188.005 98.004L183.907 100.398C183.949 101.004 183.961 101.61 183.895 102.186C185.269 102.234 187.375 101.094 187.771 99.714C187.969 99.03 188.059 98.352 188.005 98.004Z" fill="#F29994"/>
<path d="M180.168 86.052C179.208 88.002 178.776 94.044 181.482 93.108C184.188 92.172 184.044 87.57 184.044 87.57C184.044 87.57 182.418 81.486 180.168 86.052Z" fill="#0F264C"/>
<path d="M192.054 91.68C191.028 95.898 190.638 98.412 188.094 100.218C184.266 102.93 179.352 100.032 179.1 95.592C178.872 91.596 180.588 85.374 185.064 84.426C189.474 83.496 193.08 87.468 192.054 91.68Z" fill="#FFC3BD"/>
<path d="M189.906 88.242C187.44 89.736 187.854 94.56 191.256 95.826C194.658 97.092 195.402 94.614 194.844 94.356C196.02 94.11 200.652 92.034 198.816 88.272C197.7 85.986 194.292 86.364 194.292 86.364C194.292 86.364 198.324 82.41 191.982 79.224C184.23 75.336 183.06 82.47 183.06 82.47C183.06 82.47 178.074 81.918 178.494 85.242C179.052 89.646 183.732 86.13 183.732 86.13C183.732 86.13 184.02 90 189.906 88.242Z" fill="#0F264C"/>
<path d="M183.324 84.138C183.228 84.138 183.144 84.078 183.114 83.988C183.066 83.856 182.004 80.7 183.63 78.642C184.686 77.304 186.618 76.77 189.378 77.046C189.504 77.058 189.594 77.166 189.576 77.292C189.564 77.418 189.462 77.508 189.33 77.496C186.738 77.232 184.938 77.712 183.984 78.918C182.508 80.778 183.528 83.808 183.54 83.838C183.582 83.958 183.516 84.084 183.402 84.126C183.372 84.132 183.348 84.138 183.324 84.138Z" fill="#0F264C"/>
<path d="M193.134 96.726C192.354 97.596 191.244 98.028 190.284 98.064C188.838 98.118 188.448 96.744 189.132 95.556C189.744 94.488 191.238 93.168 192.552 93.678C193.842 94.176 194.028 95.73 193.134 96.726Z" fill="#FFC3BD"/>
<path d="M146.55 231.888L153.432 234.612C153.432 234.612 161.454 207.93 164.19 194.586C165.024 190.524 166.728 184.932 168.75 178.968C171.306 171.45 174.366 163.356 176.844 157.026C179.454 150.36 181.398 145.65 181.398 145.65L166.266 142.938C166.266 142.938 153.12 177.978 151.236 191.184C149.274 204.918 146.55 231.888 146.55 231.888Z" fill="#C6CDD9"/>
<path d="M168.75 178.968C171.306 171.45 174.366 163.356 176.844 157.026L175.632 153.45C171.366 157.53 168.84 171.33 168.75 178.968Z" fill="#A9ADB1"/>
<path d="M174.432 144.402C174.432 144.402 172.044 181.788 172.512 194.592C173.028 208.608 183.228 238.41 183.228 238.41H191.232C191.232 238.41 186.048 211.602 185.004 197.964C183.816 182.43 189.276 147.066 189.276 147.066L174.432 144.402Z" fill="#C6CDD9"/>
<path d="M182.28 238.584H191.706V235.764L181.164 235.584L182.28 238.584Z" fill="#A1AABF"/>
<path d="M145.62 231.708L153.822 234.954L154.872 232.308L145.758 228.534L145.62 231.708Z" fill="#A1AABF"/>
<path d="M185.37 91.71C185.31 92.058 185.076 92.304 184.848 92.262C184.62 92.22 184.488 91.908 184.548 91.56C184.608 91.212 184.842 90.966 185.07 91.008C185.304 91.05 185.436 91.362 185.37 91.71Z" fill="#0F264C"/>
<path d="M181.453 91.008C181.393 91.356 181.159 91.602 180.931 91.56C180.703 91.518 180.571 91.206 180.631 90.858C180.691 90.51 180.925 90.264 181.153 90.306C181.381 90.348 181.513 90.66 181.453 91.008Z" fill="#0F264C"/>
<path d="M182.664 91.404C182.664 91.404 181.518 93.264 180.474 94.074C180.984 94.758 182.076 94.68 182.076 94.68L182.664 91.404Z" fill="#ED847E"/>
<path d="M184.566 97.152C184.518 97.152 184.476 97.116 184.464 97.068C184.452 97.014 184.488 96.96 184.542 96.948C185.124 96.828 185.16 96.714 185.16 96.714C185.148 96.708 185.142 96.696 185.136 96.684C185.136 96.684 184.872 96.306 183.522 96.246C183.468 96.246 183.42 96.198 183.426 96.138C183.426 96.084 183.474 96.042 183.528 96.042C183.528 96.042 183.528 96.042 183.534 96.042C184.896 96.102 185.238 96.474 185.304 96.57C185.34 96.606 185.382 96.678 185.364 96.768C185.322 96.936 185.076 97.062 184.584 97.158C184.584 97.146 184.572 97.152 184.566 97.152Z" fill="#0F264C"/>
<path d="M186.817 90.66C186.739 90.66 186.667 90.618 186.631 90.546C186.217 89.73 185.479 89.634 185.449 89.628C185.335 89.616 185.257 89.514 185.269 89.4C185.281 89.286 185.377 89.202 185.497 89.22C185.539 89.226 186.487 89.34 187.003 90.36C187.057 90.462 187.015 90.588 186.913 90.636C186.883 90.654 186.853 90.66 186.817 90.66Z" fill="#0F264C"/>
<path d="M180.012 89.358C179.97 89.358 179.928 89.346 179.892 89.316C179.802 89.25 179.778 89.118 179.844 89.028C180.522 88.104 181.476 88.14 181.518 88.146C181.632 88.152 181.722 88.248 181.716 88.362C181.71 88.476 181.632 88.572 181.5 88.56C181.47 88.566 180.726 88.536 180.186 89.274C180.138 89.328 180.072 89.358 180.012 89.358Z" fill="#0F264C"/>
<path d="M184.914 244.584C184.584 244.584 184.272 244.53 184.074 244.362C183.918 244.23 183.846 244.044 183.858 243.816C183.87 243.642 183.96 243.564 184.032 243.522C184.518 243.276 185.928 244.14 186.084 244.242C186.12 244.266 186.138 244.308 186.132 244.344C186.126 244.386 186.096 244.416 186.054 244.428C185.754 244.5 185.316 244.584 184.914 244.584ZM184.26 243.678C184.206 243.678 184.158 243.684 184.128 243.702C184.098 243.714 184.068 243.744 184.062 243.822C184.05 243.984 184.098 244.11 184.2 244.2C184.44 244.404 185.01 244.428 185.754 244.278C185.262 243.996 184.596 243.678 184.26 243.678Z" fill="#A1AABF"/>
<path d="M186.031 244.428C186.013 244.428 185.995 244.422 185.983 244.416C185.533 244.17 184.657 243.21 184.747 242.724C184.765 242.634 184.831 242.484 185.077 242.454C185.239 242.43 185.389 242.478 185.521 242.586C186.031 243 186.133 244.26 186.139 244.314C186.139 244.35 186.127 244.386 186.091 244.41C186.073 244.422 186.049 244.428 186.031 244.428ZM185.149 242.652C185.131 242.652 185.119 242.652 185.101 242.652C184.969 242.67 184.957 242.73 184.951 242.754C184.897 243.042 185.455 243.768 185.905 244.104C185.857 243.738 185.713 243 185.389 242.736C185.311 242.682 185.233 242.652 185.149 242.652Z" fill="#A1AABF"/>
<path d="M146.016 238.14C146.01 238.14 146.004 238.14 145.998 238.14C145.29 238.014 144.066 237.708 143.772 237.138C143.682 236.964 143.688 236.784 143.778 236.598C143.832 236.484 143.922 236.418 144.036 236.406C144.054 236.406 144.066 236.4 144.084 236.4C144.708 236.4 145.95 237.804 146.088 237.966C146.118 237.996 146.124 238.044 146.1 238.086C146.088 238.122 146.052 238.14 146.016 238.14ZM144.096 236.61C144.084 236.61 144.078 236.61 144.066 236.61C144.018 236.616 143.988 236.64 143.964 236.688C143.904 236.814 143.898 236.934 143.958 237.042C144.12 237.36 144.774 237.666 145.728 237.87C145.2 237.306 144.438 236.61 144.096 236.61Z" fill="#A1AABF"/>
<path d="M146.016 238.14C145.986 238.14 145.962 238.128 145.944 238.11C145.542 237.696 144.918 236.43 145.17 236.004C145.23 235.902 145.362 235.8 145.632 235.878C145.836 235.938 145.992 236.064 146.1 236.256C146.448 236.886 146.124 238.026 146.112 238.074C146.1 238.11 146.076 238.134 146.04 238.146C146.034 238.14 146.028 238.14 146.016 238.14ZM145.464 236.058C145.386 236.058 145.362 236.094 145.35 236.112C145.194 236.37 145.584 237.324 145.962 237.822C146.034 237.48 146.148 236.772 145.92 236.358C145.842 236.214 145.728 236.124 145.578 236.082C145.53 236.058 145.494 236.058 145.464 236.058Z" fill="#A1AABF"/>
<path d="M197.473 111.942C198.055 112.62 198.553 113.232 199.051 113.892C199.549 114.54 200.035 115.2 200.515 115.86C201.463 117.192 202.369 118.56 203.215 119.97C204.073 121.374 204.859 122.844 205.591 124.356L206.125 125.502L206.617 126.684C206.785 127.074 206.923 127.488 207.073 127.896L207.289 128.508L207.343 128.658L207.427 128.916C207.487 129.114 207.529 129.288 207.565 129.474C207.823 130.89 207.667 131.916 207.505 132.882C207.325 133.836 207.073 134.694 206.803 135.522C206.245 137.172 205.561 138.684 204.841 140.154C203.377 143.094 201.709 145.812 199.825 148.464L196.975 146.838C198.151 144.006 199.291 141.09 200.269 138.24C200.755 136.812 201.187 135.384 201.499 134.01C201.655 133.326 201.775 132.654 201.823 132.054C201.877 131.472 201.835 130.902 201.763 130.776C201.757 130.77 201.751 130.752 201.745 130.764C201.739 130.752 201.757 130.8 201.733 130.74L201.679 130.62L201.463 130.14C201.319 129.816 201.181 129.498 201.007 129.174L200.521 128.214L199.999 127.254C199.279 125.982 198.505 124.716 197.683 123.468C196.855 122.226 195.997 120.99 195.109 119.772C194.245 118.56 193.279 117.33 192.415 116.214L197.473 111.942Z" fill="#FFC3BD"/>
<path d="M196.17 109.542C200.304 110.166 205.794 119.496 205.794 119.496L198.03 127.95C198.03 127.95 193.764 122.46 191.286 117.66C188.586 112.434 191.166 108.786 196.17 109.542Z" fill="#A1AABF"/>
<path d="M197.772 145.998L193.95 148.254L198.534 151.446C198.534 151.446 201.36 148.806 200.13 147.15L197.772 145.998Z" fill="#FFC3BD"/>
<path d="M192.595 151.638L196.507 154.098L198.535 151.44L193.951 148.248L192.595 151.638Z" fill="#FFC3BD"/>
<path d="M153.677 91.92H153.077C153.077 90.762 152.135 89.82 150.977 89.82V89.22C152.465 89.22 153.677 90.432 153.677 91.92Z" fill="#A1AABF"/>
<path d="M154.877 91.92H154.277C154.277 90.102 152.795 88.62 150.977 88.62V88.02C153.131 88.02 154.877 89.772 154.877 91.92Z" fill="#A1AABF"/>
<path d="M156.078 91.92H155.478C155.478 89.436 153.462 87.42 150.978 87.42V86.82C153.792 86.82 156.078 89.106 156.078 91.92Z" fill="#A1AABF"/>
<path d="M150.546 105.954C149.058 105.954 147.846 104.742 147.846 103.254H148.446C148.446 104.412 149.388 105.354 150.546 105.354V105.954Z" fill="#A1AABF"/>
<path d="M150.546 107.154C148.398 107.154 146.646 105.402 146.646 103.254H147.246C147.246 105.072 148.728 106.554 150.546 106.554V107.154Z" fill="#A1AABF"/>
<path d="M150.545 108.354C147.731 108.354 145.445 106.068 145.445 103.254H146.045C146.045 105.738 148.061 107.754 150.545 107.754V108.354Z" fill="#A1AABF"/>
<path d="M61.1645 86.202H60.5645V98.004H61.1645V86.202Z" fill="#A1AABF"/>
<path d="M61.1645 101.268H60.5645V105.054H61.1645V101.268Z" fill="#A1AABF"/>
<path d="M121.68 126.798H70.8599C66.3539 126.798 62.6699 123.114 62.6699 118.608V82.344C62.6699 77.838 66.3539 74.154 70.8599 74.154H121.68C126.186 74.154 129.87 77.838 129.87 82.344V118.608C129.87 123.114 126.18 126.798 121.68 126.798Z" fill="#A1AABF"/>
<path d="M61.8604 73.962C61.7044 73.962 61.5544 73.902 61.4344 73.788L56.8025 69.156C56.5685 68.922 56.5685 68.544 56.8025 68.31C57.0365 68.076 57.4145 68.076 57.6485 68.31L62.2804 72.942C62.5144 73.176 62.5144 73.554 62.2804 73.788C62.1664 73.902 62.0164 73.962 61.8604 73.962Z" fill="#A1AABF"/>
<path d="M64.836 72.69C64.554 72.69 64.302 72.492 64.248 72.204L63.396 67.776C63.336 67.452 63.546 67.134 63.87 67.074C64.194 67.014 64.512 67.224 64.572 67.548L65.424 71.976C65.484 72.3 65.274 72.618 64.95 72.678C64.914 72.684 64.872 72.69 64.836 72.69Z" fill="#A1AABF"/>
<path d="M60.5884 76.938C60.5524 76.938 60.5104 76.932 60.4744 76.926L56.0464 76.074C55.7224 76.014 55.5064 75.696 55.5724 75.372C55.6324 75.048 55.9504 74.832 56.2744 74.898L60.7024 75.75C61.0264 75.81 61.2424 76.128 61.1764 76.452C61.1164 76.74 60.8704 76.938 60.5884 76.938Z" fill="#A1AABF"/>
<path d="M128.659 98.082L143.389 93.564L128.659 109.182V98.082Z" fill="#A1AABF"/>
<path d="M110.857 109.878H81.6729C81.6729 108.318 82.2909 106.824 83.3949 105.726L83.9769 105.138C84.9249 104.196 85.4529 102.912 85.4529 101.574V94.788C85.4529 88.686 90.5109 83.766 96.6609 83.982C97.5669 84.018 98.4369 84.162 99.2709 84.408C98.9469 85.266 98.7669 86.202 98.7669 87.174C98.7669 91.518 102.289 95.046 106.639 95.046C106.789 95.046 106.933 95.04 107.077 95.034C107.077 95.04 107.077 95.04 107.077 95.046V101.574C107.077 102.912 107.611 104.196 108.553 105.138L109.135 105.726C109.687 106.278 110.119 106.926 110.413 107.628C110.701 108.336 110.857 109.098 110.857 109.878Z" fill="white"/>
<path d="M102.037 111.456C101.893 114.6 99.253 117.084 96.049 116.97C93.055 116.868 90.691 114.414 90.499 111.456H102.037Z" fill="white"/>
<path d="M110.621 91.5102C113.017 89.3091 113.176 85.582 110.975 83.1854C108.774 80.7888 105.047 80.6302 102.65 82.8313C100.253 85.0323 100.095 88.7595 102.296 91.1561C104.497 93.5527 108.224 93.7112 110.621 91.5102Z" fill="#FF5652"/>
<path d="M106.682 86.0039L107.958 83.9637H108.784L107.102 86.6035L108.824 89.2872H107.991L106.682 87.2104L105.366 89.2872H104.536L106.261 86.6035L104.576 83.9637H105.398L106.682 86.0039Z" fill="white"/>
</svg>
