<svg width="326" height="243" viewBox="0 0 326 243" fill="none" xmlns="http://www.w3.org/2000/svg">
<path d="M326 213.547H0V213.71H326V213.547Z" fill="#EBEBEB"/>
<path d="M72.807 219.018H51.2114V219.181H72.807V219.018Z" fill="#EBEBEB"/>
<path d="M106.602 223.722H86.9333V223.885H106.602V223.722Z" fill="#EBEBEB"/>
<path d="M62.0083 225.074H37.0686V225.237H62.0083V225.074Z" fill="#EBEBEB"/>
<path d="M293.336 224.718H282.968V224.881H293.336V224.718Z" fill="#EBEBEB"/>
<path d="M280.876 224.718H255.239V224.881H280.876V224.718Z" fill="#EBEBEB"/>
<path d="M182.777 218.937H163V219.1H182.777V218.937Z" fill="#EBEBEB"/>
<path d="M232.609 218.937H185.603V219.1H232.609V218.937Z" fill="#EBEBEB"/>
<path d="M154.533 184.461H28.6327C27.6461 184.46 26.7002 184.068 26.0025 183.37C25.3048 182.672 24.9123 181.726 24.9111 180.739V3.72188C24.9123 2.73503 25.3048 1.78896 26.0025 1.09122C26.7002 0.393474 27.6461 0.0010355 28.6327 0H154.534C155.52 0.00120807 156.466 0.393721 157.164 1.09145C157.861 1.78917 158.254 2.73514 158.255 3.72188V180.739C158.254 181.726 157.861 182.672 157.164 183.37C156.466 184.068 155.52 184.46 154.533 184.461ZM28.6327 0.161085C27.6893 0.161948 26.7848 0.537152 26.1176 1.20436C25.4504 1.87156 25.0752 2.77626 25.0741 3.71992V180.739C25.0752 181.683 25.4504 182.587 26.1176 183.255C26.7847 183.922 27.6893 184.297 28.6327 184.298H154.534C155.477 184.297 156.382 183.922 157.049 183.255C157.716 182.587 158.091 181.683 158.092 180.739V3.72188C158.091 2.77833 157.716 1.87373 157.049 1.20654C156.382 0.539358 155.477 0.164076 154.534 0.16304L28.6327 0.161085Z" fill="#EBEBEB"/>
<path d="M295.558 184.461H169.657C168.67 184.46 167.724 184.068 167.027 183.37C166.329 182.672 165.937 181.726 165.936 180.739V3.72188C165.937 2.73509 166.329 1.78902 167.027 1.09126C167.724 0.393495 168.67 0.00103581 169.657 0H295.558C296.545 0.000862892 297.491 0.393224 298.189 1.09099C298.886 1.78875 299.279 2.73492 299.28 3.72188V180.739C299.279 181.726 298.886 182.672 298.189 183.37C297.491 184.068 296.545 184.46 295.558 184.461ZM169.658 0.161085C168.715 0.16212 167.81 0.5374 167.143 1.20459C166.476 1.87177 166.101 2.77638 166.1 3.71992V180.739C166.101 181.683 166.476 182.587 167.143 183.255C167.81 183.922 168.715 184.297 169.658 184.298H295.559C296.503 184.298 297.408 183.922 298.075 183.255C298.742 182.588 299.117 181.683 299.119 180.739V3.72188C299.118 2.7776 298.742 1.8722 298.075 1.20455C297.407 0.536902 296.502 0.161603 295.558 0.161085H169.658Z" fill="#EBEBEB"/>
<path d="M272.095 131.531H247.806V213.547H272.095V131.531Z" fill="#E6E6E6"/>
<path d="M268.053 213.548H272.096V206.167H263.815L268.053 213.548Z" fill="#F0F0F0"/>
<path d="M173.236 131.531H148.946V213.547H173.236V131.531Z" fill="#E6E6E6"/>
<path d="M272.096 131.531H169.708V210.712H272.096V131.531Z" fill="#F0F0F0"/>
<path d="M268.96 135.041H172.844V156.755H268.96V135.041Z" fill="#E6E6E6"/>
<path d="M225.442 141.789H216.362C212.418 141.789 208.648 139.11 205.935 134.38H235.869C233.155 139.11 229.386 141.789 225.442 141.789Z" fill="#F0F0F0"/>
<path d="M173.75 213.548H169.708V206.167H177.988L173.75 213.548Z" fill="#F0F0F0"/>
<path d="M268.96 160.265H172.844V181.979H268.96V160.265Z" fill="#E6E6E6"/>
<path d="M225.442 167.013H216.362C212.418 167.013 208.648 164.334 205.935 159.604H235.869C233.155 164.334 229.386 167.013 225.442 167.013Z" fill="#F0F0F0"/>
<path d="M268.96 185.489H172.844V207.203H268.96V185.489Z" fill="#E6E6E6"/>
<path d="M225.442 192.237H216.362C212.418 192.237 208.648 189.558 205.935 184.829H235.869C233.155 189.558 229.386 192.237 225.442 192.237Z" fill="#F0F0F0"/>
<path d="M283.159 25.1714H178.279V76.094H283.159V25.1714Z" fill="#F0F0F0"/>
<path d="M286.938 25.1714H180.045V76.094H286.938V25.1714Z" fill="#F5F5F5"/>
<path d="M281.648 71.8582V29.4065L185.334 29.4065V71.8582H281.648Z" fill="white"/>
<path d="M251.383 113.545C253.274 93.9566 254.589 62.1717 253.568 51.5402C253.549 51.3579 253.492 51.1817 253.401 51.023C253.309 50.8644 253.185 50.727 253.036 50.62C252.839 50.4744 252.605 50.3874 252.36 50.369C252.116 50.3506 251.871 50.4015 251.654 50.5159C251.437 50.6303 251.257 50.8035 251.134 51.0157C251.011 51.2279 250.95 51.4705 250.959 51.7156C251.139 56.9837 251.346 70.1496 250.224 92.8623C249.667 104.168 248.862 111.912 249.414 113.545H251.383Z" fill="#F0F0F0"/>
<path d="M256.802 71.4147C261.122 65.8564 270.049 61.4628 279.204 60.7904C282.797 60.5296 268.361 67.6955 262.42 74.8516C257.804 80.4106 252.644 89.5657 250.918 94.5619C251.928 84.248 252.483 76.9725 256.802 71.4147Z" fill="#F0F0F0"/>
<path d="M247.76 70.2174C243.291 63.9912 232.975 59.2043 221.811 58.6631C217.428 58.4505 234.101 66.2633 240.322 74.2699C245.155 80.4902 250.111 90.793 251.475 96.4433C251.807 84.7175 252.231 76.4429 247.76 70.2174Z" fill="#F0F0F0"/>
<path d="M256.507 53.1034C259.916 48.4639 267.443 44.6573 275.421 43.8786C278.554 43.5727 266.387 49.78 261.664 55.7629C257.996 60.4102 254.094 68.0026 252.921 72.1178C253.107 63.6866 253.098 57.7422 256.507 53.1034Z" fill="#F0F0F0"/>
<path d="M249.637 54.0529C245.855 48.7815 237.118 44.727 227.664 44.2705C223.954 44.0905 238.071 50.706 243.34 57.4859C247.432 62.7534 251.628 71.4773 252.784 76.2609C253.062 66.3318 253.421 59.325 249.637 54.0529Z" fill="#F0F0F0"/>
<path d="M254.215 92.3373C256.677 88.8392 262.212 85.8973 268.127 85.1981C270.45 84.9236 261.504 89.7189 258.087 94.2351C255.432 97.7431 252.648 103.442 251.838 106.517C251.849 100.251 251.754 95.8329 254.215 92.3373Z" fill="#F0F0F0"/>
<path d="M249.741 90.3685C247.603 86.8983 242.308 83.9721 236.407 83.2671C234.091 82.9906 242.643 87.7592 245.644 92.2402C247.976 95.7207 250.219 101.37 250.73 104.421C251.346 98.2126 251.878 93.8386 249.741 90.3685Z" fill="#F0F0F0"/>
<path d="M250.587 131.532C255.297 131.532 259.189 130.547 259.46 125.843L260.242 112.237H240.929L241.711 125.843C241.984 130.547 245.877 131.532 250.587 131.532Z" fill="#E6E6E6"/>
<path d="M241.038 115.333H260.134C260.508 115.333 260.869 115.194 261.148 114.945C261.426 114.695 261.603 114.351 261.644 113.979L261.934 111.358C261.957 111.145 261.935 110.93 261.87 110.727C261.805 110.523 261.698 110.336 261.555 110.177C261.413 110.018 261.238 109.89 261.043 109.803C260.848 109.716 260.637 109.671 260.423 109.671H240.749C240.535 109.671 240.324 109.716 240.129 109.803C239.934 109.89 239.759 110.018 239.617 110.177C239.475 110.336 239.367 110.523 239.302 110.727C239.237 110.93 239.215 111.145 239.239 111.358L239.528 113.979C239.569 114.351 239.746 114.695 240.024 114.945C240.303 115.194 240.664 115.333 241.038 115.333Z" fill="#F0F0F0"/>
<path d="M179.464 131.531H166.651L170.448 103.443H179.466L179.464 131.531Z" fill="#E6E6E6"/>
<path d="M198.267 131.531H173.985L169.465 98.6561H193.746L198.267 131.531Z" fill="#F0F0F0"/>
<path d="M201.508 131.531H176.24L171.72 98.6561H196.988L201.508 131.531Z" fill="#F5F5F5"/>
<path d="M178.475 128.941L174.667 101.247H194.753L198.56 128.941H178.475Z" fill="white"/>
<path d="M189.797 122.554H185.01C184.594 122.552 184.192 122.401 183.878 122.128C183.564 121.854 183.36 121.477 183.301 121.064L181.724 109.593C181.69 109.349 181.709 109.101 181.78 108.865C181.85 108.629 181.97 108.411 182.132 108.225C182.294 108.039 182.494 107.89 182.718 107.788C182.942 107.686 183.186 107.634 183.432 107.634H188.22C188.636 107.635 189.037 107.786 189.351 108.06C189.665 108.334 189.87 108.711 189.928 109.123L191.505 120.594C191.539 120.838 191.52 121.087 191.449 121.323C191.379 121.559 191.258 121.777 191.097 121.963C190.935 122.148 190.735 122.297 190.511 122.399C190.287 122.501 190.043 122.554 189.797 122.554H189.797ZM183.947 120.975C183.983 121.231 184.11 121.466 184.306 121.637C184.501 121.807 184.751 121.901 185.01 121.902H189.797C189.951 121.902 190.102 121.869 190.241 121.806C190.381 121.742 190.505 121.65 190.606 121.534C190.706 121.419 190.781 121.283 190.825 121.136C190.869 120.99 190.881 120.835 190.86 120.683L189.283 109.213C189.247 108.956 189.12 108.721 188.924 108.551C188.729 108.381 188.479 108.287 188.22 108.286H183.433C183.279 108.286 183.128 108.319 182.989 108.382C182.849 108.446 182.725 108.538 182.625 108.654C182.524 108.769 182.449 108.905 182.405 109.051C182.361 109.198 182.349 109.352 182.37 109.504L183.947 120.975Z" fill="#F5F5F5"/>
<path d="M137.903 23.672H41.157V125.788H137.903V23.672Z" fill="#E6E6E6"/>
<path d="M148.27 20.3669H34.8942C34.6394 20.3669 34.395 20.4681 34.2148 20.6482C34.0346 20.8283 33.9333 21.0727 33.9331 21.3275C33.9331 21.4537 33.958 21.5787 34.0063 21.6953C34.0546 21.8119 34.1254 21.9178 34.2146 22.007C34.3039 22.0962 34.4098 22.167 34.5264 22.2152C34.643 22.2634 34.768 22.2882 34.8942 22.2881H148.27C148.397 22.2882 148.522 22.2634 148.638 22.2152C148.755 22.167 148.861 22.0962 148.95 22.007C149.039 21.9178 149.11 21.8118 149.158 21.6952C149.206 21.5786 149.231 21.4537 149.231 21.3275C149.231 21.0727 149.13 20.8284 148.95 20.6482C148.769 20.4681 148.525 20.3669 148.27 20.3669Z" fill="#E6E6E6"/>
<path d="M142.008 23.672H43.075V125.788H142.008V23.672Z" fill="#F0F0F0"/>
<path d="M136.261 120.039V29.4202L48.8217 29.4202V120.039H136.261Z" fill="#FAFAFA"/>
<path d="M68.6709 120.04L102.403 29.4202H118.326L84.5947 120.04H68.6709Z" fill="white"/>
<path d="M88.0154 120.04L121.747 29.4208H127.955L94.2231 120.04H88.0154Z" fill="white"/>
<path d="M136.261 120.039V29.4202H135.531V120.039H136.261Z" fill="#E6E6E6"/>
<g opacity="0.6">
<path opacity="0.6" d="M46.4493 165.071H34.3005L36.2278 18.6479H48.3785L46.4493 165.071Z" fill="#F0F0F0"/>
<path opacity="0.6" d="M51.182 165.071H41.7163L43.6436 18.6479H53.1081L51.182 165.071Z" fill="#E6E6E6"/>
<path opacity="0.6" d="M58.5968 165.071H46.4487L48.378 18.6479H60.5235L58.5968 165.071Z" fill="#F0F0F0"/>
<path opacity="0.6" d="M63.3292 165.071H53.8647L55.7914 18.6479H65.2558L63.3292 165.071Z" fill="#E6E6E6"/>
<path opacity="0.6" d="M70.7447 165.071H58.5967L60.5233 18.6479H72.6714L70.7447 165.071Z" fill="#F0F0F0"/>
</g>
<g opacity="0.6">
<path opacity="0.6" d="M140.005 165.071H146.871L147.791 18.6485H140.925L140.005 165.071Z" fill="#F0F0F0"/>
<path opacity="0.6" d="M137.331 165.071H142.678L143.598 18.6485H138.251L137.331 165.071Z" fill="#E6E6E6"/>
<path opacity="0.6" d="M133.138 165.071H140.004L140.924 18.6485H134.058L133.138 165.071Z" fill="#F0F0F0"/>
<path opacity="0.6" d="M130.466 165.071H135.812L136.732 18.6485H131.386L130.466 165.071Z" fill="#E6E6E6"/>
<path opacity="0.6" d="M126.275 165.071H133.139L134.058 18.6485H127.193L126.275 165.071Z" fill="#F0F0F0"/>
</g>
<path d="M163 243C232.817 243 289.415 239.694 289.415 235.616C289.415 231.537 232.817 228.231 163 228.231C93.1822 228.231 36.584 231.537 36.584 235.616C36.584 239.694 93.1822 243 163 243Z" fill="#F5F5F5"/>
<path d="M185.574 41.6332C181.643 36.3344 182.569 31.7126 185.558 28.3859C189.309 24.2121 195.432 24.246 199.511 26.3753C205.897 29.7072 207.276 44.3097 196.605 46.3731C192.823 45.0512 189.137 43.4674 185.574 41.6332Z" fill="#263238"/>
<path d="M198.283 27.2968C202.182 24.9941 201.102 20.5294 204.639 18.1823C209.554 14.9215 220.15 16.3347 216.836 24.4867C213.522 32.6387 225.339 33.1069 221.889 41.2081C218.438 49.3092 208.523 54.2689 205.969 42.53C204.055 33.733 212.177 22.3991 205.623 23.6174C201.53 24.3778 200.172 28.5809 200.172 28.5809L198.283 27.2968Z" fill="#263238"/>
<path d="M188.558 61.8202C188.022 63.3051 187.442 64.6486 186.822 66.0357C186.203 67.4229 185.521 68.7591 184.801 70.0987C183.36 72.9065 181.546 75.5069 179.41 77.8294C178.797 78.4663 178.128 79.0458 177.41 79.5609C176.696 80.0584 175.937 80.4881 175.143 80.8443C173.683 81.4993 172.162 82.0068 170.601 82.3593C167.63 83.0453 164.587 83.3752 161.538 83.3421C161.194 83.3392 160.863 83.2108 160.607 82.9809C160.351 82.7511 160.188 82.4357 160.148 82.0939C160.108 81.7521 160.194 81.4074 160.39 81.1246C160.586 80.8419 160.878 80.6404 161.212 80.558L161.277 80.543C164.004 79.8996 166.688 79.0898 169.315 78.1183C170.55 77.659 171.745 77.1 172.89 76.4468C173.397 76.1513 173.881 75.8173 174.337 75.4477C174.777 75.0805 175.183 74.6743 175.55 74.234C176.389 73.2406 177.145 72.1808 177.812 71.0652C178.514 69.9122 179.193 68.7128 179.818 67.4724C181.057 65.004 182.231 62.3732 183.245 59.8422L183.261 59.8004C183.529 59.097 184.065 58.5288 184.752 58.221C185.439 57.9132 186.22 57.8908 186.923 58.1589C187.626 58.427 188.194 58.9636 188.502 59.6506C188.81 60.3375 188.832 61.1187 188.564 61.8221L188.558 61.8202Z" fill="#FFC3BD"/>
<path d="M187.711 56.9935C182.327 57.6124 179.361 65.6913 179.361 65.6913L184.875 73.4631C184.875 73.4631 191.421 66.0735 191.965 62.7755C192.53 59.3432 191.698 56.5357 187.711 56.9935Z" fill="#263238"/>
<path opacity="0.2" d="M184.763 61.9396C186.569 60.8074 188.538 61.4283 190.215 63.5393C190.559 64.1463 190.79 64.8108 190.897 65.5004C189.27 68.456 184.87 73.462 184.87 73.462L182.346 69.9064C182.152 67.8038 183.597 62.6648 184.763 61.9396Z" fill="black"/>
<path d="M162.498 80.8984L158.463 78.7058L158.355 84.004C158.355 84.004 161.062 84.5909 162.86 83.1431L162.498 80.8984Z" fill="#FFC3BD"/>
<path d="M154.362 78.8891L155.074 83.2122L158.353 84.0046L158.461 78.7058L154.362 78.8891Z" fill="#FFC3BD"/>
<path d="M217.476 200.119L211.999 200.641L209.208 187.877L214.685 187.355L217.476 200.119Z" fill="#FFC3BD"/>
<path d="M247.979 192.228L242.893 194.222L237.98 182.12L243.066 180.126L247.979 192.228Z" fill="#FFC3BD"/>
<path d="M241.408 191.72L246.991 188.942C247.086 188.893 247.197 188.88 247.301 188.906C247.405 188.932 247.496 188.996 247.556 189.085L250.389 193.186C250.457 193.292 250.502 193.411 250.52 193.535C250.539 193.659 250.531 193.785 250.497 193.906C250.464 194.027 250.405 194.14 250.325 194.236C250.245 194.333 250.145 194.411 250.033 194.467C248.07 195.401 247.217 195.87 244.761 197.092C243.251 197.843 239.878 199.611 237.792 200.649C235.752 201.663 234.569 199.679 235.345 199.059C238.823 196.284 239.965 194.194 240.729 192.439C240.864 192.127 241.105 191.872 241.408 191.72Z" fill="#263238"/>
<path d="M210.928 197.796H217.513C217.632 197.796 217.747 197.836 217.841 197.908C217.935 197.981 218.003 198.082 218.035 198.196L219.469 203.407C219.505 203.53 219.512 203.66 219.488 203.786C219.464 203.912 219.411 204.031 219.333 204.133C219.254 204.235 219.153 204.316 219.037 204.372C218.921 204.427 218.794 204.454 218.666 204.45C216.365 204.41 215.262 204.461 212.365 204.461H203.522C201.116 204.461 200.585 202.028 201.581 201.808C206.044 200.819 208.618 199.457 209.991 198.156C210.246 197.92 210.581 197.791 210.928 197.796Z" fill="#263238"/>
<path opacity="0.2" d="M209.211 187.883L210.646 194.462H216.238L214.687 187.358L209.211 187.883Z" fill="black"/>
<path opacity="0.2" d="M243.072 180.128L237.98 182.124L240.513 188.361L245.603 186.366L243.072 180.128Z" fill="black"/>
<path d="M204.429 51.4861C208.784 50.9794 211.635 53.0513 211.796 57.4058C212.371 72.7374 214.063 76.2675 216.625 84.1939L194.909 90.2414C187.189 73.5232 184.491 65.6334 183.615 61.9246C183.436 61.0628 183.544 60.1661 183.923 59.3716C184.301 58.577 184.929 57.9283 185.711 57.5244C191.493 54.3017 197.854 52.2499 204.429 51.4861Z" fill="#263238"/>
<path d="M197.821 41.208C198.082 44.5549 198.95 50.3728 201.76 51.8728C201.76 51.8728 201.35 53.9356 194.155 60.8315C189.716 57.0861 191.983 54.576 191.983 54.576C195.287 52.746 194.509 50.3578 193.206 48.0635L197.821 41.208Z" fill="#FFC3BD"/>
<path opacity="0.2" d="M197.32 41.9553C197.797 43.8575 197.864 45.8394 197.516 47.7693C197.267 49.0958 195.846 50.0649 194.256 50.6323C194.04 49.7265 193.685 48.8597 193.204 48.0628L197.32 41.9553Z" fill="black"/>
<path d="M199.099 34.8899C200.165 40.2957 200.729 42.5606 198.76 45.9949C195.794 51.1607 188.923 51.2878 186.264 46.3092C183.871 41.8283 182.53 33.7415 187.182 30.2609C188.204 29.4884 189.407 28.9901 190.675 28.8134C191.944 28.6367 193.237 28.7874 194.431 29.2512C195.625 29.7151 196.681 30.4766 197.498 31.4636C198.315 32.4505 198.866 33.6299 199.099 34.8899Z" fill="#FFC3BD"/>
<path d="M201.926 38.1819C202.083 39.2358 201.815 40.3089 201.183 41.1662C200.335 42.2951 199.055 41.744 198.574 40.4958C198.141 39.3721 198.06 37.4307 199.256 36.7472C199.52 36.6027 199.816 36.5265 200.117 36.5253C200.418 36.5242 200.714 36.5983 200.98 36.7408C201.245 36.8833 201.47 37.0897 201.635 37.3414C201.801 37.593 201.9 37.882 201.926 38.1819Z" fill="#FFC3BD"/>
<path d="M194.361 32.023C194.166 34.0949 195.82 37.6257 198.925 38.4468C202.149 34.7445 200.024 29.6674 197.066 29.5592C194.108 29.4509 194.361 32.023 194.361 32.023Z" fill="#263238"/>
<path d="M190.022 26.389C185.262 26.6068 180.168 28.7257 181.937 36.1714C186.085 35.3047 197.622 34.0147 198.512 31.0526C197.342 27.2498 193.132 26.2475 190.022 26.389Z" fill="#263238"/>
<path d="M194.91 90.2432C194.91 90.2432 193.657 134.124 197.172 150.689C200.828 167.919 209.088 192.548 209.088 192.548L216.847 192.045C216.847 192.045 211.839 159.851 210.296 146.567C208.169 128.253 210.813 85.8151 210.813 85.8151L194.91 90.2432Z" fill="#B2B5BD"/>
<path opacity="0.2" d="M205.837 103.967C206.186 99.9885 209.185 100.747 209.857 106.135C209.561 114.608 209.357 124.455 209.526 133.073C206.293 126.752 205.031 113.018 205.837 103.967Z" fill="black"/>
<path d="M217.833 192.536L208.492 193.168L207.194 188.787L217.3 187.716L217.833 192.536Z" fill="#263238"/>
<path d="M202.57 88.11C202.57 88.11 209.183 124.892 218.16 144.685C225.412 160.67 238.549 186.423 238.549 186.423L245.675 183.76C245.675 183.76 234.53 154.524 230.504 143.275C220.468 115.232 225.929 98.2107 216.627 84.1964L202.57 88.11Z" fill="#B2B5BD"/>
<path d="M246.516 184.437L238.29 187.297L235.95 183.088L245.736 180.659L246.516 184.437Z" fill="#263238"/>
<path d="M216.594 82.8308L218.114 84.5023C218.232 84.6327 218.097 84.8355 217.846 84.9053L195.071 91.2469C194.876 91.3017 194.687 91.2508 194.64 91.1315L193.903 89.2402C193.852 89.1098 193.99 88.9481 194.204 88.8881L216.195 82.7649C216.262 82.7404 216.334 82.7336 216.404 82.7452C216.474 82.7567 216.539 82.7862 216.594 82.8308Z" fill="#263238"/>
<path d="M214.329 86.1125L214.916 85.9488C215.033 85.9162 215.105 85.8307 215.077 85.759L214.098 83.3101C214.07 83.2384 213.95 83.2064 213.833 83.239L213.246 83.4027C213.129 83.4353 213.056 83.5208 213.085 83.5925L214.063 86.042C214.092 86.1157 214.211 86.1457 214.329 86.1125Z" fill="#B2B5BD"/>
<path d="M196.788 90.9971L197.375 90.8328C197.492 90.8002 197.565 90.7148 197.536 90.643L196.558 88.1942C196.529 88.1224 196.41 88.0905 196.292 88.1231L195.705 88.2868C195.588 88.3194 195.516 88.4048 195.544 88.4765L196.523 90.9261C196.551 90.9978 196.671 91.0297 196.788 90.9971Z" fill="#B2B5BD"/>
<path d="M205.558 88.5548L206.145 88.3905C206.263 88.3579 206.335 88.2724 206.306 88.2014L205.328 85.7518C205.299 85.6801 205.18 85.6481 205.063 85.6808L204.476 85.8451C204.358 85.8777 204.286 85.9631 204.315 86.0349L205.293 88.4837C205.322 88.5555 205.441 88.5874 205.558 88.5548Z" fill="#B2B5BD"/>
<path d="M191.421 38.4892C191.534 38.9229 191.397 39.3338 191.114 39.4081C190.831 39.4825 190.509 39.1909 190.396 38.756C190.284 38.321 190.421 37.9081 190.704 37.8377C190.987 37.7673 191.308 38.0562 191.421 38.4892Z" fill="#263238"/>
<path d="M186.526 39.7713C186.64 40.2043 186.502 40.6191 186.219 40.6895C185.936 40.76 185.614 40.473 185.502 40.0374C185.389 39.6017 185.526 39.1928 185.809 39.1185C186.092 39.0441 186.413 39.3383 186.526 39.7713Z" fill="#263238"/>
<path d="M185.939 39.1119L184.82 39.0845C184.82 39.0845 185.567 39.7576 185.939 39.1119Z" fill="#263238"/>
<path d="M188.014 40.1769C187.887 41.2659 187.611 42.3321 187.194 43.3458C187.456 43.4459 187.737 43.4875 188.017 43.4678C188.296 43.4481 188.569 43.3675 188.814 43.2317L188.014 40.1769Z" fill="#A02724"/>
<path d="M189.688 46.3802C189.656 46.4099 189.632 46.4446 189.621 46.4779C189.609 46.5113 189.611 46.5411 189.625 46.562C189.64 46.5828 189.666 46.5934 189.699 46.5916C189.732 46.5899 189.77 46.576 189.806 46.5524C190.452 46.1472 191.123 45.8537 191.763 45.6957C192.404 45.5377 192.998 45.5195 193.496 45.6426C193.524 45.6531 193.564 45.6487 193.605 45.6304C193.647 45.612 193.687 45.5813 193.716 45.5448C193.746 45.5083 193.762 45.4692 193.763 45.436C193.763 45.4028 193.747 45.3782 193.718 45.3677C193.187 45.2254 192.549 45.2389 191.858 45.4073C191.166 45.5757 190.442 45.8938 189.745 46.335C189.724 46.3476 189.705 46.363 189.688 46.3802Z" fill="#263238"/>
<path d="M192.378 36.53C192.333 36.5233 192.29 36.5049 192.254 36.4765C192 36.2649 191.7 36.1163 191.379 36.0427C191.057 35.9692 190.722 35.9728 190.402 36.0532C190.369 36.0643 190.334 36.0688 190.3 36.0665C190.266 36.0642 190.232 36.0551 190.201 36.0398C190.17 36.0244 190.142 36.0032 190.12 35.9772C190.097 35.9512 190.08 35.921 190.069 35.8882C190.057 35.8555 190.053 35.821 190.055 35.7865C190.058 35.7521 190.067 35.7184 190.082 35.6874C190.097 35.6565 190.119 35.6289 190.145 35.6061C190.171 35.5834 190.201 35.566 190.234 35.555C190.637 35.4454 191.061 35.4343 191.469 35.5227C191.878 35.6111 192.259 35.7964 192.581 36.063C192.629 36.0979 192.663 36.1479 192.679 36.2048C192.694 36.2617 192.69 36.3222 192.667 36.3764C192.643 36.4305 192.602 36.4752 192.55 36.5031C192.498 36.531 192.438 36.5405 192.38 36.53H192.378Z" fill="#263238"/>
<path d="M183.609 38.1031C183.592 38.1005 183.576 38.0966 183.56 38.0914C183.528 38.0804 183.497 38.0629 183.471 38.0401C183.445 38.0172 183.424 37.9894 183.409 37.9583C183.394 37.9271 183.385 37.8933 183.383 37.8587C183.381 37.8241 183.386 37.7895 183.397 37.7568C183.524 37.3592 183.744 36.9977 184.039 36.7026C184.334 36.4076 184.695 36.1876 185.093 36.0612C185.126 36.0526 185.161 36.0507 185.195 36.0556C185.23 36.0605 185.263 36.0721 185.292 36.0898C185.322 36.1074 185.348 36.1307 185.369 36.1583C185.39 36.186 185.405 36.2175 185.413 36.251C185.422 36.2845 185.424 36.3193 185.419 36.3535C185.414 36.3877 185.402 36.4206 185.385 36.4504C185.367 36.4801 185.344 36.5061 185.316 36.5268C185.288 36.5475 185.257 36.5626 185.223 36.5712C184.91 36.676 184.626 36.8539 184.395 37.0903C184.164 37.3266 183.992 37.6145 183.894 37.9303C183.874 37.9879 183.835 38.0368 183.783 38.0684C183.731 38.0999 183.669 38.1122 183.609 38.1031Z" fill="#263238"/>
<path d="M209.126 61.7491C207.436 65.2486 205.671 68.6777 203.817 72.0891C202.893 73.7945 201.967 75.5019 200.977 77.187C199.987 78.8722 199.001 80.5581 197.858 82.2478C197.59 82.6645 197.257 83.1067 196.945 83.5371L196.827 83.6989L196.762 83.783L196.662 83.9062C196.535 84.0653 196.4 84.2177 196.257 84.3628C196.006 84.6145 195.738 84.8485 195.455 85.0632C194.516 85.7504 193.494 86.317 192.413 86.7497C190.519 87.5186 188.567 88.134 186.574 88.5901C182.741 89.4792 178.848 90.0865 174.926 90.407L174.48 87.6307C176.302 87.1501 178.154 86.6427 179.971 86.1132C181.797 85.5966 183.597 85.0247 185.356 84.4084C187.074 83.834 188.751 83.146 190.377 82.3489C191.063 82.0123 191.708 81.599 192.3 81.117C192.396 81.0347 192.486 80.9451 192.568 80.8489C192.592 80.8199 192.614 80.7889 192.633 80.7563L192.774 80.5398C193.005 80.1759 193.239 79.8381 193.471 79.4311C194.399 77.8764 195.312 76.2088 196.197 74.5347L198.84 69.4694L204.034 59.2409L209.126 61.7491Z" fill="#FFC3BD"/>
<path d="M176.252 87.6666L172.405 86.1907L172.731 91.6102C172.731 91.6102 175.749 91.5958 177.143 89.7567L176.252 87.6666Z" fill="#FFC3BD"/>
<path d="M169.389 86.3492L168.57 90.3365L172.735 91.6109L172.409 86.1914L169.389 86.3492Z" fill="#FFC3BD"/>
<path d="M204.402 54.2904C202.257 55.2758 199.773 64.1902 199.773 64.1902L209.064 65.2675C209.064 65.2675 210.861 60.9359 210.499 58.714C209.909 55.1382 206.848 53.1667 204.402 54.2904Z" fill="#263238"/>
<path d="M238.644 193.313C238.608 193.251 238.579 193.186 238.557 193.118C238.528 193.044 238.519 192.963 238.531 192.885C238.543 192.806 238.577 192.732 238.627 192.671C239.075 192.122 241.069 192.345 241.295 192.372C241.321 192.375 241.345 192.385 241.364 192.402C241.384 192.418 241.398 192.44 241.405 192.465C241.413 192.49 241.413 192.516 241.405 192.541C241.398 192.565 241.383 192.587 241.363 192.604C240.795 193.076 239.741 193.84 239.063 193.647C238.975 193.622 238.892 193.58 238.82 193.522C238.748 193.465 238.688 193.394 238.644 193.313ZM240.946 192.601C240.147 192.536 239.067 192.548 238.83 192.837C238.809 192.864 238.795 192.896 238.791 192.931C238.787 192.966 238.792 193.001 238.807 193.032C238.826 193.115 238.866 193.191 238.923 193.254C238.98 193.317 239.053 193.364 239.133 193.391C239.501 193.498 240.167 193.2 240.946 192.601Z" fill="#B2B5BD"/>
<path d="M239.124 191.509C239.095 191.463 239.073 191.413 239.058 191.361C239.032 191.261 239.041 191.154 239.083 191.06C239.125 190.965 239.199 190.887 239.291 190.84C239.375 190.783 239.47 190.745 239.569 190.729C239.669 190.714 239.771 190.72 239.868 190.748C240.646 190.958 241.368 192.387 241.395 192.447C241.406 192.468 241.411 192.491 241.409 192.514C241.408 192.537 241.401 192.559 241.388 192.579C241.375 192.598 241.358 192.614 241.337 192.624C241.316 192.634 241.293 192.639 241.27 192.637C240.442 192.53 239.681 192.13 239.124 191.509ZM241.015 192.298C240.746 191.833 240.249 191.121 239.798 190.999C239.737 190.981 239.673 190.976 239.61 190.986C239.547 190.996 239.487 191.02 239.435 191.056C239.293 191.149 239.294 191.232 239.311 191.293C239.412 191.667 240.376 192.193 241.037 192.336L241.015 192.298Z" fill="#B2B5BD"/>
<path d="M208.007 198.883C207.558 198.915 207.109 198.808 206.722 198.576C206.622 198.502 206.54 198.407 206.482 198.298C206.424 198.188 206.392 198.067 206.387 197.943C206.38 197.874 206.391 197.804 206.42 197.741C206.449 197.678 206.495 197.624 206.553 197.585C207.15 197.18 209.393 198.199 209.837 198.407C209.862 198.418 209.883 198.437 209.897 198.462C209.911 198.486 209.917 198.513 209.913 198.541C209.91 198.568 209.899 198.594 209.88 198.615C209.861 198.635 209.836 198.649 209.809 198.654C209.218 198.793 208.614 198.869 208.007 198.883ZM206.959 197.747C206.868 197.74 206.778 197.759 206.698 197.803C206.678 197.816 206.663 197.835 206.654 197.858C206.645 197.88 206.643 197.904 206.648 197.928C206.65 198.014 206.672 198.098 206.712 198.174C206.752 198.25 206.808 198.315 206.878 198.366C207.264 198.658 208.174 198.696 209.356 198.478C208.599 198.113 207.791 197.866 206.959 197.747Z" fill="#B2B5BD"/>
<path d="M209.78 198.658C209.763 198.658 209.746 198.654 209.731 198.648C208.987 198.343 207.489 197.142 207.573 196.521C207.591 196.384 207.684 196.213 208.023 196.173C209.327 196.016 209.886 198.396 209.909 198.497C209.913 198.516 209.914 198.536 209.909 198.556C209.905 198.576 209.896 198.594 209.883 198.609C209.871 198.625 209.855 198.637 209.836 198.646C209.818 198.654 209.798 198.658 209.778 198.658H209.78ZM208.143 196.429C208.113 196.429 208.083 196.431 208.054 196.434C207.916 196.451 207.841 196.492 207.833 196.556C207.785 196.916 208.82 197.866 209.577 198.282C209.405 197.708 208.931 196.429 208.143 196.429Z" fill="#B2B5BD"/>
<path d="M190.835 37.8305L189.716 37.8031C189.716 37.8031 190.462 38.4761 190.835 37.8305Z" fill="#263238"/>
<path d="M193.399 204.46H229.073C229.318 204.46 229.553 204.557 229.727 204.731C229.9 204.904 229.998 205.14 229.998 205.385V208.396H192.474V205.385C192.474 205.14 192.572 204.904 192.745 204.731C192.919 204.557 193.154 204.46 193.399 204.46V204.46Z" fill="#263238"/>
<path d="M230.319 218.373H192.795V222.309H230.319V218.373Z" fill="#263238"/>
<path opacity="0.5" d="M230.319 218.373H205.511V222.309H230.319V218.373Z" fill="black"/>
<path d="M209.124 208.396L204.902 234.837C204.867 235.054 204.757 235.252 204.589 235.395C204.422 235.537 204.209 235.616 203.989 235.616H201.924C201.791 235.616 201.659 235.587 201.537 235.53C201.416 235.474 201.308 235.393 201.221 235.291C201.134 235.189 201.071 235.07 201.034 234.941C200.998 234.812 200.99 234.677 201.012 234.545L205.184 208.393L209.124 208.396Z" fill="#263238"/>
<path opacity="0.5" d="M209.123 208.396L208.802 210.406H204.867L205.188 208.396H209.123Z" fill="black"/>
<path d="M196.409 208.396L192.187 234.837C192.152 235.054 192.041 235.252 191.874 235.395C191.707 235.537 191.494 235.616 191.274 235.616H189.21C189.077 235.616 188.944 235.587 188.823 235.53C188.702 235.474 188.594 235.393 188.507 235.291C188.42 235.189 188.356 235.07 188.32 234.941C188.284 234.812 188.276 234.677 188.297 234.545L192.47 208.393L196.409 208.396Z" fill="#263238"/>
<path d="M234.173 234.547L230.001 208.396H226.066L230.288 234.837C230.323 235.054 230.434 235.252 230.601 235.394C230.768 235.537 230.981 235.616 231.201 235.616H233.263C233.396 235.615 233.528 235.586 233.649 235.53C233.77 235.473 233.877 235.392 233.963 235.29C234.05 235.189 234.113 235.07 234.15 234.942C234.186 234.814 234.194 234.679 234.173 234.547Z" fill="#263238"/>
<path opacity="0.5" d="M230.319 210.406L229.997 208.396H226.062L226.384 210.406H230.319Z" fill="black"/>
<path d="M221.458 234.547L217.285 208.396H213.351L217.573 234.837C217.608 235.054 217.718 235.252 217.886 235.395C218.053 235.537 218.266 235.616 218.486 235.616H220.548C220.681 235.615 220.813 235.586 220.934 235.53C221.055 235.474 221.162 235.392 221.249 235.291C221.335 235.189 221.398 235.07 221.435 234.942C221.471 234.814 221.479 234.679 221.458 234.547Z" fill="#263238"/>
<path opacity="0.5" d="M221.458 234.547L217.285 208.396H213.351L217.573 234.837C217.608 235.054 217.718 235.252 217.886 235.395C218.053 235.537 218.266 235.616 218.486 235.616H220.548C220.681 235.615 220.813 235.586 220.934 235.53C221.055 235.474 221.162 235.392 221.249 235.291C221.335 235.189 221.398 235.07 221.435 234.942C221.471 234.814 221.479 234.679 221.458 234.547Z" fill="black"/>
<path opacity="0.5" d="M205.189 204.46H229.074C229.319 204.46 229.554 204.557 229.727 204.731C229.901 204.904 229.998 205.14 229.998 205.385V208.396H205.189V204.46Z" fill="black"/>
<path d="M95.0463 232.022L100.274 222.435L81.5942 206.061L80.1311 232.022H95.0463Z" fill="#B2B5BD"/>
<path opacity="0.1" d="M95.0463 232.022L100.274 222.435L81.5942 206.061L80.1311 232.022H95.0463Z" fill="black"/>
<path d="M159.428 122.783C169.905 115.609 178.68 116.345 181.596 118.435C184.513 120.524 175.249 136.427 175.249 136.427C171.787 135.423 168.582 133.685 165.852 131.33C163.122 128.975 160.931 126.06 159.428 122.783Z" fill="#B2B5BD"/>
<path opacity="0.2" d="M164.417 129.989C170.314 124.192 176.332 122.331 177.964 123.302C179.596 124.273 174.357 135.45 174.357 135.45C174.357 135.45 167.286 136.468 164.417 129.989Z" fill="black"/>
<path d="M68.3902 145.267L67.7949 144.965C69.434 141.741 71.3602 138.671 73.5501 135.793L74.0822 136.197C71.9166 139.043 70.0116 142.079 68.3902 145.267Z" fill="#B2B5BD"/>
<path d="M65.2818 152.625L64.6499 152.408C65.1475 150.955 65.7116 149.502 66.3246 148.092L66.9377 148.358C66.3312 149.752 65.7742 151.188 65.2818 152.625Z" fill="#B2B5BD"/>
<path d="M187.194 170.734C187.194 203.111 162.825 229.359 127.643 229.359C92.4609 229.359 63.9424 203.111 63.9424 170.734C63.9424 138.357 92.4628 112.109 127.643 112.109C162.823 112.109 187.194 138.354 187.194 170.734Z" fill="#B2B5BD"/>
<path opacity="0.1" d="M119.153 223.147L116.604 228.481C118.45 228.781 120.319 229.003 122.211 229.148L119.153 223.147Z" fill="black"/>
<path d="M115.294 235.616L122.619 222.436L99.1796 213.868L96.1804 235.616H115.294Z" fill="#B2B5BD"/>
<path d="M149.434 235.616L143.084 222.436L165.398 213.868L166.88 235.616H149.434Z" fill="#B2B5BD"/>
<path opacity="0.2" d="M165.463 179.205C165.463 187.967 157.716 195.071 148.194 195.071C138.673 195.071 130.955 187.967 130.955 179.205C130.955 170.443 138.674 163.34 148.194 163.34C157.715 163.34 165.463 170.44 165.463 179.205Z" fill="black"/>
<path opacity="0.2" d="M142.472 184.398C144.09 184.398 145.402 181.956 145.402 178.944C145.402 175.932 144.09 173.49 142.472 173.49C140.854 173.49 139.542 175.932 139.542 178.944C139.542 181.956 140.854 184.398 142.472 184.398Z" fill="black"/>
<path opacity="0.4" d="M121.533 149.607C122.375 152.174 121.598 154.968 119.805 155.849C118.012 156.73 115.871 155.364 115.03 152.798C114.188 150.233 114.965 147.438 116.758 146.557C118.551 145.676 120.69 147.042 121.533 149.607Z" fill="black"/>
<path opacity="0.4" d="M166.938 149.725C166.299 152.29 167.089 155.054 168.704 155.896C170.318 156.737 172.146 155.341 172.785 152.776C173.424 150.21 172.634 147.447 171.02 146.604C169.405 145.762 167.578 147.158 166.938 149.725Z" fill="black"/>
<path opacity="0.2" d="M158.044 184.398C159.662 184.398 160.974 181.956 160.974 178.944C160.974 175.932 159.662 173.49 158.044 173.49C156.426 173.49 155.114 175.932 155.114 178.944C155.114 181.956 156.426 184.398 158.044 184.398Z" fill="black"/>
<path d="M109.021 122.245C97.6674 112.843 87.5347 112.11 83.9943 113.82C80.454 115.53 89.61 133.968 89.61 133.968C89.61 133.968 102.063 133.234 109.021 122.245Z" fill="#B2B5BD"/>
<path opacity="0.2" d="M102.632 129.016C96.4041 121.86 89.6748 118.852 87.713 119.6C85.7511 120.347 90.7259 133.086 90.7259 133.086C90.7259 133.086 98.7428 135.382 102.632 129.016Z" fill="black"/>
<path opacity="0.4" d="M131.943 117.209H141.535C141.535 117.209 139.449 114.915 132.37 114.217C128.36 113.89 124.324 114.109 120.373 114.869C120.373 114.869 128.274 114.695 131.943 117.209Z" fill="black"/>
</svg>
