<svg width="300" height="300" viewBox="0 0 300 300" fill="none" xmlns="http://www.w3.org/2000/svg">
<path d="M106.404 262.698C120.342 250.656 121.74 230.826 119.34 213.384C118.938 210.474 118.944 207.36 117.288 204.936C115.632 202.518 112.206 201.096 109.722 202.602C107.658 203.85 106.974 206.472 105.972 208.68C104.646 211.626 102.474 214.17 99.7923 215.934C98.0283 217.092 95.7903 217.92 93.8463 217.098C91.1823 215.97 90.5283 212.514 90.2463 209.604C89.7243 204.186 89.1963 198.762 88.6743 193.344C88.3923 190.434 88.0923 187.47 86.9043 184.8C85.7163 182.136 83.4543 179.778 80.6103 179.286C77.7663 178.8 74.5083 180.744 74.2203 183.648C74.1003 184.854 74.4663 186.06 74.5083 187.278C74.5503 188.496 74.1303 189.888 73.0143 190.338C71.8923 190.8 70.6443 190.092 69.6843 189.336C66.3843 186.708 63.9543 183.138 61.6683 179.58C59.3763 176.016 57.1323 172.356 54.0843 169.44C51.0303 166.518 47.0043 164.37 42.8163 164.568C38.6283 164.76 34.4583 167.79 33.8283 171.984C33.1983 176.19 36.0183 180.102 38.9583 183.15C43.3263 187.674 48.3423 191.556 53.7963 194.634C54.7803 195.192 55.8423 195.792 56.3043 196.83C57.1383 198.702 55.5003 200.814 53.6523 201.648C51.5583 202.596 49.1883 202.608 46.9503 203.112C44.7123 203.61 42.3603 204.864 41.7243 207.096C40.8423 210.192 43.6443 213.048 46.3023 214.836C51.6183 218.418 57.5403 221.064 63.7323 222.636C65.9523 223.2 68.2743 223.65 70.1523 224.976C72.0303 226.302 73.3443 228.804 72.5103 230.958C71.6763 233.118 69.0723 234.048 66.7923 233.862C64.5123 233.676 62.3823 232.668 60.1623 232.086C56.0103 230.988 50.8803 231.798 48.6783 235.512C47.2323 237.954 47.4063 241.128 48.5403 243.744C49.6683 246.36 51.6363 248.514 53.6883 250.47C60.8643 257.322 69.6843 262.524 79.2783 264.78C88.8723 267.03 97.5423 267.012 106.404 262.698Z" fill="#F5F5F5"/>
<path d="M107.977 275.652C106.627 268.782 104.262 260.748 100.758 252.186C97.2725 243.618 92.6705 234.54 87.5285 225.216C86.2325 222.888 84.9545 220.59 83.6945 218.322C82.4345 216.066 81.1805 213.822 79.8185 211.704C77.1185 207.462 74.1965 203.586 71.3045 199.992C68.4185 196.398 65.5445 193.092 62.8385 190.026C60.1265 186.96 57.5405 184.152 55.0745 181.692C50.1605 176.748 45.7325 173.244 42.5945 170.958C41.0285 169.812 39.7805 168.96 38.9285 168.396C38.5205 168.126 38.1965 167.916 37.9565 167.76C37.7345 167.622 37.6205 167.55 37.6145 167.562C37.6085 167.568 37.7165 167.652 37.9265 167.808C38.1605 167.976 38.4725 168.204 38.8685 168.486C39.6965 169.08 40.9265 169.956 42.4685 171.132C45.5645 173.466 49.9385 177.006 54.8045 181.968C57.2465 184.44 59.8085 187.254 62.5025 190.332C65.1905 193.416 68.0465 196.722 70.9205 200.316C73.7885 203.904 76.6925 207.774 79.3745 211.998C80.7245 214.104 81.9605 216.324 83.2265 218.592C84.4865 220.854 85.7585 223.158 87.0545 225.48C92.1905 234.798 96.7925 243.846 100.296 252.378C103.812 260.904 106.206 268.89 107.598 275.724" fill="#E0E0E0"/>
<path d="M79.6617 211.704C79.6977 211.704 79.7517 211.254 79.8177 210.432C79.8897 209.616 79.9497 208.428 80.0037 206.958C80.1177 204.024 80.1357 199.962 80.1357 195.486C80.1357 191.004 80.2137 186.96 80.3697 184.032C80.4417 182.568 80.5137 181.386 80.5737 180.57C80.6277 179.754 80.6457 179.298 80.6037 179.292C80.5677 179.286 80.4837 179.736 80.3637 180.546C80.2377 181.356 80.1117 182.544 79.9857 184.008C79.7277 186.936 79.5957 191.004 79.5957 195.486C79.6077 199.902 79.6137 203.898 79.6197 206.952C79.6137 208.332 79.6077 209.496 79.6017 210.426C79.6077 211.242 79.6257 211.698 79.6617 211.704Z" fill="#E0E0E0"/>
<path d="M41.5742 208.572C41.5742 208.608 42.1142 208.614 43.0802 208.596C44.0462 208.584 45.4502 208.554 47.1782 208.578C50.6402 208.596 55.4162 208.782 60.6842 209.226C65.9522 209.676 70.6982 210.288 74.1182 210.828C75.8342 211.086 77.2142 211.332 78.1682 211.494C79.1222 211.662 79.6562 211.74 79.6622 211.704C79.6682 211.668 79.1522 211.524 78.2102 211.29C77.2682 211.062 75.8942 210.756 74.1842 210.45C70.7702 209.814 66.0122 209.136 60.7322 208.686C55.4522 208.248 50.6522 208.116 47.1842 208.2C45.4502 208.23 44.0462 208.314 43.0802 208.392C42.1022 208.47 41.5742 208.536 41.5742 208.572Z" fill="#E0E0E0"/>
<path d="M100.224 251.544C100.242 251.55 100.314 251.382 100.434 251.064C100.572 250.68 100.734 250.212 100.932 249.648C101.358 248.418 101.934 246.612 102.612 244.38C103.974 239.916 105.66 233.682 107.424 226.788C109.194 219.888 110.82 213.648 112.086 209.16C112.71 206.976 113.22 205.182 113.598 203.85C113.76 203.274 113.892 202.794 114 202.404C114.084 202.074 114.126 201.894 114.108 201.888C114.09 201.882 114.018 202.05 113.898 202.374C113.76 202.758 113.598 203.226 113.4 203.79C112.974 205.026 112.398 206.826 111.72 209.058C110.358 213.522 108.672 219.756 106.902 226.656C105.132 233.556 103.506 239.79 102.24 244.278C101.616 246.462 101.106 248.256 100.728 249.588C100.566 250.17 100.434 250.644 100.326 251.034C100.242 251.364 100.206 251.538 100.224 251.544Z" fill="#E0E0E0"/>
<path d="M48.918 240.666C48.918 240.684 49.092 240.738 49.434 240.816C49.836 240.906 50.328 241.014 50.928 241.152C52.302 241.446 54.162 241.842 56.424 242.328C61.062 243.324 67.458 244.764 74.52 246.372C81.582 247.98 87.996 249.366 92.658 250.266C94.986 250.716 96.876 251.058 98.19 251.268C98.796 251.364 99.294 251.436 99.702 251.502C100.05 251.55 100.23 251.568 100.236 251.544C100.236 251.526 100.062 251.472 99.72 251.388C99.318 251.298 98.826 251.19 98.226 251.052C96.852 250.758 94.992 250.362 92.73 249.876C88.092 248.886 81.696 247.44 74.634 245.832C67.572 244.224 61.158 242.838 56.502 241.944C54.174 241.494 52.284 241.152 50.97 240.942C50.364 240.846 49.866 240.768 49.458 240.708C49.104 240.66 48.918 240.648 48.918 240.666Z" fill="#E0E0E0"/>
<path d="M92.1417 130.092C91.6917 130.092 91.2597 129.84 91.0557 129.408L88.4517 123.99C88.2897 123.648 88.2957 123.252 88.4637 122.916C88.6377 122.58 88.9557 122.346 89.3277 122.28C90.3057 122.112 91.1997 121.5 91.7817 120.6C92.3217 119.772 92.5077 118.818 92.2977 117.972C92.0877 117.132 91.4757 116.364 90.6057 115.872C89.6817 115.344 88.5777 115.188 87.6597 115.464C85.7817 116.022 84.4377 118.224 84.7257 120.264C84.8157 120.924 84.3597 121.536 83.6997 121.626C83.0277 121.716 82.4277 121.26 82.3377 120.6C81.8877 117.39 83.9637 114.048 86.9757 113.148C88.5357 112.68 90.2997 112.908 91.8057 113.772C93.2397 114.594 94.2717 115.908 94.6437 117.39C95.0157 118.878 94.7097 120.528 93.8037 121.914C93.1497 122.916 92.2497 123.702 91.2177 124.182L93.2217 128.358C93.5097 128.958 93.2577 129.678 92.6577 129.966C92.4957 130.056 92.3157 130.092 92.1417 130.092Z" fill="#E0E0E0"/>
<path d="M94.7342 131.652C94.9802 132.138 94.7882 132.732 94.3082 132.978C93.8222 133.224 93.2282 133.032 92.9822 132.552C92.7362 132.066 92.9282 131.472 93.4082 131.226C93.8882 130.974 94.4822 131.166 94.7342 131.652Z" fill="#E0E0E0"/>
<path d="M59.1665 111.948C58.8545 111.948 58.5545 111.774 58.4045 111.468L56.5865 107.688C56.4725 107.448 56.4785 107.172 56.5985 106.938C56.7185 106.704 56.9405 106.536 57.2045 106.494C57.8885 106.374 58.5125 105.948 58.9205 105.318C59.2985 104.742 59.4305 104.076 59.2805 103.482C59.1365 102.894 58.7045 102.36 58.0985 102.012C57.4505 101.64 56.6825 101.538 56.0405 101.73C54.7265 102.12 53.7905 103.656 53.9885 105.084C54.0545 105.546 53.7305 105.972 53.2745 106.038C52.8065 106.104 52.3865 105.78 52.3205 105.318C52.0085 103.074 53.4605 100.74 55.5605 100.116C56.6465 99.792 57.8825 99.948 58.9325 100.554C59.9345 101.124 60.6545 102.048 60.9125 103.08C61.1705 104.124 60.9605 105.27 60.3305 106.242C59.8745 106.938 59.2445 107.49 58.5245 107.826L59.9285 110.742C60.1325 111.162 59.9525 111.666 59.5325 111.864C59.4125 111.918 59.2865 111.948 59.1665 111.948Z" fill="#F5F5F5"/>
<path d="M60.9784 113.034C61.1524 113.37 61.0204 113.79 60.6784 113.964C60.3424 114.138 59.9224 114.006 59.7484 113.664C59.5744 113.322 59.7064 112.908 60.0485 112.734C60.3845 112.56 60.8044 112.698 60.9784 113.034Z" fill="#F5F5F5"/>
<path d="M208.878 113.988C209.01 114.27 208.98 114.618 208.77 114.882L206.13 118.14C205.962 118.344 205.71 118.458 205.446 118.452C205.182 118.446 204.936 118.314 204.786 118.098C204.384 117.534 203.73 117.15 202.992 117.048C202.308 116.952 201.648 117.12 201.18 117.504C200.712 117.888 200.412 118.506 200.358 119.196C200.298 119.94 200.532 120.678 200.982 121.176C201.9 122.196 203.688 122.388 204.888 121.596C205.278 121.338 205.8 121.446 206.052 121.836C206.31 122.232 206.202 122.748 205.812 123.006C203.922 124.248 201.192 123.936 199.722 122.304C198.96 121.458 198.576 120.276 198.672 119.07C198.762 117.918 199.284 116.874 200.106 116.202C200.934 115.524 202.068 115.224 203.214 115.38C204.042 115.494 204.804 115.83 205.422 116.334L207.456 113.82C207.75 113.46 208.278 113.4 208.644 113.694C208.752 113.778 208.824 113.88 208.878 113.988Z" fill="#F5F5F5"/>
<path d="M209.088 111.888C209.322 111.588 209.754 111.528 210.054 111.762C210.354 111.996 210.414 112.428 210.18 112.728C209.946 113.028 209.514 113.088 209.214 112.854C208.914 112.62 208.854 112.188 209.088 111.888Z" fill="#F5F5F5"/>
<path d="M200.082 35.718C200.214 36 200.184 36.348 199.974 36.612L197.334 39.87C197.166 40.074 196.914 40.188 196.65 40.182C196.386 40.176 196.14 40.044 195.99 39.828C195.588 39.264 194.934 38.88 194.196 38.778C193.512 38.682 192.852 38.85 192.384 39.234C191.916 39.618 191.616 40.236 191.562 40.926C191.502 41.67 191.736 42.408 192.186 42.906C193.104 43.926 194.892 44.118 196.092 43.326C196.482 43.068 197.004 43.176 197.256 43.566C197.514 43.962 197.406 44.478 197.016 44.736C195.126 45.978 192.396 45.666 190.926 44.034C190.164 43.188 189.78 42.006 189.876 40.8C189.966 39.648 190.488 38.604 191.31 37.932C192.138 37.254 193.272 36.954 194.418 37.11C195.246 37.224 196.008 37.56 196.626 38.064L198.66 35.55C198.954 35.19 199.482 35.13 199.848 35.424C199.95 35.508 200.028 35.61 200.082 35.718Z" fill="#F5F5F5"/>
<path d="M200.292 33.618C200.526 33.318 200.958 33.258 201.258 33.492C201.558 33.726 201.618 34.158 201.384 34.458C201.15 34.758 200.718 34.818 200.418 34.584C200.118 34.356 200.058 33.918 200.292 33.618Z" fill="#F5F5F5"/>
<path d="M133.47 47.754C133.878 47.754 134.268 47.982 134.46 48.378L136.818 53.292C136.968 53.604 136.962 53.964 136.806 54.264C136.65 54.57 136.356 54.78 136.02 54.84C135.132 54.996 134.322 55.548 133.788 56.364C133.302 57.114 133.128 57.984 133.32 58.746C133.506 59.508 134.07 60.204 134.856 60.654C135.696 61.134 136.698 61.272 137.532 61.026C139.236 60.516 140.454 58.524 140.196 56.67C140.112 56.07 140.526 55.518 141.126 55.434C141.738 55.35 142.278 55.77 142.362 56.364C142.77 59.28 140.886 62.31 138.156 63.126C136.74 63.546 135.138 63.342 133.77 62.562C132.468 61.818 131.532 60.624 131.196 59.28C130.86 57.924 131.136 56.43 131.958 55.176C132.552 54.27 133.368 53.556 134.304 53.118L132.486 49.332C132.222 48.786 132.456 48.132 133.002 47.868C133.152 47.784 133.314 47.754 133.47 47.754Z" fill="#E0E0E0"/>
<path d="M131.119 46.338C130.891 45.9 131.065 45.36 131.509 45.132C131.947 44.904 132.487 45.078 132.715 45.522C132.943 45.96 132.769 46.5 132.325 46.728C131.887 46.95 131.347 46.776 131.119 46.338Z" fill="#E0E0E0"/>
<path d="M214.866 144.834C215.274 144.834 215.664 145.062 215.856 145.458L218.214 150.372C218.364 150.684 218.358 151.044 218.202 151.344C218.046 151.65 217.752 151.86 217.416 151.92C216.528 152.076 215.718 152.628 215.184 153.444C214.698 154.194 214.524 155.064 214.716 155.826C214.902 156.588 215.466 157.284 216.252 157.734C217.092 158.214 218.094 158.352 218.928 158.106C220.632 157.596 221.85 155.604 221.592 153.75C221.508 153.15 221.922 152.598 222.522 152.514C223.134 152.43 223.674 152.85 223.758 153.444C224.166 156.36 222.282 159.39 219.552 160.206C218.136 160.626 216.534 160.422 215.166 159.642C213.864 158.898 212.928 157.704 212.592 156.36C212.256 155.004 212.532 153.51 213.354 152.256C213.948 151.35 214.764 150.636 215.7 150.198L213.882 146.412C213.618 145.866 213.852 145.212 214.398 144.948C214.548 144.864 214.71 144.834 214.866 144.834Z" fill="#E0E0E0"/>
<path d="M212.514 143.418C212.286 142.98 212.46 142.44 212.904 142.212C213.348 141.984 213.882 142.158 214.11 142.602C214.338 143.04 214.164 143.58 213.72 143.808C213.282 144.03 212.742 143.856 212.514 143.418Z" fill="#E0E0E0"/>
<path d="M231.246 176.592C231.246 176.592 226.632 173.046 219.906 184.206C213.18 195.366 210.468 201.882 210.468 201.882C210.468 201.882 208.734 204.198 207.18 202.494C205.626 200.79 203.664 196.128 200.772 196.734C197.772 197.364 196.572 200.574 196.788 205.434C197.004 210.294 197.088 220.95 197.094 221.916C197.1 222.864 196.458 224.208 195.216 223.218C193.974 222.228 187.044 213.306 183.006 216.846C178.968 220.386 181.794 233.82 182.076 235.296C182.358 236.772 182.028 237.366 181.314 237.678C180.6 237.99 178.554 234.768 176.478 232.314C174.402 229.86 171.57 227.376 169.41 229.614C167.25 231.852 165.912 241.686 174.168 258.402L178.5 265.896L187.194 266.034C205.818 265.194 213.786 259.272 214.704 256.302C215.622 253.332 212.076 252.048 208.926 251.418C205.776 250.788 201.966 250.548 201.894 249.774C201.822 249 202.188 248.424 203.616 247.962C205.044 247.494 218.172 243.486 219.324 238.242C220.476 232.998 209.322 231.234 207.852 230.628C206.382 230.016 207.258 228.81 208.086 228.354C208.932 227.892 218.31 222.816 222.666 220.662C227.022 218.508 229.254 215.904 228.36 212.976C227.496 210.15 222.468 210.684 220.224 210.144C217.98 209.604 219.174 206.97 219.174 206.97C219.174 206.97 223.572 201.45 230.1 190.17C236.622 178.89 231.144 176.532 231.144 176.532" fill="#EBEBEB"/>
<path d="M225.204 186.576C225.204 186.576 225.169 186.66 225.079 186.822C224.983 186.99 224.857 187.224 224.689 187.524C224.335 188.148 223.825 189.048 223.165 190.206C221.839 192.534 219.901 195.882 217.489 200.016C212.665 208.278 205.903 219.642 198.396 232.164C190.89 244.692 184.105 256.038 179.239 264.276C176.815 268.392 174.853 271.722 173.485 274.038C172.807 275.184 172.284 276.072 171.918 276.69C171.738 276.984 171.606 277.212 171.504 277.374C171.408 277.53 171.354 277.602 171.354 277.602C171.354 277.602 171.39 277.518 171.48 277.356C171.57 277.188 171.703 276.954 171.871 276.654C172.225 276.03 172.734 275.13 173.394 273.978C174.72 271.656 176.659 268.302 179.071 264.174C183.895 255.912 190.656 244.548 198.162 232.02C205.668 219.498 212.455 208.152 217.321 199.914C219.745 195.798 221.707 192.468 223.075 190.152C223.753 189.006 224.274 188.112 224.64 187.5C224.82 187.206 224.952 186.978 225.055 186.816C225.151 186.654 225.204 186.576 225.204 186.576Z" fill="#E0E0E0"/>
<path d="M203.25 203.364C203.268 203.358 203.328 203.574 203.424 203.964C203.52 204.354 203.646 204.924 203.796 205.626C204.09 207.036 204.444 208.992 204.798 211.158C205.14 213.294 205.446 215.226 205.68 216.702C205.788 217.368 205.884 217.926 205.956 218.382C206.022 218.778 206.052 219 206.034 219.006C206.016 219.012 205.95 218.796 205.854 218.406C205.758 218.016 205.632 217.446 205.494 216.738C205.218 215.328 204.888 213.366 204.534 211.2C204.18 209.07 203.856 207.138 203.616 205.662C203.502 204.996 203.406 204.438 203.328 203.982C203.262 203.592 203.232 203.37 203.25 203.364Z" fill="#E0E0E0"/>
<path d="M206.82 219.216C206.802 219.144 210.804 218.232 215.754 217.188C220.704 216.138 224.73 215.352 224.742 215.424C224.76 215.496 220.758 216.408 215.808 217.452C210.858 218.496 206.832 219.288 206.82 219.216Z" fill="#E0E0E0"/>
<path d="M194.424 237.93C194.424 237.912 194.652 237.918 195.066 237.948C195.528 237.984 196.11 238.026 196.8 238.08C198.264 238.188 200.286 238.326 202.518 238.398C204.756 238.476 206.778 238.476 208.248 238.464C208.938 238.458 209.52 238.452 209.988 238.452C210.396 238.452 210.624 238.458 210.624 238.476C210.624 238.494 210.396 238.524 209.988 238.554C209.58 238.584 208.986 238.626 208.254 238.65C206.784 238.71 204.756 238.74 202.512 238.662C200.268 238.59 198.246 238.422 196.788 238.266C196.056 238.182 195.468 238.11 195.06 238.05C194.646 237.99 194.418 237.948 194.424 237.93Z" fill="#E0E0E0"/>
<path d="M188.04 224.304C188.058 224.298 188.166 224.478 188.346 224.814C188.544 225.204 188.796 225.678 189.084 226.242C189.696 227.454 190.524 229.134 191.43 230.994C192.33 232.854 193.134 234.552 193.704 235.782C193.962 236.358 194.184 236.85 194.364 237.246C194.514 237.594 194.592 237.792 194.574 237.798C194.556 237.804 194.448 237.624 194.268 237.288C194.07 236.898 193.818 236.424 193.53 235.86C192.918 234.648 192.09 232.968 191.184 231.108C190.284 229.248 189.48 227.55 188.91 226.32C188.652 225.744 188.43 225.252 188.25 224.856C188.1 224.508 188.028 224.31 188.04 224.304Z" fill="#E0E0E0"/>
<path d="M175.002 239.43C175.02 239.424 175.152 239.652 175.386 240.084C175.632 240.558 175.956 241.17 176.34 241.908C177.132 243.456 178.212 245.598 179.394 247.974C180.57 250.35 181.626 252.51 182.376 254.076C182.73 254.826 183.024 255.456 183.252 255.942C183.456 256.386 183.558 256.632 183.54 256.644C183.522 256.65 183.39 256.422 183.156 255.99C182.91 255.516 182.586 254.904 182.202 254.166C181.41 252.618 180.33 250.476 179.148 248.1C177.972 245.724 176.916 243.564 176.166 241.998C175.812 241.248 175.518 240.618 175.29 240.132C175.086 239.688 174.984 239.442 175.002 239.43Z" fill="#E0E0E0"/>
<path d="M183.444 256.176C183.444 256.158 183.732 256.158 184.254 256.176C184.824 256.2 185.562 256.224 186.456 256.26C188.316 256.332 190.884 256.416 193.722 256.434C196.56 256.452 199.134 256.404 200.994 256.356C201.888 256.332 202.632 256.314 203.196 256.302C203.718 256.29 204.006 256.296 204.006 256.314C204.006 256.332 203.718 256.368 203.202 256.41C202.68 256.452 201.93 256.506 201 256.554C199.14 256.65 196.566 256.734 193.722 256.71C190.878 256.692 188.304 256.578 186.45 256.458C185.52 256.398 184.77 256.338 184.248 256.29C183.732 256.23 183.444 256.194 183.444 256.176Z" fill="#E0E0E0"/>
<path d="M259.59 275.616C259.59 275.7 210.942 275.772 150.948 275.772C90.9299 275.772 42.2939 275.7 42.2939 275.616C42.2939 275.532 90.9299 275.46 150.948 275.46C210.942 275.46 259.59 275.532 259.59 275.616Z" fill="#263238"/>
<path d="M206.928 238.53L197.79 194.946C197.79 194.946 192.432 173.94 173.994 166.704L172.722 166.314C172.692 166.302 170.97 165.78 170.946 165.768C170.202 165.48 167.178 164.52 166.38 164.274C141.516 155.652 134.916 157.896 109.008 166.74C109.008 166.74 97.4942 169.836 91.9202 184.854C86.3402 199.872 75.6602 223.356 75.6602 223.356L101.508 232.482L106.464 225.12V252.294V275.472H137.142H177.564L175.602 252.294L175.26 223.74" fill="#B2B6BD"/>
<path d="M134.556 169.404C134.568 169.422 134.358 169.614 133.962 169.956C133.764 170.13 133.518 170.334 133.218 170.544C132.918 170.76 132.582 171.018 132.18 171.258C131.394 171.768 130.41 172.284 129.27 172.77C128.124 173.232 126.822 173.652 125.424 173.934C124.02 174.198 122.658 174.306 121.422 174.306C120.186 174.288 119.076 174.18 118.158 174C117.696 173.934 117.288 173.814 116.928 173.73C116.568 173.652 116.262 173.55 116.016 173.466C115.524 173.298 115.254 173.202 115.26 173.178C115.278 173.118 116.37 173.496 118.194 173.778C119.106 173.928 120.204 174.006 121.422 174.012C122.64 173.994 123.978 173.88 125.364 173.622C126.744 173.346 128.028 172.944 129.162 172.5C130.29 172.038 131.274 171.546 132.066 171.066C133.65 170.124 134.52 169.356 134.556 169.404Z" fill="#FAFAFA"/>
<g opacity="0.3">
<path opacity="0.3" d="M106.458 244.278L112.284 251.01H118.014V258.336L177.264 272.04L176.784 266.334L121.038 247.188H111.696L107.196 243.594L106.458 244.278Z" fill="black"/>
</g>
<path d="M123.906 238.284L118.962 237.366C118.962 237.366 107.25 224.556 105.054 224.37C103.248 224.22 93.2823 224.316 89.8083 224.358C89.1483 224.364 88.6143 224.904 88.6143 225.564C88.6143 226.212 89.1243 226.746 89.7723 226.77L101.544 227.226L101.598 228.174L89.8083 228.33C88.6083 228.42 87.8403 230.322 91.6803 230.664L101.544 231.012V231.624L91.5423 233.022C91.0383 233.094 89.7063 233.352 89.6943 233.862C89.6943 233.862 89.0883 235.116 91.9383 235.47C92.9163 235.59 101.598 235.302 101.598 235.302L101.262 236.082L92.2743 238.02C91.6203 238.164 91.1883 238.782 91.2783 239.448C91.3743 240.126 91.9803 240.606 92.6643 240.54L102.264 239.652L111.684 247.176H124.284L123.906 238.284Z" fill="#FFC3BD"/>
<path d="M206.928 238.53L178.17 244.188L175.254 223.734" fill="#B2B6BD"/>
<path d="M174.342 239.31L121.044 237.588L121.05 256.008L156.414 263.034L181.242 267C196.674 267 209.016 252.834 206.628 237.588L206.562 237.606L174.342 239.31Z" fill="#B2B6BD"/>
<path d="M189.012 238.974C189.012 238.986 188.772 239.004 188.322 239.022C187.83 239.034 187.17 239.052 186.342 239.076C184.578 239.106 182.1 239.154 179.052 239.208C172.896 239.298 164.394 239.4 155.004 239.31C145.608 239.22 137.106 238.878 130.962 238.464C127.89 238.26 125.406 238.062 123.696 237.888C122.868 237.804 122.214 237.738 121.722 237.684C121.272 237.636 121.038 237.6 121.038 237.588C121.038 237.576 121.278 237.582 121.728 237.6C122.22 237.63 122.874 237.672 123.708 237.726C125.424 237.846 127.908 238.002 130.98 238.17C137.124 238.512 145.62 238.8 155.01 238.896C164.394 238.986 172.896 238.926 179.052 238.914C182.1 238.914 184.578 238.914 186.342 238.914C187.176 238.926 187.836 238.932 188.322 238.938C188.778 238.944 189.012 238.956 189.012 238.974Z" fill="#263238"/>
<path d="M121.044 237.756C121.05 237.756 121.056 237.87 121.062 238.086C121.068 238.32 121.074 238.638 121.08 239.04C121.086 239.898 121.104 241.122 121.116 242.67C121.128 245.82 121.152 250.302 121.176 255.69L121.074 255.564C127.092 256.854 134.31 258.45 142.074 260.082C152.724 262.332 162.414 264.114 169.464 265.2C172.986 265.74 175.848 266.136 177.822 266.4C178.794 266.526 179.556 266.628 180.096 266.7C180.342 266.736 180.54 266.766 180.69 266.784C180.822 266.808 180.888 266.82 180.888 266.826C180.888 266.832 180.816 266.826 180.684 266.82C180.534 266.808 180.336 266.79 180.09 266.766C179.55 266.706 178.782 266.628 177.804 266.526C175.824 266.304 172.956 265.938 169.428 265.422C162.366 264.39 152.658 262.644 142.008 260.388C134.238 258.756 127.026 257.142 121.014 255.822L120.912 255.798V255.69C120.93 250.302 120.948 245.82 120.96 242.67C120.972 241.122 120.984 239.898 120.996 239.04C121.002 238.638 121.008 238.32 121.014 238.086C121.026 237.864 121.032 237.756 121.044 237.756Z" fill="#263238"/>
<path d="M116.49 187.368C116.466 187.368 116.484 187.044 116.526 186.468C116.562 185.892 116.622 185.058 116.64 184.026C116.7 181.968 116.604 179.106 116.082 176.004C115.536 172.914 114.846 170.1 113.772 168.354C113.25 167.478 112.638 166.896 112.182 166.56C111.714 166.23 111.42 166.104 111.432 166.074C111.438 166.062 111.51 166.092 111.654 166.146C111.798 166.2 112.002 166.302 112.254 166.458C112.746 166.77 113.4 167.346 113.964 168.234C114.534 169.116 115.02 170.274 115.404 171.594C115.788 172.914 116.136 174.384 116.394 175.95C116.922 179.076 116.982 181.962 116.868 184.032C116.82 185.07 116.724 185.904 116.652 186.48C116.568 187.056 116.514 187.374 116.49 187.368Z" fill="#263238"/>
<path d="M175.104 171.174C175.188 171.174 175.26 183.42 175.26 198.522C175.26 213.63 175.188 225.876 175.104 225.876C175.02 225.876 174.948 213.63 174.948 198.522C174.948 183.42 175.02 171.174 175.104 171.174Z" fill="#263238"/>
<path d="M193.5 232.698C193.5 232.758 192.594 232.728 191.154 232.908C190.434 232.992 189.582 233.154 188.658 233.394C187.734 233.646 186.738 233.988 185.724 234.438C184.716 234.9 183.804 235.428 183.006 235.95C182.214 236.49 181.53 237.018 180.99 237.504C179.904 238.47 179.328 239.166 179.286 239.13C179.268 239.118 179.4 238.932 179.658 238.614C179.91 238.29 180.312 237.852 180.84 237.342C181.368 236.832 182.046 236.274 182.844 235.71C183.648 235.164 184.572 234.618 185.598 234.15C186.624 233.694 187.644 233.352 188.586 233.112C189.534 232.884 190.398 232.74 191.13 232.686C191.862 232.626 192.456 232.608 192.87 232.638C193.278 232.656 193.5 232.674 193.5 232.698Z" fill="#263238"/>
<g opacity="0.3">
<g opacity="0.3">
<path opacity="0.3" d="M116.988 235.248C125.97 229.884 131.58 220.998 137.058 212.088C142.536 203.178 147.642 193.818 155.238 186.624C158.73 183.318 162.81 180.534 164.094 175.908L150.438 186.762L112.398 230.508L116.988 235.248Z" fill="black"/>
</g>
</g>
<path d="M92.3281 211.776C92.3401 211.896 90.1801 211.812 87.7261 212.646C86.5021 213.066 85.4521 213.6 84.6901 213.984C83.9341 214.374 83.4601 214.62 83.4361 214.584C83.4181 214.548 83.8441 214.236 84.5821 213.792C85.3201 213.354 86.3701 212.778 87.6241 212.352C88.8781 211.926 90.0721 211.764 90.9361 211.722C91.7941 211.686 92.3281 211.734 92.3281 211.776Z" fill="#263238"/>
<path d="M92.3281 211.776C92.3401 211.896 90.1801 211.812 87.7261 212.646C86.5021 213.066 85.4521 213.6 84.6901 213.984C83.9341 214.374 83.4601 214.62 83.4361 214.584C83.4181 214.548 83.8441 214.236 84.5821 213.792C85.3201 213.354 86.3701 212.778 87.6241 212.352C88.8781 211.926 90.0721 211.764 90.9361 211.722C91.7941 211.686 92.3281 211.734 92.3281 211.776Z" fill="#263238"/>
<path d="M174.876 231.384C174.846 231.438 174.228 230.838 172.8 230.43C171.39 229.992 169.176 229.998 166.668 230.814C164.124 231.564 161.484 233.364 158.226 234.72C156.6 235.374 154.752 235.89 152.802 235.758C150.852 235.662 148.95 234.918 147.138 234.018C145.32 233.112 143.622 232.086 141.9 231.288C140.184 230.478 138.408 229.98 136.68 229.812C133.206 229.482 130.05 230.286 127.692 231.438C125.298 232.56 123.69 234.048 122.688 235.116C122.448 235.392 122.226 235.638 122.034 235.854C121.866 236.076 121.722 236.268 121.602 236.43C121.494 236.574 121.404 236.688 121.332 236.784C121.272 236.862 121.236 236.904 121.23 236.898C121.224 236.898 121.248 236.85 121.302 236.766C121.368 236.67 121.446 236.544 121.548 236.394C121.662 236.226 121.8 236.028 121.956 235.794C122.142 235.572 122.352 235.32 122.592 235.038C123.576 233.934 125.178 232.41 127.59 231.246C128.778 230.64 130.17 230.148 131.706 229.824C133.242 229.5 134.934 229.362 136.698 229.53C138.462 229.686 140.28 230.196 142.02 231.012C143.766 231.816 145.464 232.842 147.264 233.742C149.058 234.636 150.924 235.356 152.808 235.458C154.692 235.59 156.492 235.104 158.106 234.462C161.328 233.142 163.998 231.348 166.59 230.61C169.14 229.812 171.402 229.836 172.824 230.322C173.538 230.544 174.054 230.826 174.384 231.036C174.534 231.138 174.648 231.228 174.75 231.294C174.84 231.348 174.882 231.378 174.876 231.384Z" fill="#FAFAFA"/>
<path d="M200.94 209.19C200.928 209.232 200.568 209.01 199.86 208.986C199.158 208.944 198.126 209.196 197.04 209.85C195.93 210.468 194.862 211.596 193.35 212.448C192.6 212.862 191.688 213.174 190.722 213.108C189.762 213.054 188.832 212.67 187.956 212.232C187.074 211.788 186.258 211.29 185.412 210.954C184.572 210.606 183.714 210.378 182.886 210.246C182.058 210.108 181.26 210.078 180.51 210.114C179.766 210.144 179.07 210.246 178.452 210.384C177.21 210.66 176.256 211.074 175.62 211.398C174.984 211.716 174.654 211.944 174.636 211.914C174.63 211.908 174.708 211.842 174.864 211.734C175.02 211.626 175.248 211.458 175.566 211.29C176.19 210.93 177.144 210.48 178.404 210.168C179.034 210.012 179.736 209.892 180.498 209.856C181.26 209.808 182.082 209.826 182.928 209.958C183.78 210.084 184.656 210.312 185.526 210.666C186.402 211.008 187.224 211.512 188.094 211.944C188.958 212.382 189.84 212.742 190.734 212.796C191.628 212.862 192.474 212.58 193.206 212.19C194.67 211.392 195.768 210.276 196.92 209.658C198.048 209.01 199.128 208.782 199.86 208.866C200.226 208.896 200.496 208.986 200.676 209.058C200.856 209.136 200.946 209.184 200.94 209.19Z" fill="#FAFAFA"/>
<path d="M174.552 200.982C174.546 200.994 174.408 200.97 174.144 200.91C174.012 200.886 173.85 200.838 173.658 200.808C173.46 200.784 173.232 200.754 172.986 200.718C171.972 200.604 170.472 200.664 168.708 201.156C166.944 201.648 164.958 202.572 162.864 203.79C160.77 205.002 158.52 206.496 155.898 207.576C154.59 208.11 153.252 208.518 151.92 208.668C150.588 208.824 149.274 208.728 148.08 208.404C146.886 208.086 145.824 207.594 144.852 207.114C143.88 206.634 142.992 206.16 142.164 205.77C140.514 204.972 139.068 204.582 138.048 204.528C137.538 204.522 137.142 204.516 136.872 204.564C136.602 204.594 136.458 204.6 136.458 204.588C136.458 204.576 136.596 204.546 136.86 204.498C137.124 204.432 137.526 204.414 138.048 204.402C139.086 204.42 140.574 204.786 142.248 205.566C143.088 205.944 143.988 206.406 144.96 206.874C145.932 207.336 146.982 207.816 148.146 208.116C149.304 208.422 150.576 208.512 151.878 208.356C153.18 208.212 154.488 207.81 155.778 207.282C158.364 206.22 160.602 204.744 162.72 203.538C164.838 202.326 166.86 201.414 168.654 200.94C170.448 200.466 171.978 200.442 173.004 200.598C173.256 200.64 173.478 200.682 173.682 200.718C173.874 200.76 174.036 200.814 174.168 200.85C174.42 200.928 174.552 200.97 174.552 200.982Z" fill="#FAFAFA"/>
<path d="M193.135 182.52C193.147 182.538 192.919 182.67 192.493 182.892C192.067 183.114 191.455 183.42 190.669 183.762C189.883 184.104 188.935 184.476 187.825 184.746C186.727 185.022 185.449 185.148 184.141 184.998C182.833 184.86 181.627 184.584 180.517 184.434C179.413 184.272 178.405 184.26 177.571 184.38C175.885 184.608 175.063 185.376 175.039 185.316C175.033 185.31 175.081 185.262 175.171 185.178C175.267 185.094 175.417 184.98 175.621 184.854C176.029 184.602 176.683 184.308 177.535 184.164C178.387 184.014 179.425 184.002 180.553 184.152C181.681 184.29 182.893 184.56 184.171 184.692C186.745 184.998 189.025 184.176 190.585 183.564C191.371 183.252 192.001 182.97 192.439 182.784C192.877 182.598 193.123 182.502 193.135 182.52Z" fill="#FAFAFA"/>
<path d="M115.554 192.51C115.542 192.552 115.2 192.282 114.492 192.252C113.79 192.216 112.764 192.504 111.744 193.272C111.222 193.638 110.688 194.094 110.04 194.514C109.398 194.94 108.618 195.258 107.766 195.426C106.05 195.756 104.118 195.438 102.264 194.772C100.404 194.1 98.7419 193.248 97.1459 192.684C96.3539 192.396 95.5799 192.18 94.8479 192.054C94.1099 191.934 93.4139 191.898 92.7839 191.928C91.5119 191.994 90.5219 192.348 89.9099 192.696C89.2919 193.044 89.0039 193.326 88.9799 193.302C88.9739 193.296 89.0399 193.224 89.1779 193.092C89.3159 192.96 89.5379 192.78 89.8439 192.594C90.4559 192.204 91.4639 191.802 92.7659 191.712C93.4139 191.664 94.1339 191.688 94.8899 191.802C95.6459 191.922 96.4379 192.132 97.2419 192.414C98.8619 192.966 100.536 193.818 102.366 194.478C104.184 195.132 106.068 195.444 107.712 195.144C108.528 194.994 109.272 194.7 109.896 194.298C110.526 193.902 111.072 193.458 111.612 193.092C112.668 192.33 113.766 192.054 114.492 192.132C114.858 192.162 115.134 192.264 115.302 192.348C115.482 192.438 115.554 192.504 115.554 192.51Z" fill="#FAFAFA"/>
<path d="M149.352 238.47C149.358 238.464 149.424 238.518 149.544 238.638C149.67 238.752 149.826 238.938 150.018 239.19C150.384 239.7 150.834 240.54 150.996 241.674C151.158 242.79 151.032 244.242 150.198 245.538C149.4 246.828 148.044 247.854 147.276 249.336C146.91 250.08 146.82 250.902 146.976 251.67C147.126 252.438 147.438 253.152 147.756 253.812C148.41 255.12 149.016 256.392 148.992 257.568C148.974 258.744 148.386 259.59 147.87 259.962C147.612 260.154 147.366 260.238 147.21 260.28C147.042 260.31 146.958 260.316 146.958 260.31C146.946 260.274 147.318 260.256 147.798 259.866C148.26 259.488 148.788 258.666 148.776 257.568C148.77 256.464 148.176 255.252 147.498 253.938C147.168 253.272 146.838 252.546 146.676 251.724C146.502 250.908 146.598 249.99 146.994 249.192C147.39 248.4 147.96 247.752 148.494 247.152C149.034 246.552 149.556 245.982 149.952 245.37C150.756 244.152 150.906 242.772 150.774 241.692C150.642 240.594 150.24 239.766 149.91 239.244C149.58 238.734 149.328 238.488 149.352 238.47Z" fill="#FAFAFA"/>
<path d="M174.504 264.81C174.498 264.816 174.42 264.75 174.276 264.612C174.144 264.468 173.958 264.234 173.814 263.892C173.496 263.208 173.454 262.038 173.964 260.796C174.21 260.178 174.606 259.536 175.128 258.954C175.638 258.36 176.244 257.79 176.85 257.178C177.456 256.566 178.068 255.894 178.518 255.084C178.968 254.28 179.22 253.338 179.322 252.354C179.52 250.38 179.166 248.478 179.064 246.738C178.938 244.998 179.088 243.366 179.646 242.142C180.18 240.912 180.978 240.108 181.62 239.724C181.938 239.526 182.208 239.418 182.394 239.358C182.58 239.304 182.682 239.28 182.682 239.292C182.694 239.328 182.286 239.418 181.686 239.826C181.086 240.228 180.342 241.02 179.85 242.226C179.34 243.42 179.214 244.998 179.352 246.72C179.466 248.442 179.838 250.35 179.634 252.39C179.532 253.404 179.268 254.388 178.788 255.234C178.314 256.08 177.672 256.77 177.06 257.382C175.818 258.6 174.648 259.662 174.174 260.886C173.658 262.074 173.664 263.184 173.934 263.856C174.186 264.528 174.54 264.78 174.504 264.81Z" fill="#FAFAFA"/>
<path d="M177.588 272.766C177.588 272.766 177.378 272.946 176.922 273.186C176.466 273.432 175.734 273.714 174.744 273.81C173.76 273.912 172.53 273.804 171.18 273.408C169.824 273.03 168.384 272.298 166.866 271.416C165.342 270.552 163.704 269.514 161.76 268.86C159.822 268.206 157.572 268.152 155.322 268.638C153.06 269.106 150.804 270.036 148.47 271.008C146.142 271.968 143.718 273.03 141.06 273.564C139.734 273.84 138.384 273.924 137.064 273.786C135.744 273.66 134.478 273.252 133.338 272.682C131.04 271.536 129.21 269.874 127.338 268.518C126.402 267.84 125.466 267.204 124.488 266.736C124.242 266.616 123.996 266.502 123.756 266.388C123.51 266.28 123.258 266.202 123.006 266.106C122.514 265.908 122.004 265.794 121.512 265.662C119.52 265.176 117.576 265.188 115.854 265.434C114.126 265.686 112.608 266.178 111.36 266.778C111.042 266.916 110.754 267.096 110.472 267.24C110.184 267.384 109.92 267.546 109.674 267.714C109.428 267.876 109.182 268.026 108.96 268.182C108.744 268.35 108.546 268.506 108.354 268.662C107.958 268.95 107.658 269.268 107.382 269.52C107.1 269.772 106.89 270.012 106.722 270.204C106.56 270.384 106.428 270.528 106.326 270.642C106.236 270.738 106.188 270.786 106.182 270.786C106.176 270.78 106.218 270.726 106.302 270.624C106.398 270.51 106.518 270.354 106.674 270.168C106.836 269.964 107.04 269.718 107.316 269.46C107.592 269.196 107.886 268.872 108.276 268.572C108.468 268.416 108.672 268.254 108.882 268.08C109.104 267.918 109.344 267.762 109.596 267.594C109.842 267.42 110.106 267.252 110.394 267.102C110.682 266.952 110.97 266.766 111.288 266.622C112.548 265.998 114.078 265.494 115.83 265.218C117.576 264.954 119.55 264.93 121.584 265.416C122.088 265.548 122.61 265.662 123.108 265.86C123.36 265.956 123.618 266.034 123.87 266.142C124.116 266.256 124.368 266.376 124.62 266.496C125.622 266.976 126.576 267.612 127.518 268.296C129.408 269.652 131.238 271.302 133.482 272.418C134.598 272.97 135.822 273.366 137.106 273.486C138.384 273.612 139.704 273.534 141.006 273.264C143.616 272.736 146.028 271.692 148.362 270.732C150.696 269.766 152.97 268.836 155.268 268.362C157.554 267.87 159.864 267.936 161.85 268.62C163.83 269.298 165.468 270.354 166.986 271.23C168.492 272.124 169.902 272.856 171.24 273.246C172.566 273.654 173.772 273.774 174.744 273.69C175.716 273.618 176.442 273.354 176.904 273.132C177.354 272.916 177.576 272.748 177.588 272.766Z" fill="#FAFAFA"/>
<path d="M144.204 172.686C150.9 173.016 156.66 167.994 157.248 161.316C157.596 157.356 157.872 153.972 157.872 153.972C157.872 153.972 168.096 153.714 169.518 143.712C170.94 133.71 172.188 110.478 172.188 110.478C161.238 103.992 147.63 103.938 136.626 110.34L134.994 111.288L132.36 159.546C131.988 166.452 137.298 172.344 144.204 172.686Z" fill="#FFC3BD"/>
<path d="M159.288 136.8C159.294 136.692 160.17 136.632 161.58 136.614C161.946 136.62 162.24 136.578 162.294 136.386C162.39 136.176 162.3 135.774 162.168 135.318C161.934 134.358 161.694 133.392 161.442 132.372C160.452 128.184 159.822 124.746 160.038 124.692C160.248 124.644 161.226 127.998 162.216 132.186C162.444 133.206 162.666 134.184 162.882 135.144C162.96 135.576 163.146 136.098 162.882 136.668C162.744 136.956 162.432 137.13 162.186 137.166C161.94 137.208 161.736 137.178 161.562 137.166C160.146 137.04 159.282 136.908 159.288 136.8Z" fill="#263238"/>
<path d="M157.908 153.834C157.908 153.834 151.512 153.528 145.326 148.428C145.326 148.428 147.48 156.042 157.596 156.432L157.908 153.834Z" fill="#EB996E"/>
<path d="M172.067 113.022C172.067 113.022 165.767 115.656 157.997 111.228C152.897 108.324 146.861 106.704 145.457 107.688C144.053 108.666 143.471 114.054 138.191 115.344C138.191 115.344 137.981 125.67 133.889 125.076C129.803 124.482 133.247 108.66 133.247 108.66L143.573 104.304L154.655 102.834L164.909 104.862L172.787 107.49L172.067 113.022Z" fill="#263238"/>
<path d="M134.886 121.824C134.724 121.728 128.268 118.896 127.596 125.772C126.924 132.648 133.968 131.904 134.004 131.706C134.028 131.514 134.886 121.824 134.886 121.824Z" fill="#FFC3BD"/>
<path d="M132.15 128.898C132.12 128.874 132.024 128.97 131.808 129.042C131.604 129.114 131.256 129.144 130.908 128.976C130.206 128.64 129.708 127.428 129.798 126.18C129.84 125.55 130.032 124.968 130.302 124.494C130.56 124.014 130.92 123.69 131.292 123.66C131.664 123.612 131.904 123.858 131.97 124.056C132.042 124.26 131.988 124.392 132.024 124.404C132.042 124.422 132.18 124.302 132.156 124.014C132.138 123.876 132.078 123.702 131.928 123.558C131.778 123.408 131.538 123.318 131.28 123.318C130.746 123.306 130.224 123.744 129.924 124.26C129.6 124.776 129.372 125.43 129.324 126.138C129.234 127.53 129.816 128.892 130.782 129.276C131.256 129.45 131.67 129.342 131.898 129.198C132.12 129.066 132.174 128.916 132.15 128.898Z" fill="#EB996E"/>
<path d="M142.758 108.792C141.354 110.292 139.926 111.804 138.18 112.89C136.434 113.976 134.304 114.594 132.306 114.132C130.302 113.67 128.538 111.936 128.454 109.884C128.37 107.832 130.38 105.828 132.384 106.266C131.022 106.29 129.882 104.748 130.308 103.452C130.734 102.156 132.564 101.592 133.644 102.42C131.904 102.096 131.706 99.33 133.092 98.226C134.478 97.122 136.518 97.362 138.156 98.028C139.8 98.694 141.306 99.726 143.04 100.098C145.758 100.68 148.548 99.552 150.954 98.154C153.36 96.756 155.646 95.046 158.322 94.308C161.61 93.396 165.168 94.062 168.312 95.382C170.922 96.48 173.4 98.064 175.098 100.332C176.796 102.6 177.636 105.612 176.88 108.342C176.124 111.072 173.586 113.34 170.748 113.352C170.748 113.352 164.382 113.994 159.198 110.148C154.014 106.302 143.088 106.812 143.088 106.812L142.758 108.792Z" fill="#263238"/>
<path d="M133.17 100.782C133.158 100.806 133.296 100.914 133.566 101.1C133.836 101.292 134.256 101.544 134.802 101.856C135.9 102.468 137.574 103.236 139.764 103.83C141.942 104.418 144.654 104.796 147.654 104.58C150.666 104.382 153.828 103.41 157.122 102.606C160.404 101.796 163.668 101.394 166.482 102.09C169.296 102.738 171.516 104.442 172.488 106.368C173.478 108.312 173.358 110.214 173.01 111.36C172.65 112.536 172.152 113.058 172.218 113.1C172.236 113.118 172.362 112.992 172.578 112.74C172.77 112.47 173.064 112.056 173.28 111.45C173.736 110.274 173.958 108.258 172.956 106.134C171.96 104.016 169.608 102.15 166.644 101.424C163.668 100.656 160.272 101.064 156.948 101.886C153.612 102.702 150.516 103.674 147.6 103.902C144.69 104.148 142.038 103.836 139.89 103.32C135.564 102.276 133.236 100.638 133.17 100.782Z" fill="#455A64"/>
<path d="M130.08 111.414C130.002 111.456 130.224 112.128 130.968 112.98C131.694 113.826 133.014 114.804 134.73 115.182C136.446 115.554 138.054 115.206 139.068 114.732C140.094 114.264 140.58 113.742 140.526 113.676C140.46 113.58 139.884 113.934 138.882 114.246C137.892 114.564 136.428 114.792 134.886 114.462C133.344 114.126 132.108 113.316 131.34 112.614C130.56 111.912 130.182 111.354 130.08 111.414Z" fill="#455A64"/>
<path d="M132.227 108.012C132.053 108.096 132.581 109.344 133.913 110.256C135.239 111.18 136.595 111.234 136.607 111.042C136.649 110.832 135.503 110.478 134.327 109.65C133.145 108.846 132.407 107.904 132.227 108.012Z" fill="#455A64"/>
<path d="M175.446 117.612C175.536 117.636 175.734 117.294 175.782 116.676C175.836 116.07 175.704 115.176 175.176 114.366C174.648 113.556 173.886 113.07 173.31 112.872C172.728 112.668 172.338 112.71 172.32 112.8C172.26 112.998 173.676 113.394 174.558 114.762C175.452 116.13 175.242 117.582 175.446 117.612Z" fill="#263238"/>
<path d="M179.01 107.748C178.806 107.664 178.05 109.488 176.25 110.988C174.48 112.524 172.56 112.98 172.614 113.19C172.608 113.382 174.78 113.22 176.73 111.546C178.698 109.89 179.202 107.772 179.01 107.748Z" fill="#455A64"/>
<path d="M168.582 125.718C168.504 126.534 167.754 127.14 166.902 127.074C166.05 127.008 165.426 126.3 165.498 125.484C165.576 124.668 166.326 124.062 167.178 124.128C168.03 124.194 168.66 124.908 168.582 125.718Z" fill="#263238"/>
<path d="M169.8 125.586C169.584 125.76 168.534 124.752 166.878 124.536C165.228 124.302 163.908 124.992 163.752 124.77C163.674 124.668 163.914 124.332 164.496 124.02C165.066 123.708 166.002 123.45 167.028 123.588C168.054 123.726 168.87 124.218 169.32 124.674C169.782 125.124 169.908 125.508 169.8 125.586Z" fill="#263238"/>
<path d="M153.552 123.63C153.474 124.446 152.724 125.052 151.872 124.986C151.02 124.92 150.396 124.212 150.468 123.396C150.546 122.58 151.296 121.974 152.148 122.04C153.006 122.106 153.63 122.82 153.552 123.63Z" fill="#263238"/>
<path d="M154.632 123.588C154.416 123.762 153.366 122.754 151.71 122.538C150.06 122.304 148.74 122.994 148.584 122.772C148.506 122.67 148.746 122.334 149.328 122.022C149.898 121.71 150.834 121.452 151.86 121.59C152.886 121.728 153.702 122.22 154.152 122.676C154.608 123.126 154.734 123.51 154.632 123.588Z" fill="#263238"/>
<path d="M153.997 119.046C153.673 119.334 152.431 118.434 150.763 118.278C149.095 118.08 147.697 118.704 147.439 118.35C147.319 118.182 147.541 117.756 148.159 117.348C148.759 116.94 149.785 116.604 150.931 116.724C152.077 116.844 153.007 117.39 153.511 117.918C154.021 118.44 154.147 118.908 153.997 119.046Z" fill="#263238"/>
<path d="M169.698 121.782C169.77 121.98 169.488 122.304 168.882 122.568C168.288 122.832 167.37 122.982 166.38 122.832C165.39 122.676 164.568 122.25 164.082 121.818C163.59 121.386 163.422 120.984 163.548 120.822C163.836 120.486 165.066 121.068 166.626 121.29C168.18 121.554 169.53 121.374 169.698 121.782Z" fill="#263238"/>
<path d="M158.022 139.548C158.196 139.56 158.316 139.872 158.292 140.244C158.268 140.616 158.112 140.91 157.938 140.898C157.764 140.886 157.644 140.574 157.668 140.202C157.692 139.83 157.848 139.536 158.022 139.548Z" fill="#263238"/>
<path d="M133.662 134.328C133.68 134.334 133.656 134.49 133.512 134.73C133.374 134.97 133.098 135.294 132.642 135.522C132.198 135.756 131.538 135.87 130.89 135.624C130.254 135.396 129.648 134.844 129.384 134.094C129.132 133.338 129.27 132.546 129.594 131.958C129.918 131.358 130.434 130.98 130.89 130.782C131.352 130.578 131.766 130.536 132.036 130.542C132.312 130.548 132.462 130.59 132.462 130.608C132.468 130.668 131.832 130.566 130.986 130.98C130.572 131.19 130.122 131.55 129.846 132.09C129.564 132.624 129.456 133.332 129.678 133.992C129.9 134.646 130.434 135.138 130.986 135.354C131.55 135.582 132.12 135.504 132.54 135.318C133.41 134.934 133.614 134.286 133.662 134.328Z" fill="#455A64"/>
<path d="M140.299 175.416C140.299 175.416 143.647 170.688 145.747 168.03C148.297 164.814 149.815 162.036 149.815 160.536C149.815 159.03 149.815 152.568 149.815 152.568C149.815 152.568 152.989 151.818 153.439 155.424C153.895 159.03 153.439 159.936 153.439 159.936C153.439 159.936 166.759 150.966 167.665 151.614C169.255 152.76 166.243 155.154 166.243 155.154L158.125 162.492L162.751 161.028C163.873 160.674 165.079 161.28 165.457 162.39C165.769 163.302 165.433 164.31 164.629 164.856L161.893 167.226L163.273 166.674C164.293 166.266 165.457 166.704 165.949 167.682C166.345 168.468 166.207 169.416 165.607 170.058L163.111 172.716L164.281 172.092C165.037 171.69 165.973 171.99 166.351 172.746C166.669 173.382 166.495 174.156 165.937 174.6L151.021 186.39L140.299 175.416Z" fill="#FFC3BD"/>
<path d="M151.027 186.39C151.027 186.39 150.967 186.336 150.841 186.216C150.709 186.084 150.529 185.904 150.295 185.67C149.803 185.178 149.095 184.464 148.177 183.54C146.317 181.656 143.617 178.92 140.227 175.488L140.167 175.428L140.215 175.362C141.193 173.982 142.249 172.5 143.401 170.934C143.977 170.154 144.577 169.35 145.201 168.534C145.837 167.718 146.485 166.896 147.097 166.008C147.715 165.12 148.309 164.19 148.819 163.188C149.317 162.18 149.785 161.118 149.671 159.93C149.671 157.566 149.665 155.106 149.665 152.574V152.454L149.779 152.43C150.589 152.28 151.459 152.37 152.185 152.826C152.545 153.06 152.827 153.39 153.061 153.744C153.259 154.116 153.415 154.518 153.499 154.932C153.661 155.76 153.715 156.576 153.769 157.422C153.793 157.842 153.799 158.268 153.781 158.694C153.751 159.126 153.745 159.534 153.577 160.002L153.355 159.81C155.413 158.43 157.543 157.032 159.745 155.64C160.849 154.944 161.965 154.248 163.111 153.57C164.263 152.898 165.409 152.214 166.669 151.662C166.837 151.596 167.005 151.53 167.185 151.476C167.275 151.452 167.365 151.428 167.473 151.422C167.527 151.416 167.587 151.422 167.653 151.434C167.749 151.47 167.785 151.506 167.815 151.536C168.139 151.752 168.325 152.208 168.265 152.592C168.151 153.372 167.659 153.942 167.197 154.458C166.711 154.98 166.159 155.406 165.667 155.874C165.157 156.336 164.653 156.792 164.149 157.248C162.133 159.072 160.153 160.854 158.227 162.6L158.077 162.342C158.989 162.054 159.889 161.772 160.783 161.484C161.227 161.34 161.677 161.202 162.115 161.064C162.337 160.998 162.553 160.92 162.781 160.86C163.015 160.794 163.267 160.764 163.507 160.776C164.497 160.806 165.385 161.544 165.625 162.474C165.889 163.404 165.481 164.448 164.701 164.964L164.713 164.952C163.783 165.756 162.871 166.548 161.971 167.322L161.827 167.088C162.277 166.908 162.727 166.728 163.165 166.554C163.627 166.362 164.161 166.326 164.641 166.458C165.613 166.716 166.315 167.664 166.285 168.636C166.279 169.116 166.117 169.584 165.829 169.956C165.529 170.316 165.229 170.61 164.929 170.934C164.335 171.564 163.753 172.182 163.183 172.788L163.039 172.596C163.459 172.374 163.879 172.152 164.293 171.936C164.749 171.72 165.289 171.744 165.721 171.966C166.159 172.182 166.471 172.608 166.567 173.076C166.663 173.544 166.543 174.036 166.261 174.402C166.117 174.588 165.931 174.72 165.769 174.852C165.601 174.984 165.433 175.116 165.271 175.242C164.941 175.5 164.617 175.758 164.299 176.01C163.657 176.514 163.039 177 162.439 177.468C160.045 179.346 157.975 180.966 156.277 182.298C154.591 183.612 153.277 184.638 152.371 185.346C151.933 185.688 151.591 185.946 151.357 186.132C151.147 186.312 151.027 186.39 151.027 186.39C151.027 186.39 151.147 186.282 151.375 186.096C151.615 185.904 151.951 185.628 152.389 185.274C153.289 184.554 154.597 183.504 156.271 182.166C157.951 180.822 159.997 179.19 162.367 177.3C162.961 176.826 163.573 176.34 164.203 175.836C164.521 175.584 164.839 175.332 165.163 175.068C165.325 174.936 165.487 174.81 165.655 174.678C165.823 174.54 165.985 174.426 166.105 174.264C166.351 173.952 166.453 173.52 166.363 173.124C166.279 172.728 166.009 172.362 165.631 172.176C165.259 171.984 164.791 171.966 164.407 172.152C163.999 172.368 163.585 172.59 163.165 172.812L162.523 173.154L163.021 172.626C163.591 172.02 164.167 171.396 164.761 170.766C165.049 170.448 165.373 170.13 165.643 169.806C165.895 169.476 166.039 169.062 166.045 168.636C166.069 167.784 165.451 166.944 164.593 166.722C164.167 166.608 163.705 166.638 163.291 166.812C162.847 166.992 162.403 167.172 161.953 167.352L161.185 167.658L161.809 167.118C162.703 166.344 163.615 165.552 164.545 164.742L164.551 164.736L164.557 164.73C165.241 164.274 165.595 163.362 165.361 162.552C165.151 161.736 164.371 161.094 163.507 161.07C163.081 161.028 162.667 161.208 162.217 161.346C161.773 161.484 161.329 161.628 160.885 161.766C159.991 162.048 159.091 162.336 158.179 162.624L157.513 162.834L158.029 162.366C159.955 160.62 161.935 158.832 163.957 157.008C164.461 156.552 164.971 156.096 165.481 155.634C165.985 155.16 166.525 154.74 166.987 154.242C167.437 153.75 167.887 153.18 167.971 152.556C168.007 152.25 167.899 151.956 167.635 151.776C167.599 151.686 167.443 151.734 167.281 151.776C167.125 151.818 166.963 151.884 166.801 151.95C165.583 152.484 164.425 153.168 163.285 153.834C162.145 154.512 161.029 155.202 159.925 155.898C157.723 157.29 155.593 158.682 153.535 160.056L153.151 160.314L153.313 159.864C153.433 159.528 153.469 159.078 153.487 158.676C153.505 158.262 153.499 157.848 153.475 157.434C153.427 156.612 153.367 155.772 153.217 154.992C153.139 154.602 152.995 154.236 152.815 153.894C152.605 153.57 152.353 153.276 152.035 153.072C151.399 152.664 150.577 152.574 149.851 152.712L149.965 152.574C149.965 155.112 149.959 157.566 149.959 159.93C149.953 160.23 149.965 160.512 149.941 160.824C149.899 161.124 149.839 161.418 149.749 161.7C149.569 162.264 149.329 162.792 149.071 163.302C148.549 164.322 147.943 165.258 147.319 166.146C146.701 167.04 146.035 167.868 145.405 168.678C144.775 169.488 144.175 170.286 143.599 171.066C142.441 172.626 141.373 174.102 140.395 175.476L140.383 175.35C143.719 178.8 146.383 181.542 148.213 183.438C149.119 184.38 149.827 185.112 150.313 185.622C150.547 185.868 150.727 186.054 150.853 186.192C150.967 186.318 151.027 186.39 151.027 186.39Z" fill="#EB996E"/>
<path d="M151.026 186.39L110.142 240.366C103.938 248.556 92.7544 251.556 83.4604 247.11C76.6684 243.858 71.6884 237.03 75.8524 222.978L115.014 196.182L138.816 173.208L151.026 186.39Z" fill="#B2B6BD"/>
<path d="M83.4662 247.11C83.4662 247.11 83.6162 247.182 83.9102 247.332C84.2042 247.488 84.6302 247.716 85.1882 248.01C86.3582 248.496 88.1162 249.222 90.5342 249.444C91.7342 249.534 93.0842 249.582 94.5362 249.372C95.2682 249.312 96.0122 249.126 96.7922 248.976C97.1822 248.886 97.5662 248.76 97.9622 248.652C98.3642 248.55 98.7602 248.412 99.1622 248.256C100.776 247.686 102.444 246.9 104.076 245.844C105.708 244.8 107.316 243.492 108.684 241.818C111.474 238.518 114.36 234.75 117.474 230.724C120.582 226.698 123.87 222.36 127.326 217.8C134.226 208.668 141.768 198.594 149.646 187.992C150.066 187.428 150.486 186.864 150.9 186.3L150.912 186.498C146.73 181.974 142.644 177.564 138.714 173.31L138.924 173.322C130.59 180.198 122.88 186.768 115.884 192.618C108.9 198.474 102.636 203.616 97.3382 207.804C92.0462 211.998 87.7442 215.262 84.7442 217.452C83.2562 218.562 82.0742 219.378 81.2882 219.948C80.8982 220.224 80.5982 220.434 80.3882 220.584C80.1842 220.728 80.0762 220.794 80.0762 220.794C80.0762 220.794 80.1722 220.71 80.3702 220.56C80.5742 220.404 80.8682 220.188 81.2522 219.9C82.0262 219.318 83.1962 218.484 84.6722 217.368C87.6482 215.154 91.9322 211.866 97.2062 207.654C102.48 203.442 108.726 198.288 115.704 192.42C122.682 186.558 130.386 179.982 138.72 173.094L138.834 173.004L138.93 173.112C142.866 177.36 146.952 181.776 151.134 186.294L151.224 186.39L151.146 186.492C150.732 187.056 150.312 187.62 149.892 188.184C142.008 198.786 134.46 208.854 127.548 217.98C124.086 222.54 120.792 226.866 117.672 230.892C114.546 234.912 111.654 238.668 108.846 241.968C107.46 243.654 105.828 244.968 104.178 246.018C102.528 247.074 100.842 247.86 99.2162 248.43C98.8142 248.58 98.4122 248.718 98.0042 248.82C97.6022 248.928 97.2122 249.054 96.8222 249.138C96.0362 249.288 95.2802 249.468 94.5422 249.528C93.0782 249.726 91.7162 249.678 90.5102 249.576C88.0802 249.33 86.3162 248.586 85.1522 248.082C84.5882 247.782 84.1682 247.536 83.8862 247.374C83.6042 247.2 83.4662 247.11 83.4662 247.11Z" fill="#263238"/>
<path d="M114.463 233.046C114.439 233.082 114.001 232.662 113.035 232.224C112.075 231.78 110.527 231.474 108.637 231.672C107.695 231.762 106.675 231.978 105.607 232.302C104.539 232.626 103.429 233.082 102.253 233.544C101.077 234.006 99.8349 234.498 98.4969 234.858C97.1589 235.212 95.7069 235.428 94.2309 235.272C92.7549 235.116 91.3749 234.654 90.1029 234.126C88.8249 233.598 87.6429 232.992 86.4969 232.476C84.2229 231.414 82.0089 230.73 80.1129 230.838C78.2169 230.922 76.7769 231.654 75.9849 232.338C75.1749 233.028 74.9289 233.592 74.8929 233.568C74.8809 233.562 74.9529 233.43 75.0969 233.184C75.2589 232.95 75.4989 232.602 75.9069 232.242C76.6929 231.516 78.1569 230.73 80.1009 230.616C82.0509 230.478 84.3189 231.162 86.6109 232.212C87.7689 232.728 88.9509 233.322 90.2169 233.844C91.4769 234.366 92.8329 234.81 94.2609 234.96C95.6889 235.11 97.1049 234.906 98.4189 234.558C99.7389 234.21 100.969 233.73 102.145 233.274C103.321 232.818 104.437 232.368 105.529 232.05C106.615 231.732 107.653 231.528 108.613 231.444C110.539 231.27 112.117 231.618 113.077 232.11C114.055 232.596 114.463 233.046 114.463 233.046Z" fill="#FAFAFA"/>
<path d="M128.91 214.95C128.862 214.938 129.15 214.59 129.066 213.882C128.976 213.204 128.424 212.202 127.26 211.686C126.69 211.422 126.012 211.248 125.274 211.08C124.542 210.912 123.732 210.714 122.952 210.336C121.374 209.604 119.922 208.338 118.578 206.91C117.228 205.476 116.028 204.042 114.744 202.944C113.478 201.834 112.128 201.084 110.898 200.748C109.674 200.4 108.618 200.412 107.922 200.544C107.22 200.67 106.854 200.844 106.842 200.814C106.836 200.802 106.926 200.76 107.1 200.682C107.274 200.604 107.538 200.502 107.898 200.43C108.6 200.256 109.692 200.208 110.952 200.538C112.218 200.85 113.628 201.606 114.924 202.728C116.238 203.838 117.456 205.278 118.794 206.7C120.132 208.122 121.548 209.358 123.066 210.084C124.566 210.828 126.162 210.882 127.344 211.494C128.562 212.07 129.114 213.15 129.174 213.876C129.204 214.248 129.132 214.536 129.048 214.71C128.982 214.872 128.916 214.956 128.91 214.95Z" fill="#FAFAFA"/>
<path d="M243.726 72.798L241.938 72.918L238.398 78.612L238.638 82.182C238.638 82.182 235.884 82.536 235.902 77.844C235.914 73.152 235.644 74.364 235.644 74.364C235.644 74.364 229.776 74.73 229.254 74.256C228.876 73.908 228.33 68.094 228.054 64.938C227.916 63.348 228.792 61.806 230.25 61.332C230.454 61.266 230.67 61.218 230.874 61.206C232.338 61.11 239.892 61.8 239.892 61.8L242.982 61.596L243.726 72.798Z" fill="#455A64"/>
<path d="M248.911 73.434L246.997 61.284L243.937 61.488L244.735 73.464L248.911 73.434Z" fill="#455A64"/>
<path d="M201.87 83.712C201.876 83.7 201.96 83.724 202.128 83.772C202.212 83.796 202.314 83.832 202.428 83.886C202.548 83.934 202.68 84 202.818 84.09C203.382 84.42 204.138 85.098 204.6 86.214C204.822 86.766 204.972 87.426 204.924 88.134C204.87 88.842 204.624 89.592 204.132 90.228C203.658 90.87 202.974 91.404 202.164 91.722C201.366 92.052 200.424 92.154 199.518 91.926C198.618 91.68 197.85 91.128 197.316 90.444C196.776 89.766 196.44 88.962 196.344 88.176C196.23 87.384 196.386 86.604 196.686 85.968C196.998 85.326 197.448 84.828 197.916 84.456C198.864 83.718 199.86 83.496 200.514 83.49C200.682 83.478 200.826 83.49 200.952 83.508C201.078 83.514 201.186 83.532 201.27 83.556C201.438 83.592 201.528 83.616 201.522 83.628C201.516 83.664 201.162 83.568 200.52 83.616C199.89 83.658 198.942 83.904 198.054 84.636C197.616 85.002 197.202 85.482 196.92 86.082C196.65 86.682 196.512 87.402 196.626 88.146C196.818 89.604 197.916 91.176 199.59 91.632C201.27 92.058 203.004 91.236 203.892 90.06C204.354 89.472 204.594 88.782 204.654 88.122C204.708 87.462 204.582 86.832 204.384 86.304C203.976 85.236 203.274 84.552 202.746 84.204C202.212 83.838 201.858 83.742 201.87 83.712Z" fill="#263238"/>
<path d="M189.378 94.398C189.378 94.386 189.618 94.41 189.984 94.62C190.344 94.824 190.836 95.25 191.13 95.958C191.274 96.312 191.37 96.732 191.34 97.182C191.31 97.632 191.148 98.118 190.836 98.526C190.236 99.336 189.06 99.912 187.878 99.618C186.702 99.288 185.964 98.208 185.844 97.206C185.772 96.696 185.874 96.198 186.072 95.79C186.27 95.382 186.564 95.064 186.864 94.83C187.47 94.362 188.106 94.23 188.52 94.23C188.94 94.23 189.162 94.326 189.156 94.338C189.15 94.368 188.928 94.314 188.526 94.35C188.13 94.386 187.548 94.542 187.002 94.998C186.462 95.436 185.982 96.24 186.132 97.17C186.252 98.07 186.936 99.036 187.962 99.318C188.994 99.582 190.062 99.078 190.614 98.352C191.202 97.62 191.184 96.684 190.926 96.036C190.674 95.37 190.248 94.944 189.918 94.716C189.588 94.494 189.366 94.428 189.378 94.398Z" fill="#263238"/>
<path d="M207.565 65.382C207.565 65.382 207.583 65.214 207.637 64.884C207.691 64.548 207.769 64.056 207.877 63.42C207.931 63.096 207.991 62.736 208.057 62.34C208.141 61.944 208.273 61.524 208.393 61.062C208.519 60.6 208.657 60.108 208.801 59.574C208.867 59.304 208.963 59.04 209.071 58.77C209.179 58.5 209.287 58.218 209.395 57.93C210.211 55.59 211.663 52.878 213.787 50.076C215.923 47.286 218.875 44.454 222.709 42.204C223.189 41.928 223.675 41.646 224.167 41.364C224.677 41.112 225.205 40.884 225.733 40.644C226.267 40.416 226.783 40.128 227.353 39.948C227.917 39.756 228.481 39.564 229.057 39.366C229.345 39.27 229.633 39.168 229.921 39.072C230.221 39 230.521 38.934 230.821 38.862C231.421 38.718 232.033 38.58 232.645 38.436C233.263 38.31 233.899 38.256 234.535 38.166C235.171 38.1 235.807 37.956 236.467 37.962C237.775 37.932 239.101 37.824 240.445 37.974C241.117 38.028 241.801 38.046 242.479 38.136C243.157 38.25 243.835 38.37 244.519 38.49C244.861 38.556 245.209 38.592 245.551 38.682C245.887 38.778 246.229 38.868 246.565 38.964C247.243 39.162 247.933 39.33 248.611 39.552C249.937 40.086 251.323 40.536 252.607 41.262C252.937 41.43 253.261 41.598 253.591 41.766C253.753 41.85 253.921 41.928 254.083 42.024L254.551 42.324C255.175 42.726 255.805 43.128 256.441 43.536C257.053 43.968 257.635 44.46 258.235 44.922C258.529 45.162 258.847 45.378 259.123 45.642L259.957 46.44C261.115 47.46 262.087 48.678 263.119 49.86C263.575 50.502 264.031 51.144 264.487 51.792L264.829 52.278L265.129 52.794L265.723 53.832L266.323 54.876L266.827 55.974L267.325 57.078L267.577 57.63C267.649 57.822 267.709 58.014 267.775 58.206C268.039 58.974 268.303 59.748 268.567 60.528C268.753 61.326 268.945 62.13 269.131 62.934C269.767 66.174 269.911 69.558 269.545 72.93C269.089 76.296 268.141 79.542 266.749 82.542C266.371 83.28 265.999 84.012 265.627 84.738C265.183 85.428 264.745 86.118 264.301 86.802L263.971 87.312L263.593 87.792L262.843 88.746L262.093 89.694L261.259 90.564L260.431 91.428L260.017 91.854L259.567 92.244C258.967 92.76 258.367 93.276 257.773 93.792C256.489 94.698 255.253 95.64 253.879 96.354L252.883 96.924C252.553 97.116 252.193 97.248 251.851 97.41C251.155 97.716 250.477 98.052 249.775 98.328C249.061 98.568 248.353 98.808 247.651 99.048L247.123 99.228C246.943 99.276 246.763 99.312 246.583 99.36C246.223 99.444 245.863 99.528 245.509 99.612C244.087 100.008 242.635 100.11 241.219 100.314C240.505 100.374 239.791 100.368 239.089 100.398C238.735 100.41 238.387 100.416 238.033 100.428C237.685 100.428 237.337 100.386 236.989 100.368C236.293 100.32 235.603 100.266 234.919 100.218C234.241 100.146 233.569 99.996 232.903 99.888C231.559 99.714 230.293 99.288 229.033 98.946C228.397 98.802 227.809 98.508 227.209 98.286C226.615 98.04 226.009 97.836 225.439 97.566C224.881 97.278 224.323 96.996 223.771 96.714C223.495 96.576 223.225 96.432 222.949 96.294C222.691 96.132 222.433 95.964 222.181 95.802C221.671 95.472 221.167 95.148 220.669 94.83C220.165 94.518 219.733 94.116 219.265 93.768C218.815 93.402 218.353 93.06 217.921 92.694C217.513 92.298 217.105 91.914 216.703 91.53C213.517 88.428 211.333 84.966 209.929 81.744C208.537 78.51 207.781 75.534 207.547 73.062C207.505 72.756 207.469 72.456 207.433 72.168C207.391 71.88 207.361 71.598 207.367 71.322C207.355 70.776 207.337 70.26 207.325 69.78C207.319 69.306 207.289 68.862 207.301 68.46C207.331 68.058 207.361 67.698 207.385 67.368C207.439 66.726 207.475 66.234 207.505 65.892C207.541 65.55 207.565 65.382 207.565 65.382C207.565 65.382 207.565 65.556 207.547 65.886C207.529 66.228 207.499 66.72 207.457 67.362C207.439 67.686 207.415 68.052 207.385 68.448C207.379 68.85 207.409 69.288 207.421 69.762C207.439 70.236 207.457 70.752 207.475 71.298C207.475 71.574 207.505 71.856 207.553 72.144C207.595 72.432 207.631 72.732 207.673 73.038C207.925 75.492 208.693 78.456 210.091 81.66C211.501 84.858 213.685 88.284 216.859 91.356C217.255 91.734 217.663 92.124 218.071 92.508C218.503 92.874 218.959 93.216 219.409 93.57C219.871 93.912 220.303 94.314 220.807 94.62C221.305 94.938 221.803 95.256 222.313 95.58C222.565 95.742 222.823 95.904 223.081 96.066C223.351 96.204 223.621 96.342 223.897 96.48C224.443 96.756 224.995 97.038 225.553 97.32C226.117 97.584 226.717 97.788 227.305 98.028C227.905 98.244 228.481 98.532 229.117 98.676C230.365 99.012 231.619 99.432 232.957 99.6C233.617 99.702 234.277 99.852 234.955 99.924C235.633 99.972 236.317 100.02 237.007 100.068C237.349 100.086 237.697 100.128 238.045 100.128C238.393 100.116 238.741 100.104 239.089 100.098C239.785 100.068 240.493 100.074 241.201 100.014C242.605 99.81 244.045 99.708 245.449 99.312C245.803 99.228 246.157 99.144 246.517 99.06C246.697 99.018 246.877 98.982 247.051 98.928L247.573 98.748C248.269 98.508 248.971 98.274 249.679 98.028C250.369 97.752 251.047 97.422 251.737 97.116C252.079 96.954 252.433 96.822 252.763 96.63L253.753 96.06C255.109 95.352 256.333 94.416 257.605 93.516C258.193 93.006 258.787 92.496 259.381 91.986L259.825 91.602L260.233 91.176L261.055 90.318L261.877 89.46L262.621 88.524L263.365 87.582L263.737 87.108L264.067 86.604C264.499 85.926 264.937 85.242 265.375 84.564C265.747 83.838 266.113 83.118 266.485 82.386C267.865 79.422 268.801 76.206 269.251 72.87C269.611 69.528 269.473 66.18 268.843 62.97C268.657 62.172 268.471 61.38 268.285 60.588C268.021 59.82 267.763 59.052 267.505 58.29C267.439 58.098 267.379 57.906 267.307 57.72L267.061 57.174L266.569 56.082L266.071 54.996L265.477 53.964L264.889 52.938L264.595 52.428L264.253 51.948C263.797 51.306 263.347 50.67 262.897 50.034C261.877 48.858 260.917 47.652 259.771 46.644L258.949 45.858C258.679 45.594 258.361 45.384 258.073 45.144C257.479 44.682 256.903 44.196 256.297 43.764C255.667 43.362 255.043 42.96 254.425 42.564L253.963 42.264C253.801 42.174 253.639 42.096 253.477 42.012C253.153 41.844 252.823 41.682 252.499 41.514C251.227 40.794 249.853 40.344 248.545 39.81C247.873 39.582 247.189 39.42 246.517 39.222C246.181 39.126 245.845 39.036 245.509 38.94C245.173 38.856 244.825 38.814 244.489 38.748C243.811 38.628 243.133 38.514 242.467 38.394C241.795 38.304 241.117 38.286 240.451 38.226C239.119 38.07 237.799 38.178 236.503 38.202C235.855 38.19 235.219 38.334 234.589 38.4C233.959 38.49 233.329 38.544 232.717 38.664C232.111 38.808 231.505 38.946 230.905 39.084C230.605 39.156 230.311 39.222 230.011 39.294C229.723 39.384 229.435 39.486 229.153 39.582C228.583 39.774 228.019 39.966 227.461 40.152C226.897 40.326 226.387 40.614 225.853 40.836C225.331 41.076 224.803 41.298 224.299 41.55C223.807 41.832 223.327 42.108 222.847 42.378C219.031 44.598 216.091 47.4 213.949 50.166C211.825 52.944 210.361 55.632 209.533 57.96C209.419 58.248 209.311 58.524 209.203 58.8C209.089 59.07 208.993 59.334 208.927 59.598C208.777 60.126 208.639 60.618 208.507 61.074C208.381 61.53 208.243 61.95 208.159 62.34C208.087 62.736 208.021 63.09 207.967 63.414C207.853 64.05 207.763 64.536 207.697 64.872C207.601 65.214 207.565 65.382 207.565 65.382Z" fill="#263238"/>
<path d="M113.334 75.648C113.34 75.684 112.974 75.732 112.404 76.02C111.834 76.302 111.06 76.896 110.52 77.91C110.256 78.414 110.058 79.02 110.034 79.68C110.016 80.34 110.166 81.054 110.556 81.696C111.294 82.968 112.914 83.994 114.636 83.772C116.352 83.52 117.636 82.092 118.002 80.67C118.206 79.95 118.158 79.218 117.96 78.588C117.756 77.958 117.396 77.43 117.012 77.016C116.22 76.188 115.314 75.828 114.69 75.708C114.06 75.582 113.694 75.636 113.694 75.6C113.694 75.588 113.784 75.576 113.958 75.558C114.042 75.546 114.15 75.54 114.276 75.552C114.402 75.552 114.552 75.558 114.714 75.588C115.362 75.672 116.322 76.014 117.174 76.86C117.594 77.286 117.984 77.832 118.212 78.504C118.434 79.176 118.494 79.968 118.284 80.742C118.092 81.516 117.666 82.272 117.042 82.878C116.43 83.49 115.602 83.946 114.678 84.084C113.754 84.198 112.83 83.988 112.08 83.562C111.318 83.148 110.706 82.536 110.31 81.84C109.902 81.15 109.74 80.376 109.776 79.668C109.812 78.96 110.04 78.324 110.328 77.802C110.916 76.752 111.75 76.17 112.35 75.912C112.5 75.84 112.638 75.792 112.764 75.756C112.884 75.714 112.986 75.69 113.076 75.678C113.238 75.648 113.328 75.636 113.334 75.648Z" fill="#263238"/>
<path d="M124.722 85.338C124.728 85.368 124.5 85.404 124.146 85.596C123.792 85.782 123.318 86.154 122.988 86.784C122.658 87.396 122.526 88.326 123.018 89.124C123.474 89.91 124.476 90.54 125.532 90.402C126.582 90.246 127.38 89.37 127.608 88.494C127.866 87.594 127.488 86.736 127.008 86.232C126.522 85.716 125.958 85.482 125.574 85.404C125.184 85.32 124.95 85.344 124.95 85.314C124.944 85.302 125.178 85.236 125.598 85.284C126.012 85.332 126.624 85.542 127.17 86.082C127.44 86.352 127.692 86.7 127.836 87.132C127.98 87.564 128.022 88.074 127.89 88.566C127.65 89.55 126.786 90.534 125.58 90.714C124.368 90.864 123.276 90.15 122.772 89.274C122.508 88.83 122.412 88.332 122.436 87.876C122.466 87.42 122.61 87.018 122.796 86.682C123.174 86.016 123.714 85.65 124.098 85.488C124.488 85.32 124.722 85.32 124.722 85.338Z" fill="#263238"/>
<path d="M80.4476 52.404H78.5096L74.2796 46.512V42.642C74.2796 42.642 71.2856 42.456 71.6396 47.52C71.9936 52.584 71.6096 51.294 71.6096 51.294C71.6096 51.294 65.2496 51.318 64.7216 51.87C64.3376 52.272 64.1636 58.59 64.0976 62.016C64.0616 63.738 65.1236 65.346 66.7256 65.754C66.9536 65.814 67.1816 65.844 67.4096 65.844C68.9936 65.844 77.0996 64.554 77.0996 64.554H80.4476V52.404Z" fill="#B2B6BD"/>
<path d="M85.9973 51.342L84.8033 64.59H81.4854V51.606L85.9973 51.342Z" fill="#B2B6BD"/>
<path d="M109.896 54.24C109.896 54.24 109.878 54.054 109.854 53.694C109.83 53.328 109.8 52.794 109.758 52.092C109.74 51.738 109.716 51.348 109.692 50.916C109.65 50.484 109.554 50.016 109.482 49.506C109.404 48.996 109.314 48.45 109.224 47.862C109.188 47.568 109.116 47.268 109.032 46.968C108.954 46.662 108.87 46.35 108.786 46.026C108.198 43.422 106.98 40.344 105.06 37.08C103.122 33.828 100.332 30.432 96.5221 27.546C96.0421 27.192 95.5621 26.826 95.0701 26.466C94.5601 26.13 94.0261 25.824 93.4921 25.5C93.2281 25.338 92.9581 25.176 92.6881 25.014C92.4181 24.846 92.1481 24.684 91.8541 24.552C91.2781 24.276 90.6961 24 90.1141 23.718C89.8201 23.58 89.5261 23.43 89.2261 23.298C88.9201 23.184 88.6081 23.07 88.2961 22.956C87.6721 22.728 87.0421 22.5 86.4061 22.266C85.7641 22.056 85.0921 21.918 84.4261 21.738C84.0901 21.654 83.7601 21.564 83.4181 21.48C83.2501 21.438 83.0821 21.39 82.9081 21.354L82.3921 21.276C81.0061 21.078 79.6021 20.79 78.1501 20.784C77.4241 20.76 76.6981 20.688 75.9601 20.7C75.2281 20.736 74.4841 20.778 73.7401 20.814C73.3681 20.838 72.9901 20.838 72.6181 20.886C72.2461 20.94 71.8741 21 71.5021 21.06C70.7581 21.186 69.9961 21.27 69.2461 21.426C67.7641 21.828 66.2341 22.128 64.7701 22.74C64.3981 22.878 64.0321 23.01 63.6601 23.148C63.4741 23.22 63.2881 23.28 63.1021 23.358L62.5621 23.616C61.8421 23.964 61.1221 24.312 60.3961 24.66C59.6881 25.044 59.0101 25.494 58.3081 25.908C57.9661 26.13 57.6001 26.316 57.2701 26.562L56.2801 27.3C54.9181 28.236 53.7241 29.406 52.4761 30.534C51.9121 31.158 51.3421 31.782 50.7721 32.412L50.3461 32.886C50.2141 33.054 50.0881 33.228 49.9621 33.396L49.2001 34.422L48.4261 35.454L47.7481 36.558L47.0761 37.668L46.7401 38.22C46.6381 38.412 46.5481 38.61 46.4521 38.808C46.0741 39.594 45.6961 40.38 45.3121 41.172C45.0121 41.994 44.7061 42.822 44.4001 43.656C43.3081 47.022 42.7201 50.598 42.6661 54.234C42.7141 57.876 43.3021 61.452 44.3941 64.818C44.7001 65.652 45.0001 66.48 45.3061 67.302C45.6901 68.094 46.0681 68.88 46.4461 69.666L46.7341 70.254L47.0701 70.812L47.7421 71.922L48.4201 73.026L49.1941 74.058L49.9621 75.084L50.3461 75.594L50.7721 76.068C51.3421 76.698 51.9121 77.322 52.4761 77.946C53.7241 79.074 54.9181 80.244 56.2801 81.18L57.2701 81.918C57.5941 82.164 57.9661 82.356 58.3081 82.572C59.0101 82.986 59.6881 83.436 60.3961 83.82C61.1221 84.168 61.8481 84.522 62.5621 84.864L63.1021 85.122C63.2881 85.2 63.4741 85.26 63.6601 85.332C64.0321 85.47 64.4041 85.602 64.7701 85.74C66.2281 86.346 67.7641 86.652 69.2461 87.054C69.9961 87.21 70.7581 87.294 71.5021 87.42C71.8741 87.48 72.2521 87.534 72.6181 87.594C72.9901 87.642 73.3681 87.642 73.7401 87.666C74.4841 87.702 75.2281 87.744 75.9601 87.78C76.6921 87.792 77.4241 87.72 78.1501 87.696C79.6021 87.69 81.0061 87.402 82.3921 87.204L82.9081 87.126C83.0821 87.09 83.2441 87.042 83.4181 87C83.7541 86.916 84.0901 86.826 84.4261 86.742C85.0921 86.562 85.7641 86.424 86.4061 86.214C87.0421 85.98 87.6721 85.752 88.2961 85.524C88.6081 85.41 88.9201 85.296 89.2261 85.182C89.5201 85.044 89.8201 84.9 90.1141 84.762C90.7021 84.48 91.2841 84.204 91.8541 83.928C92.1481 83.802 92.4181 83.634 92.6881 83.466C92.9581 83.304 93.2281 83.142 93.4921 82.98C94.0261 82.65 94.5601 82.344 95.0701 82.014C95.5621 81.648 96.0421 81.288 96.5221 80.934C100.332 78.048 103.122 74.652 105.06 71.4C105.306 70.992 105.558 70.602 105.786 70.206C105.984 69.792 106.182 69.39 106.374 68.994C106.566 68.598 106.752 68.208 106.938 67.83C107.028 67.638 107.13 67.452 107.208 67.26C107.28 67.068 107.352 66.87 107.424 66.684C107.706 65.922 107.976 65.19 108.234 64.494C108.474 63.792 108.612 63.096 108.792 62.454C108.876 62.13 108.96 61.818 109.038 61.512C109.122 61.206 109.194 60.912 109.23 60.618C109.32 60.036 109.41 59.484 109.488 58.98C109.56 58.47 109.656 58.002 109.698 57.57C109.722 57.138 109.746 56.742 109.764 56.394C109.806 55.698 109.836 55.164 109.86 54.792C109.872 54.426 109.896 54.24 109.896 54.24C109.896 54.24 109.896 54.426 109.884 54.786C109.866 55.158 109.848 55.692 109.818 56.388C109.8 56.742 109.788 57.138 109.764 57.57C109.722 58.002 109.638 58.47 109.566 58.986C109.488 59.496 109.41 60.048 109.32 60.636C109.29 60.93 109.218 61.23 109.134 61.536C109.056 61.842 108.978 62.16 108.894 62.484C108.72 63.132 108.582 63.828 108.348 64.536C108.096 65.238 107.826 65.97 107.55 66.738C107.478 66.93 107.412 67.122 107.34 67.32C107.262 67.512 107.16 67.698 107.076 67.89C106.89 68.274 106.704 68.664 106.512 69.066C106.32 69.468 106.128 69.87 105.93 70.29C105.702 70.692 105.45 71.088 105.21 71.496C103.278 74.772 100.482 78.198 96.6601 81.114C96.1801 81.474 95.6941 81.84 95.2021 82.206C94.6921 82.542 94.1521 82.854 93.6181 83.184C93.3481 83.346 93.0781 83.514 92.8081 83.676C92.5381 83.844 92.2681 84.012 91.9741 84.144C91.3981 84.426 90.8101 84.708 90.2221 84.99C89.9281 85.128 89.6341 85.278 89.3281 85.416C89.0161 85.53 88.7041 85.644 88.3921 85.758C87.7621 85.986 87.1321 86.22 86.4901 86.454C85.8421 86.67 85.1701 86.808 84.4981 86.994C84.1621 87.078 83.8261 87.168 83.4841 87.258C83.3161 87.3 83.1481 87.348 82.9741 87.384L82.4521 87.462C81.0541 87.666 79.6441 87.954 78.1741 87.966C77.4421 87.99 76.7101 88.062 75.9721 88.056C75.2341 88.02 74.4841 87.984 73.7341 87.942C73.3561 87.918 72.9781 87.918 72.6061 87.87C72.2341 87.816 71.8561 87.756 71.4781 87.696C70.7221 87.57 69.9601 87.486 69.2041 87.33C67.7101 86.928 66.1621 86.628 64.6921 86.016C64.3201 85.878 63.9421 85.74 63.5701 85.608C63.3841 85.536 63.1921 85.476 63.0061 85.398L62.4661 85.134C61.7401 84.786 61.0141 84.432 60.2761 84.084C59.5621 83.7 58.8721 83.25 58.1641 82.83C57.8161 82.608 57.4501 82.422 57.1201 82.17L56.1241 81.426C54.7501 80.484 53.5441 79.302 52.2841 78.168C51.7141 77.538 51.1381 76.908 50.5621 76.272L50.1301 75.798L49.7401 75.282L48.9661 74.244L48.1861 73.2L47.5021 72.084L46.8181 70.962L46.4761 70.398L46.1881 69.804C45.8041 69.012 45.4201 68.214 45.0361 67.416C44.7301 66.582 44.4241 65.748 44.1181 64.908C43.0141 61.512 42.4201 57.9 42.3721 54.228C42.4201 50.556 43.0141 46.95 44.1181 43.548C44.4241 42.708 44.7301 41.874 45.0361 41.04C45.4201 40.242 45.8041 39.444 46.1881 38.652C46.2841 38.454 46.3741 38.256 46.4761 38.058L46.8181 37.494L47.5021 36.372L48.1861 35.262L48.9661 34.218L49.7401 33.18C49.8721 33.006 49.9981 32.832 50.1301 32.664L50.5621 32.19C51.1381 31.554 51.7141 30.924 52.2841 30.3C53.5441 29.16 54.7501 27.984 56.1241 27.042L57.1201 26.298C57.4501 26.046 57.8221 25.86 58.1641 25.638C58.8721 25.218 59.5561 24.768 60.2701 24.384C61.0021 24.03 61.7341 23.682 62.4601 23.334L63.0001 23.076C63.1861 22.998 63.3781 22.938 63.5641 22.866C63.9421 22.728 64.3141 22.59 64.6861 22.458C66.1561 21.846 67.7041 21.546 69.1981 21.144C69.9541 20.988 70.7221 20.904 71.4721 20.778C71.8501 20.718 72.2281 20.664 72.6001 20.604C72.9781 20.556 73.3561 20.556 73.7281 20.532C74.4781 20.496 75.2281 20.46 75.9661 20.418C76.7041 20.406 77.4421 20.478 78.1681 20.508C79.6321 20.52 81.0481 20.808 82.4461 21.012L82.9681 21.09C83.1421 21.126 83.3101 21.174 83.4781 21.216C83.8201 21.306 84.1561 21.39 84.4921 21.48C85.1581 21.666 85.8361 21.804 86.4841 22.02C87.1261 22.254 87.7561 22.488 88.3861 22.716C88.6981 22.83 89.0101 22.944 89.3221 23.058C89.6221 23.196 89.9161 23.34 90.2161 23.484C90.8041 23.772 91.3921 24.054 91.9681 24.33C92.2621 24.462 92.5321 24.63 92.8021 24.798C93.0721 24.966 93.3421 25.128 93.6121 25.29C94.1461 25.62 94.6861 25.932 95.1961 26.268C95.6881 26.634 96.1741 27 96.6541 27.36C100.476 30.276 103.278 33.702 105.204 36.978C107.118 40.266 108.324 43.368 108.894 45.984C108.978 46.308 109.056 46.626 109.134 46.932C109.218 47.238 109.284 47.538 109.32 47.832C109.41 48.42 109.488 48.972 109.566 49.482C109.638 49.992 109.722 50.46 109.764 50.898C109.782 51.33 109.8 51.726 109.818 52.08C109.848 52.782 109.866 53.316 109.884 53.682C109.896 54.06 109.896 54.24 109.896 54.24Z" fill="#263238"/>
<path d="M163.763 65.946C163.757 65.946 163.745 65.946 163.739 65.946C163.241 65.934 162.851 65.52 162.863 65.022L163.067 57.012C163.073 56.73 163.211 56.466 163.445 56.304C163.673 56.142 163.967 56.094 164.237 56.178C165.689 56.628 167.327 56.424 168.737 55.614C170.045 54.864 170.975 53.676 171.287 52.356C171.593 51.042 171.293 49.56 170.459 48.282C169.565 46.914 168.209 45.972 166.745 45.702C163.799 45.156 160.565 47.118 159.539 50.082C159.377 50.55 158.861 50.802 158.393 50.64C157.925 50.478 157.673 49.962 157.835 49.494C159.143 45.726 163.283 43.236 167.069 43.932C169.013 44.292 170.795 45.522 171.959 47.298C173.057 48.984 173.453 50.976 173.033 52.764C172.613 54.57 171.371 56.172 169.625 57.174C168.137 58.026 166.445 58.356 164.837 58.146L164.663 65.07C164.651 65.556 164.249 65.946 163.763 65.946Z" fill="#263238"/>
<path d="M165.155 69.906C165.155 70.632 164.567 71.22 163.841 71.22C163.115 71.22 162.527 70.632 162.527 69.906C162.527 69.18 163.115 68.592 163.841 68.592C164.567 68.586 165.155 69.174 165.155 69.906Z" fill="#263238"/>
<path d="M65.2794 158.292C63.9294 158.292 62.5974 157.902 61.5234 157.098C60.2634 156.15 59.4234 154.65 59.2254 152.97C59.0334 151.38 59.4654 149.82 60.3954 148.692C61.3374 147.552 62.7954 146.844 64.3854 146.748C65.6574 146.67 66.9054 146.982 67.9434 147.624L70.3134 143.13C70.5474 142.692 71.0874 142.524 71.5314 142.752C71.9694 142.986 72.1374 143.526 71.9094 143.97L69.0414 149.406C68.9094 149.658 68.6694 149.826 68.3934 149.874C68.1174 149.922 67.8294 149.832 67.6254 149.64C66.8214 148.878 65.6874 148.482 64.4994 148.554C63.4014 148.62 62.4114 149.094 61.7874 149.85C61.1634 150.606 60.8814 151.668 61.0134 152.772C61.1574 153.96 61.7334 155.016 62.6034 155.67C64.3314 156.966 67.1574 156.72 68.7714 155.13C69.1254 154.782 69.6954 154.788 70.0434 155.142C70.3914 155.496 70.3854 156.066 70.0314 156.414C68.7774 157.65 67.0134 158.292 65.2794 158.292Z" fill="#263238"/>
<path d="M71.8133 139.734C72.0593 139.236 72.6653 139.032 73.1693 139.278C73.6673 139.524 73.8713 140.13 73.6253 140.628C73.3793 141.126 72.7733 141.33 72.2693 141.084C71.7713 140.838 71.5673 140.232 71.8133 139.734Z" fill="#263238"/>
<path d="M246.923 143.148C246.647 143.148 246.371 143.016 246.191 142.776L242.591 137.796C242.423 137.568 242.375 137.274 242.459 137.004C242.543 136.734 242.747 136.518 243.011 136.422C244.049 136.044 244.913 135.198 245.375 134.1C245.801 133.086 245.819 131.994 245.417 131.094C245.015 130.2 244.187 129.48 243.143 129.108C242.015 128.706 240.809 128.76 239.843 129.246C237.917 130.224 236.885 132.864 237.587 135.018C237.743 135.492 237.485 135.996 237.011 136.152C236.537 136.308 236.033 136.05 235.877 135.576C234.893 132.576 236.303 129.012 239.027 127.638C240.431 126.93 242.153 126.846 243.743 127.41C245.249 127.944 246.461 129.018 247.061 130.356C247.667 131.706 247.655 133.326 247.037 134.796C246.539 135.972 245.711 136.95 244.679 137.598L247.655 141.72C247.949 142.122 247.853 142.686 247.451 142.974C247.289 143.094 247.103 143.148 246.923 143.148Z" fill="#263238"/>
<path d="M250.03 144.564C250.366 145.008 250.282 145.638 249.838 145.98C249.394 146.316 248.764 146.232 248.422 145.788C248.086 145.344 248.17 144.708 248.614 144.372C249.058 144.036 249.694 144.12 250.03 144.564Z" fill="#263238"/>
</svg>
