<svg width="120" height="120" viewBox="0 0 120 120" fill="none" xmlns="http://www.w3.org/2000/svg">
<g clip-path="url(#clip0)">
<path d="M97.2604 58.1133V96.5922C97.2604 97.7618 96.6196 98.8376 95.5907 99.3951L61.5191 117.856C60.5708 118.369 59.4273 118.369 58.4818 117.856L24.4077 99.3949C23.3814 98.8376 22.7406 97.7616 22.7406 96.592V58.1133H97.2604Z" fill="#A8E7EF"/>
<path d="M97.2606 65.0371V78.1291L77.5731 88.796C76.7917 89.2178 75.8723 89.2961 75.0308 89.0121L60.0009 83.9221V65.0371H97.2606Z" fill="#70D9E6"/>
<path d="M90.5242 58.1133V102.14L95.5914 99.3947C96.6201 98.8373 97.2609 97.7613 97.2609 96.5915V58.1133H90.5242Z" fill="#70D9E6"/>
<path d="M60.0004 58.1133V118.244C59.4768 118.244 58.9557 118.116 58.479 117.858L24.4077 99.3949C23.3814 98.835 22.7406 97.7616 22.7406 96.592V58.1133H60.0004Z" fill="#70D9E6"/>
<path d="M60.0001 65.0371V83.9221L44.9675 89.012C44.1287 89.2959 43.2067 89.2178 42.4279 88.7959L22.7404 78.1291V65.0371H60.0001Z" fill="#3AD1E0"/>
<path d="M53.3896 58.1133V115.1L58.4782 117.857C58.9533 118.115 59.4762 118.243 59.9991 118.243V58.1133H53.3896Z" fill="#3AD1E0"/>
<path d="M59.9989 37.9248L22.7382 58.1133L59.9989 78.3015L97.2593 58.1133L59.9989 37.9248Z" fill="#756F6F"/>
<path d="M89.5926 62.2679L59.9989 78.3009L30.4052 62.2679L49.7904 51.7638C56.1586 48.3131 63.8392 48.3131 70.2074 51.7638L89.5926 62.2679Z" fill="#5B5555"/>
<path d="M109.112 44.5142L97.2594 58.1129L59.9989 37.9244L72.321 23.788C72.8113 23.2255 73.626 23.0783 74.282 23.4339L108.67 42.0652C109.567 42.5515 109.783 43.7445 109.112 44.5142Z" fill="#A8E7EF"/>
<path d="M76.4596 28.8222C76.4596 31.6017 74.2063 33.8573 71.4268 33.8573C69.1686 33.8573 67.259 32.3716 66.6215 30.3269L72.2607 23.8584C74.6446 24.2564 76.4596 26.3273 76.4596 28.8222Z" fill="#70D9E6"/>
<path d="M10.8862 44.5141L22.7391 58.1129L59.9996 37.9244L47.6775 23.788C47.1872 23.2255 46.3725 23.0783 45.7164 23.4339L11.3287 42.0651C10.4311 42.5515 10.2154 43.7444 10.8862 44.5141Z" fill="#D4F2F6"/>
<path d="M38.8899 31.5756C38.8899 35.0753 36.0514 37.9115 32.5517 37.9115C29.8292 37.9115 27.5072 36.1935 26.6115 33.7839L37.6461 27.8057C38.4277 28.8578 38.8899 30.1632 38.8899 31.5756Z" fill="#A8E7EF"/>
<path d="M9.8494 62.4781L22.7389 58.1133L59.9994 78.3018L44.9681 83.391C44.1279 83.6756 43.207 83.597 42.427 83.1745L9.60143 65.3897C8.37799 64.7269 8.5315 62.9246 9.8494 62.4781Z" fill="#A8E7EF"/>
<path d="M110.149 62.4781L97.2594 58.1133L59.9989 78.3018L75.0302 83.391C75.8704 83.6756 76.7913 83.597 77.5713 83.1745L110.397 65.3895C111.62 64.7269 111.467 62.9246 110.149 62.4781Z" fill="#D4F2F6"/>
<path d="M26.2144 25.2386C26.2144 21.7387 29.0517 18.9014 32.5516 18.9014C36.0515 18.9014 38.8889 21.7387 38.8889 25.2386C38.8889 28.7385 36.0515 31.5759 32.5516 31.5759C29.0517 31.5759 26.2144 28.7385 26.2144 25.2386Z" fill="#BCEA73"/>
<path d="M29.3375 30.6988C31.8252 30.1253 33.6786 27.8985 33.6786 25.237C33.6786 22.5784 31.828 20.3486 29.3403 19.7751C30.2816 19.2189 31.3792 18.9004 32.552 18.9004C36.0502 18.9004 38.8883 21.7384 38.8883 25.2367C38.8883 28.7378 36.0502 31.5761 32.552 31.5761C31.3792 31.5763 30.2785 31.2578 29.3375 30.6988Z" fill="#99D53B"/>
<path d="M71.4276 28.8232C74.2076 28.8232 76.4613 26.5696 76.4613 23.7895C76.4613 21.0095 74.2076 18.7559 71.4276 18.7559C68.6476 18.7559 66.3939 21.0095 66.3939 23.7895C66.3939 26.5696 68.6476 28.8232 71.4276 28.8232Z" fill="#64B9FC"/>
<path d="M76.4616 23.7881C76.4616 26.5692 74.2074 28.8234 71.4284 28.8234C70.4968 28.8234 69.6225 28.5703 68.8751 28.1264C70.8511 27.671 72.3233 25.9019 72.3233 23.7881C72.3233 21.6764 70.8533 19.9052 68.8775 19.4496C69.6251 19.0078 70.497 18.7549 71.4284 18.7549C74.2074 18.7549 76.4616 21.0093 76.4616 23.7881Z" fill="#31A7FB"/>
<path d="M81.6385 13.5591C84.8974 13.5591 87.5392 10.9173 87.5392 7.65844C87.5392 4.39961 84.8974 1.75781 81.6385 1.75781C78.3797 1.75781 75.7379 4.39961 75.7379 7.65844C75.7379 10.9173 78.3797 13.5591 81.6385 13.5591Z" fill="#A8E7EF"/>
<path d="M87.5395 7.65774C87.5395 10.9177 84.8969 13.5602 81.6396 13.5602C80.5476 13.5602 79.5229 13.2635 78.6466 12.7432C80.9629 12.2093 82.6886 10.1358 82.6886 7.65774C82.6886 5.18227 80.9655 3.10617 78.6494 2.57227C79.5258 2.0543 80.5476 1.75781 81.6396 1.75781C84.8969 1.75781 87.5395 4.40039 87.5395 7.65774Z" fill="#70D9E6"/>
<path d="M76.0938 63.9022C76.0938 66.1732 75.6228 68.3365 74.772 70.2959L59.9993 78.2998L45.2267 70.2959C44.3759 68.3365 43.9048 66.1732 43.9048 63.9022C43.9048 55.0146 51.1118 47.8076 59.9993 47.8076C68.8868 47.8076 76.0938 55.0146 76.0938 63.9022Z" fill="#A3E440"/>
<path d="M76.0911 63.9018C76.0911 66.1729 75.62 68.3361 74.7716 70.2955L64.3724 75.9299C67.6864 72.9814 69.7747 68.6854 69.7747 63.9018C69.7747 56.0947 64.2177 49.5885 56.8419 48.1189C57.8638 47.915 58.9185 47.8096 59.9989 47.8096C68.8864 47.8096 76.0911 55.0119 76.0911 63.9018Z" fill="#99D53B"/>
<path d="M112.978 63.7021C112.863 62.3535 111.995 61.2461 110.713 60.8118L100.309 57.2887L110.438 45.6683C111.11 44.897 111.391 43.877 111.21 42.8701C111.028 41.8632 110.407 41.0061 109.508 40.5186L96.4404 33.4388C95.5866 32.9763 94.5202 33.2932 94.0573 34.1468C93.5949 35.0004 93.912 36.0673 94.7653 36.5297L107.653 43.5123L96.8592 55.8955L62.7666 37.4236L69.0927 30.1662C69.8207 30.4334 70.6067 30.5791 71.4261 30.5791C73.9703 30.5791 76.191 29.1722 77.3542 27.0963L87.1228 32.389C87.389 32.5331 87.6757 32.6016 87.9586 32.6016C88.5829 32.6016 89.1874 32.2683 89.5059 31.6807C89.9683 30.8271 89.6512 29.7602 88.7976 29.2978L78.2123 23.5629C78.093 19.9218 75.096 16.9961 71.4264 16.9961C67.6815 16.9961 64.6348 20.0428 64.6348 23.7876C64.6348 25.4365 65.2259 26.9494 66.2066 28.1271L59.9993 35.2484L49.0022 22.6321C47.9639 21.4408 46.2686 21.1345 44.8785 21.8873L40.5799 24.2163C40.0762 20.2331 36.6691 17.1416 32.5513 17.1416C28.0878 17.1416 24.4564 20.7731 24.4564 25.2368C24.4564 27.7048 25.568 29.917 27.3153 31.403L10.4909 40.5186C9.59132 41.0061 8.97116 41.863 8.78904 42.8701C8.6074 43.877 8.88866 44.897 9.56108 45.6681L19.6894 57.2884L9.28569 60.8114C8.00342 61.2457 7.13552 62.3531 7.02068 63.7017C6.90583 65.0503 7.5738 66.2887 8.76397 66.9335L20.9813 73.5528V80.1877C20.9813 81.1585 21.7681 81.9455 22.7391 81.9455C23.7101 81.9455 24.4969 81.1585 24.4969 80.1877V75.4575L41.5895 84.7182C42.3187 85.1134 43.1322 85.3142 43.9488 85.3142C44.4827 85.3142 45.0182 85.2282 45.532 85.0543L58.2418 80.7509V115.725L25.246 97.8473C24.7841 97.597 24.4972 97.1151 24.4972 96.5896V88.8655C24.4972 87.8947 23.7104 87.1077 22.7394 87.1077C21.7683 87.1077 20.9815 87.8947 20.9815 88.8655V96.5896C20.9815 98.4065 21.9737 100.073 23.5712 100.938L57.6434 119.399C58.3812 119.799 59.1905 119.999 59.9998 119.999C60.8091 119.999 61.6184 119.799 62.3562 119.399L96.4285 100.938C98.0257 100.073 99.0181 98.4065 99.0181 96.5896V73.5525L111.235 66.9333C112.425 66.2892 113.093 65.051 112.978 63.7021ZM63.8853 50.1032C70.0386 51.8329 74.3362 57.5071 74.3362 63.9021C74.3362 65.6829 74.0162 67.4112 73.3839 69.0487L59.9993 76.3006L46.6148 69.0487C45.9827 67.4112 45.6625 65.6829 45.6625 63.9021C45.6625 57.4874 49.9765 51.8083 56.1537 50.0914C57.0889 49.8315 57.6364 48.8624 57.3764 47.9272C57.1167 46.9918 56.1471 46.4445 55.2122 46.7042C47.5197 48.8425 42.1471 55.9143 42.1471 63.9021C42.1471 64.8654 42.2252 65.8162 42.3752 66.7519L26.4291 58.112L59.9998 39.923L93.5702 58.1123L77.6242 66.7521C77.7742 65.8165 77.8523 64.8656 77.8523 63.9023C77.8523 55.9389 72.5003 48.8729 64.8371 46.7188C63.9024 46.4558 62.9319 47.001 62.6694 47.9352C62.4059 48.8699 62.9504 49.8404 63.8853 50.1032ZM71.4261 20.5122C73.2325 20.5122 74.7022 21.9817 74.7022 23.7881C74.7022 25.5944 73.2325 27.0642 71.4261 27.0642C69.6198 27.0642 68.1502 25.5944 68.1502 23.7881C68.1502 21.9817 69.6198 20.5122 71.4261 20.5122ZM32.5513 20.6578C35.0762 20.6578 37.1308 22.7121 37.1308 25.2372C37.1308 27.7622 35.0762 29.8167 32.5513 29.8167C30.0264 29.8167 27.972 27.7624 27.972 25.2372C27.972 22.7121 30.0264 20.6578 32.5513 20.6578ZM31.311 33.2372C31.7155 33.2998 32.1296 33.3324 32.5513 33.3324C35.8274 33.3324 38.6528 31.3751 39.9257 28.5696L46.4381 25.0413L57.2316 37.4241L23.139 55.896L12.3452 43.5127L31.311 33.2372ZM44.4042 81.725C44.0282 81.8525 43.6124 81.8166 43.2642 81.6277L23.5843 70.9652C23.5791 70.9624 23.5737 70.9596 23.5686 70.9568L10.7684 64.0216L22.5758 60.0234L55.6205 77.9274L44.4042 81.725ZM95.5017 96.5903C95.5017 97.1158 95.2146 97.5977 94.7529 97.848L61.7572 115.726V80.7516L74.4669 85.055C74.9807 85.2289 75.5162 85.3149 76.0504 85.3149C76.8665 85.3149 77.6802 85.1138 78.4094 84.7189L95.502 75.4582V96.5903H95.5017ZM76.7343 81.6277C76.386 81.8166 75.9702 81.8525 75.5943 81.725L64.3782 77.9274L97.4229 60.0234L109.23 64.0216L76.7343 81.6277ZM109.585 64.1418C109.585 64.1418 109.585 64.1416 109.584 64.1416L109.585 64.1418Z" fill="black"/>
<path d="M73.1458 99.5359L69.1134 101.721C68.2598 102.183 67.9429 103.25 68.4054 104.104C68.7236 104.691 69.3283 105.025 69.9527 105.025C70.2354 105.025 70.5225 104.956 70.7885 104.812L74.8209 102.627C75.6745 102.165 75.9914 101.098 75.529 100.244C75.0665 99.3906 74.0001 99.0732 73.1458 99.5359Z" fill="black"/>
<path d="M39.3018 14.8031C39.6452 15.1462 40.0952 15.318 40.5449 15.318C40.9947 15.318 41.4447 15.1464 41.788 14.8031L43.2381 13.353L44.6882 14.8031C45.0316 15.1462 45.4816 15.318 45.9313 15.318C46.3811 15.318 46.8311 15.1464 47.1744 14.8031C47.8609 14.1166 47.8609 13.0035 47.1744 12.3173L45.7241 10.867L47.1744 9.41666C47.8609 8.73018 47.8609 7.61713 47.1744 6.93088C46.4877 6.24439 45.3749 6.24439 44.6884 6.93088L43.2384 8.38096L41.7883 6.93088C41.1016 6.24439 39.9887 6.24439 39.3023 6.93088C38.6158 7.61736 38.6158 8.73041 39.3023 9.41666L40.7526 10.867L39.3023 12.3173C38.6153 13.0035 38.6153 14.1166 39.3018 14.8031Z" fill="black"/>
<path d="M91.3429 26.3177C91.6863 26.6608 92.1363 26.8326 92.5861 26.8326C93.0358 26.8326 93.4858 26.6611 93.8292 26.3177L95.2793 24.8676L96.7294 26.3177C97.0727 26.6608 97.5227 26.8326 97.9725 26.8326C98.4223 26.8326 98.8723 26.6611 99.2156 26.3177C99.9021 25.6312 99.9021 24.5182 99.2156 23.8319L97.7653 22.3816L99.2156 20.9313C99.9021 20.2448 99.9021 19.1318 99.2156 18.4455C98.5289 17.759 97.4161 17.759 96.7296 18.4455L95.2795 19.8956L93.8294 18.4455C93.1427 17.759 92.0299 17.759 91.3434 18.4455C90.6569 19.132 90.6569 20.2451 91.3434 20.9313L92.7937 22.3816L91.3434 23.8319C90.6564 24.5182 90.6564 25.6312 91.3429 26.3177Z" fill="black"/>
<path d="M81.6396 15.3166C85.8626 15.3166 89.298 11.8812 89.298 7.65844C89.2978 3.43547 85.8624 0 81.6396 0C77.4169 0 73.9812 3.43547 73.9812 7.65844C73.9812 11.8812 77.4167 15.3166 81.6396 15.3166ZM81.6396 3.51562C83.9238 3.51562 85.7824 5.37398 85.7824 7.65844C85.7824 9.94266 83.9238 11.801 81.6396 11.801C79.3554 11.801 77.4968 9.94266 77.4968 7.65844C77.4968 5.37398 79.3554 3.51562 81.6396 3.51562Z" fill="black"/>
<path d="M59.8004 65.7456C58.1068 65.7456 56.5083 66.3072 55.2971 67.3286C54.5551 67.9543 54.4606 69.0634 55.0866 69.8054C55.7122 70.5477 56.8212 70.6419 57.5635 70.0161C58.133 69.5359 58.9477 69.261 59.8006 69.261H59.8123C60.6694 69.2635 61.4872 69.5436 62.0565 70.0295C62.3876 70.3121 62.7933 70.4502 63.1967 70.4502C63.6933 70.4502 64.1869 70.2409 64.5345 69.8335C65.1647 69.0953 65.0771 67.9855 64.3388 67.3553C63.1285 66.3221 61.5244 65.7503 59.8224 65.7451C59.8151 65.7456 59.8076 65.7456 59.8004 65.7456Z" fill="black"/>
<path d="M52.3642 60.5402H52.3478C51.3761 60.5259 50.593 61.3153 50.586 62.2859C50.5794 63.2566 51.369 64.0491 52.3398 64.0559H52.3522C53.3171 64.0559 54.103 63.2768 54.1098 62.3102C54.1166 61.3395 53.3352 60.547 52.3642 60.5402Z" fill="black"/>
<path d="M67.308 64.0196C67.3141 64.0207 67.3204 64.0214 67.3265 64.0226C67.3772 64.0325 67.4285 64.0407 67.4805 64.0461C67.4974 64.0477 67.5145 64.0477 67.5314 64.0489C67.5705 64.0517 67.6097 64.0554 67.6497 64.0557H67.6622C67.7226 64.0557 67.7824 64.0526 67.8415 64.0465C68.729 63.9577 69.4219 63.2086 69.4219 62.2976C69.4219 61.3986 68.7466 60.6586 67.8759 60.5539C67.8679 60.5529 67.8602 60.5511 67.8523 60.5504C67.8122 60.5461 67.7712 60.545 67.7301 60.5433C67.7114 60.5426 67.6931 60.5403 67.6741 60.54H67.665C67.6647 60.54 67.6643 60.54 67.664 60.54H67.6577H67.6474C67.6467 60.54 67.646 60.54 67.6453 60.54C66.6804 60.54 65.9027 61.3191 65.8959 62.2857C65.8901 63.1395 66.5004 63.8548 67.308 64.0196Z" fill="black"/>
</g>
<defs>
<clipPath id="clip0">
<rect width="120" height="120" fill="white"/>
</clipPath>
</defs>
</svg>
