<svg width="32" height="32" viewBox="0 0 32 32" fill="none" xmlns="http://www.w3.org/2000/svg">
<path d="M23.68 16.6405C22.144 16.6405 20.672 16.2565 19.392 15.4245L16.64 16.5765C16.256 16.7045 15.872 16.6405 15.616 16.3845C15.36 16.1285 15.232 15.6805 15.424 15.3605L16.512 12.6725C15.744 11.3925 15.296 9.92045 15.296 8.38445C15.296 3.77645 19.008 0.0644531 23.616 0.0644531C28.224 0.0644531 31.936 3.77645 31.936 8.38445C31.936 12.9925 28.224 16.6405 23.68 16.6405ZM19.456 14.0805C19.584 14.0805 19.712 14.1445 19.84 14.2085C20.992 14.9765 22.336 15.3605 23.744 15.3605C27.648 15.3605 30.784 12.2245 30.784 8.32045C30.784 4.41645 27.52 1.28045 23.68 1.28045C19.84 1.28045 16.64 4.41645 16.64 8.32045C16.64 9.72845 17.024 11.0725 17.792 12.2245C17.92 12.4165 17.92 12.6085 17.856 12.8005L16.896 15.1045L19.2 14.1445C19.264 14.0805 19.328 14.0805 19.456 14.0805Z" fill="white"/>
<path d="M19.392 32C15.424 32 10.496 29.696 6.40001 25.6C0.19201 19.328 -1.85599 11.2 1.85601 7.48797L3.26401 6.07997C4.48001 4.86397 6.52801 4.86397 7.80801 6.07997L10.496 8.76797C11.712 9.98397 11.712 12.032 10.496 13.312L8.12801 15.68C9.08801 17.28 10.304 18.816 11.712 20.224C13.12 21.632 14.656 22.848 16.256 23.808L18.624 21.44C19.84 20.224 21.888 20.224 23.168 21.44L25.856 24.128C27.072 25.344 27.072 27.392 25.856 28.672L24.512 30.08C23.232 31.36 21.44 32 19.392 32ZM5.56801 6.39997C5.05601 6.39997 4.60801 6.59197 4.22401 6.97597L2.81601 8.38397C-0.44799 11.648 1.60001 18.944 7.36001 24.64C13.12 30.4 20.416 32.384 23.616 29.184L25.024 27.776C25.792 27.008 25.792 25.792 25.024 25.088L22.336 22.4C21.568 21.632 20.352 21.632 19.648 22.4L16.96 25.088C16.768 25.28 16.448 25.344 16.192 25.216C14.336 24.128 12.544 22.784 10.944 21.184C9.34401 19.584 8.00001 17.792 6.91201 15.936C6.78401 15.68 6.78401 15.36 7.04001 15.168L9.72801 12.48C10.496 11.712 10.496 10.496 9.72801 9.79197L7.04001 7.10397C6.52801 6.59197 6.08001 6.39997 5.56801 6.39997Z" fill="white"/>
<path d="M23.6801 12.5448C23.2321 12.5448 22.9121 12.1608 22.9121 11.7768C22.9121 11.3928 23.2961 11.0088 23.6801 11.0088C24.0641 11.0088 24.4481 11.3928 24.4481 11.7768C24.4481 12.1608 24.1281 12.5448 23.6801 12.5448ZM23.6801 11.2648C23.4241 11.2648 23.1681 11.4568 23.1681 11.7768C23.1681 12.0968 23.3601 12.2888 23.6801 12.2888C24.0001 12.2888 24.1921 12.0968 24.1921 11.7768C24.1921 11.4568 23.9361 11.2648 23.6801 11.2648Z" fill="white"/>
<path d="M23.6801 10.4967C23.2321 10.4967 22.9761 10.2407 22.9761 9.85668V8.57668C22.9761 8.19268 23.2321 7.93668 23.6161 7.93668C24.3201 7.93668 24.8961 7.36068 24.8961 6.65668C24.8961 5.95268 24.3201 5.37668 23.6161 5.37668C22.9121 5.37668 22.3361 5.95268 22.3361 6.65668C22.3361 7.04068 22.0801 7.29668 21.6961 7.29668C21.3121 7.29668 20.9921 7.04068 20.9921 6.65668C20.9921 5.24868 22.1441 4.09668 23.5521 4.09668C24.9601 4.09668 26.1121 5.24868 26.1121 6.65668C26.1121 7.87268 25.2801 8.83268 24.1921 9.15268V9.85668C24.3201 10.1767 24.0641 10.4967 23.6801 10.4967Z" fill="white"/>
<ellipse cx="23.68" cy="11.8402" rx="0.639998" ry="0.64" fill="white"/>
</svg>
