<svg width="33" height="31" viewBox="0 0 33 31" fill="none" xmlns="http://www.w3.org/2000/svg">
<path d="M10.9222 16.6069C10.539 16.6069 10.2196 16.3515 10.2196 15.9682C10.2196 12.7746 12.8384 10.2197 15.9681 10.2197C16.3513 10.2197 16.6068 10.4752 16.6068 10.8584C16.6068 11.2417 16.3513 11.4972 15.9681 11.4972C13.541 11.4972 11.497 13.4772 11.497 15.9682C11.5609 16.3515 11.3054 16.6069 10.9222 16.6069Z" fill="white"/>
<path d="M16.0319 3.83234C15.6487 3.83234 15.3293 3.57685 15.3293 3.19361V0.638723C15.3293 0.255489 15.5848 0 15.9681 0C16.3513 0 16.6707 0.255489 16.6707 0.638723V3.19361C16.6707 3.57685 16.4152 3.83234 16.0319 3.83234Z" fill="white"/>
<path d="M9.58084 5.55728C9.38922 5.55728 9.13373 5.42953 9.00599 5.23792L7.72855 3.00239C7.66467 2.87464 7.66467 2.68302 7.66467 2.55528C7.72855 2.36366 7.79242 2.23592 7.98403 2.17205H8.04791C8.36727 1.91656 8.7505 2.0443 8.94212 2.36366L10.2196 4.59919C10.2834 4.72694 10.3473 4.91855 10.2834 5.11017C10.2196 5.30179 10.1557 5.42953 9.96407 5.4934H9.9002C9.77246 5.55728 9.70858 5.55728 9.58084 5.55728Z" fill="white"/>
<path d="M4.91821 10.22C4.79046 10.22 4.72659 10.22 4.59884 10.1561L2.36332 8.8787C2.04395 8.68708 1.98008 8.30385 2.10783 7.98449V7.92062C2.29944 7.79287 2.42719 7.729 2.55493 7.66513C2.74655 7.60126 2.87429 7.66513 3.06591 7.729L5.30144 9.00645C5.6208 9.19806 5.68467 9.5813 5.55693 9.90066V9.96453C5.36531 10.0923 5.23757 10.1561 5.10982 10.22C5.04595 10.22 4.98208 10.22 4.91821 10.22Z" fill="white"/>
<path d="M3.19361 16.6065H0.638723C0.255489 16.6065 0 16.3511 0 15.9678C0 15.5846 0.255489 15.3291 0.638723 15.3291H3.19361C3.57685 15.3291 3.83234 15.5846 3.83234 15.9678C3.83234 16.3511 3.57685 16.6065 3.19361 16.6065Z" fill="white"/>
<path d="M31.2974 16.6069H28.7425C28.3592 16.6069 28.1038 16.3515 28.1038 15.9682C28.1038 15.585 28.3592 15.2656 28.7425 15.2656H31.2974C31.6806 15.2656 31.9361 15.5211 31.9361 15.9043C31.9361 16.2876 31.6806 16.6069 31.2974 16.6069Z" fill="white"/>
<path d="M27.0819 10.2194C27.018 10.2194 26.9541 10.2194 26.8903 10.2194C26.6986 10.1556 26.5709 10.0917 26.507 9.90008V9.83621C26.3154 9.51684 26.4432 9.13361 26.7625 8.94199L28.998 7.66455C29.1258 7.60068 29.3174 7.5368 29.509 7.60068C29.7006 7.66455 29.8284 7.72842 29.8923 7.92004V7.98391C30.0839 8.30327 29.9561 8.6865 29.6368 8.87812L27.4012 10.1556C27.2735 10.2194 27.2096 10.2194 27.0819 10.2194Z" fill="white"/>
<path d="M22.4192 5.55671C22.2915 5.55671 22.2276 5.55671 22.0999 5.49284H22.036C21.9083 5.42897 21.7805 5.23735 21.7166 5.1096C21.6528 4.91799 21.7166 4.79024 21.7805 4.59863L23.058 2.3631C23.2496 2.04374 23.6328 1.91599 23.9522 2.10761H24.016C24.1438 2.23535 24.2715 2.3631 24.3354 2.55471C24.3993 2.74633 24.3354 2.87408 24.2715 3.06569L22.9941 5.30122C22.8663 5.42897 22.6109 5.55671 22.4192 5.55671Z" fill="white"/>
<path d="M19.4171 22.5472C18.7784 22.5472 18.0758 22.1001 17.3732 21.5891C16.9261 21.2697 16.2874 20.8226 16.0319 20.8226C15.7764 20.8226 15.1377 21.2697 14.6906 21.5891C13.988 22.1001 13.2854 22.5472 12.6467 22.5472C12.0079 22.5472 11.3053 22.1001 10.6027 21.5891C10.1556 21.2697 9.51692 20.8226 9.26143 20.8226C9.19756 20.8226 9.06981 20.8226 8.68658 21.0143C8.36722 21.2059 7.98398 21.0781 7.79237 20.7588C6.89816 19.2897 6.45105 17.5651 6.45105 15.8406C6.45105 10.5392 10.7305 6.25977 16.0319 6.25977C21.3333 6.25977 25.6127 10.5392 25.6127 15.8406C25.6127 17.5651 25.1656 19.2258 24.2714 20.7588C24.0798 21.0781 23.6966 21.142 23.3772 21.0143C23.0578 20.8226 22.8662 20.8226 22.8023 20.8226C22.5469 20.8226 21.9081 21.2697 21.461 21.5891C20.7584 22.1001 20.0558 22.5472 19.4171 22.5472ZM15.968 19.6091C16.6067 19.6091 17.3093 20.0562 18.0119 20.5671C18.459 20.8865 19.0978 21.3336 19.3532 21.3336C19.6087 21.3336 20.2475 20.8865 20.6946 20.5671C21.3972 20.0562 22.0998 19.6091 22.7385 19.6091C22.9301 19.6091 23.1217 19.6729 23.3133 19.7368C24.0159 18.5232 24.2714 17.2458 24.2714 15.9683C24.2714 11.3695 20.5668 7.66495 15.968 7.66495C11.3692 7.66495 7.66462 11.3695 7.66462 15.9683C7.66462 17.2458 7.98398 18.5232 8.55883 19.6729C8.75045 19.6091 8.94207 19.5452 9.13368 19.5452C9.77241 19.5452 10.475 19.9923 11.1776 20.5033C11.6247 20.8226 12.2634 21.2697 12.5189 21.2697C12.7744 21.2697 13.4131 20.8226 13.8602 20.5033C14.6267 20.0562 15.3293 19.6091 15.968 19.6091Z" fill="white"/>
<path d="M26.1876 22.6108C25.485 22.6108 24.7824 22.0998 24.0798 21.6527C23.6327 21.3333 22.994 20.9501 22.7385 20.9501C22.483 20.9501 21.8443 21.3972 21.3972 21.6527C20.6946 22.0998 19.992 22.6108 19.2894 22.6108C18.5868 22.6108 17.8842 22.0998 17.1816 21.6527C16.7345 21.3333 16.0958 20.9501 15.8403 20.9501C15.5848 20.9501 14.9461 21.3972 14.499 21.6527C13.7964 22.0998 13.0938 22.6108 12.3912 22.6108C11.6886 22.6108 10.986 22.0998 10.2834 21.6527C9.83633 21.3333 9.1976 20.9501 8.94212 20.9501C8.68663 20.9501 8.0479 21.3972 7.6008 21.6527C6.8982 22.0998 6.19561 22.6108 5.49301 22.6108C4.79042 22.6108 4.08782 22.0998 3.38523 21.6527C2.93812 21.3333 2.2994 20.9501 2.04391 20.9501C1.46906 20.9501 1.02196 21.3972 1.02196 21.9721C1.02196 22.3553 0.766467 22.6108 0.383234 22.6108C0 22.6108 0 22.2914 0 21.9082C0 20.6307 1.08583 19.5449 2.36327 19.5449C3.06587 19.5449 3.76846 20.0559 4.47106 20.503C4.91816 20.8224 5.55689 21.2056 5.81238 21.2056C6.06786 21.2056 6.70659 20.7585 7.15369 20.503C7.85629 20.0559 8.55888 19.5449 9.26148 19.5449C9.96407 19.5449 10.6667 20.0559 11.3693 20.503C11.8164 20.8224 12.4551 21.2056 12.7106 21.2056C12.9661 21.2056 13.6048 20.7585 14.0519 20.503C14.7545 20.0559 15.4571 19.5449 16.1597 19.5449C16.8623 19.5449 17.5649 20.0559 18.2675 20.503C18.7146 20.8224 19.3533 21.2056 19.6088 21.2056C19.8643 21.2056 20.503 20.7585 20.9501 20.503C21.6527 20.0559 22.3553 19.5449 23.0579 19.5449C23.7605 19.5449 24.4631 20.0559 25.1657 20.503C25.6128 20.8224 26.2515 21.2056 26.507 21.2056C26.7625 21.2056 27.4012 20.7585 27.8483 20.503C28.5509 20.0559 29.2535 19.5449 29.9561 19.5449C31.2335 19.5449 32.3194 20.6307 32.3194 21.9082C32.3194 22.2914 32.0639 22.5469 31.6806 22.5469C31.2974 22.5469 30.978 22.2914 30.978 21.9082C30.978 21.3333 30.5309 20.8862 29.9561 20.8862C29.7006 20.8862 29.0619 21.3333 28.6148 21.5888C27.5928 22.0998 26.8902 22.6108 26.1876 22.6108Z" fill="white"/>
<path d="M26.1876 26.4434C25.485 26.4434 24.7824 25.9324 24.0798 25.4853C23.6327 25.166 22.994 24.7827 22.7385 24.7827C22.483 24.7827 21.8443 25.2298 21.3972 25.4853C20.6946 25.9324 19.992 26.4434 19.2894 26.4434C18.5868 26.4434 17.8842 25.9324 17.1816 25.4853C16.7345 25.166 16.0958 24.7827 15.8403 24.7827C15.5848 24.7827 14.9461 25.2298 14.499 25.4853C13.7964 25.9324 13.0938 26.4434 12.3912 26.4434C11.6886 26.4434 10.986 25.9324 10.2834 25.4853C9.83628 25.166 9.19756 24.7827 8.94207 24.7827C8.68658 24.7827 8.04786 25.2298 7.60075 25.4853C6.89816 25.9324 6.19557 26.4434 5.49297 26.4434C5.10974 26.4434 4.85425 26.1879 4.85425 25.8047C4.85425 25.4214 5.10974 25.1021 5.49297 25.1021C5.74846 25.1021 6.38718 24.655 6.83429 24.3995C7.53688 23.9524 8.23948 23.4414 8.94207 23.4414C9.64467 23.4414 10.3473 23.9524 11.0499 24.3995C11.497 24.7188 12.1357 25.1021 12.3912 25.1021C12.6467 25.1021 13.2854 24.655 13.7325 24.3995C14.4351 23.9524 15.1377 23.4414 15.8403 23.4414C16.5429 23.4414 17.2455 23.9524 17.9481 24.3995C18.3952 24.7188 19.0339 25.1021 19.2894 25.1021C19.5449 25.1021 20.1836 24.655 20.6307 24.3995C21.3333 23.9524 22.0359 23.4414 22.7385 23.4414C23.4411 23.4414 24.1437 23.9524 24.8463 24.3995C25.2934 24.7188 25.9321 25.1021 26.1876 25.1021C26.5708 25.1021 26.8263 25.3576 26.8263 25.7408C26.8263 26.124 26.5708 26.4434 26.1876 26.4434Z" fill="white"/>
<path d="M19.4172 30.2754C18.7146 30.2754 18.012 29.7645 17.3094 29.3174C16.8623 28.998 16.2236 28.6148 15.9681 28.6148C15.7126 28.6148 15.0739 29.0619 14.6268 29.3174C13.9242 29.7645 13.2216 30.2754 12.519 30.2754C11.8164 30.2754 11.1138 29.7645 10.4112 29.3174C9.96409 28.998 9.32536 28.6148 9.06988 28.6148C8.68664 28.6148 8.43115 28.3593 8.43115 27.976C8.43115 27.5928 8.68664 27.2734 9.06988 27.2734C9.77247 27.2734 10.4751 27.7844 11.1777 28.2315C11.6248 28.5509 12.2635 28.9341 12.519 28.9341C12.7745 28.9341 13.4132 28.487 13.8603 28.2315C14.5629 27.7844 15.2655 27.2734 15.9681 27.2734C16.6707 27.2734 17.3733 27.7844 18.0759 28.2315C18.523 28.5509 19.1617 28.9341 19.4172 28.9341C19.6727 28.9341 20.3114 28.487 20.7585 28.2315C21.4611 27.7844 22.1637 27.2734 22.8663 27.2734C23.2495 27.2734 23.505 27.5289 23.505 27.9122C23.505 28.2954 23.2495 28.6148 22.8663 28.6148C22.6108 28.6148 21.9721 29.0619 21.525 29.3174C20.8224 29.7645 20.0559 30.2754 19.4172 30.2754Z" fill="white"/>
</svg>
