<svg width="32" height="32" viewBox="0 0 32 32" fill="none" xmlns="http://www.w3.org/2000/svg">
<path d="M15.3123 28.1118C8.90674 28.1118 3.72131 22.6935 3.72131 16.0002C3.72131 9.307 8.90674 3.88867 15.3123 3.88867C21.7178 3.88867 26.9032 9.307 26.9032 16.0002C26.9032 22.6935 21.7178 28.1118 15.3123 28.1118ZM15.3123 5.16357C9.57779 5.16357 4.94141 10.0082 4.94141 16.0002C4.94141 21.9923 9.57779 26.8369 15.3123 26.8369C21.0467 26.8369 25.6831 21.9923 25.6831 16.0002C25.6831 10.0082 21.0467 5.16357 15.3123 5.16357Z" fill="white"/>
<path d="M13.665 25.498C13.604 25.498 13.482 25.498 13.421 25.4343C12.9939 25.243 12.2619 24.6056 12.2009 23.3944C12.1399 22.9482 12.2009 22.3108 12.2619 21.6733C12.3229 21.0996 12.4449 20.1434 12.3229 19.9522C12.2619 19.8884 12.0179 19.761 11.8348 19.6335C11.1638 19.251 10.1267 18.6773 10.1267 17.1474C10.1267 14.3426 11.3468 13.5139 12.3839 13.3865C13.604 13.1952 14.2751 13.7689 14.7021 14.2151C14.8851 14.3426 15.0071 14.4701 15.1291 14.5339C15.5562 14.6614 15.8612 14.9801 16.1662 15.2988C16.4102 15.5538 16.7153 15.8725 16.8983 15.8725C17.4473 15.8088 18.0574 15.9363 18.4844 16.255C18.7894 16.51 19.0334 16.8924 19.0944 17.2749C19.1555 17.7849 18.8504 18.1036 18.6674 18.2948C18.4234 18.5498 18.4234 18.6135 18.4234 18.6773C18.5454 19.251 18.4234 19.8247 18.1184 20.2072C17.8133 20.5896 17.4473 20.7809 16.9593 20.7809C16.9593 20.8446 16.8983 20.9084 16.8983 20.9721C16.7763 21.4183 16.5932 22.1195 15.8002 22.3108C15.2511 22.4382 14.7631 22.9482 14.7021 23.1394C14.8851 23.7769 14.4581 24.6693 14.214 25.1793C14.092 25.4343 13.848 25.498 13.665 25.498ZM12.8719 14.5976C12.8109 14.5976 12.6889 14.5976 12.6279 14.5976C12.2619 14.6614 11.4078 14.7888 11.4078 17.1474C11.4078 17.8486 11.8348 18.1036 12.4449 18.4861C12.7499 18.6773 12.9939 18.8048 13.238 19.0598C13.787 19.6335 13.665 20.7171 13.543 21.8645C13.421 22.3745 13.36 22.9482 13.421 23.3307C13.421 23.5219 13.482 23.6494 13.482 23.7769C13.482 23.6494 13.543 23.5857 13.543 23.5219C13.482 23.3307 13.421 23.012 13.665 22.5657C13.97 21.9283 14.7631 21.2908 15.4952 21.0996C15.5562 21.0996 15.6172 21.0359 15.7392 20.6534C15.8612 20.2709 16.0442 19.5697 16.8373 19.5697C16.9593 19.5697 17.0813 19.5697 17.1423 19.4422C17.2033 19.3147 17.2643 19.1873 17.2033 18.996C17.0203 18.1673 17.5083 17.7211 17.7523 17.4661L17.8133 17.4024C17.6913 17.2749 17.4473 17.0837 17.0813 17.1474C16.2882 17.2749 15.7392 16.6375 15.3121 16.1912C15.1291 16 14.8851 15.745 14.7631 15.745C14.4581 15.6175 14.214 15.4263 13.97 15.1713C13.604 14.8526 13.36 14.5976 12.8719 14.5976Z" fill="white"/>
<path d="M8.54073 14.5976C8.47973 14.5976 8.41872 14.5976 8.35772 14.5976C8.29671 14.5976 7.74767 14.4064 7.13762 13.7052C7.13762 13.7052 7.07661 13.6414 6.8936 13.6414C6.22254 13.5777 5.55149 13.3864 5.36847 11.984C5.24646 11.2191 5.24646 10.7091 5.24646 10.1992C5.24646 10.1354 5.30746 10.0079 5.30746 9.9442C6.22254 8.28683 7.56465 6.82069 9.08978 5.80077C9.08978 5.73703 9.15078 5.73703 9.15078 5.73703C10.1269 5.29081 10.9199 5.22707 11.591 5.60954C12.079 5.86452 12.14 6.24699 12.14 6.50197C12.14 6.62946 12.079 6.75695 12.018 6.88444C12.7501 6.88444 13.2991 6.94818 13.6041 7.3944C13.7262 7.64938 13.7262 7.9681 13.6041 8.22308C13.3601 8.73304 12.8721 8.98802 12.4451 9.17926C12.079 9.37049 11.713 9.56173 11.652 9.81671C11.347 10.7091 10.8589 11.3466 10.2489 11.6016C9.94385 11.7291 9.3948 11.8565 8.72375 11.5378C8.60174 11.4741 8.47973 11.4103 8.35772 11.5378C8.35772 11.5378 8.35772 11.5378 8.29671 11.5378C9.02877 11.984 9.15078 13.3227 9.15078 13.8964C9.15078 14.0876 9.08978 14.2789 8.90676 14.4064C8.78475 14.5338 8.66274 14.5976 8.54073 14.5976ZM6.40556 10.4542C6.40556 10.7729 6.40556 11.2191 6.52757 11.7928C6.58857 12.3028 6.71058 12.3665 6.71058 12.3665C6.71058 12.3665 6.8936 12.3665 6.9546 12.3665C7.07661 12.3665 7.19862 12.3665 7.32063 12.4303C7.19862 12.3028 7.13762 12.1115 7.07661 11.8565C7.01561 11.4103 7.19862 10.9004 7.62566 10.5816C8.05269 10.1992 8.66274 10.1992 9.27279 10.4542C9.63882 10.5816 9.82184 10.5179 9.88284 10.5179C10.1269 10.3904 10.4319 10.0079 10.6149 9.43424C10.8589 8.73304 11.408 8.41432 11.896 8.15934C11.347 8.15934 10.7979 8.15934 10.3709 7.9681C9.88284 7.77687 9.82184 7.3944 9.82184 7.26691C9.82184 7.07567 9.88284 6.94818 9.94385 6.82069C9.88284 6.82069 9.82184 6.88444 9.82184 6.88444C8.35772 7.77687 7.25963 9.05177 6.40556 10.4542Z" fill="white"/>
<path d="M24.9511 13.8967C23.975 13.8967 22.5719 13.323 21.9619 11.7932C21.5958 10.837 21.4738 10.072 21.3518 9.56208C21.2908 9.11586 21.2298 8.86088 21.1688 8.79714C20.4977 8.47841 20.0097 7.64973 19.8267 7.07602C19.7047 6.69355 19.5827 6.0561 19.8267 5.54614C19.8877 5.41865 20.0097 5.29116 20.1927 5.22742C20.3757 5.16367 20.4977 5.16367 20.6807 5.29116C23.304 6.69355 25.3171 9.11586 26.2932 12.0481C26.2932 12.1119 26.2932 12.1119 26.3542 12.1756C26.3542 12.4306 26.4152 12.6856 26.3542 12.8768C26.3542 13.2593 26.0492 13.7693 25.3171 13.8967C25.1951 13.8967 25.0731 13.8967 24.9511 13.8967ZM21.1688 7.07602C21.2908 7.331 21.4738 7.52224 21.6568 7.64973C22.3279 7.96845 22.4499 8.66965 22.5719 9.37084C22.6329 9.8808 22.7549 10.5183 23.0599 11.3469C23.365 12.1756 24.097 12.4944 24.341 12.5581C24.6461 12.6856 24.9511 12.6856 25.0731 12.6218C25.0731 12.5581 25.0731 12.4944 25.0731 12.3669C24.341 10.1995 22.9989 8.35092 21.1688 7.07602Z" fill="white"/>
<path d="M28.2453 26.5178C28.0013 26.5178 27.6963 26.3903 27.6353 26.0716L27.3303 25.0517L26.3542 24.7329C26.0492 24.6054 25.8662 24.2867 25.9882 23.9042C26.0492 23.713 26.1712 23.5855 26.2932 23.5218C26.4152 23.458 26.5982 23.3943 26.7812 23.458L27.6963 23.7768L28.8554 22.5656L27.2693 21.9919C26.9642 21.8644 26.7812 21.5457 26.9032 21.1632C26.9642 20.972 27.0863 20.8445 27.2083 20.7807C27.3303 20.717 27.5133 20.6532 27.6963 20.717L29.8925 21.4819L30.9296 20.3983C31.1736 20.1433 31.5396 20.1433 31.7836 20.3983C32.0276 20.6532 32.0887 21.0995 31.8446 21.3544L30.8076 22.4381L31.5396 24.7329C31.6006 24.9242 31.6006 25.0517 31.4786 25.2429C31.4176 25.3704 31.2956 25.4979 31.1126 25.5616C30.8076 25.6891 30.3805 25.4979 30.2585 25.1791L29.7095 23.5218L28.5504 24.7329L28.8554 25.6891C28.9164 25.8803 28.9164 26.0078 28.7944 26.1991C28.7334 26.3266 28.6114 26.454 28.4284 26.5178C28.4284 26.5178 28.3064 26.5178 28.2453 26.5178Z" fill="white"/>
<path d="M24.768 28.3671C24.585 28.3671 24.402 28.3033 24.28 28.1121C24.036 27.7934 24.097 27.3472 24.341 27.0922C24.646 26.8372 24.951 26.5185 25.1951 26.2635C25.3171 26.136 25.4391 26.0723 25.6221 26.0723H25.6831C25.8661 26.0723 25.9881 26.136 26.1101 26.2635C26.3542 26.5185 26.3542 26.9647 26.1101 27.2197C25.8051 27.5384 25.5001 27.8571 25.1951 28.1121C25.134 28.1758 25.073 28.1758 25.012 28.2396C24.951 28.3671 24.829 28.3671 24.768 28.3671Z" fill="white"/>
<path d="M3.11123 8.22321C2.98922 8.22321 2.86721 8.15947 2.7452 8.09572C2.44018 7.84074 2.31816 7.45827 2.56219 7.13955C3.05023 6.37461 3.59927 5.67341 4.14832 5.03596C4.27033 4.90847 4.45334 4.84473 4.57535 4.84473H4.63636C4.81937 4.84473 4.94138 4.90847 5.06339 5.03596C5.24641 5.09971 5.30741 5.29094 5.30741 5.48218C5.30741 5.67341 5.24641 5.86465 5.1244 5.99214C4.57535 6.56584 4.08731 7.26704 3.66028 7.90449C3.59927 7.96823 3.53827 8.03198 3.41626 8.09572C3.35525 8.15947 3.23324 8.22321 3.11123 8.22321Z" fill="white"/>
<path d="M4.6974 27.2193C4.51439 27.2193 4.33137 27.1556 4.20936 26.9644C3.59931 26.3269 3.05027 25.6257 2.62323 24.8608C2.56223 24.7333 2.50122 24.4783 2.50122 24.3508C2.56223 24.1596 2.62323 24.0321 2.80625 23.9046C2.92826 23.8409 3.11127 23.7771 3.23328 23.8409H3.29429C3.4773 23.8409 3.59931 23.9683 3.66032 24.0958C4.08735 24.797 4.57539 25.4345 5.12444 26.0082C5.24645 26.1357 5.30745 26.3269 5.30745 26.5181C5.30745 26.7094 5.24645 26.9006 5.12444 27.0281C5.06343 27.0919 5.00243 27.1556 4.94142 27.1556C4.88042 27.1556 4.75841 27.2193 4.6974 27.2193Z" fill="white"/>
<path d="M8.60177 30.2789C8.47976 30.2789 8.35775 30.2151 8.29674 30.2151C7.56468 29.8326 6.83262 29.3227 6.16157 28.8127C6.03956 28.6852 5.91755 28.5577 5.91755 28.3665V28.3028C5.85654 27.984 6.10056 27.6653 6.46659 27.6016H6.5276C6.71061 27.6016 6.83262 27.6016 6.95463 27.7291C7.56468 28.239 8.23574 28.6852 8.9678 29.004C9.08981 29.0677 9.27282 29.2589 9.27282 29.3864C9.33383 29.5777 9.33383 29.7689 9.21182 29.8964C9.08981 30.1514 8.84579 30.2789 8.60177 30.2789Z" fill="white"/>
<path d="M1.95216 22.9477C1.70814 22.9477 1.46412 22.7565 1.34211 22.5015C0.976078 21.7366 0.732058 20.8442 0.488038 19.9517C0.427033 19.7605 0.488038 19.5693 0.549043 19.4418C0.610048 19.2505 0.793063 19.1868 0.976078 19.123C1.03708 19.123 1.09809 19.123 1.09809 19.123C1.40311 19.123 1.70814 19.3143 1.76914 19.633C1.95216 20.3979 2.19618 21.1629 2.56221 21.9278C2.62321 22.0553 2.62321 22.3103 2.56221 22.4378C2.5012 22.629 2.37919 22.7565 2.19618 22.8203C2.13517 22.8203 2.13517 22.8203 2.07417 22.884C2.07417 22.9477 2.01316 22.9477 1.95216 22.9477ZM0.610048 19.9517C0.610048 19.9517 0.610048 20.0155 0.610048 19.9517C0.610048 20.0155 0.610048 19.9517 0.610048 19.9517Z" fill="white"/>
<path d="M1.15909 12.8771C1.09809 12.8771 1.03708 12.8771 0.976078 12.8771C0.793063 12.8133 0.671053 12.6858 0.549043 12.5583C0.488038 12.4308 0.427033 12.1759 0.488038 12.0484C0.671053 11.1559 0.976078 10.3273 1.34211 9.49858C1.46412 9.17985 1.83015 8.98862 2.13517 9.11611C2.31819 9.17985 2.5012 9.30734 2.56221 9.49858C2.62321 9.68981 2.62321 9.88105 2.56221 10.0723C2.25718 10.8372 2.01316 11.6022 1.76914 12.3671C1.70814 12.6858 1.46412 12.8771 1.15909 12.8771Z" fill="white"/>
<path d="M0.793065 17.9756C0.427035 17.9756 0.12201 17.7207 0.061005 17.3382C0 16.892 0 16.4457 0 15.9995C0 15.5533 0 15.1071 0.061005 14.6609C0.12201 14.2784 0.36603 14.0234 0.73206 14.0234C0.915075 14.0234 1.1591 14.1509 1.28111 14.2784C1.40312 14.4059 1.46412 14.5971 1.46412 14.7884C1.40312 15.1708 1.40312 15.6171 1.40312 15.9995C1.40312 16.382 1.40312 16.8282 1.46412 17.2107C1.46412 17.4019 1.40312 17.5932 1.28111 17.7206C1.09809 17.9119 0.97608 17.9756 0.793065 17.9756Z" fill="white"/>
<path d="M6.4665 4.46237C6.28348 4.46237 6.03946 4.33489 5.91745 4.14365C5.85645 4.0799 5.79544 3.82492 5.85645 3.69743C5.85645 3.5062 5.97846 3.31496 6.10047 3.25122C6.77152 2.67751 7.50358 2.2313 8.29665 1.78508C8.35765 1.78508 8.41866 1.72134 8.47966 1.72134C8.78469 1.65759 9.08971 1.84883 9.21172 2.10381C9.39474 2.42253 9.27273 2.86875 8.9067 3.05998C8.23564 3.44245 7.56459 3.88867 6.89353 4.39863C6.83253 4.39863 6.77152 4.39863 6.71052 4.46237C6.64951 4.46237 6.58851 4.46237 6.4665 4.46237Z" fill="white"/>
<path d="M22.7548 3.50646C22.6328 3.50646 22.5108 3.44271 22.3888 3.37897C21.7177 2.93275 20.9856 2.61403 20.2536 2.2953C20.1316 2.23156 19.9486 2.10407 19.8876 1.91283C19.8265 1.7216 19.8265 1.53036 19.8876 1.40287C20.0096 1.08415 20.3756 0.892913 20.7416 1.0204C21.5347 1.33913 22.3277 1.7216 23.0598 2.16781C23.1818 2.23156 23.3038 2.42279 23.3648 2.61403C23.4258 2.80526 23.3648 2.9965 23.3038 3.12399C23.1818 3.37897 22.9988 3.50646 22.7548 3.50646Z" fill="white"/>
<path d="M20.5588 30.98C20.2537 30.98 20.0097 30.7887 19.9487 30.5338C19.8877 30.4063 19.8877 30.215 19.9487 30.0875L20.0097 30.0238C20.0707 29.8963 20.1927 29.7688 20.3757 29.7051C21.1078 29.3863 21.8399 29.0676 22.5109 28.6214C22.6329 28.5577 22.8159 28.4939 22.999 28.5577H23.06C23.243 28.6214 23.365 28.6851 23.426 28.8764C23.487 29.0039 23.548 29.2588 23.487 29.3863C23.426 29.5776 23.304 29.7051 23.182 29.8326C22.4499 30.2788 21.6568 30.6612 20.8638 30.98C20.8028 30.98 20.8028 30.98 20.7418 30.98C20.6198 30.98 20.5588 30.98 20.5588 30.98Z" fill="white"/>
<path d="M15.7393 31.9992C15.3733 31.9992 15.0682 31.6804 15.0682 31.298C15.0682 31.1067 15.1292 30.9155 15.2513 30.788C15.3733 30.6605 15.5563 30.5968 15.7393 30.5968C16.5324 30.5968 17.3254 30.4693 18.0575 30.3418C18.4235 30.278 18.7895 30.533 18.8505 30.9155C18.9116 31.298 18.6675 31.6804 18.3015 31.7442C17.4474 31.8717 16.5934 31.9354 15.7393 31.9992Z" fill="white"/>
<path d="M18.1795 1.65737H18.1185H18.0575C17.2644 1.52988 16.5324 1.40239 15.7393 1.40239C15.5563 1.40239 15.3733 1.2749 15.2513 1.21116C15.1292 1.08367 15.0682 0.89243 15.0682 0.701195C15.0682 0.318725 15.3733 0 15.7393 0C16.5934 0 17.4474 0.12749 18.3015 0.318725C18.4845 0.38247 18.6675 0.50996 18.7285 0.63745C18.8505 0.76494 18.8505 0.956175 18.8505 1.14741C18.7285 1.46614 18.4845 1.65737 18.1795 1.65737Z" fill="white"/>
<path d="M10.859 2.10375C10.554 2.10375 10.3099 1.91252 10.2489 1.59379C10.1879 1.40256 10.1879 1.21132 10.3099 1.08383C10.3709 0.956343 10.554 0.765108 10.676 0.765108C11.469 0.510128 12.3231 0.318893 13.1772 0.191403C13.5432 0.127658 13.9092 0.382638 13.9092 0.765108C13.9092 0.956343 13.9092 1.14758 13.7872 1.27507C13.6652 1.40256 13.5432 1.53005 13.3602 1.53005C12.5671 1.65754 11.8351 1.84877 11.042 2.10375H10.981C10.92 2.10375 10.859 2.10375 10.859 2.10375Z" fill="white"/>
<path d="M13.2991 31.8726H13.2381C12.384 31.7451 11.53 31.5539 10.6759 31.2989C10.4929 31.2351 10.3709 31.1076 10.3099 30.9802L10.2489 30.9164C10.1879 30.7889 10.1879 30.5977 10.1879 30.4064C10.3099 30.024 10.6759 29.8327 10.9809 29.9602C11.713 30.2152 12.5061 30.4064 13.2991 30.5339C13.6652 30.5977 13.9092 30.9802 13.8482 31.2989C13.9092 31.6176 13.6042 31.8726 13.2991 31.8726Z" fill="white"/>
<path d="M25.6831 5.86389C25.5001 5.86389 25.3171 5.80014 25.1951 5.67265C24.9511 5.41767 24.6461 5.09895 24.341 4.84397C24.036 4.58899 24.036 4.14277 24.28 3.88779C24.402 3.7603 24.5241 3.69656 24.7071 3.63281H24.7681C24.9511 3.63281 25.0731 3.69656 25.1951 3.7603C25.5001 4.07903 25.8662 4.33401 26.1102 4.65273C26.3542 4.90771 26.3542 5.35393 26.1102 5.60891C26.0492 5.67265 25.9882 5.7364 25.9272 5.7364C25.8662 5.86389 25.7442 5.86389 25.6831 5.86389Z" fill="white"/>
</svg>
