<svg width="32" height="32" viewBox="0 0 32 32" fill="none" xmlns="http://www.w3.org/2000/svg">
<path d="M31 30H30.2808L29.4702 26.7575C29.3588 26.3123 28.9589 26 28.5 26H25V24.5H28C28.5523 24.5 29 24.0522 29 23.5C29 22.9478 28.5523 22.5 28 22.5V22C28 15.7199 23.1506 10.5519 17 10.042V8.5H18.5C19.0523 8.5 19.5 8.05225 19.5 7.5C19.5 6.94775 19.0523 6.5 18.5 6.5H13.5C12.9477 6.5 12.5 6.94775 12.5 7.5C12.5 8.05225 12.9477 8.5 13.5 8.5H15V10.042C8.84937 10.5519 4 15.7199 4 22V22.5C3.44769 22.5 3 22.9478 3 23.5C3 24.0522 3.44769 24.5 4 24.5H7V26H3.5C3.04113 26 2.64119 26.3123 2.52988 26.7575L1.71919 30H1C0.447688 30 0 30.4478 0 31C0 31.5522 0.447688 32 1 32H31C31.5523 32 32 31.5522 32 31C32 30.4478 31.5523 30 31 30ZM6 22C6 16.486 10.4859 12 16 12C21.5141 12 26 16.486 26 22V22.5C22.9607 22.5 6.89394 22.5 6 22.5V22ZM9 24.5H23V26H9V24.5ZM3.78075 30L4.28075 28H27.7192L28.2192 30H3.78075Z" fill="white"/>
<path d="M1 17H3C3.55231 17 4 16.5523 4 16C4 15.4477 3.55231 15 3 15H1C0.447688 15 0 15.4477 0 16C0 16.5523 0.447688 17 1 17Z" fill="white"/>
<path d="M29 17H31C31.5523 17 32 16.5523 32 16C32 15.4477 31.5523 15 31 15H29C28.4477 15 28 15.4477 28 16C28 16.5523 28.4477 17 29 17Z" fill="white"/>
<path d="M6.10048 7.51398C6.49098 7.90448 7.12417 7.90454 7.51467 7.51398C7.90524 7.12341 7.90524 6.49029 7.51467 6.09979L6.10042 4.68548C5.70992 4.29498 5.07673 4.29491 4.68623 4.68548C4.29567 5.07604 4.29567 5.70916 4.68623 6.09966L6.10048 7.51398Z" fill="white"/>
<path d="M25.1924 7.80768C25.4483 7.80768 25.7042 7.71 25.8995 7.51481L27.3137 6.10062C27.7043 5.71006 27.7043 5.07693 27.3137 4.68643C26.9233 4.29593 26.2901 4.29593 25.8995 4.68643L24.4853 6.10062C23.8535 6.73231 24.3095 7.80768 25.1924 7.80768Z" fill="white"/>
<path d="M16 4C16.5523 4 17 3.55225 17 3V1C17 0.44775 16.5523 0 16 0C15.4477 0 15 0.44775 15 1V3C15 3.55225 15.4477 4 16 4Z" fill="white"/>
</svg>
