<svg width="36" height="36" viewBox="0 0 36 36" fill="none" xmlns="http://www.w3.org/2000/svg">
<path d="M6.25003 11.5001L12 13.1601L18.32 8.57007L9.25003 8.83007C9.16122 8.83492 9.07515 8.86246 9.00003 8.91007L6.13003 10.5601C6.04075 10.6095 5.96837 10.6846 5.92224 10.7757C5.87612 10.8667 5.85837 10.9695 5.87129 11.0708C5.88422 11.172 5.92722 11.267 5.99474 11.3436C6.06226 11.4201 6.15119 11.4746 6.25003 11.5001V11.5001Z" fill="white"/>
<path d="M34.52 6.36011L28.22 5.00011C27.6901 4.88508 27.1418 4.88538 26.6121 5.00099C26.0824 5.11659 25.5837 5.34479 25.15 5.67011L6.11998 19.5001L1.54998 19.3001C1.28822 19.2912 1.03027 19.3648 0.812561 19.5104C0.594853 19.656 0.428386 19.8663 0.336663 20.1116C0.244941 20.357 0.232597 20.6249 0.301377 20.8776C0.370156 21.1304 0.516582 21.3551 0.71998 21.5201L5.16998 25.0501C5.24324 25.1092 5.33044 25.1485 5.42324 25.1643C5.51603 25.18 5.61132 25.1717 5.69998 25.1401C6.96998 24.6501 11.7 22.1401 17.29 19.0701L18.41 30.5801C18.4195 30.6798 18.456 30.775 18.5157 30.8554C18.5753 30.9359 18.6558 30.9985 18.7484 31.0366C18.841 31.0747 18.9422 31.0867 19.0412 31.0715C19.1402 31.0563 19.2331 31.0143 19.31 30.9501L21.81 28.8701C21.9468 28.7553 22.0389 28.596 22.07 28.4201L24.44 15.1301C28.44 12.9101 32.26 10.7601 34.95 9.24011C35.2291 9.08821 35.4549 8.85416 35.5966 8.56969C35.7383 8.28522 35.7891 7.96406 35.7421 7.64973C35.6952 7.33541 35.5528 7.0431 35.3342 6.81243C35.1156 6.58175 34.8313 6.42384 34.52 6.36011V6.36011Z" fill="white"/>
</svg>
