<svg width="13" height="12" viewBox="0 0 13 12" fill="none" xmlns="http://www.w3.org/2000/svg">
<g clip-path="url(#clip0)">
<path d="M7.81066 4.54492L12.2274 5.41992C12.5834 5.49492 12.824 5.79492 12.824 6.14992V11.2499C12.824 11.6649 12.4881 11.9999 12.072 11.9999H7.56C7.70037 11.9999 7.81066 11.8899 7.81066 11.7499V11.4999H12.072C12.2074 11.4999 12.3227 11.3899 12.3227 11.2499V6.14992C12.3227 6.03492 12.2425 5.92992 12.1271 5.90492L7.81066 5.05492V4.54492Z" fill="white"/>
<path d="M10.568 6.99994C10.7083 6.99994 10.8186 7.10994 10.8186 7.24994C10.8186 7.38994 10.7083 7.49994 10.568 7.49994H9.5653C9.42493 7.49994 9.31464 7.38994 9.31464 7.24994C9.31464 7.10994 9.42493 6.99994 9.5653 6.99994H10.568Z" fill="white"/>
<path d="M10.568 8.49994C10.7083 8.49994 10.8186 8.60994 10.8186 8.74994C10.8186 8.88994 10.7083 8.99994 10.568 8.99994H9.5653C9.42493 8.99994 9.31464 8.88994 9.31464 8.74994C9.31464 8.60994 9.42493 8.49994 9.5653 8.49994H10.568Z" fill="white"/>
<path d="M10.568 9.99994C10.7083 9.99994 10.8186 10.1099 10.8186 10.2499C10.8186 10.3899 10.7083 10.4999 10.568 10.4999H9.5653C9.42493 10.4999 9.31464 10.3899 9.31464 10.2499C9.31464 10.1099 9.42493 9.99994 9.5653 9.99994H10.568Z" fill="white"/>
<path d="M7.81066 11.7499C7.81066 11.8899 7.70037 11.9999 7.55999 11.9999C7.41962 11.9999 7.30933 11.8899 7.30933 11.7499V11.4999V4.74992C7.30933 4.67492 7.34442 4.60492 7.39957 4.55492C7.45973 4.50992 7.53493 4.48992 7.61013 4.50492L7.81066 4.54492V5.05492V11.4999V11.7499Z" fill="white"/>
<path d="M7.30935 11.4999V11.7499C7.30935 11.8899 7.41965 11.9999 7.56002 11.9999H5.55469C5.69506 11.9999 5.80535 11.8899 5.80535 11.7499V11.4999H7.30935Z" fill="white"/>
<path d="M6.05601 2.49994C6.19638 2.49994 6.30667 2.60994 6.30667 2.74994C6.30667 2.88994 6.19638 2.99994 6.05601 2.99994H5.05334C4.91297 2.99994 4.80267 2.88994 4.80267 2.74994C4.80267 2.60994 4.91297 2.49994 5.05334 2.49994H6.05601Z" fill="white"/>
<path d="M6.30667 4.24994C6.30667 4.38994 6.19638 4.49994 6.05601 4.49994H5.05334C4.91297 4.49994 4.80267 4.38994 4.80267 4.24994C4.80267 4.10994 4.91297 3.99994 5.05334 3.99994H6.05601C6.19638 3.99994 6.30667 4.10994 6.30667 4.24994Z" fill="white"/>
<path d="M6.05601 5.49994C6.19638 5.49994 6.30667 5.60994 6.30667 5.74994C6.30667 5.88994 6.19638 5.99994 6.05601 5.99994H5.05334C4.91297 5.99994 4.80267 5.88994 4.80267 5.74994C4.80267 5.60994 4.91297 5.49994 5.05334 5.49994H6.05601Z" fill="white"/>
<path d="M6.05601 6.99994C6.19638 6.99994 6.30667 7.10994 6.30667 7.24994C6.30667 7.38994 6.19638 7.49994 6.05601 7.49994H5.05334C4.91297 7.49994 4.80267 7.38994 4.80267 7.24994C4.80267 7.10994 4.91297 6.99994 5.05334 6.99994H6.05601Z" fill="white"/>
<path d="M3.80002 7.24994C3.80002 7.38994 3.68973 7.49994 3.54935 7.49994H2.54669C2.40631 7.49994 2.29602 7.38994 2.29602 7.24994C2.29602 7.10994 2.40631 6.99994 2.54669 6.99994H3.54935C3.68973 6.99994 3.80002 7.10994 3.80002 7.24994Z" fill="white"/>
<path d="M3.54935 2.49994C3.68973 2.49994 3.80002 2.60994 3.80002 2.74994C3.80002 2.88994 3.68973 2.99994 3.54935 2.99994H2.54669C2.40631 2.99994 2.29602 2.88994 2.29602 2.74994C2.29602 2.60994 2.40631 2.49994 2.54669 2.49994H3.54935Z" fill="white"/>
<path d="M3.54935 3.99994C3.68973 3.99994 3.80002 4.10994 3.80002 4.24994C3.80002 4.38994 3.68973 4.49994 3.54935 4.49994H2.54669C2.40631 4.49994 2.29602 4.38994 2.29602 4.24994C2.29602 4.10994 2.40631 3.99994 2.54669 3.99994H3.54935Z" fill="white"/>
<path d="M3.54935 5.49994C3.68973 5.49994 3.80002 5.60994 3.80002 5.74994C3.80002 5.88994 3.68973 5.99994 3.54935 5.99994H2.54669C2.40631 5.99994 2.29602 5.88994 2.29602 5.74994C2.29602 5.60994 2.40631 5.49994 2.54669 5.49994H3.54935Z" fill="white"/>
<path d="M5.30397 9.24994C5.30397 9.10994 5.18866 8.99994 5.0533 8.99994H3.5493C3.40893 8.99994 3.29864 9.10994 3.29864 9.24994V11.4999H2.7973V9.24994C2.7973 8.83494 3.1332 8.49994 3.5493 8.49994H5.0533C5.46941 8.49994 5.8053 8.83494 5.8053 9.24994V11.4999H5.30397V9.24994Z" fill="white"/>
<path d="M3.29864 11.4999H5.30397H5.8053V11.7499C5.8053 11.8899 5.69501 11.9999 5.55464 11.9999H3.04797C2.9076 11.9999 2.7973 11.8899 2.7973 11.7499V11.4999H3.29864Z" fill="white"/>
<path d="M1.66933 0.100005L7.17898 0.935005C7.54495 0.995005 7.81066 1.30501 7.81066 1.67501V4.545L7.61013 4.505C7.53493 4.49001 7.45973 4.51 7.39957 4.555C7.34442 4.605 7.30933 4.675 7.30933 4.75V1.67501C7.30933 1.55001 7.21909 1.44501 7.09877 1.42501L1.58911 0.595005C1.57407 0.590005 1.55903 0.590005 1.54399 0.590005C1.48383 0.590005 1.42869 0.610005 1.38357 0.650005C1.32341 0.700005 1.29333 0.765005 1.29333 0.840005V11.25C1.29333 11.39 1.40863 11.5 1.54399 11.5H2.79733V11.75C2.79733 11.89 2.90762 12 3.04799 12H1.54399C1.12789 12 0.791992 11.665 0.791992 11.25V0.840005C0.791992 0.620005 0.887246 0.410005 1.0577 0.270005C1.22815 0.125005 1.44874 0.0650055 1.66933 0.100005Z" fill="white"/>
</g>
<defs>
<clipPath id="clip0">
<rect width="12.032" height="12" fill="white" transform="translate(0.791992)"/>
</clipPath>
</defs>
</svg>
