<svg width="40" height="40" viewBox="0 0 40 40" fill="none" xmlns="http://www.w3.org/2000/svg">
<rect width="40" height="40" rx="4" fill="#D1F3FA"/>
<path d="M20 30C14.4286 30 10 25.5714 10 20C10 14.4286 14.4286 10 20 10C25.5714 10 30 14.4286 30 20C30 25.5714 25.5714 30 20 30ZM20 11.4286C15.2857 11.4286 11.4286 15.2857 11.4286 20C11.4286 24.7143 15.2857 28.5714 20 28.5714C24.7143 28.5714 28.5714 24.7143 28.5714 20C28.5714 15.2857 24.7143 11.4286 20 11.4286Z" fill="#17C2E8"/>
<path d="M20.0004 25.1436C19.5718 25.1436 19.2861 24.8578 19.2861 24.4293V17.8578C19.2861 17.4293 19.5718 17.1436 20.0004 17.1436H21.1433C21.5718 17.1436 21.8576 17.4293 21.8576 17.8578C21.8576 18.2864 21.5718 18.5721 21.1433 18.5721H20.7147V24.4293C20.7147 24.8578 20.429 25.1436 20.0004 25.1436Z" fill="#17C2E8"/>
<path d="M20.0004 16.429C19.5718 16.429 19.2861 16.0004 19.2861 15.7147V15.0004C19.2861 14.5718 19.5718 14.2861 20.0004 14.2861C20.429 14.2861 20.7147 14.5718 20.7147 15.0004V15.7147C20.7147 16.0004 20.429 16.429 20.0004 16.429Z" fill="#17C2E8"/>
<path d="M21.7141 25.1434H18.2856C17.857 25.1434 17.5713 24.8577 17.5713 24.4291C17.5713 24.0006 17.857 23.7148 18.2856 23.7148H21.7141C22.1427 23.7148 22.4284 24.0006 22.4284 24.4291C22.4284 24.8577 22.1427 25.1434 21.7141 25.1434Z" fill="#17C2E8"/>
</svg>
