<svg width="24" height="25" viewBox="0 0 24 25" fill="none" xmlns="http://www.w3.org/2000/svg">
<g clip-path="url(#clip0_1222_1913)">
<path d="M16.2222 11.826C16.1829 11.8196 16.1432 11.8167 16.1034 11.8172H9.33079L9.47847 11.7485C9.62282 11.6802 9.75414 11.5872 9.86655 11.4738L11.7658 9.57454C12.0159 9.33577 12.0579 8.95166 11.8654 8.66443C11.6412 8.35837 11.2115 8.29191 10.9054 8.51603C10.8806 8.53414 10.8571 8.55389 10.835 8.57514L7.40067 12.0095C7.13228 12.2776 7.13204 12.7125 7.40014 12.9809C7.40031 12.9811 7.4005 12.9813 7.40067 12.9814L10.835 16.4158C11.1037 16.6837 11.5386 16.6831 11.8064 16.4145C11.8275 16.3933 11.8472 16.3708 11.8654 16.3471C12.0579 16.0599 12.0159 15.6758 11.7658 15.437L9.86999 13.5344C9.76921 13.4335 9.65334 13.3489 9.52655 13.2837L9.32049 13.1909H16.0656C16.4165 13.204 16.7243 12.9589 16.7903 12.614C16.851 12.2395 16.5967 11.8867 16.2222 11.826Z" fill="#0EBC68"/>
</g>
<circle cx="12" cy="12.5" r="11.5" stroke="#0EBC68"/>
<defs>
<clipPath id="clip0_1222_1913">
<rect width="9.6" height="9.6" fill="white" transform="translate(7.19922 7.7002)"/>
</clipPath>
</defs>
</svg>
