<svg width="48" height="48" viewBox="0 0 48 48" fill="none" xmlns="http://www.w3.org/2000/svg">
<circle cx="24" cy="24" r="23.5" stroke="white"/>
<g clip-path="url(#clip0_2185_2)">
<path d="M33.8903 24.2618C33.792 24.0657 33.792 23.8415 33.8903 23.6408L34.7845 21.8152C35.2807 20.7974 34.8875 19.5881 33.8856 19.0605L32.0879 18.108C31.896 18.0053 31.7602 17.8232 31.7228 17.6084L31.3717 15.6101C31.1751 14.4989 30.1451 13.7472 29.0216 13.9059L27.0039 14.1954C26.7885 14.2281 26.5732 14.158 26.414 14.0039L24.9487 12.5939C24.1341 11.8095 22.8561 11.8095 22.0415 12.5939L20.5762 14.0039C20.4171 14.158 20.2017 14.2281 19.9864 14.1954L17.9687 13.9106C16.8451 13.7518 15.8152 14.4989 15.6186 15.6148L15.2768 17.6131C15.2394 17.8279 15.1036 18.01 14.9117 18.1127L13.114 19.0652C12.1122 19.5928 11.7189 20.8067 12.2152 21.8199L13.1093 23.6454C13.2076 23.8415 13.2076 24.0657 13.1093 24.2664L12.2152 26.0873C11.7189 27.1052 12.1122 28.3145 13.114 28.8421L14.9117 29.7945C15.1036 29.8972 15.2394 30.0793 15.2768 30.2941L15.6279 32.2924C15.8058 33.3056 16.6766 34.0153 17.6784 34.0153C17.7767 34.0153 17.875 34.0106 17.978 33.992L19.9957 33.7072C20.2111 33.6745 20.4264 33.7445 20.5856 33.8986L22.0509 35.3086C22.4582 35.7008 22.9825 35.8969 23.5021 35.8969C24.0265 35.8969 24.5461 35.7008 24.9534 35.3086L26.4187 33.8986C26.5779 33.7445 26.7932 33.6745 27.0086 33.7072L29.0263 33.992C30.1498 34.1507 31.1797 33.4037 31.3764 32.2878L31.7275 30.2894C31.7649 30.0747 31.9007 29.8926 32.0926 29.7899L33.8903 28.8374C34.8921 28.3098 35.2854 27.0958 34.7891 26.0827L33.8903 24.2618ZM33.2396 27.6234L31.4419 28.5759C30.8708 28.8794 30.4775 29.421 30.3652 30.056L30.0141 32.0543C29.9485 32.4325 29.5974 32.6846 29.2182 32.6286L27.2005 32.3438C26.5591 32.2551 25.9225 32.4605 25.4543 32.9088L23.989 34.3188C23.7128 34.5849 23.2821 34.5849 23.0059 34.3188L21.5406 32.9088C21.1474 32.5306 20.6324 32.3205 20.094 32.3205C19.9957 32.3205 19.8974 32.3251 19.7944 32.3391L17.7767 32.6239C17.3975 32.6753 17.0464 32.4232 16.9809 32.0497L16.6298 30.0513C16.5174 29.4117 16.1242 28.8747 15.553 28.5712L13.7554 27.6188C13.4183 27.4413 13.2825 27.0305 13.4511 26.685L14.3452 24.8594C14.6308 24.2758 14.6308 23.6128 14.3452 23.0291L13.4511 21.2036C13.2825 20.8581 13.4183 20.4518 13.7554 20.2698L15.5577 19.3313C16.1288 19.0278 16.5221 18.4862 16.6344 17.8512L16.9856 15.8529C17.0511 15.4747 17.4022 15.2226 17.7814 15.2786L19.7991 15.5634C20.4405 15.6521 21.0772 15.4467 21.5453 14.9984L23.0106 13.5884C23.2868 13.3223 23.7175 13.3223 23.9937 13.5884L25.459 14.9984C25.9271 15.4467 26.5638 15.6568 27.2052 15.5634L29.2229 15.2786C29.6021 15.2272 29.9532 15.4794 30.0187 15.8529L30.3698 17.8512C30.4822 18.4909 30.8754 19.0278 31.4466 19.3313L33.2443 20.2838C33.5813 20.4612 33.7171 20.8721 33.5486 21.2176L32.6544 23.0431C32.3688 23.6268 32.3688 24.2898 32.6544 24.8734L33.5486 26.699C33.7124 27.0351 33.5766 27.446 33.2396 27.6234Z" fill="white"/>
<path d="M28.5486 18.915C28.2771 18.6442 27.8417 18.6442 27.5702 18.915L18.4507 28.0149C18.1792 28.2857 18.1792 28.7199 18.4507 28.9907C18.5865 29.1261 18.7644 29.1915 18.9376 29.1915C19.1108 29.1915 19.2934 29.1261 19.4245 28.9907L28.5486 19.8908C28.8201 19.62 28.8201 19.1858 28.5486 18.915Z" fill="white"/>
<path d="M20.7358 17.7478C19.336 17.7478 18.2031 18.8824 18.2031 20.2737C18.2031 21.6651 19.3407 22.7997 20.7358 22.7997C22.1309 22.7997 23.2685 21.6651 23.2685 20.2737C23.2685 18.8824 22.1309 17.7478 20.7358 17.7478ZM20.7358 21.427C20.0991 21.427 19.5842 20.9134 19.5842 20.2784C19.5842 19.6434 20.0991 19.1298 20.7358 19.1298C21.3725 19.1298 21.8874 19.6434 21.8874 20.2784C21.8874 20.9087 21.3725 21.427 20.7358 21.427Z" fill="white"/>
<path d="M26.2641 25.1016C24.8644 25.1016 23.7314 26.2361 23.7314 27.6275C23.7314 29.0189 24.869 30.1534 26.2641 30.1534C27.6639 30.1534 28.7968 29.0189 28.7968 27.6275C28.7968 26.2361 27.6639 25.1016 26.2641 25.1016ZM26.2641 28.7807C25.6274 28.7807 25.1125 28.2671 25.1125 27.6322C25.1125 26.9972 25.6274 26.4836 26.2641 26.4836C26.9008 26.4836 27.4158 26.9972 27.4158 27.6322C27.4158 28.2671 26.9008 28.7807 26.2641 28.7807Z" fill="white"/>
</g>
<defs>
<clipPath id="clip0_2185_2">
<rect width="23" height="23.9053" fill="white" transform="translate(12 12)"/>
</clipPath>
</defs>
</svg>
