<svg width="16" height="17" viewBox="0 0 16 17" fill="none" xmlns="http://www.w3.org/2000/svg">
<g clip-path="url(#clip0_1152_1955)">
<path fill-rule="evenodd" clip-rule="evenodd" d="M3.27053 3.20902C3.34917 3.1041 3.48373 3.05758 3.61037 3.09152L7.00257 4.00062L6.91951 4.31058L7.23983 4.29132C7.28624 5.06336 7.23519 5.83816 7.08788 6.59743C7.05861 6.74828 6.92652 6.85721 6.77286 6.85721H2.17441C2.07465 6.85721 1.98056 6.8108 1.91983 6.73165C1.85909 6.6525 1.83863 6.54961 1.86446 6.45324C2.00666 5.92263 2.22532 5.29119 2.47184 4.70726C2.71624 4.12835 2.99754 3.57324 3.27053 3.20902ZM6.60992 4.55983L3.66261 3.76996C3.46892 4.07151 3.25966 4.49129 3.0631 4.95688C2.88763 5.3725 2.72745 5.81221 2.60184 6.21541H6.5041C6.59285 5.6683 6.6283 5.11384 6.60992 4.55983Z" fill="#17D67A"/>
<path fill-rule="evenodd" clip-rule="evenodd" d="M1.86488 6.45315C1.90248 6.31287 2.02961 6.21533 2.17484 6.21533H6.77328C6.86772 6.21533 6.95737 6.25693 7.01834 6.32905C7.07931 6.40118 7.10542 6.49649 7.08971 6.58962C7.0185 7.01165 6.93147 7.42686 6.83552 7.78508L6.83552 7.78509C6.50357 9.02419 5.94858 10.0943 5.30447 10.8208C4.67456 11.5313 3.88299 11.9895 3.10131 11.78C2.31966 11.5705 1.86322 10.7779 1.67293 9.84769C1.47835 8.89647 1.53277 7.69225 1.86488 6.45315ZM2.42457 6.85712C2.16814 7.93249 2.14269 8.94172 2.3017 9.71907C2.47667 10.5744 2.84702 11.0474 3.26745 11.1601C3.68785 11.2727 4.24501 11.0484 4.82424 10.395C5.38926 9.75775 5.90381 8.78279 6.21558 7.61902L6.52555 7.70205L6.21558 7.61902C6.27731 7.38855 6.33596 7.12934 6.38894 6.85712H2.42457Z" fill="#17D67A"/>
<path fill-rule="evenodd" clip-rule="evenodd" d="M3.02566 11.1877C3.10247 11.1456 3.19314 11.1367 3.27665 11.1631L3.28275 11.1651C3.44644 11.2168 3.54039 11.3882 3.49597 11.5541L3.05891 13.1855C3.03626 13.27 2.98009 13.3416 2.90338 13.3837C2.82668 13.4259 2.73611 13.4348 2.65264 13.4086L2.64654 13.4066C2.4826 13.3551 2.3884 13.1835 2.43287 13.0175L2.86993 11.3861C2.8926 11.3014 2.94886 11.2298 3.02566 11.1877Z" fill="#17D67A"/>
<path fill-rule="evenodd" clip-rule="evenodd" d="M2.83058 12.7915C3.00174 12.8374 3.10331 13.0133 3.05746 13.1845C3.05745 13.1846 3.05748 13.1845 3.05746 13.1845C2.96345 13.5349 3.01244 13.9084 3.19372 14.2227C3.37496 14.5369 3.67355 14.7662 4.02383 14.8603C4.17836 14.9016 4.31013 15.0026 4.39021 15.141C4.4703 15.2795 4.49214 15.4441 4.45086 15.5987C4.40958 15.7533 4.30859 15.8851 4.1701 15.9652C4.03162 16.0453 3.86699 16.0671 3.71243 16.0259L0.449229 15.1514C0.449193 15.1514 0.449265 15.1514 0.449229 15.1514M2.43756 13.0183C2.43757 13.0183 2.43755 13.0184 2.43756 13.0183C2.48348 12.8472 2.65943 12.7457 2.83058 12.7915L2.43756 13.0183ZM2.46532 14.1542C2.35986 14.2497 2.2443 14.334 2.12046 14.4055C1.89173 14.5375 1.63923 14.6231 1.3774 14.6575C1.30124 14.6675 1.22472 14.6731 1.14822 14.6743L3.34572 15.2632C3.05491 15.0889 2.81021 14.8423 2.63779 14.5434C2.56613 14.4192 2.50854 14.2887 2.46532 14.1542ZM3.85811 15.4803C3.85798 15.4803 3.85785 15.4803 3.85773 15.4802L3.85811 15.4803ZM3.87801 15.4058C3.87801 15.4058 3.87802 15.4058 3.87801 15.4058V15.4058ZM3.87801 15.4058C3.87801 15.4058 3.87802 15.4058 3.87801 15.4058V15.4058Z" fill="#17D67A"/>
<path fill-rule="evenodd" clip-rule="evenodd" d="M12.0965 11.1877C12.1733 11.2298 12.2296 11.3014 12.2523 11.3861L12.6893 13.0175C12.7338 13.1835 12.6396 13.3551 12.4757 13.4066L12.4696 13.4086C12.3861 13.4348 12.2955 13.4259 12.2188 13.3837C12.1421 13.3416 12.0859 13.27 12.0633 13.1855L11.6262 11.5541C11.5818 11.3882 11.6758 11.2168 11.8394 11.1651L11.8456 11.1631C11.9291 11.1367 12.0197 11.1456 12.0965 11.1877Z" fill="#17D67A"/>
<path fill-rule="evenodd" clip-rule="evenodd" d="M11.5111 3.09152C11.6377 3.05758 11.7723 3.1041 11.8509 3.20902C12.1239 3.57323 12.4052 4.12834 12.6497 4.70719C12.8964 5.29109 13.1153 5.92243 13.2582 6.45288C13.2841 6.54928 13.2637 6.65227 13.203 6.73151C13.1423 6.81074 13.0481 6.85721 12.9483 6.85721H8.34987C8.1963 6.85721 8.06426 6.74841 8.03489 6.59768C7.88696 5.83844 7.83546 5.06357 7.88161 4.29144C7.88985 4.15353 7.98542 4.03638 8.11886 4.00062L11.5111 3.09152ZM8.51161 4.55981C8.49346 5.11386 8.52923 5.66834 8.61841 6.21541H12.5205C12.3945 5.81219 12.2341 5.37251 12.0585 4.95695C11.8618 4.49131 11.6525 4.07152 11.4588 3.76996L8.51161 4.55981Z" fill="#17D67A"/>
<path fill-rule="evenodd" clip-rule="evenodd" d="M8.10318 6.32905C8.16416 6.25693 8.2538 6.21533 8.34824 6.21533H12.9467C13.0919 6.21533 13.219 6.31287 13.2566 6.45315C13.5888 7.69229 13.643 8.89659 13.4483 9.84783C13.258 10.778 12.8016 11.5706 12.0202 11.78C11.2388 11.9893 10.4473 11.5311 9.81732 10.8207C9.17313 10.0943 8.61797 9.02423 8.28601 7.78509L8.28601 7.78508C8.19006 7.42685 8.10303 7.01165 8.03182 6.58962C8.01611 6.49649 8.04221 6.40118 8.10318 6.32905ZM8.90594 7.61901C8.84421 7.38855 8.78557 7.12933 8.73258 6.85712L8.90594 7.61901ZM8.73258 6.85712H12.6969C12.9534 7.93247 12.9787 8.94177 12.8196 9.71917C12.6445 10.5747 12.2742 11.0475 11.8541 11.16C11.434 11.2726 10.8769 11.0482 10.2975 10.3949C9.73241 9.75763 9.21771 8.78276 8.90595 7.61903" fill="#17D67A"/>
<path fill-rule="evenodd" clip-rule="evenodd" d="M7.56086 3.10786C7.65302 3.10786 7.72773 3.03315 7.72773 2.94099C7.72773 2.84883 7.65302 2.77412 7.56086 2.77412C7.46871 2.77412 7.394 2.84883 7.394 2.94099C7.394 3.03315 7.46871 3.10786 7.56086 3.10786ZM7.08594 2.94099C7.08594 2.6787 7.29857 2.46606 7.56086 2.46606C7.82316 2.46606 8.03579 2.6787 8.03579 2.94099C8.03579 3.20329 7.82316 3.41592 7.56086 3.41592C7.29857 3.41592 7.08594 3.20329 7.08594 2.94099Z" fill="#17D67A"/>
<path fill-rule="evenodd" clip-rule="evenodd" d="M7.23828 0.320896C7.23828 0.14367 7.38195 0 7.55918 0H7.56527C7.7425 0 7.88617 0.14367 7.88617 0.320896V1.5541C7.88617 1.73133 7.7425 1.875 7.56527 1.875H7.55918C7.38195 1.875 7.23828 1.73133 7.23828 1.5541V0.320896Z" fill="#17D67A"/>
<path fill-rule="evenodd" clip-rule="evenodd" d="M9.91605 1.32135C9.99979 1.34544 10.0701 1.40255 10.1109 1.47954L10.1138 1.485C10.1946 1.6376 10.1402 1.8268 9.99063 1.91312L8.91979 2.53116C8.84433 2.57472 8.7544 2.58571 8.67066 2.56162C8.58693 2.53753 8.51659 2.48042 8.47581 2.40343L8.47292 2.39797C8.3921 2.24537 8.44653 2.05617 8.59609 1.96985L9.66692 1.35181C9.74239 1.30825 9.83232 1.29726 9.91605 1.32135Z" fill="#17D67A"/>
<path fill-rule="evenodd" clip-rule="evenodd" d="M5.20739 1.32145C5.29112 1.29726 5.38109 1.30816 5.45662 1.35165L6.52714 1.96809C6.66635 2.04825 6.72484 2.21901 6.664 2.36769L6.66111 2.37475C6.62603 2.4605 6.55559 2.5269 6.46792 2.55688C6.38025 2.58685 6.28391 2.57747 6.20367 2.53114L5.13316 1.9131C4.98378 1.82685 4.9293 1.63794 5.00982 1.4854L5.01269 1.47994C5.05338 1.40287 5.12366 1.34565 5.20739 1.32145Z" fill="#17D67A"/>
</g>
<defs>
<clipPath id="clip0_1152_1955">
<rect width="15.12" height="16.0461" fill="white"/>
</clipPath>
</defs>
</svg>
