<svg width="32" height="32" viewBox="0 0 32 32" fill="none" xmlns="http://www.w3.org/2000/svg">
<path d="M16.0004 0C7.16428 0 0.000976562 7.16384 0.000976562 15.9997C0.000976562 24.8355 7.16428 32 16.0004 32C24.8366 32 32.0008 24.8359 32.0008 15.9997C32.0008 7.16341 24.8366 0 16.0004 0ZM16.0008 24.8481C14.8524 24.8481 13.9209 23.9174 13.9209 22.7682H18.0803C18.0805 23.9174 17.1491 24.8481 16.0008 24.8481ZM23.029 20.6827H23.0285V20.6826C23.0285 21.4516 22.4052 21.5023 21.6367 21.5023H10.3646C9.59575 21.5023 8.97303 21.4516 8.97303 20.6826V20.5501C8.97303 19.997 9.29783 19.5234 9.76449 19.2988L10.2063 15.4851C10.2063 12.6932 12.1807 10.363 14.8092 9.81323V8.33269C14.8092 7.67456 15.3428 7.14091 16.0013 7.14091C16.6594 7.14091 17.1931 7.67456 17.1931 8.33269V9.81333C19.8216 10.363 21.796 12.693 21.796 15.4852L22.2378 19.2994C22.7044 19.5244 23.029 19.9971 23.029 20.5502V20.6827Z" fill="#3CBCF3"/>
</svg>
