<svg width="14" height="11" viewBox="0 0 14 11" fill="none" xmlns="http://www.w3.org/2000/svg">
<path d="M13.8547 1.46662C13.7646 1.40886 13.6531 1.40661 13.5611 1.46086L10.3489 3.35763V2.21954C10.348 1.33418 9.68455 0.616725 8.86586 0.615723H1.48305C0.66436 0.616725 0.000926907 1.33418 0 2.21954V8.55212C0.000926907 9.43748 0.66436 10.1549 1.48305 10.1559H8.86586C9.68455 10.1549 10.348 9.43748 10.3489 8.55212V7.43471L13.5612 9.33148C13.6531 9.38574 13.7647 9.38361 13.8547 9.32584C13.9448 9.26795 14 9.16308 14 9.04994V1.74241C14 1.62914 13.9447 1.52439 13.8547 1.46662ZM9.75546 8.55225C9.755 9.08352 9.35689 9.51392 8.86563 9.51454H1.48305C0.99179 9.51392 0.5938 9.08352 0.59322 8.55225V2.21954C0.5938 1.6884 0.99179 1.25788 1.48305 1.25725H8.86586C9.35701 1.25788 9.75511 1.6884 9.75569 2.21954L9.75546 8.55225ZM13.4068 8.5094L10.3489 6.70385V4.08849L13.4068 2.28307V8.5094Z" fill="black"/>
</svg>
