<svg width="90" height="89" viewBox="0 0 90 89" fill="none" xmlns="http://www.w3.org/2000/svg">
<path d="M50.5156 10.6006H38.8125V92.2668H50.5156C72.6761 92.2668 90.6406 73.9852 90.6406 51.4337C90.6406 28.8821 72.6761 10.6006 50.5156 10.6006Z" fill="#F7B030"/>
<path d="M88.3564 37.8227H75.5938C75.1503 37.8227 74.7251 37.6434 74.4116 37.3244C74.098 37.0053 73.9219 36.5725 73.9219 36.1213C73.9219 35.6701 74.098 35.2373 74.4116 34.9182C74.7251 34.5992 75.1503 34.4199 75.5938 34.4199H87.0001C87.5017 35.5279 87.9538 36.6622 88.3564 37.8227Z" fill="#EBA72E"/>
<path d="M80.4213 24.2114H67.2344C66.791 24.2114 66.3657 24.0321 66.0522 23.713C65.7386 23.394 65.5625 22.9612 65.5625 22.51C65.5625 22.0587 65.7386 21.626 66.0522 21.3069C66.3657 20.9878 66.791 20.8086 67.2344 20.8086H77.0545C78.2419 21.8741 79.3662 23.0103 80.4213 24.2114Z" fill="#EBA72E"/>
<path d="M89.3763 61.6416C89.0837 62.7964 88.7437 63.9307 88.3564 65.0444H77.2656C76.8222 65.0444 76.397 64.8651 76.0834 64.546C75.7699 64.227 75.5938 63.7942 75.5938 63.343C75.5938 62.8917 75.7699 62.459 76.0834 62.1399C76.397 61.8209 76.8222 61.6416 77.2656 61.6416H89.3763Z" fill="#EBA72E"/>
<path d="M83.1088 75.2529C82.2737 76.4355 81.3765 77.5714 80.4213 78.6557H68.9062C68.4628 78.6557 68.0376 78.4764 67.7241 78.1574C67.4105 77.8383 67.2344 77.4055 67.2344 76.9543C67.2344 76.5031 67.4105 76.0703 67.7241 75.7513C68.0376 75.4322 68.4628 75.2529 68.9062 75.2529H83.1088Z" fill="#EBA72E"/>
<path d="M40.4844 92.2668C62.6448 92.2668 80.6094 73.9852 80.6094 51.4337C80.6094 28.8822 62.6448 10.6006 40.4844 10.6006C18.3239 10.6006 0.359375 28.8822 0.359375 51.4337C0.359375 73.9852 18.3239 92.2668 40.4844 92.2668Z" fill="#FFD33A"/>
<path d="M0 10.2083C3.97279 7.70087 4.79536 3.96762 5.01562 0C4.98135 3.75111 6.34184 8.04646 10.0312 10.2083C6.58593 12.6202 5.3337 17.2575 5.01562 20.4165C4.69755 17.2575 3.44532 12.6202 0 10.2083Z" fill="#EB3FA6"/>
<path d="M52.1875 10.5999C56.1603 8.09247 56.9829 4.35922 57.2031 0.391602C57.1689 4.14272 58.5293 8.43806 62.2188 10.5999C58.7734 13.0118 57.5212 17.6491 57.2031 20.8081C56.8851 17.6491 55.6328 13.0118 52.1875 10.5999Z" fill="#EB3FA6"/>
<path d="M10.3906 82.0579C14.3634 79.5505 15.186 75.8172 15.4062 71.8496C15.372 75.6007 16.7325 79.8961 20.4219 82.0579C16.9766 84.4698 15.7243 89.1071 15.4062 92.2662C15.0882 89.1071 13.8359 84.4698 10.3906 82.0579Z" fill="#EB423F"/>
<path d="M40.4842 49.7318C39.4922 49.7318 38.5225 49.4324 37.6977 48.8716C36.8729 48.3107 36.23 47.5136 35.8504 46.5809C35.4708 45.6482 35.3714 44.622 35.565 43.6319C35.7585 42.6418 36.2362 41.7323 36.9376 41.0185C37.6391 40.3046 38.5328 39.8185 39.5057 39.6216C40.4787 39.4246 41.4871 39.5257 42.4036 39.912C43.3201 40.2983 44.1034 40.9526 44.6546 41.7919C45.2057 42.6313 45.4998 43.6181 45.4998 44.6276C45.4998 45.0789 45.676 45.5116 45.9895 45.8307C46.3031 46.1498 46.7283 46.329 47.1717 46.329C47.6151 46.329 48.0404 46.1498 48.3539 45.8307C48.6675 45.5116 48.8436 45.0789 48.8436 44.6276C48.8411 42.6674 48.1746 40.768 46.9564 39.2496C45.7382 37.7312 44.0429 36.6866 42.1561 36.2919V32.718C42.1561 32.2667 41.98 31.834 41.6664 31.5149C41.3529 31.1959 40.9276 31.0166 40.4842 31.0166C40.0408 31.0166 39.6156 31.1959 39.302 31.5149C38.9885 31.834 38.8123 32.2667 38.8123 32.718V36.2919C36.7819 36.7129 34.9774 37.8862 33.749 39.5844C32.5205 41.2826 31.9557 43.3846 32.1639 45.4826C32.3722 47.5807 33.3387 49.5252 34.8761 50.9391C36.4135 52.3529 38.4121 53.1353 40.4842 53.1345C41.4762 53.1345 42.4459 53.4339 43.2708 53.9947C44.0956 54.5556 44.7384 55.3527 45.1181 56.2854C45.4977 57.2181 45.597 58.2443 45.4035 59.2344C45.2099 60.2245 44.7323 61.134 44.0308 61.8478C43.3294 62.5617 42.4357 63.0478 41.4627 63.2447C40.4898 63.4417 39.4813 63.3406 38.5648 62.9543C37.6483 62.5679 36.865 61.9137 36.3139 61.0744C35.7628 60.235 35.4686 59.2482 35.4686 58.2387C35.4686 57.7874 35.2925 57.3547 34.9789 57.0356C34.6654 56.7165 34.2401 56.5373 33.7967 56.5373C33.3533 56.5373 32.9281 56.7165 32.6145 57.0356C32.301 57.3547 32.1248 57.7874 32.1248 58.2387C32.1271 60.1991 32.7935 62.0987 34.0117 63.6173C35.2299 65.136 36.9254 66.1807 38.8123 66.5754V70.1483C38.8123 70.5995 38.9885 71.0323 39.302 71.3514C39.6156 71.6704 40.0408 71.8497 40.4842 71.8497C40.9276 71.8497 41.3529 71.6704 41.6664 71.3514C41.98 71.0323 42.1561 70.5995 42.1561 70.1483V66.5754C44.1877 66.1556 45.9935 64.9826 47.223 63.2841C48.4525 61.5855 49.018 59.4827 48.8097 57.3837C48.6013 55.2848 47.6341 53.3395 46.0956 51.9255C44.5571 50.5115 42.5573 49.7296 40.4842 49.7318Z" fill="#EBA72E"/>
<path d="M40.4844 83.7595C36.2408 83.7677 32.0392 82.9051 28.1307 81.2234C27.7222 81.0478 27.399 80.7143 27.2322 80.2962C27.0654 79.8781 27.0686 79.4097 27.2411 78.994C27.4137 78.5784 27.7414 78.2495 28.1523 78.0797C28.5631 77.9099 29.0234 77.9132 29.4318 78.0888C32.9288 79.593 36.6879 80.3644 40.4844 80.3567C56.1561 80.3567 68.9063 67.3818 68.9063 51.4333C68.9154 45.7125 67.2493 40.1187 64.1205 35.3659C63.8739 34.9908 63.7837 34.5314 63.87 34.0887C63.9562 33.6459 64.2117 33.2562 64.5803 33.0052C64.9489 32.7542 65.4003 32.6625 65.8354 32.7503C66.2704 32.838 66.6534 33.098 66.9 33.4731C70.3974 38.7858 72.26 45.0386 72.25 51.4333C72.25 69.258 58 83.7595 40.4844 83.7595Z" fill="#EBA72E"/>
<path d="M11.5662 61.6419C11.2037 61.6417 10.8511 61.5216 10.5615 61.2998C10.2719 61.0779 10.061 60.7662 9.96054 60.4118C9.1348 57.4932 8.71677 54.4708 8.71876 51.4336C8.71876 33.6089 22.9688 19.1074 40.4844 19.1074C42.2576 19.1071 44.0278 19.2565 45.7767 19.554C45.9944 19.5897 46.203 19.6688 46.3905 19.7869C46.578 19.9049 46.7407 20.0595 46.8693 20.2418C46.9978 20.4241 47.0897 20.6305 47.1395 20.8491C47.1894 21.0676 47.1962 21.2941 47.1598 21.5154C47.1233 21.7366 47.0441 21.9484 46.9269 22.1384C46.8097 22.3285 46.6566 22.493 46.4767 22.6226C46.2967 22.7522 46.0933 22.8443 45.8782 22.8936C45.6631 22.9429 45.4405 22.9484 45.2233 22.9098C43.6572 22.6435 42.0722 22.5099 40.4844 22.5102C24.8124 22.5102 12.0625 35.4851 12.0625 51.4336C12.0605 54.1518 12.4344 56.8567 13.1733 59.4688C13.2449 59.7222 13.2577 59.9891 13.2107 60.2485C13.1636 60.5078 13.058 60.7525 12.9022 60.9632C12.7464 61.1739 12.5446 61.3449 12.3127 61.4626C12.0809 61.5804 11.8253 61.6418 11.5662 61.6419Z" fill="#EBA72E"/>
</svg>
