<svg width="48" height="56" viewBox="0 0 48 56" fill="none" xmlns="http://www.w3.org/2000/svg">
<path d="M35.4375 0H3.28125C1.47197 0 0 1.47197 0 3.28125V14.4375C0 15.0416 0.489781 15.5312 1.09375 15.5312C1.69772 15.5312 2.1875 15.0416 2.1875 14.4375V3.28125C2.1875 2.67816 2.67816 2.1875 3.28125 2.1875H35.4375C36.0406 2.1875 36.5312 2.67816 36.5312 3.28125V43.9688C36.5312 44.5718 36.0406 45.0625 35.4375 45.0625H3.28125C2.67816 45.0625 2.1875 44.5718 2.1875 43.9688V23.6614C2.1875 23.0573 1.69772 22.5677 1.09375 22.5677C0.489781 22.5677 0 23.0573 0 23.6614V43.9688C0 45.778 1.47197 47.25 3.28125 47.25H35.4375C37.2468 47.25 38.7188 45.778 38.7188 43.9688V3.28125C38.7188 1.47197 37.2468 0 35.4375 0Z" fill="#D2179E"/>
<path d="M1.86692 18.5606C1.66359 18.3571 1.38141 18.2412 1.09375 18.2412C0.806094 18.2412 0.523906 18.3571 0.320469 18.5606C0.116922 18.7651 0 19.0473 0 19.3339C0 19.6226 0.117031 19.9037 0.320469 20.1082C0.523906 20.3117 0.806094 20.4287 1.09375 20.4287C1.3813 20.4287 1.66348 20.3117 1.86692 20.1082C2.07047 19.9048 2.1875 19.6226 2.1875 19.3339C2.1875 19.0462 2.07036 18.7651 1.86692 18.5606Z" fill="#D2179E"/>
<path d="M6.2485 49.7648C6.04506 49.5614 5.76408 49.4443 5.47522 49.4443C5.18756 49.4443 4.90538 49.5614 4.70205 49.7648C4.4985 49.9682 4.38147 50.2504 4.38147 50.5381C4.38147 50.8268 4.49861 51.1079 4.70205 51.3114C4.90538 51.5159 5.18756 51.6318 5.47522 51.6318C5.76408 51.6318 6.04506 51.5159 6.2485 51.3114C6.45205 51.1079 6.56897 50.8268 6.56897 50.5381C6.56897 50.2504 6.45194 49.9682 6.2485 49.7648Z" fill="#D2179E"/>
<path d="M42.007 4.38184C41.403 4.38184 40.9132 4.87151 40.9132 5.47559V48.3506C40.9132 48.9537 40.4226 49.4443 39.8195 49.4443H9.85071C9.24674 49.4443 8.75696 49.934 8.75696 50.5381C8.75696 51.1422 9.24674 51.6318 9.85071 51.6318H39.8195C41.6287 51.6318 43.1007 50.1599 43.1007 48.3506V5.47559C43.1007 4.87151 42.6109 4.38184 42.007 4.38184Z" fill="#D2179E"/>
<path d="M46.3889 8.75C45.7849 8.75 45.2952 9.23967 45.2952 9.84375V52.7188C45.2952 53.3218 44.8045 53.8125 44.2014 53.8125H9.85767C9.2537 53.8125 8.76392 54.3022 8.76392 54.9062C8.76392 55.5103 9.2537 56 9.85767 56H44.2014C46.0107 56 47.4827 54.528 47.4827 52.7188V9.84375C47.4827 9.23967 46.9929 8.75 46.3889 8.75Z" fill="#D2179E"/>
<path d="M17.7188 8.09375H7.21875C6.61478 8.09375 6.125 8.58342 6.125 9.1875V19.6875C6.125 20.2916 6.61478 20.7812 7.21875 20.7812H17.7188C18.3227 20.7812 18.8125 20.2916 18.8125 19.6875V9.1875C18.8125 8.58342 18.3227 8.09375 17.7188 8.09375ZM16.625 18.5938H8.3125V10.2812H16.625V18.5938Z" fill="#D2179E"/>
<path d="M14.1995 25.747C13.7723 25.32 13.0799 25.3199 12.6526 25.747L9.7451 28.6546L8.39322 27.3026C7.96611 26.8755 7.27377 26.8756 6.84633 27.3026C6.41922 27.7297 6.41922 28.4223 6.84633 28.8494L8.97171 30.9748C9.1769 31.1798 9.45504 31.2951 9.7451 31.2951C10.0353 31.2951 10.3133 31.1798 10.5186 30.9748L14.1995 27.2938C14.6266 26.8667 14.6266 26.1742 14.1995 25.747Z" fill="#D2179E"/>
<path d="M32.1198 27.2344H19.3594C18.7554 27.2344 18.2656 27.724 18.2656 28.3281C18.2656 28.9322 18.7554 29.4219 19.3594 29.4219H32.1198C32.7238 29.4219 33.2136 28.9322 33.2136 28.3281C33.2136 27.724 32.7238 27.2344 32.1198 27.2344Z" fill="#D2179E"/>
<path d="M31.5 8.09375H23.8438C23.2398 8.09375 22.75 8.58342 22.75 9.1875C22.75 9.79158 23.2398 10.2812 23.8438 10.2812H31.5C32.104 10.2812 32.5938 9.79158 32.5938 9.1875C32.5938 8.58342 32.104 8.09375 31.5 8.09375Z" fill="#D2179E"/>
<path d="M31.5 13.3438H23.8438C23.2398 13.3438 22.75 13.8334 22.75 14.4375C22.75 15.0416 23.2398 15.5312 23.8438 15.5312H31.5C32.104 15.5312 32.5938 15.0416 32.5938 14.4375C32.5938 13.8334 32.104 13.3438 31.5 13.3438Z" fill="#D2179E"/>
<path d="M31.5 18.5938H23.8438C23.2398 18.5938 22.75 19.0834 22.75 19.6875C22.75 20.2916 23.2398 20.7812 23.8438 20.7812H31.5C32.104 20.7812 32.5938 20.2916 32.5938 19.6875C32.5938 19.0834 32.104 18.5938 31.5 18.5938Z" fill="#D2179E"/>
<path d="M14.1995 34.0996C13.7723 33.6726 13.0799 33.6725 12.6526 34.0996L9.7451 37.0071L8.39322 35.6551C7.96611 35.228 7.27377 35.2281 6.84633 35.6551C6.41922 36.0822 6.41922 36.7748 6.84633 37.2019L8.97171 39.3273C9.1769 39.5324 9.45504 39.6476 9.7451 39.6476C10.0353 39.6476 10.3133 39.5324 10.5186 39.3273L14.1995 35.6464C14.6266 35.2193 14.6266 34.5267 14.1995 34.0996Z" fill="#D2179E"/>
<path d="M32.1198 35.5469H19.3594C18.7554 35.5469 18.2656 36.0365 18.2656 36.6406C18.2656 37.2447 18.7554 37.7344 19.3594 37.7344H32.1198C32.7238 37.7344 33.2136 37.2447 33.2136 36.6406C33.2136 36.0365 32.7238 35.5469 32.1198 35.5469Z" fill="#D2179E"/>
</svg>
