<svg width="22" height="22" viewBox="0 0 22 22" fill="none" xmlns="http://www.w3.org/2000/svg">
<path fill-rule="evenodd" clip-rule="evenodd" d="M11 22C17.0751 22 22 17.0751 22 11C22 4.92487 17.0751 0 11 0C4.92487 0 0 4.92487 0 11C0 17.0751 4.92487 22 11 22ZM9.3511 14.9889C8.90723 14.9889 8.45221 14.8286 8.10818 14.4973L6.48798 12.937C5.83322 12.3172 5.83322 11.3019 6.48798 10.6714C7.13162 10.0408 8.18588 10.0408 8.84064 10.6714L9.3511 11.163L12.1476 8.46985C12.7913 7.83931 13.8456 7.83931 14.5003 8.46985C15.1551 9.08969 15.1551 10.1049 14.5003 10.7355L10.594 14.4973C10.25 14.8286 9.79501 14.9889 9.3511 14.9889Z" fill="#5DC72C"/>
</svg>
