<svg width="46" height="46" viewBox="0 0 46 46" fill="none" xmlns="http://www.w3.org/2000/svg">
<circle cx="23" cy="23" r="22.5" stroke="#17C2E8"/>
<path d="M32.375 31.75H31.9255L31.4189 29.7234C31.3493 29.4452 31.0993 29.25 30.8125 29.25H28.625V28.3125H30.5C30.8452 28.3125 31.125 28.0327 31.125 27.6875C31.125 27.3423 30.8452 27.0625 30.5 27.0625V26.75C30.5 22.825 27.4691 19.5949 23.625 19.2762V18.3125H24.5625C24.9077 18.3125 25.1875 18.0327 25.1875 17.6875C25.1875 17.3423 24.9077 17.0625 24.5625 17.0625H21.4375C21.0923 17.0625 20.8125 17.3423 20.8125 17.6875C20.8125 18.0327 21.0923 18.3125 21.4375 18.3125H22.375V19.2762C18.5309 19.5949 15.5 22.825 15.5 26.75V27.0625C15.1548 27.0625 14.875 27.3423 14.875 27.6875C14.875 28.0327 15.1548 28.3125 15.5 28.3125H17.375V29.25H15.1875C14.9007 29.25 14.6507 29.4452 14.5812 29.7234L14.0745 31.75H13.625C13.2798 31.75 13 32.0298 13 32.375C13 32.7202 13.2798 33 13.625 33H32.375C32.7202 33 33 32.7202 33 32.375C33 32.0298 32.7202 31.75 32.375 31.75ZM16.75 26.75C16.75 23.3038 19.5537 20.5 23 20.5C26.4463 20.5 29.25 23.3038 29.25 26.75V27.0625C27.3504 27.0625 17.3087 27.0625 16.75 27.0625V26.75ZM18.625 28.3125H27.375V29.25H18.625V28.3125ZM15.363 31.75L15.6755 30.5H30.3245L30.637 31.75H15.363Z" fill="#17C2E8"/>
<path d="M13.625 23.625H14.875C15.2202 23.625 15.5 23.3452 15.5 23C15.5 22.6548 15.2202 22.375 14.875 22.375H13.625C13.2798 22.375 13 22.6548 13 23C13 23.3452 13.2798 23.625 13.625 23.625Z" fill="#17C2E8"/>
<path d="M31.125 23.625H32.375C32.7202 23.625 33 23.3452 33 23C33 22.6548 32.7202 22.375 32.375 22.375H31.125C30.7798 22.375 30.5 22.6548 30.5 23C30.5 23.3452 30.7798 23.625 31.125 23.625Z" fill="#17C2E8"/>
<path d="M16.8131 17.6967C17.0571 17.9408 17.4529 17.9408 17.6969 17.6967C17.941 17.4526 17.941 17.0569 17.6969 16.8129L16.813 15.9289C16.569 15.6848 16.1732 15.6848 15.9292 15.9289C15.6851 16.173 15.6851 16.5687 15.9292 16.8128L16.8131 17.6967Z" fill="#17C2E8"/>
<path d="M28.7448 17.8798C28.9048 17.8798 29.0647 17.8187 29.1867 17.6968L30.0707 16.8129C30.3148 16.5688 30.3148 16.1731 30.0707 15.929C29.8266 15.685 29.4309 15.685 29.1868 15.929L28.3029 16.8129C27.908 17.2077 28.193 17.8798 28.7448 17.8798Z" fill="#17C2E8"/>
<path d="M23 15.5C23.3452 15.5 23.625 15.2202 23.625 14.875V13.625C23.625 13.2798 23.3452 13 23 13C22.6548 13 22.375 13.2798 22.375 13.625V14.875C22.375 15.2202 22.6548 15.5 23 15.5Z" fill="#17C2E8"/>
</svg>
