<svg width="17" height="17" viewBox="0 0 17 17" fill="none" xmlns="http://www.w3.org/2000/svg">
<path d="M14.45 1.7H13.6V0.425C13.6 0.190121 13.4099 0 13.175 0C12.9401 0 12.75 0.190121 12.75 0.425V1.7H4.25V0.425C4.25 0.190121 4.05988 0 3.825 0C3.59012 0 3.4 0.190121 3.4 0.425V1.7H2.55C1.14381 1.7 0 2.84381 0 4.25V14.45C0 15.8562 1.14381 17 2.55 17H14.45C15.8562 17 17 15.8562 17 14.45V4.25C17 2.84381 15.8562 1.7 14.45 1.7ZM16.15 14.45C16.15 15.389 15.389 16.15 14.45 16.15H2.55C1.61105 16.15 0.85 15.389 0.85 14.45V6.8H16.15V14.45ZM16.15 5.95H0.85V4.25C0.85 3.31105 1.61105 2.55 2.55 2.55H3.4V3.825C3.4 4.05988 3.59012 4.25 3.825 4.25C4.05988 4.25 4.25 4.05988 4.25 3.825V2.55H12.75V3.825C12.75 4.05988 12.9401 4.25 13.175 4.25C13.4099 4.25 13.6 4.05988 13.6 3.825V2.55H14.45C15.389 2.55 16.15 3.31105 16.15 4.25V5.95Z" fill="#17C2E8"/>
<path d="M3.82505 8.075C3.12098 8.075 2.55005 8.64592 2.55005 9.35C2.55005 10.0541 3.12098 10.625 3.82505 10.625C4.52912 10.625 5.10005 10.0541 5.10005 9.35C5.10005 8.64592 4.52912 8.075 3.82505 8.075ZM3.82505 9.775C3.59073 9.775 3.40005 9.58431 3.40005 9.35C3.40005 9.11568 3.59073 8.925 3.82505 8.925C4.05936 8.925 4.25005 9.11568 4.25005 9.35C4.25005 9.58431 4.05936 9.775 3.82505 9.775Z" fill="#17C2E8"/>
<path d="M8.5001 8.075C7.79603 8.075 7.2251 8.64592 7.2251 9.35C7.2251 10.0541 7.79603 10.625 8.5001 10.625C9.20417 10.625 9.7751 10.0541 9.7751 9.35C9.7751 8.64592 9.20417 8.075 8.5001 8.075ZM8.5001 9.775C8.26578 9.775 8.0751 9.58431 8.0751 9.35C8.0751 9.11568 8.26578 8.925 8.5001 8.925C8.73441 8.925 8.9251 9.11568 8.9251 9.35C8.9251 9.58431 8.73441 9.775 8.5001 9.775Z" fill="#17C2E8"/>
<path d="M13.1749 8.075C12.4708 8.075 11.8999 8.64592 11.8999 9.35C11.8999 10.0541 12.4708 10.625 13.1749 10.625C13.879 10.625 14.4499 10.0541 14.4499 9.35C14.4499 8.64592 13.879 8.075 13.1749 8.075ZM13.1749 9.775C12.9406 9.775 12.7499 9.58431 12.7499 9.35C12.7499 9.11568 12.9406 8.925 13.1749 8.925C13.4092 8.925 13.5999 9.11568 13.5999 9.35C13.5999 9.58431 13.4092 9.775 13.1749 9.775Z" fill="#17C2E8"/>
<path d="M3.82505 12.325C3.12098 12.325 2.55005 12.8959 2.55005 13.6C2.55005 14.3041 3.12098 14.875 3.82505 14.875C4.52912 14.875 5.10005 14.3041 5.10005 13.6C5.10005 12.8959 4.52912 12.325 3.82505 12.325ZM3.82505 14.025C3.59073 14.025 3.40005 13.8343 3.40005 13.6C3.40005 13.3657 3.59073 13.175 3.82505 13.175C4.05936 13.175 4.25005 13.3657 4.25005 13.6C4.25005 13.8343 4.05936 14.025 3.82505 14.025Z" fill="#17C2E8"/>
<path d="M8.5001 12.325C7.79603 12.325 7.2251 12.8959 7.2251 13.6C7.2251 14.3041 7.79603 14.875 8.5001 14.875C9.20417 14.875 9.7751 14.3041 9.7751 13.6C9.7751 12.8959 9.20417 12.325 8.5001 12.325ZM8.5001 14.025C8.26578 14.025 8.0751 13.8343 8.0751 13.6C8.0751 13.3657 8.26578 13.175 8.5001 13.175C8.73441 13.175 8.9251 13.3657 8.9251 13.6C8.9251 13.8343 8.73441 14.025 8.5001 14.025Z" fill="#17C2E8"/>
<path d="M13.1749 12.325C12.4708 12.325 11.8999 12.8959 11.8999 13.6C11.8999 14.3041 12.4708 14.875 13.1749 14.875C13.879 14.875 14.4499 14.3041 14.4499 13.6C14.4499 12.8959 13.879 12.325 13.1749 12.325ZM13.1749 14.025C12.9406 14.025 12.7499 13.8343 12.7499 13.6C12.7499 13.3657 12.9406 13.175 13.1749 13.175C13.4092 13.175 13.5999 13.3657 13.5999 13.6C13.5999 13.8343 13.4092 14.025 13.1749 14.025Z" fill="#17C2E8"/>
</svg>
