<svg width="48" height="48" viewBox="0 0 48 48" fill="none" xmlns="http://www.w3.org/2000/svg">
<circle cx="24" cy="24" r="23.5" stroke="white"/>
<g clip-path="url(#clip0_1130_1743)">
<path d="M23.9994 26.7143C22.7494 26.7143 21.678 26.1786 20.7852 25.4643C20.0709 24.5714 19.5352 23.5 19.5352 22.25V19.3929C19.5352 18.8571 19.8923 18.5 20.428 18.5C20.9637 18.5 21.3209 18.8571 21.3209 19.3929V22.25C21.3209 22.9643 21.678 23.6786 22.2137 24.2143C23.1066 25.2857 24.8923 25.2857 25.7852 24.2143C26.3209 23.6786 26.678 22.9643 26.678 22.25V19.3929C26.678 18.8571 27.0352 18.5 27.5709 18.5C28.1066 18.5 28.4637 18.8571 28.4637 19.3929V22.25C28.4637 23.5 27.928 24.5714 27.0352 25.4643C26.3209 26.3571 25.0709 26.7143 23.9994 26.7143Z" fill="white"/>
<path d="M20.428 22.0716C20.0709 22.0716 19.5352 21.7144 19.5352 21.3573C19.5352 20.8216 19.8923 20.4644 20.2494 20.2859C22.0352 20.1073 22.928 19.2144 23.4637 18.5001C23.8209 18.3216 24.3566 18.143 24.7137 18.5001C25.0709 18.8573 25.2494 19.393 24.8923 19.7501C24.3566 20.4644 22.928 21.7144 20.428 22.0716Z" fill="white"/>
<path d="M27.5717 22.4286C24.1788 21.8929 23.1074 20.4643 22.9288 20.2857C22.7502 19.9286 22.7502 19.3929 23.1074 19.0357C23.4645 18.6786 24.0002 18.8572 24.3574 19.2143C24.3574 19.2143 25.2502 20.2857 27.5717 20.6429C28.1074 20.6429 28.4645 21.1786 28.286 21.7143C28.4645 22.0715 28.1074 22.4286 27.5717 22.4286Z" fill="white"/>
<path d="M27.5709 20.2857C27.0352 20.2857 26.678 19.9286 26.678 19.3929C26.678 17.9643 25.428 16.8929 23.9994 16.8929C22.5709 16.8929 21.3209 17.9643 21.3209 19.3929C21.3209 19.9286 20.9637 20.2857 20.428 20.2857C19.8923 20.2857 19.5352 19.9286 19.5352 19.3929C19.5352 17.0715 21.4994 15.1072 23.9994 15.1072C26.4994 15.1072 28.4637 17.0715 28.4637 19.3929C28.4637 19.75 28.1066 20.2857 27.5709 20.2857Z" fill="white"/>
<path d="M22.0354 29.0357C21.4997 29.0357 21.1426 28.6785 21.1426 28.1428V25.2857C21.1426 24.75 21.4997 24.3928 22.0354 24.3928C22.5711 24.3928 22.9283 24.75 22.9283 25.2857V28.1428C22.9283 28.6785 22.3926 29.0357 22.0354 29.0357Z" fill="white"/>
<path d="M25.9641 29.0357C25.4284 29.0357 25.0713 28.6785 25.0713 28.1428V25.2857C25.0713 24.75 25.4284 24.3928 25.9641 24.3928C26.4999 24.3928 26.857 24.75 26.857 25.2857V28.1428C26.857 28.6785 26.4999 29.0357 25.9641 29.0357Z" fill="white"/>
<path d="M23.9999 36C20.7856 36 17.7499 34.75 15.4284 32.6071C15.2499 32.4286 15.0713 32.0714 15.0713 31.8929V31.3571C15.0713 29.5714 16.6784 28.8571 17.3927 28.5L20.2499 27.4286C21.3213 27.0714 22.5713 27.25 23.2856 27.9643C23.6427 28.3214 24.357 28.3214 24.7141 27.9643C25.4284 27.25 26.6784 27.0714 27.7499 27.4286L30.607 28.5C31.4999 29.0357 32.9284 29.5714 32.9284 31.3571V31.8929C32.9284 32.0714 32.7499 32.4286 32.5713 32.6071C30.2499 34.75 27.2141 36 23.9999 36ZM16.857 31.5357C18.8213 33.3214 21.3213 34.2143 23.9999 34.2143C26.6784 34.2143 29.1784 33.3214 31.1427 31.5357V31.3571C31.1427 31 30.9641 30.6429 29.8927 30.1071L27.0356 29.0357C26.6784 28.8571 26.3213 29.0357 25.9641 29.2143C24.8927 30.2857 23.107 30.2857 22.0356 29.2143C21.6784 28.8571 21.3213 28.8571 20.9641 29.0357L18.107 30.1071C17.0356 30.6429 16.857 31 16.857 31.5357C16.857 31.3571 16.857 31.3571 16.857 31.5357Z" fill="white"/>
<path d="M13.1071 28.3214C12.75 28.3214 12.3929 28.1429 12.2143 27.7857C11.6786 26.3571 11.5 24.9286 11.5 23.5C11.5 16.5357 17.0357 11 24 11C24.5357 11 24.8929 11.3571 24.8929 11.8929C24.8929 12.4286 24.5357 12.7857 24 12.7857C18.1071 12.7857 13.2857 17.6071 13.2857 23.5C13.2857 24.75 13.4643 26 14 27.25C14.1786 27.7857 14 28.1429 13.4643 28.3214C13.2857 28.3214 13.1071 28.3214 13.1071 28.3214Z" fill="white"/>
<path d="M34.8931 28.3214C34.7146 28.3214 34.7146 28.3214 34.536 28.3214C34.0003 28.1429 33.8217 27.6071 34.0003 27.25C34.536 26 34.7146 24.75 34.7146 23.5C34.7146 17.6071 29.8931 12.7857 24.0003 12.7857C23.4646 12.7857 23.1074 12.4286 23.1074 11.8929C23.1074 11.3571 23.4646 11 24.0003 11C30.9646 11 36.5003 16.5357 36.5003 23.5C36.5003 24.9286 36.3217 26.3571 35.786 27.7857C35.6074 28.1429 35.2503 28.3214 34.8931 28.3214Z" fill="white"/>
</g>
<defs>
<clipPath id="clip0_1130_1743">
<rect width="25" height="25" fill="white" transform="translate(11.5 11)"/>
</clipPath>
</defs>
</svg>
