<svg width="76" height="76" viewBox="0 0 76 76" fill="none" xmlns="http://www.w3.org/2000/svg">
<g clip-path="url(#clip0)">
<path d="M38.0001 76.0002C58.9869 76.0002 76.0002 58.9869 76.0002 38.0001C76.0002 17.0132 58.9869 0 38.0001 0C17.0132 0 0 17.0132 0 38.0001C0 58.9869 17.0132 76.0002 38.0001 76.0002Z" fill="#D92A73"/>
<path d="M75.9996 38.0001C75.9996 58.9002 58.8996 76.0002 37.9996 76.0002C25.8871 76.0002 15.1996 70.5377 8.31201 61.7503C14.7245 66.9753 23.0371 70.0628 32.062 70.0628C52.9621 70.0628 70.0621 52.9628 70.0621 32.0627C70.0621 23.0378 66.9745 14.7252 61.7495 8.31274C70.5372 15.2 75.9996 25.8875 75.9996 38.0001Z" fill="#BB1E60"/>
</g>
<g clip-path="url(#clip1)">
<path d="M51.0536 29.5157L42.5697 38.0005L51.0536 46.4848C52.3155 47.7472 52.3155 49.7922 51.0536 51.0546C50.4231 51.6851 49.5964 52.0006 48.7702 52.0006C47.9425 52.0006 47.1158 51.6856 46.4858 51.0546L38.0001 42.5693L29.515 51.0545C28.8846 51.685 28.0578 52.0005 27.2308 52.0005C26.4041 52.0005 25.5779 51.6855 24.9469 51.0545C23.685 49.7926 23.685 47.7476 24.9469 46.4847L33.4305 38.0004L24.9464 29.5157C23.6845 28.2538 23.6845 26.2084 24.9464 24.9465C26.2081 23.6855 28.2524 23.6855 29.5145 24.9465L38 33.4312L46.4848 24.9465C47.7472 23.6855 49.7917 23.6855 51.0531 24.9465C52.3155 26.2084 52.3155 28.2538 51.0536 29.5157Z" fill="white"/>
</g>
<defs>
<clipPath id="clip0">
<rect width="76" height="76" fill="white"/>
</clipPath>
<clipPath id="clip1">
<rect width="28" height="28.0001" fill="white" transform="translate(24 24)"/>
</clipPath>
</defs>
</svg>
