<svg width="20" height="20" viewBox="0 0 20 20" fill="none" xmlns="http://www.w3.org/2000/svg">
<path d="M17.4072 9.70051C17.9233 9.17005 18.2422 8.44548 18.2422 7.64718C18.2422 6.02544 16.9279 4.70605 15.3125 4.70605C13.6971 4.70605 12.3828 6.02544 12.3828 7.64718C12.3828 8.44101 12.6982 9.1619 13.2093 9.69157C12.6342 9.91584 12.1125 10.2682 11.688 10.7232C10.7635 9.75847 9.23551 9.75953 8.31195 10.7232C7.88754 10.2682 7.36578 9.91588 6.79074 9.69161C7.30172 9.16194 7.61719 8.44105 7.61719 7.64718C7.61719 6.02544 6.30293 4.70605 4.6875 4.70605C3.07207 4.70605 1.75781 6.02544 1.75781 7.64718C1.75781 8.44548 2.07672 9.17005 2.59277 9.70051C1.07555 10.3052 0 11.7936 0 13.5294V19.4117C0 19.7365 0.262344 19.9999 0.585938 19.9999H19.4141C19.7377 19.9999 20 19.7365 20 19.4117V13.5294C20 11.7936 18.9245 10.3052 17.4072 9.70051ZM15.3125 5.8825C16.2818 5.8825 17.0703 6.67414 17.0703 7.64718C17.0703 8.62022 16.2818 9.41185 15.3125 9.41185C14.3432 9.41185 13.5547 8.62022 13.5547 7.64718C13.5547 6.67414 14.3432 5.8825 15.3125 5.8825ZM10 11.1765C10.6462 11.1765 11.1719 11.7043 11.1719 12.353C11.1719 13.0017 10.6462 13.5294 10 13.5294C9.35383 13.5294 8.82812 13.0017 8.82812 12.353C8.82812 11.7043 9.35383 11.1765 10 11.1765ZM4.6875 5.8825C5.65676 5.8825 6.44531 6.67414 6.44531 7.64718C6.44531 8.62022 5.65676 9.41185 4.6875 9.41185C3.71824 9.41185 2.92969 8.62022 2.92969 7.64718C2.92969 6.67414 3.71824 5.8825 4.6875 5.8825ZM1.17188 13.5294C1.17188 11.9077 2.48613 10.5883 4.10156 10.5883H5.3125C6.26715 10.5883 7.16707 11.0639 7.71238 11.8428C7.5584 12.5389 7.725 13.2569 8.16309 13.8117C7.17176 14.2837 6.48438 15.2979 6.48438 16.4706V18.8235H1.17188V13.5294ZM7.65625 18.8235V16.4706C7.65625 15.4975 8.44481 14.7059 9.41406 14.7059H10.5859C11.5552 14.7059 12.3438 15.4975 12.3438 16.4706V18.8235H7.65625ZM18.8281 18.8235H13.5156V16.4706C13.5156 15.2979 12.8282 14.2837 11.8369 13.8117C12.2746 13.2574 12.4417 12.5395 12.2876 11.8428C12.8329 11.0639 13.7327 10.5883 14.6875 10.5883H15.8984C17.5139 10.5883 18.8281 11.9077 18.8281 13.5294V18.8235Z" fill="white"/>
<path d="M8.33277 4.74461C9.00176 5.3653 9.66492 5.77753 9.69281 5.79479C9.88121 5.91118 10.1187 5.91118 10.3071 5.79479C10.3351 5.77753 10.9982 5.3653 11.6672 4.74461C12.6345 3.84714 13.125 2.97464 13.125 2.1514C13.125 0.28179 11.273 -0.595801 10 0.442807C8.7241 -0.598115 6.875 0.286731 6.875 2.1514C6.875 2.97464 7.36547 3.84714 8.33277 4.74461ZM9.5068 1.63718C9.7373 1.99792 10.263 1.99737 10.4932 1.63718C11.03 0.796879 11.9531 1.18895 11.9531 2.1514C11.9531 2.9537 10.8583 3.98796 10.0014 4.58869C9.28133 4.07866 8.04687 3.02394 8.04687 2.1514C8.04687 1.1917 8.96836 0.794487 9.5068 1.63718Z" fill="white"/>
</svg>
