<svg width="48" height="48" viewBox="0 0 48 48" fill="none" xmlns="http://www.w3.org/2000/svg">
<circle cx="24" cy="24" r="23.5" stroke="white"/>
<path d="M32.2218 24.0819C32.8213 23.4681 33.1918 22.6297 33.1918 21.7059C33.1918 19.8293 31.665 18.3025 29.7884 18.3025C27.9118 18.3025 26.385 19.8293 26.385 21.7059C26.385 22.6245 26.7514 23.4587 27.3451 24.0716C26.6771 24.3311 26.0709 24.7388 25.5779 25.2654C24.5039 24.149 22.7288 24.1502 21.6559 25.2654C21.1629 24.7388 20.5568 24.3312 19.8887 24.0716C20.4823 23.4587 20.8488 22.6245 20.8488 21.7059C20.8488 19.8293 19.3221 18.3025 17.4454 18.3025C15.5688 18.3025 14.042 19.8293 14.042 21.7059C14.042 22.6297 14.4125 23.4681 15.012 24.0819C13.2495 24.7817 12 26.504 12 28.5127V35.3195C12 35.6954 12.3048 36.0001 12.6807 36.0001H34.5531C34.9291 36.0001 35.2338 35.6954 35.2338 35.3195V28.5127C35.2338 26.504 33.9844 24.7817 32.2218 24.0819ZM29.7884 19.6638C30.9144 19.6638 31.8304 20.5799 31.8304 21.7059C31.8304 22.8319 30.9144 23.7479 29.7884 23.7479C28.6624 23.7479 27.7464 22.8319 27.7464 21.7059C27.7464 20.5799 28.6624 19.6638 29.7884 19.6638ZM23.6169 25.79C24.3676 25.79 24.9783 26.4007 24.9783 27.1513C24.9783 27.902 24.3676 28.5127 23.6169 28.5127C22.8663 28.5127 22.2556 27.902 22.2556 27.1513C22.2556 26.4007 22.8663 25.79 23.6169 25.79ZM17.4454 19.6638C18.5714 19.6638 19.4875 20.5799 19.4875 21.7059C19.4875 22.8319 18.5714 23.7479 17.4454 23.7479C16.3194 23.7479 15.4034 22.8319 15.4034 21.7059C15.4034 20.5799 16.3194 19.6638 17.4454 19.6638ZM13.3614 28.5127C13.3614 26.636 14.8881 25.1093 16.7647 25.1093H18.1715C19.2805 25.1093 20.3259 25.6597 20.9594 26.5609C20.7805 27.3664 20.9741 28.1973 21.483 28.8393C20.3314 29.3855 19.5328 30.5591 19.5328 31.9161V34.6388H13.3614V28.5127ZM20.8942 34.6388V31.9161C20.8942 30.7901 21.8103 29.874 22.9362 29.874H24.2976C25.4236 29.874 26.3396 30.7901 26.3396 31.9161V34.6388H20.8942ZM33.8725 34.6388H27.701V31.9161C27.701 30.5591 26.9025 29.3855 25.7508 28.8393C26.2593 28.1979 26.4534 27.3672 26.2744 26.5609C26.9079 25.6596 27.9532 25.1093 29.0623 25.1093H30.4691C32.3457 25.1093 33.8725 26.636 33.8725 28.5127V34.6388Z" fill="white"/>
<path d="M21.6798 18.3475C22.457 19.0658 23.2274 19.5428 23.2598 19.5628C23.4786 19.6974 23.7546 19.6974 23.9734 19.5628C24.0059 19.5428 24.7762 19.0658 25.5534 18.3475C26.6771 17.309 27.2469 16.2994 27.2469 15.3467C27.2469 13.1833 25.0955 12.1677 23.6166 13.3696C22.1344 12.1651 19.9863 13.189 19.9863 15.3467C19.9863 16.2994 20.5561 17.309 21.6798 18.3475ZM23.0437 14.7517C23.3114 15.1691 23.9222 15.1685 24.1896 14.7517C24.8132 13.7793 25.8855 14.233 25.8855 15.3467C25.8855 16.2751 24.6137 17.4719 23.6182 18.1671C22.7817 17.5769 21.3477 16.3564 21.3477 15.3467C21.3477 14.2362 22.4182 13.7765 23.0437 14.7517Z" fill="white"/>
</svg>
