<svg width="75" height="82" viewBox="0 0 75 82" fill="none" xmlns="http://www.w3.org/2000/svg">
<path d="M13.3565 41.6955V79.2209C13.3611 80.7542 14.5877 81.996 16.1023 82.0006H60.0345C61.5491 81.996 62.7758 80.7542 62.7803 79.2209V45.2952L62.6567 40.3057H14.7294C13.9712 40.3057 13.3565 40.9279 13.3565 41.6955Z" fill="#EC157C"/>
<path d="M51.6737 40.3057L62.7803 51.5494V45.2952L62.6567 40.3057H51.6737Z" fill="#C03A2B"/>
<path d="M45.8459 8.50865L51.671 2.6116C52.6934 1.57543 54.1779 1.15827 55.5816 1.51268C56.9853 1.86708 58.1024 2.94108 58.5244 4.34194L61.3196 13.6538L69.8823 22.3263L79.0847 25.156C80.4685 25.5833 81.5294 26.7142 81.8795 28.1352C82.2295 29.5562 81.8175 31.059 80.7939 32.0941L74.9688 37.9911L58.7482 24.3499L45.8459 8.50865Z" fill="#F0C419"/>
<path d="M56.524 19.3188C56.7283 17.828 57.4109 16.4466 58.4666 15.3869C61.1507 12.6934 65.4806 12.703 68.153 15.4084C70.8255 18.1138 70.8349 22.4972 68.1742 25.2144C67.1275 26.2832 65.7629 26.9742 64.2904 27.181L59.3205 24.2346L56.524 19.3188Z" fill="#F3D55B"/>
<path d="M43.5601 40.3057H32.577V82.0006H43.5601V40.3057Z" fill="#F0C419"/>
<path d="M25.7123 34.7457C26.2956 34.746 26.8153 34.3732 27.0084 33.8161C27.2015 33.259 27.0259 32.6392 26.5704 32.2705C26.2876 32.0425 19.6113 26.6416 15.4912 23.8606C13.0353 22.0682 9.81492 21.7573 7.06861 23.0475C4.90161 24.2912 3.61523 26.6681 3.74623 29.1864C3.74623 29.954 4.3609 30.5762 5.11912 30.5762C5.87734 30.5762 6.492 29.954 6.492 29.1864C6.35819 27.6939 7.08773 26.2574 8.3646 25.4992C10.2166 24.6917 12.3538 24.9488 13.9673 26.1733C17.9899 28.8876 24.787 34.3858 24.8543 34.4414C25.0979 34.6385 25.4005 34.7459 25.7123 34.7457Z" fill="#D2179E"/>
<path d="M22.9667 25.0172C23.5499 25.0175 24.0697 24.6447 24.2628 24.0876C24.4559 23.5305 24.2803 22.9107 23.8248 22.5419C23.542 22.314 16.8656 16.9131 12.7456 14.1321C10.2897 12.3397 7.06931 12.0288 4.323 13.319C2.15601 14.5627 0.869629 16.9396 1.00063 19.4579C1.00063 20.2255 1.61529 20.8477 2.37351 20.8477C3.13174 20.8477 3.7464 20.2255 3.7464 19.4579C3.61259 17.9654 4.34213 16.5289 5.619 15.7707C7.47103 14.9632 9.60825 15.2203 11.2217 16.4447C15.2443 19.1591 22.0414 24.6573 22.1087 24.7129C22.3522 24.91 22.6549 25.0174 22.9667 25.0172Z" fill="#D2179E"/>
<path d="M29.8312 22.2373C30.4048 22.237 30.9177 21.8759 31.1175 21.3316C31.3174 20.7874 31.1619 20.1747 30.7277 19.7954C30.6838 19.7564 26.292 15.9247 22.452 12.8128C19.4893 10.414 18.0368 7.53149 18.7452 5.47176C19.3438 3.76088 21.3812 2.77966 24.3397 2.77966C25.0979 2.77966 25.7126 2.15741 25.7126 1.38983C25.7126 0.622248 25.0979 0 24.3397 0C20.1442 0 17.1623 1.65946 16.1601 4.55169C15.0384 7.79139 16.7902 11.7885 20.7359 14.9838C24.5374 18.0622 28.8908 21.862 28.9347 21.8996C29.1839 22.1173 29.5021 22.2371 29.8312 22.2373Z" fill="#D2179E"/>
<path d="M29.8312 29.1879C29.073 29.1879 28.4583 28.5656 28.4583 27.798C28.4583 27.0305 29.073 26.4082 29.8312 26.4082C30.5894 26.4082 31.2041 27.0305 31.2041 27.798C31.2041 28.5656 30.5894 29.1879 29.8312 29.1879Z" fill="#F0C419"/>
<path d="M36.6955 30.5765C35.9373 30.5765 35.3226 29.9543 35.3226 29.1867C35.3226 28.4191 35.9373 27.7969 36.6955 27.7969C37.4537 27.7969 38.0684 28.4191 38.0684 29.1867C38.0684 29.9543 37.4537 30.5765 36.6955 30.5765Z" fill="#F0C419"/>
<path d="M10.611 33.3568C9.85278 33.3568 9.23812 32.7346 9.23812 31.967C9.23812 31.1994 9.85278 30.5771 10.611 30.5771C11.3692 30.5771 11.9839 31.1994 11.9839 31.967C11.9839 32.7346 11.3692 33.3568 10.611 33.3568Z" fill="#F0C419"/>
<path d="M9.23796 8.34021C8.47973 8.34021 7.86507 7.71796 7.86507 6.95038C7.86507 6.1828 8.47973 5.56055 9.23796 5.56055C9.99618 5.56055 10.6108 6.1828 10.6108 6.95038C10.6108 7.71796 9.99618 8.34021 9.23796 8.34021Z" fill="#F0C419"/>
<path d="M32.5768 36.1361C31.8186 36.1361 31.2039 35.5139 31.2039 34.7463C31.2039 33.9787 31.8186 33.3564 32.5768 33.3564C33.335 33.3564 33.9497 33.9787 33.9497 34.7463C33.9497 35.5139 33.335 36.1361 32.5768 36.1361Z" fill="#F0C419"/>
<path d="M77.8849 40.9381L42.9423 5.56414C41.8702 4.47878 40.1319 4.47878 39.0598 5.56414L32.2654 12.4424C31.7294 12.9851 31.7294 13.865 32.2654 14.4076L69.1493 51.7468C69.6853 52.2895 70.5545 52.2895 71.0905 51.7468L77.8849 44.8685C78.957 43.7832 78.957 42.0235 77.8849 40.9381Z" fill="#EC157C"/>
<path d="M65.2661 28.1641L55.5598 18.338L45.8535 28.1641L55.5598 37.9901L65.2661 28.1641Z" fill="#F0C419"/>
</svg>
