<svg width="14" height="14" viewBox="0 0 14 14" fill="none" xmlns="http://www.w3.org/2000/svg">
<g clip-path="url(#clip0)">
<path d="M7.08995 5.19556C6.30126 5.19556 5.66187 5.83492 5.66187 6.62364C5.66187 7.41233 6.30123 8.05172 7.08995 8.05172C7.87864 8.05172 8.51803 7.41236 8.51803 6.62364C8.51803 5.83492 7.87867 5.19556 7.08995 5.19556ZM7.08995 7.37165C6.67681 7.37165 6.3419 7.03674 6.3419 6.62361C6.3419 6.21047 6.67681 5.87556 7.08995 5.87556C7.50309 5.87556 7.83799 6.21047 7.83799 6.62361C7.83799 7.03674 7.50309 7.37165 7.08995 7.37165Z" fill="#2AA4D9"/>
<path d="M12.7851 1.93147L3.50266 0.877446C3.1424 0.826227 2.77739 0.931398 2.49962 1.16647C2.22189 1.38183 2.04385 1.70105 2.0066 2.05051L1.8366 3.44458H1.30954C0.561494 3.44458 0.00045944 4.1076 0.00045944 4.85565V11.809C-0.0183816 12.5223 0.544606 13.1159 1.25796 13.1347C1.27515 13.1352 1.29236 13.1353 1.30954 13.1351H10.643C11.3911 13.1351 12.0711 12.557 12.0711 11.809V11.537C12.303 11.4922 12.523 11.3995 12.7171 11.265C12.9926 11.0331 13.1689 10.7046 13.2101 10.3469L13.9922 3.44458C14.0719 2.69481 13.5339 2.02034 12.7851 1.93147ZM11.3911 11.809C11.3911 12.183 11.017 12.455 10.643 12.455H1.30954C0.97167 12.4649 0.689737 12.1991 0.679812 11.8612C0.679292 11.8438 0.679519 11.8264 0.680496 11.809V10.5509L3.31564 8.61283C3.6322 8.36979 4.07807 8.39139 4.3697 8.66382L6.2228 10.2959C6.50421 10.5322 6.85845 10.6643 7.22587 10.6699C7.51314 10.6734 7.79569 10.5969 8.04193 10.4489L11.3911 8.51082V11.809H11.3911ZM11.3911 7.71178L7.68486 9.87089C7.36661 10.0594 6.96379 10.0253 6.68179 9.78589L4.81171 8.13679C4.27573 7.67625 3.49234 7.648 2.9246 8.06878L0.680496 9.70087V4.85565C0.680496 4.48162 0.935517 4.12462 1.30954 4.12462H10.643C11.0426 4.14118 11.3653 4.45657 11.3911 4.85565V7.71178ZM13.3128 3.35279C13.3126 3.35503 13.3124 3.35731 13.3121 3.35956L12.5131 10.2619C12.5145 10.4409 12.4328 10.6104 12.2921 10.7209C12.2241 10.7889 12.0711 10.8229 12.0711 10.8569V4.85565C12.0442 4.08115 11.4177 3.46212 10.643 3.44458H2.51661L2.66961 2.11852C2.7028 1.9468 2.79258 1.79119 2.92463 1.67648C3.07374 1.57339 3.25401 1.52533 3.43468 1.54046L12.7002 2.61151C13.074 2.64701 13.3483 2.97889 13.3128 3.35279Z" fill="#2AA4D9"/>
</g>
<defs>
<clipPath id="clip0">
<rect width="14" height="14" fill="white"/>
</clipPath>
</defs>
</svg>
