<svg width="62" height="62" viewBox="0 0 62 62" fill="none" xmlns="http://www.w3.org/2000/svg">
<circle cx="31" cy="31" r="31" fill="#3CBCF3"/>
<g clip-path="url(#clip0)">
<path d="M31.4134 18.1865C24.1024 18.1865 18.1868 24.1027 18.1868 31.4132C18.1868 38.7242 24.103 44.6399 31.4134 44.6399C38.7244 44.6399 44.6401 38.7237 44.6401 31.4132C44.6401 24.1022 38.7239 18.1865 31.4134 18.1865ZM31.4134 42.5732C25.2448 42.5732 20.2534 37.5814 20.2534 31.4132C20.2534 25.2446 25.2452 20.2532 31.4134 20.2532C37.5821 20.2532 42.5734 25.245 42.5734 31.4132C42.5734 37.5818 37.5817 42.5732 31.4134 42.5732Z" fill="white"/>
<path d="M31.4135 24.8452C30.8427 24.8452 30.3801 25.3078 30.3801 25.8785V32.5329C30.3801 33.1036 30.8427 33.5662 31.4135 33.5662C31.9842 33.5662 32.4468 33.1036 32.4468 32.5329V25.8785C32.4468 25.3078 31.9842 24.8452 31.4135 24.8452Z" fill="white"/>
<path d="M31.4136 37.6215C32.184 37.6215 32.8086 36.997 32.8086 36.2265C32.8086 35.4561 32.184 34.8315 31.4136 34.8315C30.6431 34.8315 30.0186 35.4561 30.0186 36.2265C30.0186 36.997 30.6431 37.6215 31.4136 37.6215Z" fill="white"/>
</g>
<defs>
<clipPath id="clip0">
<rect width="26.4533" height="26.4533" fill="white" transform="translate(18.1868 18.1865)"/>
</clipPath>
</defs>
</svg>
