<svg width="16" height="16" viewBox="0 0 16 16" fill="none" xmlns="http://www.w3.org/2000/svg">
<g clip-path="url(#clip0)">
<mask id="path-1-inside-1" fill="white">
<path d="M15.5681 6.95923C15.5678 6.95886 15.5674 6.9585 15.567 6.95813L9.0403 0.431641C8.7621 0.15332 8.39223 0 7.99879 0C7.60536 0 7.23549 0.153198 6.95717 0.431519L0.433854 6.95471C0.431657 6.95691 0.42946 6.95923 0.427262 6.96143C-0.144026 7.53601 -0.14305 8.46826 0.43007 9.04138C0.691911 9.30334 1.03774 9.45508 1.40749 9.47095C1.4225 9.47241 1.43764 9.47314 1.4529 9.47314H1.71303V14.2762C1.71303 15.2267 2.48634 16 3.43703 16H5.99049C6.24928 16 6.45924 15.7902 6.45924 15.5312V11.7656C6.45924 11.3319 6.81203 10.9791 7.24574 10.9791H8.75184C9.18556 10.9791 9.53834 11.3319 9.53834 11.7656V15.5312C9.53834 15.7902 9.74818 16 10.0071 16H12.5606C13.5112 16 14.2846 15.2267 14.2846 14.2762V9.47314H14.5258C14.9191 9.47314 15.289 9.31995 15.5674 9.04163C16.1411 8.46753 16.1414 7.53369 15.5681 6.95923V6.95923Z"/>
</mask>
<path d="M15.567 6.95813L16.2741 6.25102L16.2741 6.25101L15.567 6.95813ZM9.0403 0.431641L8.33303 1.13859L8.3332 1.13876L9.0403 0.431641ZM6.95717 0.431519L7.66427 1.13863L7.66427 1.13863L6.95717 0.431519ZM0.433854 6.95471L-0.273246 6.2476L-0.273253 6.24761L0.433854 6.95471ZM0.427262 6.96143L-0.279852 6.25432L-0.281875 6.25636L0.427262 6.96143ZM0.43007 9.04138L1.13734 8.33444L1.13718 8.33428L0.43007 9.04138ZM1.40749 9.47095L1.50459 8.47567L1.47753 8.47303L1.45037 8.47187L1.40749 9.47095ZM1.71303 9.47314H2.71303V8.47314H1.71303V9.47314ZM14.2846 9.47314V8.47314H13.2846V9.47314H14.2846ZM15.5674 9.04163L16.2743 9.74889L16.2747 9.74851L15.5674 9.04163ZM16.2752 6.25212C16.2747 6.25158 16.2747 6.25156 16.2741 6.25102L14.8599 7.66524C14.8611 7.66646 14.8598 7.66511 14.861 7.66634L16.2752 6.25212ZM16.2741 6.25101L9.74739 -0.275479L8.3332 1.13876L14.8599 7.66525L16.2741 6.25101ZM9.74756 -0.275311C9.28191 -0.741159 8.65766 -1 7.99879 -1V1C8.12679 1 8.24228 1.0478 8.33303 1.13859L9.74756 -0.275311ZM7.99879 -1C7.3401 -1 6.71588 -0.741411 6.25006 -0.275588L7.66427 1.13863C7.75509 1.04781 7.87062 1 7.99879 1V-1ZM6.25007 -0.275595L-0.273246 6.2476L1.14095 7.66183L7.66427 1.13863L6.25007 -0.275595ZM-0.273253 6.24761C-0.276993 6.25135 -0.280093 6.2545 -0.282149 6.2566C-0.284083 6.25857 -0.285814 6.26035 -0.286164 6.26071C-0.286914 6.26148 -0.286281 6.26083 -0.285448 6.25998C-0.28449 6.259 -0.282491 6.25697 -0.27985 6.25432L1.13437 7.66853C1.13811 7.66479 1.14121 7.66164 1.14327 7.65954C1.1452 7.65757 1.14693 7.65579 1.14728 7.65543C1.14803 7.65466 1.1474 7.65531 1.14656 7.65616C1.1456 7.65714 1.1436 7.65918 1.14096 7.66182L-0.273253 6.24761ZM-0.281875 6.25636C-1.24153 7.22155 -1.24013 8.7854 -0.277037 9.74849L1.13718 8.33428C0.954029 8.15113 0.953477 7.85047 1.1364 7.6665L-0.281875 6.25636ZM-0.277202 9.74832C0.162049 10.1878 0.745112 10.4434 1.36461 10.47L1.45037 8.47187C1.33036 8.46672 1.22177 8.41891 1.13734 8.33444L-0.277202 9.74832ZM1.31038 10.4662C1.35804 10.4709 1.40559 10.4731 1.4529 10.4731V8.47314C1.46969 8.47314 1.48696 8.47395 1.50459 8.47567L1.31038 10.4662ZM1.4529 10.4731H1.71303V8.47314H1.4529V10.4731ZM0.713029 9.47314V14.2762H2.71303V9.47314H0.713029ZM0.713029 14.2762C0.713029 15.7791 1.93415 17 3.43703 17V15C3.03854 15 2.71303 14.6743 2.71303 14.2762H0.713029ZM3.43703 17H5.99049V15H3.43703V17ZM5.99049 17C6.8014 17 7.45924 16.3426 7.45924 15.5312H5.45924C5.45924 15.2377 5.69717 15 5.99049 15V17ZM7.45924 15.5312V11.7656H5.45924V15.5312H7.45924ZM7.45924 11.7656C7.45924 11.8842 7.36431 11.9791 7.24574 11.9791V9.97913C6.25974 9.97913 5.45924 10.7796 5.45924 11.7656H7.45924ZM7.24574 11.9791H8.75184V9.97913H7.24574V11.9791ZM8.75184 11.9791C8.63327 11.9791 8.53834 11.8842 8.53834 11.7656H10.5383C10.5383 10.7796 9.73784 9.97913 8.75184 9.97913V11.9791ZM8.53834 11.7656V15.5312H10.5383V11.7656H8.53834ZM8.53834 15.5312C8.53834 16.3424 9.1959 17 10.0071 17V15C10.3005 15 10.5383 15.2379 10.5383 15.5312H8.53834ZM10.0071 17H12.5606V15H10.0071V17ZM12.5606 17C14.0634 17 15.2846 15.7791 15.2846 14.2762H13.2846C13.2846 14.6743 12.959 15 12.5606 15V17ZM15.2846 14.2762V9.47314H13.2846V14.2762H15.2846ZM14.2846 10.4731H14.5258V8.47314H14.2846V10.4731ZM14.5258 10.4731C15.1844 10.4731 15.8085 10.2145 16.2743 9.74889L14.8604 8.33436C14.7694 8.42539 14.6537 8.47314 14.5258 8.47314V10.4731ZM16.2747 9.74851C17.2385 8.78408 17.2389 7.21783 16.276 6.25287L14.8603 7.66558C15.0438 7.84955 15.0437 8.15098 14.8601 8.33474L16.2747 9.74851Z" fill="white" mask="url(#path-1-inside-1)"/>
</g>
<defs>
<clipPath id="clip0">
<rect width="16" height="16" fill="white"/>
</clipPath>
</defs>
</svg>
