<svg width="24" height="24" viewBox="0 0 24 24" fill="none" xmlns="http://www.w3.org/2000/svg">
<path d="M11.2031 17.5781V13.8459L7.875 15.7224C7.42419 15.9771 6.85254 15.8179 6.59784 15.3673L6.59491 15.3622C6.34021 14.9114 6.49915 14.3395 6.94995 14.0848L10.2294 12.2344L6.94995 10.3839C6.49915 10.1292 6.34021 9.55737 6.59491 9.10657L6.59784 9.10144C6.85254 8.65082 7.42419 8.4917 7.875 8.7464L11.2031 10.6229V6.89062C11.2031 6.3728 11.6228 5.95312 12.1406 5.95312C12.6584 5.95312 13.0781 6.3728 13.0781 6.89062V10.6229L16.4062 8.7464C16.8571 8.4917 17.4287 8.65082 17.6834 9.10144L17.6863 9.10657C17.941 9.55737 17.7821 10.1292 17.3315 10.3839L14.0519 12.2344L17.3313 14.0848C17.7821 14.3395 17.941 14.9114 17.6863 15.3622L17.6834 15.3673C17.4287 15.8179 16.8569 15.9769 16.4062 15.7224L13.0781 13.8457V17.5781C13.0781 18.0959 12.6584 18.5156 12.1406 18.5156C11.6228 18.5156 11.2031 18.0959 11.2031 17.5781ZM20.4853 3.51471C18.2188 1.24823 15.2053 0 12 0C8.79474 0 5.78119 1.24823 3.51471 3.51471C1.24823 5.78119 0 8.79474 0 12C0 15.2053 1.24823 18.2188 3.51471 20.4853C5.78119 22.7518 8.79474 24 12 24C14.1943 24 16.3414 23.402 18.2091 22.2706C18.652 22.0023 18.7936 21.4259 18.5253 20.9832C18.2569 20.5402 17.6805 20.3987 17.2377 20.6669C15.663 21.6207 13.8517 22.125 12 22.125C6.41711 22.125 1.875 17.5829 1.875 12C1.875 6.41711 6.41711 1.875 12 1.875C17.5829 1.875 22.125 6.41711 22.125 12C22.125 13.9964 21.5314 15.9395 20.4082 17.6197C20.1204 18.05 20.2361 18.6323 20.6664 18.9201C21.0969 19.2079 21.6791 19.0922 21.9668 18.6617C23.2971 16.6723 24 14.3687 24 12C24 8.79474 22.7518 5.78119 20.4853 3.51471Z" fill="#17D67A"/>
</svg>
