<svg width="24" height="24" viewBox="0 0 24 24" fill="none" xmlns="http://www.w3.org/2000/svg">
<path d="M16.9167 23.9296H7.0831C3.3983 23.9296 0.399902 20.9312 0.399902 17.2464V6.7528C0.399902 3.068 3.3983 0.0704041 7.0831 0.0704041H16.9167C20.6015 0.0704041 23.5999 3.068 23.5999 6.7528V17.2464C23.5999 20.9312 20.6015 23.9296 16.9167 23.9296ZM7.0831 1.2448C4.0455 1.2448 1.5751 3.716 1.5751 6.7528V17.2464C1.5751 20.284 4.0463 22.7544 7.0831 22.7544H16.9167C19.9543 22.7544 22.4247 20.2832 22.4247 17.2464V6.7528C22.4247 3.716 19.9535 1.2448 16.9167 1.2448H7.0831Z" fill="#17C2E8"/>
<path d="M12.0003 17.9608C8.69466 17.9608 6.00586 15.2712 6.00586 11.9664C6.00586 10.3344 6.67626 8.748 7.84506 7.612C8.98106 6.5088 10.4611 5.92479 12.0179 5.97119C15.7267 6.07919 18.0731 8.43679 17.9955 11.9784C17.9219 15.3328 15.2883 17.9608 12.0003 17.9608ZM11.8499 7.144C10.6643 7.144 9.53706 7.6064 8.66346 8.4552C7.72106 9.3704 7.18026 10.6504 7.18026 11.9664C7.18026 14.624 9.34266 16.7864 12.0003 16.7864C14.6443 16.7864 16.7611 14.6632 16.8203 11.9536C16.8835 9.0768 15.0299 7.2344 11.9827 7.1464C11.9387 7.1448 11.8939 7.144 11.8499 7.144Z" fill="#17C2E8"/>
<path d="M18.6604 6.79602C19.4981 6.79602 20.1772 6.11693 20.1772 5.27922C20.1772 4.44152 19.4981 3.76242 18.6604 3.76242C17.8226 3.76242 17.1436 4.44152 17.1436 5.27922C17.1436 6.11693 17.8226 6.79602 18.6604 6.79602Z" fill="#17C2E8"/>
</svg>
