<svg width="35" height="35" viewBox="0 0 35 35" fill="none" xmlns="http://www.w3.org/2000/svg">
<rect x="0.5" y="0.5" width="34" height="34" rx="17" stroke="black"/>
<path d="M23.2186 18.4125C23.1654 18.4211 23.1116 18.4251 23.0577 18.4244H13.8865L14.0865 18.5174C14.282 18.6099 14.4598 18.7359 14.612 18.8895L17.1839 21.4613C17.5226 21.7847 17.5795 22.3048 17.3187 22.6938C17.0152 23.1082 16.4332 23.1982 16.0187 22.8947C15.9853 22.8702 15.9534 22.8435 15.9235 22.8147L11.2728 18.164C10.9093 17.8009 10.909 17.212 11.2721 16.8485C11.2723 16.8483 11.2726 16.848 11.2728 16.8478L15.9235 12.1971C16.2873 11.8344 16.8762 11.8352 17.2389 12.1989C17.2675 12.2276 17.2941 12.258 17.3187 12.2901C17.5795 12.6791 17.5226 13.1992 17.1839 13.5225L14.6167 16.099C14.4802 16.2357 14.3233 16.3502 14.1516 16.4385L13.8726 16.5641H23.0066C23.4817 16.5465 23.8986 16.8784 23.9879 17.3454C24.0701 17.8525 23.7257 18.3302 23.2186 18.4125Z" fill="black"/>
</svg>
