<svg width="24" height="24" viewBox="0 0 24 24" fill="none" xmlns="http://www.w3.org/2000/svg">
<g clip-path="url(#clip0)">
<path d="M18.75 24H5.25C4.01 24 3 22.991 3 21.75V11.25C3 10.009 4.01 9 5.25 9H18.75C19.99 9 21 10.009 21 11.25V21.75C21 22.991 19.99 24 18.75 24ZM5.25 10.5C4.837 10.5 4.5 10.836 4.5 11.25V21.75C4.5 22.164 4.837 22.5 5.25 22.5H18.75C19.163 22.5 19.5 22.164 19.5 21.75V11.25C19.5 10.836 19.163 10.5 18.75 10.5H5.25Z" fill="#17D67A"/>
<path d="M17.25 10.5C16.836 10.5 16.5 10.164 16.5 9.74999V6C16.5 3.519 14.481 1.5 12 1.5C9.519 1.5 7.5 3.519 7.5 6V9.74999C7.5 10.164 7.164 10.5 6.75 10.5C6.336 10.5 6 10.164 6 9.74999V6C6 2.691 8.691 0 12 0C15.309 0 18 2.691 18 6V9.74999C18 10.164 17.664 10.5 17.25 10.5Z" fill="#17D67A"/>
<path d="M11.9998 17C10.8968 17 9.99985 16.103 9.99985 15C9.99985 13.897 10.8968 13 11.9998 13C13.1028 13 13.9998 13.897 13.9998 15C13.9998 16.103 13.1028 17 11.9998 17ZM11.9998 14.5C11.7248 14.5 11.4998 14.724 11.4998 15C11.4998 15.276 11.7248 15.5 11.9998 15.5C12.2748 15.5 12.4998 15.276 12.4998 15C12.4998 14.724 12.2748 14.5 11.9998 14.5Z" fill="#17D67A"/>
<path d="M12 20C11.586 20 11.25 19.664 11.25 19.25V16.5C11.25 16.086 11.586 15.75 12 15.75C12.414 15.75 12.75 16.086 12.75 16.5V19.25C12.75 19.664 12.414 20 12 20Z" fill="#17D67A"/>
</g>
<defs>
<clipPath id="clip0">
<rect width="24" height="24" fill="white"/>
</clipPath>
</defs>
</svg>
