<svg width="32" height="32" viewBox="0 0 32 32" fill="none" xmlns="http://www.w3.org/2000/svg">
<path d="M17.1435 9.40811H12.7541C12.3122 9.40811 11.9541 9.04998 11.9541 8.60811C11.9541 8.16623 12.3122 7.80811 12.7541 7.80811H17.1435C17.5854 7.80811 17.9435 8.16623 17.9435 8.60811C17.9435 9.04998 17.5854 9.40811 17.1435 9.40811Z" fill="#17C2E8"/>
<path d="M25.171 16.2587H12.7541C12.3122 16.2587 11.9541 15.9003 11.9541 15.4587C11.9541 15.0168 12.3122 14.6587 12.7541 14.6587H25.171C25.6129 14.6587 25.971 15.0168 25.971 15.4587C25.971 15.9003 25.6129 16.2587 25.171 16.2587Z" fill="#17C2E8"/>
<path d="M25.171 22.3406H12.7541C12.3122 22.3406 11.9541 21.9822 11.9541 21.5406C11.9541 21.0988 12.3122 20.7406 12.7541 20.7406H25.171C25.6129 20.7406 25.971 21.0988 25.971 21.5406C25.971 21.9822 25.6129 22.3406 25.171 22.3406Z" fill="#17C2E8"/>
<path d="M27.1128 31.3744H4.06969C1.82313 31.3719 0.0025 29.5512 0 27.3047V21.7272C0.0025 19.519 1.79187 17.7297 4 17.7272H6.53938V3.03998C6.54094 1.71498 7.61438 0.641547 8.93938 0.639984H29.6C30.925 0.641547 31.9984 1.71498 32 3.03998V26.4872C31.9969 29.185 29.8106 31.3712 27.1128 31.3744ZM7.30219 29.7744H27.1128C28.9275 29.7725 30.3981 28.3019 30.4 26.4872V3.03998C30.3994 2.59842 30.0416 2.24061 29.6 2.23998H8.93938C8.49781 2.24061 8.14 2.59842 8.13938 3.03998V27.3047C8.14031 28.1978 7.84594 29.0659 7.30219 29.7744ZM4 19.3272C2.675 19.3287 1.60156 20.4022 1.6 21.7272V27.305C1.6 28.669 2.70563 29.7747 4.06969 29.7747C5.43375 29.7747 6.53938 28.669 6.53938 27.305V19.3272H4Z" fill="#17C2E8"/>
</svg>
