<svg width="48" height="48" viewBox="0 0 48 48" fill="none" xmlns="http://www.w3.org/2000/svg">
<circle cx="24" cy="24" r="23.5" stroke="white"/>
<g clip-path="url(#clip0_2189_2)">
<path d="M31.296 16.5938H16.1241C14.9529 16.5938 14 17.7223 14 19.1094V29.8906C14 31.2777 14.9529 32.4062 16.1241 32.4062H31.296C32.4672 32.4062 33.4201 31.2777 33.4201 29.8906V19.1094C33.4201 17.7223 32.4672 16.5938 31.296 16.5938ZM16.1241 18.0312H31.296C31.7979 18.0312 32.2063 18.5149 32.2063 19.1094V20.5469H15.2138V19.1094C15.2138 18.5149 15.6221 18.0312 16.1241 18.0312ZM31.296 30.9688H16.1241C15.6221 30.9688 15.2138 30.4851 15.2138 29.8906V21.9844H32.2063V29.8906C32.2063 30.4851 31.7979 30.9688 31.296 30.9688Z" fill="white"/>
<path d="M18.2479 28.8125H17.6411C17.3059 28.8125 17.0342 28.4907 17.0342 28.0938V27.375C17.0342 26.9781 17.3059 26.6562 17.6411 26.6562H18.2479C18.5831 26.6562 18.8548 26.9781 18.8548 27.375V28.0938C18.8548 28.4907 18.5831 28.8125 18.2479 28.8125Z" fill="white"/>
</g>
<defs>
<clipPath id="clip0_2189_2">
<rect width="19.4201" height="23" fill="white" transform="translate(14 13)"/>
</clipPath>
</defs>
</svg>
