<svg width="30" height="32" viewBox="0 0 30 32" fill="none" xmlns="http://www.w3.org/2000/svg">
<g clip-path="url(#clip0_1207_1269)">
<path d="M14.9989 25.464C13.8451 25.464 12.6912 25.001 11.7682 24.3066L0.460476 15.0469C-0.00106246 14.5839 -0.00106246 13.8895 0.229707 13.4265C0.691245 12.9635 1.38355 12.9635 1.84509 13.195L13.1528 22.4546C14.3066 23.3806 15.6912 23.3806 16.8451 22.4546L28.1528 13.195C28.6143 12.732 29.3066 12.9635 29.7682 13.4265C29.9989 13.8895 29.9989 14.5839 29.5374 15.0469L18.2297 24.3066C17.3066 25.2325 16.1528 25.464 14.9989 25.464Z" fill="#17C2E8"/>
<path d="M2.07752 30.7882C1.84675 30.7882 1.61599 30.7882 1.38522 30.5567C0.923678 30.0937 0.923678 29.3993 1.38522 28.9363L9.0006 20.6026C9.46214 20.1396 10.1544 20.1396 10.616 20.6026C11.0775 21.0656 11.0775 21.7601 10.616 22.223L3.0006 30.5567C2.76983 30.5567 2.53906 30.7882 2.07752 30.7882Z" fill="#17C2E8"/>
<path d="M27.9237 30.7883C27.6929 30.7883 27.2314 30.5568 27.0006 30.3253L19.3852 21.9916C18.9237 21.5286 18.9237 20.8341 19.3852 20.3712C19.8468 19.9082 20.5391 19.9082 21.0006 20.3712L28.616 28.7048C29.0775 29.1678 29.0775 29.8623 28.616 30.3253C28.3852 30.7883 28.1544 30.7883 27.9237 30.7883Z" fill="#17C2E8"/>
<path d="M5.30814 18.5194C4.61584 18.5194 4.1543 18.0564 4.1543 17.3619V5.55589C4.1543 4.86142 4.61584 4.39844 5.30814 4.39844H24.9235C25.6158 4.39844 26.0774 4.86142 26.0774 5.55589V17.1304C26.0774 17.8249 25.6158 18.2879 24.9235 18.2879C24.2312 18.2879 23.7697 17.8249 23.7697 17.1304V6.71335H6.46199V17.3619C6.46199 18.0564 6.00045 18.5194 5.30814 18.5194Z" fill="#17C2E8"/>
<path d="M16.3849 11.1115H9.92338C9.23107 11.1115 8.76953 10.6486 8.76953 9.95409C8.76953 9.25961 9.23107 8.79663 9.92338 8.79663H16.3849C17.0772 8.79663 17.5388 9.25961 17.5388 9.95409C17.5388 10.6486 17.0772 11.1115 16.3849 11.1115Z" fill="#17C2E8"/>
<path d="M19.1541 15.7414H9.92338C9.23107 15.7414 8.76953 15.2784 8.76953 14.584C8.76953 13.8895 9.23107 13.4265 9.92338 13.4265H19.1541C19.8465 13.4265 20.308 13.8895 20.308 14.584C20.308 15.2784 19.8465 15.7414 19.1541 15.7414Z" fill="#17C2E8"/>
<path d="M8.99887 6.71325C8.7681 6.71325 8.30657 6.48176 8.0758 6.25027C7.61426 5.78729 7.84503 5.09282 8.30657 4.62983L12.2296 1.15747C13.845 -0.462971 16.3835 -0.462971 17.9989 1.15747L21.6912 4.62983C22.1527 5.09282 22.1527 5.78729 21.6912 6.25027C21.4604 6.71325 20.7681 6.94474 20.3066 6.48176L16.3835 2.7779C15.6912 2.08343 14.3066 2.08343 13.6143 2.7779L9.69118 6.48176C9.46041 6.71325 9.22964 6.71325 8.99887 6.71325Z" fill="#17C2E8"/>
<path d="M26.3077 31.7144H3.69231C1.61538 31.7144 0 30.094 0 28.0106V14.8156C0 13.1951 0.692308 11.5747 1.84615 10.6487L4.38462 8.33381C4.84615 7.87083 5.53846 7.87083 6 8.33381C6.46154 8.79679 6.46154 9.49127 6 9.95425L3.46154 12.2692C2.76923 12.9636 2.30769 13.8896 2.30769 14.8156V27.7791C2.30769 28.4735 2.76923 29.168 3.69231 29.168H26.5385C27.2308 29.168 27.9231 28.705 27.9231 27.7791V14.8156C27.9231 13.8896 27.4615 12.7321 26.7692 12.0377L24.4615 9.95425C24 9.49127 24 8.79679 24.4615 8.33381C24.9231 7.87083 25.6154 7.87083 26.0769 8.33381L28.3846 10.4172C29.3077 11.5747 30 13.1951 30 14.8156V27.7791C30 30.094 28.3846 31.7144 26.3077 31.7144Z" fill="#17C2E8"/>
</g>
<defs>
<clipPath id="clip0_1207_1269">
<rect width="30" height="31.7143" fill="white"/>
</clipPath>
</defs>
</svg>
