<svg width="48" height="48" viewBox="0 0 48 48" fill="none" xmlns="http://www.w3.org/2000/svg">
<circle cx="24" cy="24" r="23.5" stroke="white"/>
<g clip-path="url(#clip0_1130_1615)">
<path d="M26.0833 21.1963L33.0579 22.5817C33.62 22.7005 34 23.1755 34 23.7375V31.8125C34 32.4696 33.4696 33 32.8125 33H25.6875C25.9092 33 26.0833 32.8259 26.0833 32.6042V32.2084H32.8125C33.0263 32.2084 33.2083 32.0342 33.2083 31.8125V23.7375C33.2083 23.5555 33.0817 23.3892 32.8996 23.3496L26.0833 22.0038V21.1963Z" fill="white"/>
<path d="M30.4372 25.0835C30.6588 25.0835 30.833 25.2577 30.833 25.4793C30.833 25.701 30.6588 25.8752 30.4372 25.8752H28.8538C28.6322 25.8752 28.458 25.701 28.458 25.4793C28.458 25.2577 28.6322 25.0835 28.8538 25.0835H30.4372Z" fill="white"/>
<path d="M30.4372 27.4585C30.6588 27.4585 30.833 27.6327 30.833 27.8543C30.833 28.076 30.6588 28.2502 30.4372 28.2502H28.8538C28.6322 28.2502 28.458 28.076 28.458 27.8543C28.458 27.6327 28.6322 27.4585 28.8538 27.4585H30.4372Z" fill="white"/>
<path d="M30.4372 29.8335C30.6588 29.8335 30.833 30.0077 30.833 30.2293C30.833 30.451 30.6588 30.6252 30.4372 30.6252H28.8538C28.6322 30.6252 28.458 30.451 28.458 30.2293C28.458 30.0077 28.6322 29.8335 28.8538 29.8335H30.4372Z" fill="white"/>
<path d="M26.0837 32.6043C26.0837 32.826 25.9095 33.0001 25.6878 33.0001C25.4662 33.0001 25.292 32.826 25.292 32.6043V32.2085V21.521C25.292 21.4022 25.3474 21.2914 25.4345 21.2122C25.5295 21.141 25.6482 21.1093 25.767 21.133L26.0837 21.1964V22.0039V32.2085V32.6043Z" fill="white"/>
<path d="M25.2913 32.2083V32.6041C25.2913 32.8258 25.4655 32.9999 25.6872 32.9999H22.5205C22.7422 32.9999 22.9163 32.8258 22.9163 32.6041V32.2083H25.2913Z" fill="white"/>
<path d="M23.3122 17.9583C23.5338 17.9583 23.708 18.1324 23.708 18.3541C23.708 18.5758 23.5338 18.7499 23.3122 18.7499H21.7288C21.5072 18.7499 21.333 18.5758 21.333 18.3541C21.333 18.1324 21.5072 17.9583 21.7288 17.9583H23.3122Z" fill="white"/>
<path d="M23.708 20.7293C23.708 20.951 23.5338 21.1252 23.3122 21.1252H21.7288C21.5072 21.1252 21.333 20.951 21.333 20.7293C21.333 20.5077 21.5072 20.3335 21.7288 20.3335H23.3122C23.5338 20.3335 23.708 20.5077 23.708 20.7293Z" fill="white"/>
<path d="M23.3122 22.7085C23.5338 22.7085 23.708 22.8827 23.708 23.1043C23.708 23.326 23.5338 23.5002 23.3122 23.5002H21.7288C21.5072 23.5002 21.333 23.326 21.333 23.1043C21.333 22.8827 21.5072 22.7085 21.7288 22.7085H23.3122Z" fill="white"/>
<path d="M23.3122 25.0835C23.5338 25.0835 23.708 25.2577 23.708 25.4793C23.708 25.701 23.5338 25.8752 23.3122 25.8752H21.7288C21.5072 25.8752 21.333 25.701 21.333 25.4793C21.333 25.2577 21.5072 25.0835 21.7288 25.0835H23.3122Z" fill="white"/>
<path d="M19.75 25.4793C19.75 25.701 19.5758 25.8752 19.3542 25.8752H17.7708C17.5492 25.8752 17.375 25.701 17.375 25.4793C17.375 25.2577 17.5492 25.0835 17.7708 25.0835H19.3542C19.5758 25.0835 19.75 25.2577 19.75 25.4793Z" fill="white"/>
<path d="M19.3542 17.9583C19.5758 17.9583 19.75 18.1324 19.75 18.3541C19.75 18.5758 19.5758 18.7499 19.3542 18.7499H17.7708C17.5492 18.7499 17.375 18.5758 17.375 18.3541C17.375 18.1324 17.5492 17.9583 17.7708 17.9583H19.3542Z" fill="white"/>
<path d="M19.3542 20.3335C19.5758 20.3335 19.75 20.5077 19.75 20.7293C19.75 20.951 19.5758 21.1252 19.3542 21.1252H17.7708C17.5492 21.1252 17.375 20.951 17.375 20.7293C17.375 20.5077 17.5492 20.3335 17.7708 20.3335H19.3542Z" fill="white"/>
<path d="M19.3542 22.7085C19.5758 22.7085 19.75 22.8827 19.75 23.1043C19.75 23.326 19.5758 23.5002 19.3542 23.5002H17.7708C17.5492 23.5002 17.375 23.326 17.375 23.1043C17.375 22.8827 17.5492 22.7085 17.7708 22.7085H19.3542Z" fill="white"/>
<path d="M22.1253 28.646C22.1253 28.4243 21.9432 28.2502 21.7295 28.2502H19.3545C19.1328 28.2502 18.9587 28.4243 18.9587 28.646V32.2085H18.167V28.646C18.167 27.9889 18.6974 27.4585 19.3545 27.4585H21.7295C22.3866 27.4585 22.917 27.9889 22.917 28.646V32.2085H22.1253V28.646Z" fill="white"/>
<path d="M18.9587 32.2083H22.1253H22.917V32.6041C22.917 32.8258 22.7428 32.9999 22.5212 32.9999H18.5628C18.3412 32.9999 18.167 32.8258 18.167 32.6041V32.2083H18.9587Z" fill="white"/>
<path d="M16.3854 14.1585L25.0858 15.4806C25.6638 15.5756 26.0833 16.0664 26.0833 16.6522V21.1964L25.7667 21.1331C25.6479 21.1093 25.5292 21.141 25.4342 21.2122C25.3471 21.2914 25.2917 21.4022 25.2917 21.521V16.6522C25.2917 16.4543 25.1492 16.2881 24.9592 16.2564L16.2588 14.9422C16.235 14.9343 16.2113 14.9343 16.1875 14.9343C16.0925 14.9343 16.0054 14.966 15.9342 15.0293C15.8392 15.1085 15.7917 15.2114 15.7917 15.3301V31.8126C15.7917 32.0343 15.9738 32.2085 16.1875 32.2085H18.1667V32.6043C18.1667 32.826 18.3408 33.0001 18.5625 33.0001H16.1875C15.5304 33.0001 15 32.4697 15 31.8126V15.3301C15 14.9818 15.1504 14.6493 15.4196 14.4276C15.6888 14.1981 16.0371 14.1031 16.3854 14.1585Z" fill="white"/>
</g>
<defs>
<clipPath id="clip0_1130_1615">
<rect width="19" height="19" fill="white" transform="translate(15 14)"/>
</clipPath>
</defs>
</svg>
