<svg width="36" height="36" viewBox="0 0 36 36" fill="none" xmlns="http://www.w3.org/2000/svg">
<path fill-rule="evenodd" clip-rule="evenodd" d="M18 36C27.9411 36 36 27.9411 36 18C36 8.05887 27.9411 0 18 0C8.05887 0 0 8.05887 0 18C0 27.9411 8.05887 36 18 36ZM19.7779 22.2576C18.3846 21.7389 17.1217 20.9214 16.0779 19.8626C15.0108 18.8578 14.1807 17.6281 13.6479 16.2626L15.1829 14.4176C15.2231 14.3633 15.2448 14.2976 15.2448 14.2301C15.2448 14.1626 15.2231 14.0968 15.1829 14.0426L12.8529 10.5876C12.7719 10.4604 12.6631 10.3532 12.5347 10.274C12.4063 10.1947 12.2617 10.1456 12.1116 10.1302C11.9616 10.1148 11.81 10.1336 11.6682 10.1851C11.5264 10.2366 11.3981 10.3195 11.2929 10.4276L9.59294 12.0676C9.35615 12.291 9.18109 12.5718 9.08473 12.8828C8.98837 13.1938 8.97398 13.5244 9.04294 13.8426C9.74108 17.037 11.3512 19.9602 13.6779 22.2576C16.0575 24.5323 19.029 26.0918 22.2529 26.7576C22.5761 26.8252 22.911 26.8117 23.2277 26.7183C23.5444 26.625 23.8331 26.4547 24.0679 26.2226L25.7079 24.6026C25.8216 24.4971 25.9091 24.3667 25.9637 24.2216C26.0183 24.0764 26.0383 23.9206 26.0223 23.7664C26.0063 23.6122 25.9547 23.4638 25.8715 23.333C25.7883 23.2022 25.6758 23.0925 25.5429 23.0126L22.0429 20.7576C21.9871 20.7191 21.9208 20.6985 21.8529 20.6985C21.7851 20.6985 21.7188 20.7191 21.6629 20.7576L19.7779 22.2576Z" fill="#17D67A"/>
</svg>
