<svg width="14" height="13" viewBox="0 0 14 13" fill="none" xmlns="http://www.w3.org/2000/svg">
<path d="M7.49985 1.36618C4.42599 1.36648 1.85705 3.70546 1.56934 6.7658H13.4304C13.1427 3.70546 10.5737 1.36648 7.49985 1.36618Z" fill="#C1ECEF"/>
<path d="M7.49989 0.362915C6.99362 0.362816 6.58311 0.773161 6.58301 1.27947C6.58291 1.78574 6.99325 2.19625 7.49956 2.19635C8.00583 2.19645 8.41634 1.7861 8.41644 1.2798C8.41644 1.2797 8.41644 1.27957 8.41644 1.27947C8.41654 0.773359 8.00633 0.363014 7.50022 0.362915C7.50012 0.362915 7.50002 0.362915 7.49989 0.362915Z" fill="#7CC5CA"/>
<path d="M3.46034 5.58545C3.93355 4.10949 4.99748 2.89576 6.39878 2.23334H5.66502C4.26484 2.89682 3.2017 4.11022 2.72803 5.58545H3.46034Z" fill="#EBF0F3"/>
<path d="M1.44466 6.40985H13.5554C13.801 6.40985 14 6.60892 14 6.85451C14 7.1001 13.801 7.29917 13.5554 7.29917H1.44466C1.19907 7.29914 1 7.10007 1 6.85451C1 6.60892 1.19907 6.40985 1.44466 6.40985Z" fill="#7CC5CA"/>
<path d="M11.8061 8.90478L8.31079 9.94525L6.55598 9.42348L8.61882 9.091C8.99504 8.98284 9.21238 8.5902 9.10422 8.21397C9.08319 8.14076 9.05049 8.07143 9.00737 8.00864L4.83803 8.38971L2.62451 9.63723L3.5166 11.8822L8.26352 11.5305L13.3034 9.48427C13.0168 8.94675 12.3798 8.7002 11.8061 8.90478Z" fill="#FFD0A5"/>
<path d="M0.998535 9.79779L2.92202 9.23477L3.75436 12.0784L1.83088 12.6414L0.998535 9.79779Z" fill="#3A556A"/>
</svg>
