<svg width="22" height="22" viewBox="0 0 22 22" fill="none" xmlns="http://www.w3.org/2000/svg">
<path d="M14.6934 14.1091C14.1721 14.1091 13.748 13.7421 13.748 13.2909C13.748 12.8398 14.1721 12.4727 14.6934 12.4727C15.2146 12.4727 15.6387 12.8398 15.6387 13.2909C15.6387 13.5282 15.8311 13.7206 16.0684 13.7206C16.3056 13.7206 16.498 13.5282 16.498 13.2909C16.498 12.5035 15.9113 11.8415 15.123 11.6618V11.4383C15.123 11.201 14.9306 11.0086 14.6934 11.0086C14.4561 11.0086 14.2637 11.201 14.2637 11.4383V11.6618C13.4754 11.8415 12.8887 12.5035 12.8887 13.2909C12.8887 14.2159 13.6982 14.9685 14.6934 14.9685C15.2146 14.9685 15.6387 15.3355 15.6387 15.7867C15.6387 16.2379 15.2146 16.6049 14.6934 16.6049C14.1721 16.6049 13.748 16.2379 13.748 15.7867C13.748 15.5494 13.5556 15.357 13.3184 15.357C13.0811 15.357 12.8887 15.5494 12.8887 15.7867C12.8887 16.5741 13.4754 17.2361 14.2637 17.4158V17.6015C14.2637 17.8387 14.4561 18.0311 14.6934 18.0311C14.9306 18.0311 15.123 17.8387 15.123 17.6015V17.4158C15.9113 17.2361 16.498 16.5741 16.498 15.7867C16.498 14.8616 15.6885 14.1091 14.6934 14.1091Z" fill="#17C2E8"/>
<path d="M19.3997 11.5532C18.8384 10.6786 18.0476 9.97873 17.1128 9.52936C16.8989 9.4265 16.6421 9.51656 16.5394 9.73046C16.4365 9.94436 16.5266 10.2011 16.7404 10.3039C18.3694 11.0869 19.422 12.7601 19.422 14.5664C19.422 15.3393 19.2314 16.1058 18.871 16.7832C18.7596 16.9927 18.839 17.2529 19.0486 17.3644C19.1128 17.3986 19.1819 17.4148 19.25 17.4148C19.4037 17.4148 19.5524 17.332 19.6297 17.1869C20.056 16.3857 20.2813 15.4796 20.2813 14.5664C20.2813 13.4939 19.9765 12.452 19.3997 11.5532Z" fill="#17C2E8"/>
<path d="M15.3688 8.98057L15.3398 8.98053C15.1026 8.98053 14.9102 9.1729 14.9102 9.41022C14.9102 9.64753 15.1026 9.8399 15.3398 9.8399L15.3647 9.83995C15.3654 9.83995 15.3661 9.83995 15.3668 9.83995C15.6032 9.83995 15.7953 9.64891 15.7964 9.41228C15.7975 9.17496 15.606 8.98169 15.3688 8.98057Z" fill="#17C2E8"/>
<path d="M12.6505 18.8289C11.0215 18.0458 9.96899 16.3727 9.96899 14.5664C9.96899 13.7935 10.1595 13.027 10.5199 12.3496C10.6314 12.1401 10.5519 11.8799 10.3424 11.7685C10.133 11.657 9.87266 11.7364 9.76124 11.946C9.33495 12.7471 9.10962 13.6532 9.10962 14.5664C9.10962 15.6389 9.41448 16.6808 9.99125 17.5796C10.5526 18.4542 11.3433 19.1541 12.2781 19.6035C12.3382 19.6324 12.4016 19.646 12.464 19.646C12.624 19.646 12.7776 19.5562 12.8516 19.4024C12.9543 19.1885 12.8644 18.9318 12.6505 18.8289Z" fill="#17C2E8"/>
<path d="M14.051 19.293L14.0261 19.2929C13.7877 19.2925 13.5956 19.4832 13.5945 19.7206C13.5934 19.9579 13.7849 20.1512 14.0222 20.1523L14.051 20.1524C14.2883 20.1524 14.4807 19.96 14.4807 19.7227C14.4807 19.4854 14.2883 19.293 14.051 19.293Z" fill="#17C2E8"/>
<path d="M16.6464 7.52674C16.5942 7.40213 16.5301 7.28469 16.4555 7.17577H17.5742C18.664 7.17577 19.5507 6.28907 19.5507 5.19921C19.5507 4.10935 18.664 3.22265 17.5742 3.22265H14.1333C14.352 2.9046 14.4804 2.51981 14.4804 2.10546C14.4804 1.01561 13.5937 0.128906 12.5039 0.128906H1.97656C0.886701 0.128906 0 1.01561 0 2.10546C0 3.19532 0.886701 4.08202 1.97656 4.08202H5.41749C5.19874 4.40008 5.0703 4.78486 5.0703 5.19921C5.0703 5.61356 5.19869 5.99834 5.41749 6.31639H4.29687C3.20701 6.31639 2.32031 7.2031 2.32031 8.29295C2.32031 8.91888 2.6131 9.47743 3.06861 9.83983C2.6131 10.2022 2.32031 10.7608 2.32031 11.3867C2.32031 12.0126 2.6131 12.5712 3.06861 12.9336C2.6131 13.296 2.32031 13.8545 2.32031 14.4804C2.32031 15.1064 2.6131 15.6649 3.06861 16.0273C2.6131 16.3897 2.32031 16.9483 2.32031 17.5742C2.32031 18.664 3.20701 19.5507 4.29687 19.5507H9.36072C10.6947 20.9776 12.5925 21.8711 14.6953 21.8711C18.7231 21.8711 22 18.5942 22 14.5664C22 11.2141 19.73 8.38246 16.6464 7.52674ZM17.5742 4.08202C18.1902 4.08202 18.6914 4.58321 18.6914 5.19921C18.6914 5.81521 18.1902 6.31639 17.5742 6.31639H14.8242H7.04686C6.43082 6.31639 5.92968 5.81521 5.92968 5.19921C5.92968 4.58321 6.43082 4.08202 7.04686 4.08202H17.5742ZM1.97656 3.22265C1.36052 3.22265 0.859373 2.72146 0.859373 2.10546C0.859373 1.48947 1.36052 0.98828 1.97656 0.98828H12.5039C13.1199 0.98828 13.6211 1.48947 13.6211 2.10546C13.6211 2.72146 13.1199 3.22265 12.5039 3.22265H1.97656ZM4.29687 7.17577H14.8242C14.9973 7.17577 15.163 7.21599 15.3117 7.288C15.1084 7.27094 14.903 7.26175 14.6953 7.26175C12.6782 7.26175 10.8494 8.0837 9.52624 9.41014H4.29687C3.68087 9.41014 3.17968 8.90895 3.17968 8.29295C3.17968 7.67695 3.68087 7.17577 4.29687 7.17577ZM4.29687 10.2695H8.79203C8.30425 10.9378 7.92712 11.6916 7.68761 12.5039H4.29687C3.68082 12.5039 3.17968 12.0027 3.17968 11.3867C3.17968 10.7707 3.68082 10.2695 4.29687 10.2695ZM4.29687 13.3633H7.4903C7.42512 13.7548 7.39065 14.1566 7.39065 14.5664C7.39065 14.9164 7.41596 15.2606 7.46379 15.5976H4.29687C3.68082 15.5976 3.17968 15.0965 3.17968 14.4804C3.17968 13.8644 3.68082 13.3633 4.29687 13.3633ZM4.29687 18.6914C3.68082 18.6914 3.17968 18.1902 3.17968 17.5742C3.17968 16.9581 3.68082 16.457 4.29687 16.457H7.63923C7.85605 17.2654 8.20826 18.0187 8.67018 18.6914H4.29687ZM14.6953 21.0117C11.1414 21.0117 8.25003 18.1204 8.25003 14.5664C8.25003 11.0125 11.1414 8.12112 14.6953 8.12112C18.2493 8.12112 21.1406 11.0125 21.1406 14.5664C21.1406 18.1204 18.2493 21.0117 14.6953 21.0117Z" fill="#17C2E8"/>
</svg>
