<svg width="17" height="17" viewBox="0 0 17 17" fill="none" xmlns="http://www.w3.org/2000/svg">
<path d="M9.20684 0C8.90842 0 8.61497 0.0222133 8.32562 0.0613789C8.02398 0.0210442 7.73725 0 7.45316 0C5.30139 0 3.36094 1.04373 1.9992 2.70769C1.98546 2.71996 1.97553 2.73458 1.96442 2.74919C1.53038 3.2867 1.15743 3.8885 0.855798 4.5397C0.848199 4.55403 0.841476 4.56806 0.835923 4.58355C0.628111 5.03863 0.454789 5.5168 0.321509 6.01484C0.308356 6.0429 0.302511 6.07359 0.298711 6.10545C0.105513 6.85837 0 7.65337 0 8.47614C0 9.76334 0.254869 10.9836 0.708196 12.0773C0.712288 12.089 0.716088 12.1001 0.721641 12.1112C0.993462 12.7595 1.33543 13.3622 1.73673 13.9073C1.74696 13.9213 1.75544 13.9362 1.76801 13.9482C2.17428 14.4933 2.63988 14.9788 3.15342 15.3927C3.16803 15.4087 3.18557 15.4207 3.20369 15.4333C4.40993 16.3896 5.87455 16.9523 7.45316 16.9523C7.73725 16.9523 8.02398 16.9312 8.32562 16.8909C8.61497 16.9301 8.90842 16.9523 9.20684 16.9523C13.3166 16.9523 16.66 13.15 16.66 8.47614C16.66 3.80228 13.3166 0 9.20684 0ZM6.12036 0.764022C6.02361 0.814294 5.92804 0.866905 5.83363 0.921561C5.78073 0.952251 5.72753 0.981771 5.67551 1.01392C5.59454 1.06361 5.51534 1.11622 5.43642 1.16912H4.87378C5.30109 0.969203 5.74712 0.811663 6.21213 0.713749C6.18086 0.72924 6.15134 0.747946 6.12036 0.764022ZM3.17417 13.4449H2.12605C1.86826 13.0807 1.6394 12.6894 1.44065 12.2758H2.54781C2.5937 12.3793 2.64076 12.4818 2.69015 12.583C2.71149 12.6265 2.7337 12.6695 2.75591 12.7127C2.81583 12.8302 2.8778 12.9457 2.94239 13.0594C2.96636 13.1018 2.98945 13.1447 3.01429 13.1868C3.06573 13.2742 3.1198 13.3596 3.17417 13.4449ZM1.30591 4.96877H2.42447C2.37332 5.0965 2.3248 5.22569 2.27891 5.35663C2.26634 5.39287 2.25348 5.42882 2.24121 5.46506C2.19912 5.59075 2.15995 5.7176 2.12283 5.84561H0.981186C1.07413 5.54427 1.18286 5.25199 1.30591 4.96877ZM0.584561 8.47614C0.584561 8.27914 0.595084 8.08507 0.607359 7.89158H1.77268C1.77239 7.89626 1.77239 7.90093 1.7721 7.90561C1.76128 8.09442 1.75368 8.28411 1.75368 8.47614C1.75368 8.57405 1.75719 8.67109 1.76011 8.76842H0.59596C0.592745 8.6708 0.584561 8.57464 0.584561 8.47614ZM1.79343 9.35298C1.80454 9.47603 1.81886 9.59821 1.83465 9.7198C1.83582 9.72856 1.8364 9.73762 1.83757 9.74668C1.8592 9.90919 1.8855 10.0702 1.91502 10.2298H0.762268C0.705273 9.9428 0.660262 9.65082 0.631326 9.35298H1.79343ZM1.97465 6.43018C1.96705 6.46466 1.96062 6.49974 1.9536 6.53423C1.94571 6.57281 1.93753 6.6111 1.92993 6.64968C1.89427 6.83294 1.8627 7.01795 1.83786 7.2056C1.83669 7.21436 1.83611 7.22343 1.83494 7.23249C1.83143 7.25733 1.82938 7.28217 1.82617 7.30702H0.666108C0.704689 7.00948 0.7535 6.71603 0.820432 6.43018H1.97465ZM2.0445 10.8144C2.05356 10.85 2.06204 10.8863 2.07139 10.9217C2.0749 10.9345 2.07782 10.948 2.08133 10.9608C2.12956 11.1388 2.18363 11.3139 2.2415 11.4869C2.25378 11.5235 2.26664 11.5591 2.27921 11.5954C2.29002 11.6275 2.30083 11.6597 2.31223 11.6912H1.18608C1.0753 11.4074 0.980017 11.1146 0.898763 10.8144H2.0445ZM3.014 3.76574C2.98945 3.80754 2.96606 3.8508 2.9421 3.89318C2.8775 4.00688 2.81525 4.12262 2.75562 4.23982C2.7337 4.28308 2.7112 4.32575 2.68986 4.3696C2.68752 4.37427 2.68489 4.37924 2.68255 4.38421H1.58679C1.80805 3.96713 2.06292 3.57693 2.34555 3.21509H3.36941C3.33375 3.26624 3.2978 3.31709 3.26302 3.36912C3.1768 3.4986 3.09379 3.63071 3.014 3.76574ZM3.86746 1.75368H4.67474C4.60225 1.81711 4.52977 1.88083 4.45933 1.94717C4.40058 2.00271 4.34358 2.06029 4.2863 2.11787C4.22842 2.17603 4.17114 2.23507 4.11502 2.29499C4.06095 2.35257 4.00688 2.40985 3.95427 2.46919C3.9075 2.5218 3.86278 2.57645 3.81748 2.63053H2.85237C3.16628 2.30405 3.50503 2.00972 3.86746 1.75368ZM2.57909 14.0295H3.58219C3.61522 14.0727 3.64796 14.116 3.68186 14.1584C3.77013 14.2694 3.86103 14.3776 3.95427 14.4831C4.00658 14.5424 4.06095 14.5997 4.11502 14.6573C4.17143 14.7175 4.22872 14.7765 4.28688 14.8347C4.31026 14.8581 4.33248 14.8832 4.35615 14.9063H3.47697C3.15575 14.6436 2.85558 14.3501 2.57909 14.0295ZM6.21184 16.2385C5.54164 16.0974 4.90827 15.8384 4.32079 15.4909H5.02781C5.06522 15.5198 5.10381 15.547 5.14151 15.5751C5.20201 15.6201 5.26251 15.6654 5.32419 15.7083C5.43905 15.7884 5.55626 15.8653 5.67521 15.9384C5.72724 15.9702 5.78044 16 5.83334 16.0307C5.92775 16.0854 6.02332 16.138 6.12007 16.1883C6.15134 16.2043 6.18086 16.223 6.21184 16.2385ZM9.20684 16.3677C8.97448 16.3677 8.74504 16.354 8.51881 16.328L8.4057 16.3122C8.38992 16.3101 8.37443 16.3075 8.35894 16.3055C8.25781 16.2911 8.15755 16.2745 8.05818 16.2552C8.0497 16.2534 8.04152 16.2517 8.03334 16.2499C7.93659 16.2309 7.84072 16.2096 7.74573 16.1859C7.73141 16.1824 7.71709 16.1783 7.70277 16.1745C7.6142 16.1517 7.52594 16.1278 7.43884 16.1012C7.41224 16.093 7.38564 16.0836 7.35904 16.0751C7.28451 16.0515 7.21027 16.0272 7.13691 16.0006C7.07728 15.979 7.01854 15.955 6.95979 15.9316C6.91975 15.9159 6.87912 15.9009 6.83966 15.8843C5.26807 15.2193 3.96479 13.912 3.17183 12.2407C3.16452 12.2255 3.1578 12.2094 3.15079 12.1942C3.10841 12.1033 3.06719 12.0116 3.02774 11.9186C3.01195 11.8815 2.99734 11.8438 2.98214 11.8064C2.95262 11.7339 2.92339 11.6611 2.89592 11.5875C2.87809 11.5401 2.86143 11.4919 2.84448 11.444C2.82139 11.3791 2.79859 11.3139 2.77725 11.2481C2.75971 11.1944 2.74305 11.14 2.72639 11.0859C2.7074 11.0242 2.68898 10.9623 2.67145 10.9C2.65508 10.843 2.63959 10.7852 2.62468 10.7276C2.6089 10.6665 2.5937 10.6048 2.57909 10.5431C2.56506 10.4841 2.55161 10.4251 2.53875 10.3654C2.52531 10.3032 2.51303 10.2406 2.50105 10.1778C2.48965 10.1179 2.47825 10.058 2.46773 9.99746C2.45662 9.93287 2.44697 9.86798 2.43733 9.8028C2.42856 9.74376 2.4195 9.68501 2.4119 9.62539C2.40284 9.55524 2.39582 9.48422 2.38852 9.41348C2.38267 9.35824 2.37624 9.30329 2.37157 9.24776C2.36455 9.16651 2.35987 9.08467 2.3552 9.00254C2.35257 8.95636 2.34877 8.91076 2.34672 8.86458C2.34146 8.73598 2.33825 8.6065 2.33825 8.47614C2.33825 8.34578 2.34146 8.2163 2.34672 8.08741C2.34877 8.04123 2.35257 7.99534 2.3552 7.94945C2.35987 7.86761 2.36455 7.78548 2.37157 7.70423C2.37624 7.64869 2.38267 7.59374 2.38852 7.5385C2.39582 7.46777 2.40313 7.39704 2.4119 7.3266C2.4195 7.26727 2.42856 7.20823 2.43733 7.14919C2.44697 7.08401 2.45662 7.01912 2.46773 6.95453C2.47796 6.89403 2.48935 6.83411 2.50105 6.77419C2.51303 6.71135 2.5256 6.6488 2.53875 6.58655C2.55161 6.52692 2.56506 6.46788 2.57909 6.40884C2.5937 6.34717 2.6089 6.2855 2.62468 6.22441C2.63959 6.16654 2.65508 6.10896 2.67115 6.05167C2.68869 5.98942 2.7071 5.92745 2.7261 5.86578C2.74276 5.81142 2.75942 5.75735 2.77696 5.70357C2.79859 5.6378 2.82139 5.57262 2.84448 5.50745C2.86143 5.45951 2.87809 5.41158 2.89592 5.36423C2.92368 5.29057 2.95262 5.2178 2.98214 5.14531C2.99734 5.1079 3.01195 5.07019 3.02774 5.03307C3.06719 4.94013 3.10841 4.84835 3.15079 4.75745C3.15809 4.74196 3.16452 4.72618 3.17183 4.71098C3.96479 3.03972 5.26807 1.73264 6.83966 1.06741C6.87941 1.05075 6.91975 1.03584 6.95979 1.02006C7.01854 0.996677 7.07728 0.97271 7.13691 0.951081C7.21027 0.924484 7.28451 0.900517 7.35904 0.87655C7.38564 0.868074 7.41195 0.858721 7.43884 0.850537C7.52594 0.823939 7.6142 0.79968 7.70277 0.777174C7.7168 0.773959 7.73112 0.769575 7.74544 0.766068C7.84043 0.742393 7.9363 0.721349 8.03304 0.702058C8.04152 0.700305 8.0497 0.698551 8.05789 0.696797C8.15726 0.677507 8.25751 0.660847 8.35864 0.646525C8.37413 0.644187 8.38992 0.641848 8.40541 0.639802L8.51852 0.624019C8.74504 0.598299 8.97448 0.584561 9.20684 0.584561C12.9942 0.584561 16.0754 4.12467 16.0754 8.47614C16.0754 12.8276 12.9942 16.3677 9.20684 16.3677Z" fill="white"/>
<path d="M3.99472 8.47581C3.99472 8.29196 4.00202 8.10724 4.01635 7.92661C4.02891 7.76586 3.90908 7.62498 3.74803 7.61212C3.5864 7.60043 3.4464 7.71968 3.43354 7.88043C3.41805 8.07597 3.41016 8.27647 3.41016 8.47581V8.48195C3.41016 8.64329 3.5411 8.77101 3.70244 8.77101C3.86378 8.77101 3.99472 8.63715 3.99472 8.47581Z" fill="white"/>
<path d="M14.2149 6.80789C14.2482 6.94058 14.3672 7.02885 14.4981 7.02885C14.5218 7.02885 14.5457 7.02593 14.5697 7.02008C14.7261 6.98062 14.8211 6.82192 14.7819 6.66525C14.7328 6.47001 14.6752 6.27535 14.6103 6.08654C14.558 5.93397 14.392 5.85184 14.2391 5.90474C14.0866 5.95706 14.005 6.12337 14.0573 6.27594C14.1167 6.44926 14.1696 6.62843 14.2149 6.80789Z" fill="white"/>
<path d="M13.0127 12.5737C12.8958 12.7175 12.7721 12.8552 12.6453 12.9835C12.5316 13.0981 12.5325 13.2831 12.647 13.3968C12.704 13.4532 12.7786 13.4816 12.8528 13.4816C12.9279 13.4816 13.0033 13.4526 13.0603 13.395C13.2009 13.2533 13.3374 13.101 13.4663 12.9426C13.5683 12.8172 13.549 12.6331 13.4239 12.5314C13.2988 12.4294 13.1147 12.4486 13.0127 12.5737Z" fill="white"/>
<path d="M4.19563 10.1341C4.15676 9.97739 3.99746 9.88153 3.84138 9.92098C3.68472 9.95986 3.58944 10.1186 3.62831 10.2752C3.67683 10.4702 3.73412 10.6651 3.79871 10.8545C3.84022 10.9761 3.95362 11.0527 4.07521 11.0527C4.10648 11.0527 4.13834 11.0474 4.16962 11.0369C4.32219 10.9849 4.40402 10.8189 4.352 10.666C4.29296 10.4924 4.24035 10.3132 4.19563 10.1341Z" fill="white"/>
<path d="M12.0879 2.76209C11.9172 2.65073 11.7389 2.54814 11.5583 2.45724C11.4139 2.38417 11.2385 2.44292 11.1657 2.58643C11.0929 2.73053 11.1508 2.90648 11.2949 2.97897C11.4565 3.06051 11.6158 3.15229 11.7687 3.25196C11.8178 3.28411 11.8733 3.2993 11.928 3.2993C12.0236 3.2993 12.1171 3.25254 12.1732 3.16661C12.2612 3.03158 12.2232 2.85036 12.0879 2.76209Z" fill="white"/>
<path d="M11.3266 13.9562C11.1641 14.0395 10.9963 14.1141 10.828 14.1775C10.6769 14.2342 10.6006 14.4028 10.6576 14.5539C10.7017 14.6711 10.8128 14.7433 10.9311 14.7433C10.9653 14.7433 11.0001 14.7372 11.0343 14.7243C11.2234 14.653 11.4117 14.5697 11.5937 14.4762C11.7373 14.4025 11.7942 14.2263 11.7203 14.0828C11.6464 13.9393 11.4701 13.8823 11.3266 13.9562Z" fill="white"/>
<path d="M13.8041 4.46563C13.6904 4.29757 13.5682 4.13419 13.4408 3.97957C13.3382 3.85506 13.1538 3.83694 13.0293 3.93982C12.9047 4.04241 12.8869 4.22655 12.9895 4.35135C13.1052 4.49194 13.2163 4.64071 13.3198 4.79328C13.3762 4.87687 13.4683 4.92159 13.5621 4.92159C13.6185 4.92159 13.6755 4.90523 13.7258 4.87132C13.8596 4.78071 13.8947 4.59921 13.8041 4.46563Z" fill="white"/>
<path d="M14.7114 8.17578C14.55 8.17578 14.4191 8.31608 14.4191 8.47741C14.4191 8.65658 14.4121 8.8375 14.3983 9.01463C14.386 9.17567 14.5062 9.31626 14.6672 9.32854C14.6748 9.32912 14.6824 9.32941 14.69 9.32941C14.8411 9.32941 14.9694 9.21309 14.9811 9.05964C14.996 8.86732 15.0036 8.67149 15.0036 8.47712V8.45812C15.0036 8.29708 14.873 8.17578 14.7114 8.17578Z" fill="white"/>
<path d="M14.4389 10.4577C14.2857 10.4063 14.1203 10.4887 14.0686 10.6415C14.0095 10.8166 13.9426 10.9905 13.8695 11.1586C13.8052 11.3065 13.8728 11.4789 14.0209 11.5432C14.0589 11.5599 14.0987 11.5675 14.1376 11.5675C14.2504 11.5675 14.3576 11.5017 14.4056 11.3918C14.4854 11.2086 14.5584 11.0186 14.6227 10.8277C14.6745 10.6749 14.5921 10.5091 14.4389 10.4577Z" fill="white"/>
<path d="M9.80599 1.92834C9.60783 1.90525 9.40645 1.89355 9.20711 1.89355H9.19483C9.0335 1.89355 8.90869 2.0245 8.90869 2.18584C8.90869 2.34717 9.04577 2.47812 9.20711 2.47812C9.38394 2.47812 9.56282 2.48835 9.73877 2.50881C9.75017 2.51027 9.76157 2.51085 9.77297 2.51085C9.91911 2.51085 10.0457 2.40125 10.0629 2.25218C10.0813 2.09172 9.96646 1.94675 9.80599 1.92834Z" fill="white"/>
<path d="M5.08637 12.1495C4.99606 12.0154 4.81426 11.9803 4.68069 12.0706C4.54682 12.1609 4.51146 12.3424 4.60177 12.4763C4.71518 12.6443 4.83706 12.808 4.96391 12.9629C5.02178 13.0334 5.10567 13.0699 5.19013 13.0699C5.25531 13.0699 5.32108 13.0483 5.37544 13.0036C5.50024 12.901 5.51837 12.7171 5.41607 12.592C5.30062 12.4517 5.18955 12.3027 5.08637 12.1495Z" fill="white"/>
<path d="M4.39759 5.39649C4.24941 5.33219 4.07754 5.39912 4.01266 5.54731C3.93228 5.73115 3.85892 5.92084 3.79432 6.11083C3.74259 6.26369 3.82443 6.4297 3.97729 6.48173C4.00827 6.49225 4.04013 6.49722 4.07111 6.49722C4.193 6.49722 4.30669 6.42035 4.3479 6.29876C4.40695 6.12427 4.47446 5.95036 4.54812 5.78143C4.6133 5.63353 4.54578 5.46109 4.39759 5.39649Z" fill="white"/>
<path d="M9.20656 14.4743C9.02476 14.4743 8.84209 14.4635 8.66351 14.4421C8.50421 14.4252 8.35778 14.5374 8.33849 14.6979C8.31949 14.858 8.43377 15.0036 8.59424 15.0229C8.79591 15.0468 9.00226 15.0591 9.20686 15.0591H9.23199C9.39333 15.0591 9.5117 14.9282 9.5117 14.7668C9.5117 14.6055 9.3679 14.4743 9.20656 14.4743Z" fill="white"/>
<path d="M5.36222 3.54788C5.22164 3.68964 5.08456 3.84133 4.95566 3.99946C4.85336 4.12455 4.87207 4.30869 4.99716 4.4107C5.05153 4.45512 5.117 4.47675 5.18189 4.47675C5.26665 4.47675 5.35053 4.44022 5.4084 4.36948C5.52561 4.22597 5.64953 4.08831 5.77697 3.96029C5.89067 3.84572 5.89008 3.6607 5.7758 3.54671C5.66123 3.43302 5.4765 3.43389 5.36222 3.54788Z" fill="white"/>
<path d="M7.39156 2.22182C7.20216 2.29284 7.01364 2.37585 6.83155 2.4688C6.68775 2.54187 6.63046 2.71811 6.70382 2.86192C6.75527 2.96334 6.85786 3.0215 6.96454 3.0215C7.00926 3.0215 7.05456 3.01127 7.09694 2.98964C7.25945 2.90693 7.42751 2.83269 7.59616 2.76955C7.74727 2.71285 7.82414 2.5445 7.76743 2.39339C7.71132 2.2417 7.54238 2.16512 7.39156 2.22182Z" fill="white"/>
<path d="M7.10833 13.9673C6.94757 13.8857 6.78828 13.7934 6.63512 13.6931C6.4998 13.6049 6.31917 13.6429 6.23032 13.7776C6.14205 13.9126 6.17975 14.0939 6.31479 14.1821C6.48577 14.2941 6.66377 14.3972 6.84352 14.4884C6.8859 14.5101 6.9312 14.52 6.97563 14.52C7.08231 14.52 7.1849 14.4615 7.23664 14.3601C7.30971 14.2163 7.25213 14.0404 7.10833 13.9673Z" fill="white"/>
</svg>
