<svg width="22" height="22" viewBox="0 0 22 22" fill="none" xmlns="http://www.w3.org/2000/svg">
<g clip-path="url(#clip0)">
<path d="M16.7259 14.5534C16.0071 13.8439 15.1098 13.8439 14.3957 14.5534C13.8509 15.0937 13.3061 15.6339 12.7705 16.1832C12.624 16.3343 12.5004 16.3663 12.3218 16.2656C11.9693 16.0733 11.5939 15.9177 11.2552 15.7071C9.67575 14.7137 8.35271 13.4364 7.18075 11.9989C6.59934 11.2848 6.08203 10.5202 5.72037 9.65958C5.64712 9.48561 5.66085 9.37116 5.80277 9.22925C6.34755 8.70278 6.8786 8.16257 7.41422 7.62237C8.16044 6.87158 8.16044 5.99261 7.40965 5.23724C6.98389 4.80691 6.55814 4.38573 6.13238 3.9554C5.6929 3.51591 5.25799 3.07185 4.81392 2.63694C4.09518 1.9365 3.19789 1.9365 2.48373 2.64151C1.93437 3.18172 1.4079 3.73565 0.849382 4.2667C0.332069 4.75655 0.0711235 5.35626 0.0161876 6.0567C-0.0707943 7.19662 0.208463 8.27245 0.602171 9.32081C1.4079 11.4908 2.6348 13.4181 4.12265 15.1852C6.13239 17.5749 8.53125 19.4656 11.3376 20.8299C12.6011 21.4433 13.9104 21.9149 15.3341 21.9927C16.3138 22.0476 17.1653 21.8004 17.8475 21.0359C18.3144 20.514 18.8409 20.0379 19.3353 19.5389C20.0678 18.7972 20.0724 17.9 19.3445 17.1675C18.4747 16.2931 17.6003 15.4233 16.7259 14.5534Z" fill="#17D67A"/>
<path d="M15.8515 10.9048L17.5407 10.6164C17.2752 9.06445 16.5427 7.65901 15.4303 6.54198C14.2537 5.36543 12.7659 4.6238 11.127 4.3949L10.8889 6.09333C12.157 6.27187 13.3107 6.84412 14.2217 7.75514C15.0824 8.61581 15.6455 9.70537 15.8515 10.9048Z" fill="#17D67A"/>
<path d="M18.493 3.56168C16.5428 1.61145 14.0752 0.379973 11.3513 0L11.1133 1.69844C13.4664 2.02805 15.5997 3.09472 17.2844 4.77485C18.8821 6.37257 19.9305 8.39146 20.3105 10.6118L21.9997 10.3234C21.5557 7.75054 20.3425 5.41577 18.493 3.56168Z" fill="#17D67A"/>
</g>
<defs>
<clipPath id="clip0">
<rect width="22" height="22" fill="white"/>
</clipPath>
</defs>
</svg>
