<svg width="18" height="18" viewBox="0 0 18 18" fill="none" xmlns="http://www.w3.org/2000/svg">
<path d="M4.76816 8.10197L6.55576 9.04176C7.33438 9.45118 8.24801 8.79055 8.0988 7.9207L7.75741 5.93016C7.75692 5.92731 7.75786 5.92443 7.7599 5.92243L9.20611 4.51271C9.83707 3.89765 9.4884 2.82542 8.61675 2.69874L6.61813 2.40833C6.61528 2.40791 6.61282 2.40615 6.61156 2.40355L5.71776 0.592535C5.32778 -0.197688 4.20025 -0.197336 3.81044 0.592535L2.91664 2.40355C2.91538 2.40612 2.91292 2.40791 2.91007 2.40833L0.911483 2.69874C0.0394462 2.82545 -0.308693 3.89786 0.32205 4.51271L1.76826 5.92239C1.77033 5.92443 1.77128 5.92731 1.77079 5.93016L1.4294 7.9207C1.28047 8.7889 2.19259 9.45174 2.97244 9.04176L4.76004 8.10197C4.76257 8.10064 4.76559 8.10064 4.76816 8.10197ZM2.48163 8.1082C2.47934 8.10939 2.47779 8.10999 2.47744 8.11027C2.47428 8.10932 2.46925 8.10567 2.46837 8.10479C2.46837 8.10479 2.46823 8.10299 2.4689 8.09895L2.81029 6.10845C2.8695 5.7634 2.75516 5.41154 2.50444 5.16712L1.05823 3.75744C1.05637 3.75564 1.05532 3.75434 1.055 3.75413C1.05493 3.75079 1.05686 3.74488 1.05739 3.74379C1.05739 3.74379 1.05904 3.74309 1.06309 3.74249L3.06167 3.45208C3.40816 3.40174 3.70746 3.18425 3.86241 2.87032L4.75621 1.05926C4.75737 1.05694 4.75825 1.05557 4.75835 1.05515C4.76148 1.05403 4.76774 1.0541 4.7689 1.05427C4.7689 1.05427 4.77006 1.05561 4.77189 1.0593L5.66569 2.87032C5.82063 3.18425 6.11994 3.40174 6.46639 3.45208L8.46501 3.74249C8.4675 3.74284 8.46909 3.74327 8.46954 3.74327C8.47158 3.7459 8.47348 3.75185 8.47366 3.75304C8.47366 3.75304 8.47274 3.75459 8.46982 3.75744L7.02358 5.16715C6.7729 5.41154 6.65856 5.76344 6.71777 6.10845L7.05916 8.09899C7.05962 8.10152 7.05969 8.10317 7.05986 8.10356C7.05796 8.1063 7.05294 8.10995 7.05185 8.11048C7.05185 8.11048 7.05009 8.1101 7.04647 8.1082L5.25887 7.16841C4.94898 7.00549 4.57901 7.00549 4.26912 7.16841L2.48163 8.1082Z" fill="white"/>
<path d="M17.2525 5.50767L16.0641 5.33497L15.5327 4.25814C15.213 3.61045 14.2888 3.61069 13.9693 4.25814L13.4379 5.33497L12.2495 5.50767C11.5348 5.6115 11.2494 6.49053 11.7664 6.99449L12.6263 7.83271L12.4233 9.01629C12.3012 9.72814 13.0491 10.2712 13.6881 9.93519L14.751 9.37638L15.8139 9.93519C16.4532 10.2713 17.2005 9.72705 17.0786 9.01629L16.8756 7.83271L17.7355 6.99449C18.2527 6.49035 17.967 5.61146 17.2525 5.50767ZM16.0705 7.14462C15.8651 7.34492 15.7714 7.63333 15.8199 7.91614L15.9764 8.82903L15.1566 8.39802C14.9026 8.26453 14.5994 8.26449 14.3453 8.39802L13.5255 8.82903L13.6821 7.91618C13.7306 7.63336 13.6369 7.34495 13.4314 7.14462L12.7681 6.49812L13.6847 6.36494C13.9687 6.3237 14.2141 6.14545 14.3411 5.88812L14.751 5.05757L15.1609 5.88816C15.2879 6.14548 15.5332 6.32374 15.8172 6.36498L16.7338 6.49816L16.0705 7.14462Z" fill="white"/>
<path d="M12.4268 12.1438L10.6807 11.8901L9.89979 10.3078C9.532 9.56261 8.46863 9.56289 8.10097 10.3078L7.3201 11.8901L5.57392 12.1438C4.75149 12.2634 4.42325 13.2748 5.0181 13.8546L6.28163 15.0863L5.98334 16.8254C5.84285 17.6445 6.70328 18.2692 7.43859 17.8827L9.0004 17.0616L10.5622 17.8827C11.2965 18.2688 12.1582 17.6458 12.0175 16.8254L11.7192 15.0863L12.9827 13.8546C13.5778 13.2745 13.249 12.2634 12.4268 12.1438ZM10.9635 14.35C10.727 14.5804 10.6192 14.9123 10.675 15.2377L10.9602 16.9003L9.46713 16.1154C9.17489 15.9618 8.82591 15.9618 8.53367 16.1154L7.04059 16.9003L7.32576 15.2378C7.3816 14.9123 7.27377 14.5804 7.03732 14.35L5.82938 13.1725L7.49871 12.93C7.82544 12.8825 8.10776 12.6774 8.25391 12.3813L9.00044 10.8686L9.74699 12.3813C9.89314 12.6774 10.1754 12.8825 10.5022 12.93L12.1715 13.1725L10.9635 14.35Z" fill="white"/>
</svg>
