<svg width="64" height="64" viewBox="0 0 64 64" fill="none" xmlns="http://www.w3.org/2000/svg">
<circle cx="32" cy="32" r="31" stroke="#17C2E8" stroke-width="2"/>
<path d="M31.9994 36.1141C30.3994 36.1141 29.028 35.4284 27.8852 34.5141C26.9709 33.3713 26.2852 31.9999 26.2852 30.3999V26.7427C26.2852 26.057 26.7423 25.5999 27.428 25.5999C28.1137 25.5999 28.5709 26.057 28.5709 26.7427V30.3999C28.5709 31.3141 29.028 32.2284 29.7137 32.9141C30.8566 34.2856 33.1423 34.2856 34.2852 32.9141C34.9709 32.2284 35.428 31.3141 35.428 30.3999V26.7427C35.428 26.057 35.8852 25.5999 36.5709 25.5999C37.2566 25.5999 37.7137 26.057 37.7137 26.7427V30.3999C37.7137 31.9999 37.028 33.3713 35.8852 34.5141C34.9709 35.657 33.3709 36.1141 31.9994 36.1141Z" fill="#17C2E8"/>
<path d="M27.428 30.1713C26.9709 30.1713 26.2852 29.7142 26.2852 29.257C26.2852 28.5713 26.7423 28.1142 27.1994 27.8856C29.4852 27.657 30.628 26.5142 31.3137 25.5999C31.7709 25.3713 32.4566 25.1427 32.9137 25.5999C33.3709 26.057 33.5994 26.7427 33.1423 27.1999C32.4566 28.1142 30.628 29.7142 27.428 30.1713Z" fill="#17C2E8"/>
<path d="M36.5715 30.6284C32.2287 29.9427 30.8572 28.1141 30.6287 27.8856C30.4001 27.4284 30.4001 26.7427 30.8572 26.2856C31.3144 25.8284 32.0001 26.057 32.4572 26.5141C32.4572 26.5141 33.6001 27.8856 36.5715 28.3427C37.2572 28.3427 37.7144 29.0284 37.4858 29.7141C37.7144 30.1713 37.2572 30.6284 36.5715 30.6284Z" fill="#17C2E8"/>
<path d="M36.5709 27.8857C35.8852 27.8857 35.428 27.4285 35.428 26.7428C35.428 24.9142 33.828 23.5428 31.9994 23.5428C30.1709 23.5428 28.5709 24.9142 28.5709 26.7428C28.5709 27.4285 28.1137 27.8857 27.428 27.8857C26.7423 27.8857 26.2852 27.4285 26.2852 26.7428C26.2852 23.7714 28.7994 21.2571 31.9994 21.2571C35.1994 21.2571 37.7137 23.7714 37.7137 26.7428C37.7137 27.1999 37.2566 27.8857 36.5709 27.8857Z" fill="#17C2E8"/>
<path d="M29.4847 39.0857C28.7989 39.0857 28.3418 38.6285 28.3418 37.9428V34.2857C28.3418 33.6 28.7989 33.1428 29.4847 33.1428C30.1704 33.1428 30.6275 33.6 30.6275 34.2857V37.9428C30.6275 38.6285 29.9418 39.0857 29.4847 39.0857Z" fill="#17C2E8"/>
<path d="M34.514 39.0857C33.8282 39.0857 33.3711 38.6285 33.3711 37.9428V34.2857C33.3711 33.6 33.8282 33.1428 34.514 33.1428C35.1997 33.1428 35.6568 33.6 35.6568 34.2857V37.9428C35.6568 38.6285 35.1997 39.0857 34.514 39.0857Z" fill="#17C2E8"/>
<path d="M31.9999 48C27.8856 48 23.9999 46.4001 21.0284 43.6572C20.7999 43.4286 20.5713 42.9715 20.5713 42.7429V42.0572C20.5713 39.7715 22.6284 38.8572 23.5427 38.4L27.1999 37.0286C28.5713 36.5715 30.1713 36.8 31.0856 37.7143C31.5427 38.1715 32.457 38.1715 32.9141 37.7143C33.8284 36.8 35.4284 36.5715 36.7999 37.0286L40.457 38.4C41.5999 39.0858 43.4284 39.7715 43.4284 42.0572V42.7429C43.4284 42.9715 43.1999 43.4286 42.9713 43.6572C39.9999 46.4001 36.1141 48 31.9999 48ZM22.857 42.2858C25.3713 44.5715 28.5713 45.7143 31.9999 45.7143C35.4284 45.7143 38.6284 44.5715 41.1427 42.2858V42.0572C41.1427 41.6 40.9141 41.1429 39.5427 40.4572L35.8856 39.0858C35.4284 38.8572 34.9713 39.0858 34.5141 39.3143C33.1427 40.6858 30.857 40.6858 29.4856 39.3143C29.0284 38.8572 28.5713 38.8572 28.1141 39.0858L24.457 40.4572C23.0856 41.1429 22.857 41.6 22.857 42.2858C22.857 42.0572 22.857 42.0572 22.857 42.2858Z" fill="#17C2E8"/>
<path d="M18.0571 38.1714C17.6 38.1714 17.1429 37.9429 16.9143 37.4857C16.2286 35.6571 16 33.8286 16 32C16 23.0857 23.0857 16 32 16C32.6857 16 33.1429 16.4571 33.1429 17.1429C33.1429 17.8286 32.6857 18.2857 32 18.2857C24.4571 18.2857 18.2857 24.4571 18.2857 32C18.2857 33.6 18.5143 35.2 19.2 36.8C19.4286 37.4857 19.2 37.9429 18.5143 38.1714C18.2857 38.1714 18.0571 38.1714 18.0571 38.1714Z" fill="#17C2E8"/>
<path d="M45.9431 38.1714C45.7146 38.1714 45.7146 38.1714 45.486 38.1714C44.8003 37.9429 44.5717 37.2571 44.8003 36.8C45.486 35.2 45.7146 33.6 45.7146 32C45.7146 24.4571 39.5431 18.2857 32.0003 18.2857C31.3146 18.2857 30.8574 17.8286 30.8574 17.1429C30.8574 16.4571 31.3146 16 32.0003 16C40.9146 16 48.0003 23.0857 48.0003 32C48.0003 33.8286 47.7717 35.6571 47.086 37.4857C46.8574 37.9429 46.4003 38.1714 45.9431 38.1714Z" fill="#17C2E8"/>
</svg>
