<svg width="35" height="35" viewBox="0 0 35 35" fill="none" xmlns="http://www.w3.org/2000/svg">
<rect x="34.5" y="34.5" width="34" height="34" rx="17" transform="rotate(-180 34.5 34.5)" stroke="black"/>
<path d="M11.7814 16.5875C11.8346 16.5789 11.8884 16.5749 11.9423 16.5756L21.1135 16.5756L20.9135 16.4826C20.718 16.3901 20.5402 16.2641 20.388 16.1105L17.8161 13.5387C17.4774 13.2153 17.4205 12.6952 17.6813 12.3062C17.9848 11.8918 18.5668 11.8018 18.9813 12.1053C19.0147 12.1298 19.0466 12.1565 19.0765 12.1853L23.7272 16.836C24.0907 17.1991 24.091 17.788 23.7279 18.1515C23.7277 18.1517 23.7274 18.152 23.7272 18.1522L19.0765 22.8029C18.7127 23.1656 18.1238 23.1648 17.7611 22.8011C17.7325 22.7724 17.7059 22.742 17.6813 22.7099C17.4205 22.3209 17.4774 21.8008 17.8161 21.4775L20.3833 18.901C20.5198 18.7643 20.6767 18.6498 20.8484 18.5615L21.1274 18.4359L11.9934 18.4359C11.5183 18.4535 11.1014 18.1216 11.0121 17.6546C10.9299 17.1475 11.2743 16.6698 11.7814 16.5875Z" fill="black"/>
</svg>
