<svg width="41" height="41" viewBox="0 0 41 41" fill="none" xmlns="http://www.w3.org/2000/svg">
<path d="M35.1828 21.6133L25.7856 20.2625L21.557 11.7464C21.2742 11.1625 20.5716 10.9184 19.9877 11.2013C19.7499 11.3165 19.5577 11.5085 19.4426 11.7464L15.2139 20.2625L5.81677 21.6133C5.37171 21.6845 5.00658 22.0039 4.87707 22.4356C4.76285 22.8515 4.87415 23.2969 5.1707 23.6102L11.9836 30.247L10.3979 39.5854C10.3265 40.0336 10.5069 40.4847 10.8678 40.76C11.2231 41.0304 11.7011 41.0759 12.1011 40.8775L20.4998 36.4139L28.8985 40.8775L29.4271 40.995C29.6843 41.0168 29.9391 40.9318 30.1318 40.76C30.4926 40.4847 30.6731 40.0336 30.6017 39.5854L29.016 30.247L35.8289 23.6102C36.1254 23.2969 36.2368 22.8515 36.1225 22.4356C35.993 22.004 35.6279 21.6845 35.1828 21.6133ZM26.9016 29.0137C26.6613 29.2868 26.5538 29.6523 26.608 30.0121L27.9001 37.6473L21.0284 34.0647C20.6938 33.9059 20.3058 33.9059 19.9712 34.0647L13.0995 37.6473L14.3916 30.0121C14.4458 29.6523 14.3383 29.2869 14.098 29.0137L8.51837 23.6103L16.2123 22.4944C16.5905 22.4279 16.9163 22.189 17.0933 21.8483L20.4998 14.9179L23.9063 21.8483C24.0833 22.189 24.409 22.4279 24.7873 22.4944L32.4812 23.6103L26.9016 29.0137Z" fill="#17C2E8"/>
<path d="M20.4998 8.22253C21.1486 8.22253 21.6745 7.69664 21.6745 7.04788V1.17465C21.6745 0.525888 21.1485 0 20.4998 0C19.8512 0 19.3252 0.525888 19.3252 1.17465V7.04788C19.3252 7.69664 19.8511 8.22253 20.4998 8.22253Z" fill="#17C2E8"/>
<path d="M38.2375 6.22575C37.7184 5.83645 36.9822 5.94167 36.5929 6.4607L33.069 11.1593C32.6798 11.6783 32.7849 12.4145 33.3039 12.8038C33.5051 12.9603 33.7538 13.0433 34.0087 13.0388C34.3763 13.0301 34.7208 12.8578 34.9484 12.5689L38.4723 7.8703C38.8617 7.35127 38.7565 6.61494 38.2375 6.22575Z" fill="#17C2E8"/>
<path d="M6.99158 13.0385C7.24643 13.043 7.49521 12.96 7.69633 12.8035C8.21536 12.4142 8.32047 11.678 7.93128 11.159L4.40745 6.46041C4.01815 5.94138 3.28193 5.83627 2.7629 6.22546C2.24387 6.61464 2.13876 7.35098 2.52795 7.87001L6.05189 12.5686C6.27942 12.8575 6.62398 13.0297 6.99158 13.0385Z" fill="#17C2E8"/>
</svg>
