<svg width="48" height="48" viewBox="0 0 48 48" fill="none" xmlns="http://www.w3.org/2000/svg">
<circle cx="24" cy="24" r="23.5" stroke="white"/>
<g clip-path="url(#clip0_2042_77)">
<path d="M29.6898 31.6909H17.6743C17.1736 31.6909 16.8398 31.3571 16.8398 30.8565V24.6818C16.8398 20.8435 19.8437 17.8396 23.6821 17.8396C27.5204 17.8396 30.5243 20.8435 30.5243 24.6818V30.8565C30.5243 31.3571 30.1905 31.6909 29.6898 31.6909ZM18.5087 30.0221H28.8554V24.6818C28.8554 21.8448 26.5191 19.5084 23.6821 19.5084C20.845 19.5084 18.5087 21.8448 18.5087 24.6818V30.0221Z" fill="white"/>
<path d="M27.0197 25.5163C26.5191 25.5163 26.1853 25.1825 26.1853 24.6818C26.1853 23.3468 25.0171 22.1786 23.6821 22.1786C23.1814 22.1786 22.8477 21.8448 22.8477 21.3442C22.8477 20.8435 23.1814 20.5098 23.6821 20.5098C26.0184 20.5098 27.8541 22.3455 27.8541 24.6818C27.8541 25.1825 27.3535 25.5163 27.0197 25.5163Z" fill="white"/>
<path d="M31.5244 35.0285H15.8373C15.3367 35.0285 15.0029 34.6947 15.0029 34.1941V30.8564C15.0029 30.3557 15.3367 30.022 15.8373 30.022H31.6912C32.1919 30.022 32.5257 30.3557 32.5257 30.8564V34.1941C32.3588 34.6947 32.025 35.0285 31.5244 35.0285ZM16.6718 33.3596H30.8568V31.6908H16.6718V33.3596Z" fill="white"/>
<path d="M23.6821 16.1708C23.1814 16.1708 22.8477 15.837 22.8477 15.3364V13.8344C22.8477 13.3338 23.1814 13 23.6821 13C24.1827 13 24.5165 13.3338 24.5165 13.8344V15.3364C24.5165 15.837 24.1827 16.1708 23.6821 16.1708Z" fill="white"/>
<path d="M14.3364 25.5162H12.8344C12.3338 25.5162 12 25.1825 12 24.6818C12 24.1812 12.3338 23.8474 12.8344 23.8474H14.3364C14.837 23.8474 15.1708 24.1812 15.1708 24.6818C15.1708 25.1825 14.837 25.5162 14.3364 25.5162Z" fill="white"/>
<path d="M34.5297 25.5162H33.0278C32.5271 25.5162 32.1934 25.1825 32.1934 24.6818C32.1934 24.1812 32.5271 23.8474 33.0278 23.8474H34.5297C35.0304 23.8474 35.3641 24.1812 35.3641 24.6818C35.3641 25.1825 35.0304 25.5162 34.5297 25.5162Z" fill="white"/>
<path d="M17.1731 19.0077C17.0062 19.0077 16.6724 19.0077 16.5055 18.8408L15.5042 17.6727C15.1705 17.3389 15.1705 16.8382 15.5042 16.5045C15.838 16.1707 16.3386 16.1707 16.6724 16.5045L17.6737 17.5058C18.0075 17.8395 18.0075 18.3402 17.6737 18.674C17.5068 18.8408 17.3399 19.0077 17.1731 19.0077Z" fill="white"/>
<path d="M30.1903 19.0078C30.0234 19.0078 29.6897 19.0078 29.5228 18.8409C29.189 18.5072 29.189 18.0065 29.5228 17.6728L30.5241 16.6715C30.8579 16.3377 31.3585 16.3377 31.6923 16.6715C32.026 17.0052 32.026 17.5059 31.6923 17.8396L30.691 18.8409C30.691 18.8409 30.5241 19.0078 30.1903 19.0078Z" fill="white"/>
</g>
<defs>
<clipPath id="clip0_2042_77">
<rect width="23.3636" height="22.0286" fill="white" transform="translate(12 13)"/>
</clipPath>
</defs>
</svg>
