<svg width="24" height="24" viewBox="0 0 24 24" fill="none" xmlns="http://www.w3.org/2000/svg">
<g clip-path="url(#clip0)">
<path d="M11.8378 19.4021C15.7245 19.4021 18.8753 16.2513 18.8753 12.3646C18.8753 8.47794 15.7245 5.32715 11.8378 5.32715C7.95108 5.32715 4.80029 8.47794 4.80029 12.3646C4.80029 16.2513 7.95108 19.4021 11.8378 19.4021Z" fill="#FEDB41"/>
<path d="M17.4405 12.6788C17.3574 12.6787 17.2778 12.6457 17.2191 12.587C17.1603 12.5282 17.1273 12.4486 17.1272 12.3656C17.1258 10.9631 16.568 9.61844 15.5763 8.62673C14.5846 7.63503 13.24 7.07726 11.8375 7.07584C11.7543 7.07584 11.6744 7.04278 11.6156 6.98393C11.5567 6.92508 11.5237 6.84526 11.5237 6.76204C11.5237 6.67882 11.5567 6.599 11.6156 6.54015C11.6744 6.4813 11.7543 6.44824 11.8375 6.44824C13.4063 6.4499 14.9105 7.07387 16.0198 8.18322C17.1292 9.29257 17.7531 10.7967 17.7548 12.3656C17.7548 12.4068 17.7466 12.4476 17.7308 12.4856C17.7149 12.5237 17.6918 12.5583 17.6626 12.5873C17.6334 12.6164 17.5987 12.6395 17.5606 12.6552C17.5225 12.6709 17.4817 12.6789 17.4405 12.6788Z" fill="#FEA832"/>
<path d="M11.8372 3.89287C12.3485 3.89347 12.8586 3.94034 13.3614 4.03291C13.3682 3.93518 13.3727 3.83566 13.3727 3.73561C13.3725 2.33679 11.8372 1.20264 11.8372 1.20264C11.8372 1.20264 10.3018 2.33679 10.3018 3.73561C10.3018 3.83638 10.3064 3.93518 10.3132 4.03291C10.816 3.94034 11.326 3.89347 11.8372 3.89287Z" fill="#FEA832"/>
<path d="M11.838 20.8371C12.3492 20.8365 12.8594 20.7897 13.3622 20.6973C13.369 20.7948 13.3735 20.8936 13.3735 20.9944C13.3735 22.393 11.8382 23.5274 11.8382 23.5274C11.8382 23.5274 10.3027 22.3934 10.3027 20.9944C10.3027 20.8936 10.3074 20.7948 10.3142 20.6973C10.8169 20.7897 11.3269 20.8365 11.838 20.8371Z" fill="#FEA832"/>
<path d="M17.8283 6.37432C18.1892 6.73628 18.5167 7.1301 18.8068 7.55097C18.8808 7.48678 18.9538 7.42007 19.025 7.34889C20.0143 6.35962 19.7304 4.47217 19.7304 4.47217C19.7304 4.47217 17.843 4.18886 16.8537 5.17759C16.782 5.24931 16.7158 5.32104 16.6516 5.39581C17.0725 5.6859 17.4663 6.0134 17.8283 6.37432Z" fill="#FEA832"/>
<path d="M5.84662 18.3549C6.20851 18.7159 6.60233 19.0434 7.02327 19.3334C6.95908 19.4074 6.89238 19.4804 6.82119 19.5516C5.83192 20.5409 3.94448 20.257 3.94448 20.257C3.94448 20.257 3.66062 18.3696 4.64989 17.3803C4.72162 17.3086 4.79334 17.2424 4.86812 17.1782C5.15816 17.5991 5.48566 17.9929 5.84662 18.3549Z" fill="#FEA832"/>
<path d="M20.3093 12.3652C20.3087 12.8764 20.2619 13.3865 20.1694 13.8893C20.267 13.8961 20.3658 13.9008 20.4666 13.9008C21.8652 13.9008 22.9995 12.3654 22.9995 12.3654C22.9995 12.3654 21.8654 10.8301 20.4666 10.8301C20.3658 10.8301 20.267 10.8346 20.1694 10.8414C20.2618 11.3441 20.3086 11.8541 20.3093 12.3652Z" fill="#FEA832"/>
<path d="M3.36552 12.3654C3.36615 12.8766 3.41296 13.3867 3.50539 13.8895C3.40784 13.8963 3.30814 13.901 3.20827 13.901C1.80945 13.9003 0.675293 12.3654 0.675293 12.3654C0.675293 12.3654 1.80945 10.8301 3.20827 10.8301C3.30904 10.8301 3.40784 10.8346 3.50539 10.8414C3.41298 11.3441 3.36617 11.8542 3.36552 12.3654Z" fill="#FEA832"/>
<path d="M17.8283 18.3549C17.4663 18.7158 17.0725 19.0433 16.6516 19.3334C16.7158 19.4074 16.7825 19.4804 16.8537 19.5516C17.843 20.5409 19.7304 20.257 19.7304 20.257C19.7304 20.257 20.0143 18.3696 19.025 17.3803C18.9533 17.3086 18.8815 17.2424 18.8068 17.1782C18.5167 17.5991 18.1892 17.9929 17.8283 18.3549Z" fill="#FEA832"/>
<path d="M5.84662 6.37432C5.4857 6.73628 5.1582 7.1301 4.86812 7.55097C4.79406 7.48678 4.72108 7.42007 4.64989 7.34889C3.66062 6.35962 3.94448 4.47217 3.94448 4.47217C3.94448 4.47217 5.83192 4.18886 6.82119 5.17759C6.89291 5.24931 6.95908 5.32104 7.02327 5.39581C6.60237 5.68585 6.20855 6.01335 5.84662 6.37432Z" fill="#FEA832"/>
</g>
<defs>
<clipPath id="clip0">
<rect width="22.952" height="22.952" fill="white" transform="translate(0.361816 0.88916)"/>
</clipPath>
</defs>
</svg>
