<svg width="16" height="16" viewBox="0 0 16 16" fill="none" xmlns="http://www.w3.org/2000/svg">
<path d="M5.38496 0.976257C5.35623 0.976241 5.32778 0.981888 5.30123 0.992875C5.27468 1.00386 5.25056 1.01998 5.23025 1.04029C5.20993 1.06061 5.19382 1.08473 5.18283 1.11128C5.17184 1.13782 5.1662 1.16628 5.16621 1.19501V1.76526H4.79321V1.19501C4.79321 1.13699 4.77017 1.08135 4.72914 1.04033C4.68812 0.999304 4.63248 0.976257 4.57446 0.976257C4.51645 0.976257 4.46081 0.999304 4.41978 1.04033C4.37876 1.08135 4.35571 1.13699 4.35571 1.19501V2.77313C4.35571 2.83115 4.37876 2.88679 4.41978 2.92781C4.46081 2.96884 4.51645 2.99188 4.57446 2.99188C4.63248 2.99188 4.68812 2.96884 4.72914 2.92781C4.77017 2.88679 4.79321 2.83115 4.79321 2.77313V2.20276H5.16621V2.77313C5.16621 2.83115 5.18926 2.88679 5.23028 2.92781C5.27131 2.96884 5.32695 2.99188 5.38496 2.99188C5.44298 2.99188 5.49862 2.96884 5.53964 2.92781C5.58067 2.88679 5.60371 2.83115 5.60371 2.77313V1.19501C5.60373 1.16628 5.59808 1.13782 5.58709 1.11128C5.57611 1.08473 5.56 1.06061 5.53968 1.04029C5.51936 1.01998 5.49524 1.00386 5.46869 0.992875C5.44215 0.981888 5.41369 0.976241 5.38496 0.976257Z" fill="white"/>
<path d="M6.89522 0.976257H6.08472C6.05599 0.976241 6.02753 0.981888 6.00099 0.992875C5.97444 1.00386 5.95032 1.01998 5.93 1.04029C5.90968 1.06061 5.89357 1.08473 5.88259 1.11128C5.8716 1.13782 5.86595 1.16628 5.86597 1.19501V2.77313C5.86597 2.83115 5.88901 2.88679 5.93004 2.92781C5.97106 2.96884 6.0267 2.99188 6.08472 2.99188H6.89522C6.95323 2.99188 7.00887 2.96884 7.0499 2.92781C7.09092 2.88679 7.11397 2.83115 7.11397 2.77313V1.19501C7.11398 1.16628 7.10834 1.13782 7.09735 1.11128C7.08636 1.08473 7.07025 1.06061 7.04993 1.04029C7.02962 1.01998 7.0055 1.00386 6.97895 0.992875C6.9524 0.981888 6.92395 0.976241 6.89522 0.976257ZM6.67647 2.55438H6.30347V1.41376H6.67647V2.55438Z" fill="white"/>
<path d="M8.40523 0.976257H7.59473C7.566 0.976257 7.53755 0.981915 7.51101 0.992909C7.48447 1.0039 7.46036 1.02001 7.44005 1.04033C7.41973 1.06064 7.40362 1.08476 7.39263 1.1113C7.38163 1.13784 7.37598 1.16628 7.37598 1.19501C7.37598 1.22373 7.38163 1.25218 7.39263 1.27872C7.40362 1.30526 7.41973 1.32937 7.44005 1.34969C7.46036 1.37 7.48447 1.38611 7.51101 1.39711C7.53755 1.4081 7.566 1.41376 7.59473 1.41376H7.78123V2.77313C7.78123 2.83115 7.80427 2.88679 7.8453 2.92781C7.88632 2.96884 7.94196 2.99188 7.99998 2.99188C8.05799 2.99188 8.11363 2.96884 8.15466 2.92781C8.19568 2.88679 8.21873 2.83115 8.21873 2.77313V1.41376H8.40523C8.46324 1.41376 8.51888 1.39071 8.55991 1.34969C8.60093 1.30866 8.62398 1.25302 8.62398 1.19501C8.62398 1.13699 8.60093 1.08135 8.55991 1.04033C8.51888 0.999304 8.46324 0.976257 8.40523 0.976257Z" fill="white"/>
<path d="M9.91548 1.41376C9.9735 1.41376 10.0291 1.39071 10.0702 1.34969C10.1112 1.30866 10.1342 1.25302 10.1342 1.19501C10.1342 1.13699 10.1112 1.08135 10.0702 1.04033C10.0291 0.999304 9.9735 0.976257 9.91548 0.976257H9.10498C9.07625 0.976241 9.0478 0.981888 9.02125 0.992875C8.9947 1.00386 8.97058 1.01998 8.95026 1.04029C8.92995 1.06061 8.91384 1.08473 8.90285 1.11128C8.89186 1.13782 8.88621 1.16628 8.88623 1.19501V2.77313C8.88623 2.83115 8.90928 2.88679 8.9503 2.92781C8.99132 2.96884 9.04696 2.99188 9.10498 2.99188H9.91548C9.9735 2.99188 10.0291 2.96884 10.0702 2.92781C10.1112 2.88679 10.1342 2.83115 10.1342 2.77313C10.1342 2.71512 10.1112 2.65948 10.0702 2.61845C10.0291 2.57743 9.9735 2.55438 9.91548 2.55438H9.32373V2.20276H9.91548C9.9735 2.20276 10.0291 2.17971 10.0702 2.13869C10.1112 2.09766 10.1342 2.04202 10.1342 1.98401C10.1342 1.92599 10.1112 1.87035 10.0702 1.82933C10.0291 1.7883 9.9735 1.76526 9.91548 1.76526H9.32373V1.41376H9.91548Z" fill="white"/>
<path d="M11.425 2.55438H10.8337V1.19501C10.8337 1.13699 10.8107 1.08135 10.7697 1.04033C10.7286 0.999304 10.673 0.976257 10.615 0.976257C10.557 0.976257 10.5013 0.999304 10.4603 1.04033C10.4193 1.08135 10.3962 1.13699 10.3962 1.19501V2.77313C10.3962 2.83115 10.4193 2.88679 10.4603 2.92781C10.5013 2.96884 10.557 2.99188 10.615 2.99188H11.425C11.483 2.99188 11.5386 2.96884 11.5797 2.92781C11.6207 2.88679 11.6437 2.83115 11.6437 2.77313C11.6437 2.71512 11.6207 2.65948 11.5797 2.61845C11.5386 2.57743 11.483 2.55438 11.425 2.55438Z" fill="white"/>
<path d="M13.7656 3.53087H12.6875V0.218375C12.6874 0.160424 12.6643 0.10488 12.6233 0.0639378C12.5823 0.0229952 12.5267 -8.51526e-08 12.4688 0L3.53125 0C3.47323 0 3.41759 0.0230468 3.37657 0.0640704C3.33555 0.105094 3.3125 0.160734 3.3125 0.21875V3.53125H2.23438C2.20564 3.53123 2.17719 3.53688 2.15064 3.54787C2.1241 3.55886 2.09997 3.57497 2.07966 3.59528C2.05934 3.6156 2.04323 3.63972 2.03224 3.66627C2.02126 3.69282 2.01561 3.72127 2.01563 3.75V15.7812C2.01563 15.8393 2.03867 15.8949 2.0797 15.9359C2.12072 15.977 2.17636 16 2.23438 16H5.97288C5.97413 16 5.97537 16 5.9765 16H10.0234C10.0246 16 10.0259 16 10.0271 16H13.7656C13.8236 16 13.8793 15.977 13.9203 15.9359C13.9613 15.8949 13.9844 15.8393 13.9844 15.7812V3.75C13.9844 3.72124 13.9788 3.69274 13.9679 3.66615C13.9569 3.63956 13.9408 3.6154 13.9205 3.59504C13.9002 3.57469 13.876 3.55854 13.8494 3.54753C13.8229 3.53652 13.7944 3.53086 13.7656 3.53087ZM3.75 0.4375H12.25V3.53125H3.75V0.4375ZM9.80462 13.0781V15.5625H8.21875V13.0781H9.80462ZM7.78125 15.5625H6.19525V13.0781H7.78125V15.5625ZM13.5469 15.5625H10.2421V12.8594C10.2421 12.8014 10.2191 12.7457 10.1781 12.7047C10.137 12.6637 10.0814 12.6406 10.0234 12.6406H5.9765C5.91849 12.6407 5.86287 12.6637 5.82186 12.7047C5.78084 12.7457 5.75778 12.8014 5.75775 12.8594V15.5625H2.45313V3.96837H13.5469V15.5625Z" fill="white"/>
<path d="M5.78125 4.78088H3.48438C3.45561 4.78087 3.42713 4.78653 3.40056 4.79754C3.37399 4.80855 3.34985 4.82469 3.32953 4.84505C3.30921 4.86541 3.2931 4.88957 3.28214 4.91616C3.27117 4.94275 3.26556 4.97125 3.26563 5.00001V6.56313C3.26561 6.59186 3.27126 6.62032 3.28224 6.64686C3.29323 6.67341 3.30934 6.69753 3.32966 6.71785C3.34998 6.73817 3.3741 6.75428 3.40064 6.76527C3.42719 6.77625 3.45564 6.7819 3.48438 6.78188H5.78125C5.80998 6.7819 5.83843 6.77625 5.86498 6.76527C5.89153 6.75428 5.91565 6.73817 5.93597 6.71785C5.95628 6.69753 5.9724 6.67341 5.98338 6.64686C5.99437 6.62032 6.00002 6.59186 6 6.56313V5.00001C6.00007 4.97125 5.99446 4.94275 5.98349 4.91616C5.97253 4.88957 5.95642 4.86541 5.9361 4.84505C5.91578 4.82469 5.89164 4.80855 5.86507 4.79754C5.8385 4.78653 5.81001 4.78087 5.78125 4.78088ZM5.5625 6.34438H3.70313V5.21838H5.5625V6.34438Z" fill="white"/>
<path d="M9.14819 4.78088H6.85132C6.82256 4.78088 6.79408 4.78655 6.76752 4.79757C6.74096 4.80859 6.71682 4.82473 6.69651 4.84509C6.67619 4.86544 6.66008 4.8896 6.64911 4.91618C6.63814 4.94276 6.63252 4.97125 6.63257 5.00001V6.56313C6.63257 6.62115 6.65562 6.67679 6.69664 6.71781C6.73766 6.75884 6.7933 6.78188 6.85132 6.78188H9.14819C9.17692 6.7819 9.20538 6.77625 9.23192 6.76527C9.25847 6.75428 9.28259 6.73817 9.30291 6.71785C9.32323 6.69753 9.33934 6.67341 9.35033 6.64686C9.36131 6.62032 9.36696 6.59186 9.36694 6.56313V5.00001C9.36701 4.97125 9.3614 4.94275 9.35043 4.91616C9.33947 4.88957 9.32336 4.86541 9.30304 4.84505C9.28272 4.82469 9.25858 4.80855 9.23201 4.79754C9.20544 4.78653 9.17696 4.78087 9.14819 4.78088ZM8.92944 6.34438H7.07007V5.21838H8.92944V6.34438Z" fill="white"/>
<path d="M10 5V6.56313C9.99998 6.59186 10.0056 6.62031 10.0166 6.64686C10.0276 6.6734 10.0437 6.69753 10.064 6.71784C10.0843 6.73816 10.1085 6.75427 10.135 6.76526C10.1616 6.77624 10.19 6.78189 10.2188 6.78188H12.5156C12.5444 6.78189 12.5728 6.77624 12.5994 6.76526C12.6259 6.75427 12.65 6.73816 12.6703 6.71784C12.6907 6.69753 12.7068 6.6734 12.7178 6.64686C12.7287 6.62031 12.7344 6.59186 12.7344 6.56313V5C12.7344 4.97127 12.7287 4.94282 12.7178 4.91627C12.7068 4.88972 12.6907 4.8656 12.6703 4.84528C12.65 4.82497 12.6259 4.80886 12.5994 4.79787C12.5728 4.78688 12.5444 4.78123 12.5156 4.78125H10.2188C10.19 4.78123 10.1616 4.78688 10.135 4.79787C10.1085 4.80886 10.0843 4.82497 10.064 4.84528C10.0437 4.8656 10.0276 4.88972 10.0166 4.91627C10.0056 4.94282 9.99998 4.97127 10 5ZM10.4375 5.21875H12.2969V6.34475H10.4375V5.21875Z" fill="white"/>
<path d="M5.78125 7.30341H3.48438C3.42636 7.30341 3.37072 7.32645 3.3297 7.36748C3.28867 7.4085 3.26563 7.46414 3.26562 7.52216V9.08578C3.26562 9.1438 3.28867 9.19944 3.3297 9.24046C3.37072 9.28148 3.42636 9.30453 3.48438 9.30453H5.78125C5.83927 9.30453 5.89491 9.28148 5.93593 9.24046C5.97695 9.19944 6 9.1438 6 9.08578V7.52216C6 7.46414 5.97695 7.4085 5.93593 7.36748C5.89491 7.32645 5.83927 7.30341 5.78125 7.30341ZM5.5625 8.86703H3.70312V7.74091H5.5625V8.86703Z" fill="white"/>
<path d="M9.14819 7.30341H6.85132C6.79331 7.30344 6.73769 7.3265 6.69668 7.36751C6.65566 7.40853 6.6326 7.46415 6.63257 7.52216V9.08578C6.6326 9.14379 6.65566 9.19941 6.69668 9.24042C6.73769 9.28144 6.79331 9.3045 6.85132 9.30453H9.14819C9.20621 9.30453 9.26185 9.28148 9.30287 9.24046C9.3439 9.19944 9.36694 9.1438 9.36694 9.08578V7.52216C9.36694 7.46414 9.3439 7.4085 9.30287 7.36748C9.26185 7.32645 9.20621 7.30341 9.14819 7.30341ZM8.92944 8.86703H7.07007V7.74091H8.92944V8.86703Z" fill="white"/>
<path d="M12.5156 7.30341H10.2188C10.1607 7.30341 10.1051 7.32645 10.0641 7.36748C10.023 7.4085 10 7.46414 10 7.52216V9.08578C10 9.1438 10.023 9.19944 10.0641 9.24046C10.1051 9.28148 10.1607 9.30453 10.2188 9.30453H12.5156C12.5736 9.30453 12.6293 9.28148 12.6703 9.24046C12.7113 9.19944 12.7344 9.1438 12.7344 9.08578V7.52216C12.7344 7.46414 12.7113 7.4085 12.6703 7.36748C12.6293 7.32645 12.5736 7.30341 12.5156 7.30341ZM12.2969 8.86703H10.4375V7.74091H12.2969V8.86703Z" fill="white"/>
<path d="M5.78125 9.82605H3.48438C3.42636 9.82605 3.37072 9.8491 3.3297 9.89012C3.28867 9.93114 3.26563 9.98678 3.26562 10.0448V11.6084C3.26562 11.6664 3.28867 11.7221 3.3297 11.7631C3.37072 11.8041 3.42636 11.8272 3.48438 11.8272H5.78125C5.83927 11.8272 5.89491 11.8041 5.93593 11.7631C5.97695 11.7221 6 11.6664 6 11.6084V10.0448C6 9.98678 5.97695 9.93114 5.93593 9.89012C5.89491 9.8491 5.83927 9.82605 5.78125 9.82605ZM5.5625 11.3897H3.70312V10.2635H5.5625V11.3897Z" fill="white"/>
<path d="M9.14819 9.82605H6.85132C6.79331 9.82608 6.73769 9.84914 6.69668 9.89016C6.65566 9.93117 6.6326 9.98679 6.63257 10.0448V11.6084C6.6326 11.6664 6.65566 11.7221 6.69668 11.7631C6.73769 11.8041 6.79331 11.8271 6.85132 11.8272H9.14819C9.20621 11.8272 9.26185 11.8041 9.30287 11.7631C9.3439 11.7221 9.36694 11.6664 9.36694 11.6084V10.0448C9.36694 9.98678 9.3439 9.93114 9.30287 9.89012C9.26185 9.8491 9.20621 9.82605 9.14819 9.82605ZM8.92944 11.3897H7.07007V10.2635H8.92944V11.3897Z" fill="white"/>
<path d="M12.5156 9.82605H10.2188C10.1607 9.82605 10.1051 9.8491 10.0641 9.89012C10.023 9.93114 10 9.98678 10 10.0448V11.6084C10 11.6664 10.023 11.7221 10.0641 11.7631C10.1051 11.8041 10.1607 11.8272 10.2188 11.8272H12.5156C12.5736 11.8272 12.6293 11.8041 12.6703 11.7631C12.7113 11.7221 12.7344 11.6664 12.7344 11.6084V10.0448C12.7344 9.98678 12.7113 9.93114 12.6703 9.89012C12.6293 9.8491 12.5736 9.82605 12.5156 9.82605ZM12.2969 11.3897H10.4375V10.2635H12.2969V11.3897Z" fill="white"/>
</svg>
