<svg width="76" height="76" viewBox="0 0 76 76" fill="none" xmlns="http://www.w3.org/2000/svg">
<g clip-path="url(#clip0)">
<path d="M38.0001 76.0002C58.9869 76.0002 76.0002 58.9869 76.0002 38.0001C76.0002 17.0132 58.9869 0 38.0001 0C17.0132 0 0 17.0132 0 38.0001C0 58.9869 17.0132 76.0002 38.0001 76.0002Z" fill="#2AA4D9"/>
<path d="M75.9996 38.0001C75.9996 58.9002 58.8996 76.0002 37.9996 76.0002C25.8871 76.0002 15.1996 70.5377 8.31201 61.7503C14.7245 66.9753 23.0371 70.0628 32.062 70.0628C52.9621 70.0628 70.0621 52.9628 70.0621 32.0627C70.0621 23.0378 66.9745 14.7252 61.7495 8.31274C70.5372 15.2 75.9996 25.8875 75.9996 38.0001Z" fill="#2493C2"/>
<path d="M58.6622 27.075L33.9622 54.1501C32.2996 56.0501 29.4497 56.0501 27.7872 54.1501L17.3371 42.5126C15.9122 40.85 15.9122 38.2376 17.5746 36.575C19.2372 35.15 21.8496 35.15 23.5122 36.8124L30.8747 45.125L52.4872 21.6125C54.1497 19.9499 56.7622 19.7124 58.4247 21.375C60.0871 22.8 60.0871 25.65 58.6622 27.075Z" fill="white"/>
</g>
<defs>
<clipPath id="clip0">
<rect width="76" height="76" fill="white"/>
</clipPath>
</defs>
</svg>
