<svg width="83" height="83" viewBox="0 0 83 83" fill="none" xmlns="http://www.w3.org/2000/svg">
<path d="M41.5 0C18.6912 0 0 18.6912 0 41.5C0 64.3088 18.6912 83 41.5 83C64.3088 83 83 64.3088 83 41.5C83 18.6912 64.3088 0 41.5 0Z" fill="#FF3636"/>
<path d="M83 41.5C83 64.3088 64.3088 83 41.5 83V0C64.3088 0 83 18.6912 83 41.5Z" fill="#F40000"/>
<path d="M48.3573 41.5L62.1205 55.2632L55.2634 62.1203L41.5002 48.3571L27.7369 62.1203L20.8799 55.2632L34.6431 41.5L20.8799 27.7368L27.7369 20.8797L41.5002 34.6429L55.2634 20.8797L62.1205 27.7368L48.3573 41.5Z" fill="#E7E7E7"/>
<path d="M48.3571 41.5L62.1203 55.2632L55.2632 62.1203L41.5 48.3571V34.6429L55.2632 20.8797L62.1203 27.7368L48.3571 41.5Z" fill="#D3D3D8"/>
</svg>
