<svg width="83" height="82" viewBox="0 0 83 82" fill="none" xmlns="http://www.w3.org/2000/svg">
<g clip-path="url(#clip0)">
<path d="M41.5787 0C18.8156 0 0 18.3059 0 40.8398C0 63.3738 18.8156 82 41.5787 82C64.3419 82 82.8339 63.3738 82.8339 40.8398C82.8339 18.3059 64.3419 0 41.5787 0Z" fill="#32D736"/>
<path d="M82.8339 40.8398C82.8339 63.3738 64.3419 82 41.5787 82V0C64.3419 0 82.8339 18.3059 82.8339 40.8398Z" fill="#10BB67"/>
<path d="M65.6037 30.2213L41.5786 54.0527L39.88 55.7342C37.9384 57.6081 34.8807 57.6081 32.9878 55.7342L17.23 40.4073C15.3371 38.5334 15.3371 35.5067 17.23 33.6328C19.0258 31.8551 22.2778 31.8551 24.0736 33.6328L36.4338 45.5002L41.5786 40.4073L58.76 23.4469C60.5558 21.6692 63.8078 21.6692 65.6037 23.4469C67.4482 25.2727 67.5449 28.3475 65.6037 30.2213Z" fill="#E1E4FB"/>
<path d="M65.6038 30.2213L41.5787 54.0527V40.4073L58.7601 23.4469C60.5559 21.6692 63.808 21.6692 65.6038 23.4469C67.4483 25.2727 67.5451 28.3475 65.6038 30.2213Z" fill="#C5C9F7"/>
</g>
<defs>
<clipPath id="clip0">
<rect width="82.8339" height="82" fill="white"/>
</clipPath>
</defs>
</svg>
