<svg width="48" height="48" viewBox="0 0 48 48" fill="none" xmlns="http://www.w3.org/2000/svg">
<circle cx="24" cy="24" r="23.5" stroke="white"/>
<path d="M24.5 37C17.5357 37 12 31.4643 12 24.5C12 17.5357 17.5357 12 24.5 12C31.4643 12 37 17.5357 37 24.5C37 31.4643 31.4643 37 24.5 37ZM24.5 13.7857C18.6071 13.7857 13.7857 18.6071 13.7857 24.5C13.7857 30.3929 18.6071 35.2143 24.5 35.2143C30.3929 35.2143 35.2143 30.3929 35.2143 24.5C35.2143 18.6071 30.3929 13.7857 24.5 13.7857Z" fill="white"/>
<path d="M24.5003 30.9287C23.9646 30.9287 23.6074 30.5716 23.6074 30.0359V21.8216C23.6074 21.2859 23.9646 20.9287 24.5003 20.9287H25.9289C26.4646 20.9287 26.8217 21.2859 26.8217 21.8216C26.8217 22.3573 26.4646 22.7144 25.9289 22.7144H25.3931V30.0359C25.3931 30.5716 25.036 30.9287 24.5003 30.9287Z" fill="white"/>
<path d="M24.5003 20.0357C23.9646 20.0357 23.6074 19.5 23.6074 19.1429V18.25C23.6074 17.7143 23.9646 17.3572 24.5003 17.3572C25.036 17.3572 25.3931 17.7143 25.3931 18.25V19.1429C25.3931 19.5 25.036 20.0357 24.5003 20.0357Z" fill="white"/>
<path d="M26.6424 30.9285H22.3567C21.821 30.9285 21.4639 30.5714 21.4639 30.0357C21.4639 29.5 21.821 29.1428 22.3567 29.1428H26.6424C27.1782 29.1428 27.5353 29.5 27.5353 30.0357C27.5353 30.5714 27.1782 30.9285 26.6424 30.9285Z" fill="white"/>
</svg>
