<svg width="18" height="17" viewBox="0 0 18 17" fill="none" xmlns="http://www.w3.org/2000/svg">
<path d="M6.57571 3.59901C6.62374 3.85549 6.87817 4.05777 7.1783 4.00164C7.46972 3.9408 7.63545 3.66139 7.58094 3.39872C7.51692 3.09329 7.21525 2.92314 6.92944 3.00838C6.67415 3.08457 6.52314 3.3482 6.57571 3.59901Z" fill="#3CBCF3"/>
<path d="M17.6214 10.7599C14.8316 2.63912 15.0236 3.19551 15.0116 3.16786C14.7212 2.49577 14.1575 1.97328 13.465 1.73433C13.3658 1.70011 7.75045 0.38655 7.58816 0.330357C7.09046 0.157985 6.39898 0.254613 5.91355 0.70108L1.1013 5.12914C0.560291 5.62674 0.25 6.3351 0.25 7.07265V14.914C0.25 15.8381 0.997769 16.5899 1.91692 16.5899H12.2123C13.1314 16.5899 13.8792 15.8381 13.8792 14.914V14.1561L16.7488 12.928C17.5831 12.5669 17.9713 11.598 17.6214 10.7599ZM12.2123 15.5645H1.91692C1.56318 15.5645 1.27542 15.2727 1.27542 14.914V7.07265C1.27542 6.62116 1.46498 6.18782 1.79554 5.88378C5.91841 2.09015 3.37004 4.4564 6.6242 1.45538C6.79391 1.29897 7.02821 1.23614 7.26061 1.30621C7.46832 1.36825 7.10181 1.06972 12.3337 5.88385C12.6642 6.18785 12.8538 6.62116 12.8538 7.07265V14.914C12.8537 15.2727 12.566 15.5645 12.2123 15.5645ZM16.3435 11.9861L13.8792 13.0407V7.07265C13.8792 6.3351 13.5689 5.62674 13.0279 5.12921L9.44417 1.83157L13.1529 2.71158C13.5577 2.85811 13.8877 3.16485 14.063 3.55779C16.8474 11.6631 16.6596 11.1191 16.6718 11.1472C16.8118 11.4708 16.6637 11.8475 16.3435 11.9861Z" fill="#3CBCF3"/>
<path d="M8.52046 6.5845C8.25942 6.47492 7.95887 6.59783 7.84929 6.85891L5.35332 12.8077C5.21093 13.1471 5.46246 13.5189 5.82587 13.5189C6.0262 13.5189 6.21652 13.4008 6.29889 13.2045L8.79486 7.25567C8.90441 6.99453 8.78157 6.69405 8.52046 6.5845Z" fill="#3CBCF3"/>
<path d="M6.11723 8.06192C6.11723 7.07239 5.3925 6.26733 4.50165 6.26733C3.61081 6.26733 2.88611 7.07239 2.88611 8.06192C2.88611 9.05145 3.61084 9.8565 4.50169 9.8565C5.39254 9.8565 6.11723 9.05145 6.11723 8.06192ZM4.50169 8.83108C4.18179 8.83108 3.91153 8.47885 3.91153 8.06192C3.91153 7.64498 4.18176 7.29275 4.50169 7.29275C4.82162 7.29275 5.09185 7.64498 5.09185 8.06192C5.09182 8.47885 4.82158 8.83108 4.50169 8.83108Z" fill="#3CBCF3"/>
<path d="M9.67564 10.3346C8.78479 10.3346 8.06006 11.1397 8.06006 12.1292C8.06006 13.1187 8.78479 13.9238 9.67564 13.9238C10.5665 13.9238 11.2912 13.1187 11.2912 12.1292C11.2912 11.1397 10.5665 10.3346 9.67564 10.3346ZM9.67564 12.8983C9.35574 12.8983 9.08548 12.5461 9.08548 12.1292C9.08548 11.7122 9.35571 11.36 9.67564 11.36C9.99557 11.36 10.2658 11.7122 10.2658 12.1292C10.2658 12.5461 9.99553 12.8983 9.67564 12.8983Z" fill="#3CBCF3"/>
</svg>
