<svg width="24" height="24" viewBox="0 0 24 24" fill="none" xmlns="http://www.w3.org/2000/svg">
<path d="M12.8579 6.57891H9.56582C9.23441 6.57891 8.96582 6.31031 8.96582 5.97891C8.96582 5.6475 9.23441 5.37891 9.56582 5.37891H12.8579C13.1893 5.37891 13.4579 5.6475 13.4579 5.97891C13.4579 6.31031 13.1893 6.57891 12.8579 6.57891Z" fill="#17C2E8"/>
<path d="M18.8785 11.7117H9.56582C9.23441 11.7117 8.96582 11.4429 8.96582 11.1117C8.96582 10.7803 9.23441 10.5117 9.56582 10.5117H18.8785C19.2099 10.5117 19.4785 10.7803 19.4785 11.1117C19.4785 11.4429 19.2099 11.7117 18.8785 11.7117Z" fill="#17C2E8"/>
<path d="M18.8785 16.2781H9.56582C9.23441 16.2781 8.96582 16.0093 8.96582 15.6781C8.96582 15.3467 9.23441 15.0781 9.56582 15.0781H18.8785C19.2099 15.0781 19.4785 15.3467 19.4785 15.6781C19.4785 16.0093 19.2099 16.2781 18.8785 16.2781Z" fill="#17C2E8"/>
<path d="M20.3346 23.0508H3.05227C1.36734 23.0489 0.001875 21.6834 0 19.9985V15.8154C0.001875 14.1593 1.34391 12.8173 3 12.8154H4.90453V1.8C4.9057 0.80625 5.71078 0.00117187 6.70453 0H22.2C23.1938 0.00117187 23.9988 0.80625 24 1.8V19.3854C23.9977 21.4088 22.358 23.0484 20.3346 23.0508ZM5.47664 21.8508H20.3346C21.6956 21.8494 22.7986 20.7464 22.8 19.3854V1.8C22.7995 1.46883 22.5312 1.20047 22.2 1.2H6.70453C6.37336 1.20047 6.105 1.46883 6.10453 1.8V19.9985C6.10523 20.6684 5.88445 21.3195 5.47664 21.8508ZM3 14.0154C2.00625 14.0166 1.20117 14.8216 1.2 15.8154V19.9988C1.2 21.0218 2.02922 21.851 3.05227 21.851C4.07531 21.851 4.90453 21.0218 4.90453 19.9988V14.0154H3Z" fill="#17C2E8"/>
</svg>
