<svg width="24" height="24" viewBox="0 0 24 24" fill="none" xmlns="http://www.w3.org/2000/svg">
<path d="M0.473114 19.595C2.69511 21.005 5.28112 21.75 7.95112 21.75C11.8611 21.75 15.4441 20.248 18.0411 17.521C20.5261 14.911 21.8931 11.404 21.8251 7.84501C22.7671 7.03901 23.8751 5.50001 23.8751 4.00001C23.8751 3.42501 23.2511 3.06001 22.7451 3.35301C21.8601 3.87301 21.0531 4.00901 20.2231 3.77601C18.5281 2.12401 16.0051 1.77601 13.8791 2.92201C12.0211 3.92201 10.9881 5.75201 11.0811 7.75201C7.94212 7.36901 5.04212 5.79501 3.02011 3.34901C2.68811 2.95001 2.05811 2.99701 1.79411 3.44901C0.820115 5.11701 0.830115 7.05001 1.67711 8.61101C1.27411 8.68201 1.02511 9.02101 1.02511 9.38801C1.02511 10.957 1.73111 12.399 2.86811 13.383C2.65611 13.587 2.58611 13.89 2.67611 14.16C3.17612 15.662 4.30812 16.836 5.72311 17.424C4.18411 18.159 2.48211 18.404 0.967115 18.218C0.183114 18.112 -0.203886 19.166 0.473114 19.595ZM8.15612 17.681C8.71712 17.25 8.41912 16.352 7.71512 16.337C6.47512 16.311 5.34612 15.7 4.64312 14.739C4.98212 14.717 5.33312 14.665 5.66711 14.575C6.42811 14.369 6.39212 13.271 5.61911 13.116C4.21611 12.834 3.11511 11.812 2.70211 10.496C3.07911 10.589 3.46311 10.641 3.84611 10.648C4.60511 10.652 4.89211 9.67901 4.27311 9.27201C2.87811 8.35301 2.28311 6.73001 2.67711 5.20401C5.11312 7.67201 8.41811 9.15901 11.9141 9.32701C12.4151 9.35801 12.7911 8.88701 12.6811 8.41001C12.2061 6.35101 13.3561 4.90801 14.5911 4.24301C15.8131 3.58301 17.7751 3.37701 19.2791 4.95501C19.7261 5.42601 21.2341 5.44401 22.0011 5.26501C21.6571 5.91301 21.1281 6.52801 20.6331 6.87401C20.4221 7.02201 20.3011 7.26801 20.3141 7.52501C20.4751 10.81 19.2511 14.076 16.9561 16.485C14.6441 18.912 11.4471 20.249 7.95212 20.249C6.56212 20.249 5.19912 20.023 3.91111 19.587C5.45112 19.289 6.91412 18.637 8.15612 17.681Z" fill="#17C2E8"/>
</svg>
