<svg width="20" height="20" viewBox="0 0 20 20" fill="none" xmlns="http://www.w3.org/2000/svg">
<mask id="mask0" mask-type="alpha" maskUnits="userSpaceOnUse" x="0" y="0" width="20" height="20">
<rect width="20" height="20" fill="#C4C4C4"/>
</mask>
<g mask="url(#mask0)">
<mask id="path-2-inside-1" fill="white">
<path d="M15.9367 6.97342L15.0797 5.81691C15.029 5.74841 14.9747 5.68139 14.9184 5.61783C14.5849 5.24057 14.1246 5.00414 13.6222 4.95201C13.1215 4.90007 12.6223 5.03566 12.2165 5.33388L12.0203 5.47802L11.5983 4.9085L11.2873 4.4887C11.0216 4.13019 10.6319 3.89738 10.1899 3.83323C9.75011 3.76941 9.31275 3.88072 8.95806 4.14665L8.30693 4.62371C8.13012 4.46402 7.93489 4.35587 7.72342 4.30095C7.28174 4.18625 6.81022 4.31152 6.32193 4.67336L5.85674 5.01801L4.84185 3.64827C4.4287 3.09065 3.82664 2.78044 3.19009 2.79714C2.59167 2.81284 2.04566 3.10724 1.72931 3.58465C1.2546 4.30098 1.27787 5.20924 1.7881 5.89782L5.64085 11.1228C5.4189 11.1281 5.19082 11.1592 4.96516 11.2163C4.37908 11.3648 3.89171 11.6727 3.60869 12.0694C3.58883 12.0898 3.571 12.1127 3.55564 12.1379C3.28249 12.5862 3.20768 13.0704 3.33916 13.5381C3.50351 14.1227 3.97386 14.629 4.69935 15.0026C4.70302 15.0045 4.70672 15.0063 4.71047 15.0081L10.8516 17.9238C10.931 17.9616 11.0193 17.9703 11.1022 17.9515C11.1534 17.9398 11.2025 17.9177 11.2461 17.8853L17.963 12.9085C18.0788 12.8227 18.137 12.6794 18.1139 12.5372L18.0067 11.8777C17.7193 10.1091 17.0035 8.41317 15.9367 6.97342ZM12.987 8.07679C13.0809 8.20347 13.2376 8.25597 13.3821 8.22313C13.4326 8.21165 13.4816 8.18977 13.5259 8.15696C13.6968 8.03033 13.7327 7.78906 13.606 7.61812L12.4789 6.09699L12.6726 5.95468C13.1962 5.56994 13.9136 5.64444 14.3413 6.12819C14.383 6.17525 14.4231 6.22479 14.4607 6.27551L15.3176 7.43204C16.3115 8.77346 16.9785 10.3535 17.2463 12.0013L17.3158 12.4292L10.9732 17.1287L5.04673 14.3148C4.52691 14.046 4.18401 13.6962 4.08091 13.3296C4.01408 13.0919 4.04559 12.8492 4.17451 12.6072C4.18486 12.5943 4.19447 12.5806 4.20327 12.5662C4.54767 12.0009 5.66174 11.714 6.34496 12.0103L7.92134 12.9589C8.01007 13.0123 8.1117 13.0258 8.2053 13.0045C8.30398 12.9821 8.39372 12.9211 8.45004 12.8275C8.55975 12.6452 8.50088 12.4085 8.31861 12.2988L6.78482 11.3758L2.40773 5.43981C2.02496 4.92321 2.1381 4.36258 2.37165 4.01017C2.54675 3.74592 2.86816 3.5762 3.21044 3.56725C3.59803 3.55709 3.95761 3.74872 4.22298 4.10686L7.53148 8.57209C7.62534 8.69877 7.78209 8.75127 7.9266 8.71843C7.97708 8.70695 8.02607 8.68507 8.07032 8.65226C8.24126 8.52559 8.27716 8.28436 8.15049 8.11342L6.31555 5.63695L6.78076 5.29225C7.07275 5.07596 7.32482 4.99327 7.52995 5.04655C7.67512 5.08426 7.81491 5.19264 7.94539 5.36871L9.89653 8.00204C9.99039 8.12872 10.1471 8.18122 10.2916 8.14838C10.3421 8.1369 10.3911 8.11502 10.4354 8.08221C10.6063 7.95554 10.6422 7.71431 10.5155 7.54337L8.79495 5.22119L9.41533 4.76665L9.41921 4.76375C9.60898 4.62103 9.84343 4.56126 10.0794 4.59551C10.3167 4.62994 10.5259 4.75483 10.6684 4.94721L12.987 8.07679Z"/>
</mask>
<path d="M15.9367 6.97342L15.0797 5.81691C15.029 5.74841 14.9747 5.68139 14.9184 5.61783C14.5849 5.24057 14.1246 5.00414 13.6222 4.95201C13.1215 4.90007 12.6223 5.03566 12.2165 5.33388L12.0203 5.47802L11.5983 4.9085L11.2873 4.4887C11.0216 4.13019 10.6319 3.89738 10.1899 3.83323C9.75011 3.76941 9.31275 3.88072 8.95806 4.14665L8.30693 4.62371C8.13012 4.46402 7.93489 4.35587 7.72342 4.30095C7.28174 4.18625 6.81022 4.31152 6.32193 4.67336L5.85674 5.01801L4.84185 3.64827C4.4287 3.09065 3.82664 2.78044 3.19009 2.79714C2.59167 2.81284 2.04566 3.10724 1.72931 3.58465C1.2546 4.30098 1.27787 5.20924 1.7881 5.89782L5.64085 11.1228C5.4189 11.1281 5.19082 11.1592 4.96516 11.2163C4.37908 11.3648 3.89171 11.6727 3.60869 12.0694C3.58883 12.0898 3.571 12.1127 3.55564 12.1379C3.28249 12.5862 3.20768 13.0704 3.33916 13.5381C3.50351 14.1227 3.97386 14.629 4.69935 15.0026C4.70302 15.0045 4.70672 15.0063 4.71047 15.0081L10.8516 17.9238C10.931 17.9616 11.0193 17.9703 11.1022 17.9515C11.1534 17.9398 11.2025 17.9177 11.2461 17.8853L17.963 12.9085C18.0788 12.8227 18.137 12.6794 18.1139 12.5372L18.0067 11.8777C17.7193 10.1091 17.0035 8.41317 15.9367 6.97342ZM12.987 8.07679C13.0809 8.20347 13.2376 8.25597 13.3821 8.22313C13.4326 8.21165 13.4816 8.18977 13.5259 8.15696C13.6968 8.03033 13.7327 7.78906 13.606 7.61812L12.4789 6.09699L12.6726 5.95468C13.1962 5.56994 13.9136 5.64444 14.3413 6.12819C14.383 6.17525 14.4231 6.22479 14.4607 6.27551L15.3176 7.43204C16.3115 8.77346 16.9785 10.3535 17.2463 12.0013L17.3158 12.4292L10.9732 17.1287L5.04673 14.3148C4.52691 14.046 4.18401 13.6962 4.08091 13.3296C4.01408 13.0919 4.04559 12.8492 4.17451 12.6072C4.18486 12.5943 4.19447 12.5806 4.20327 12.5662C4.54767 12.0009 5.66174 11.714 6.34496 12.0103L7.92134 12.9589C8.01007 13.0123 8.1117 13.0258 8.2053 13.0045C8.30398 12.9821 8.39372 12.9211 8.45004 12.8275C8.55975 12.6452 8.50088 12.4085 8.31861 12.2988L6.78482 11.3758L2.40773 5.43981C2.02496 4.92321 2.1381 4.36258 2.37165 4.01017C2.54675 3.74592 2.86816 3.5762 3.21044 3.56725C3.59803 3.55709 3.95761 3.74872 4.22298 4.10686L7.53148 8.57209C7.62534 8.69877 7.78209 8.75127 7.9266 8.71843C7.97708 8.70695 8.02607 8.68507 8.07032 8.65226C8.24126 8.52559 8.27716 8.28436 8.15049 8.11342L6.31555 5.63695L6.78076 5.29225C7.07275 5.07596 7.32482 4.99327 7.52995 5.04655C7.67512 5.08426 7.81491 5.19264 7.94539 5.36871L9.89653 8.00204C9.99039 8.12872 10.1471 8.18122 10.2916 8.14838C10.3421 8.1369 10.3911 8.11502 10.4354 8.08221C10.6063 7.95554 10.6422 7.71431 10.5155 7.54337L8.79495 5.22119L9.41533 4.76665L9.41921 4.76375C9.60898 4.62103 9.84343 4.56126 10.0794 4.59551C10.3167 4.62994 10.5259 4.75483 10.6684 4.94721L12.987 8.07679Z" fill="white"/>
<path d="M15.9367 6.97342L16.7401 6.37808L16.7401 6.37808L15.9367 6.97342ZM15.0797 5.81691L14.2761 6.41203L14.2763 6.41226L15.0797 5.81691ZM14.9184 5.61783L14.1692 6.28017L14.1697 6.28073L14.9184 5.61783ZM13.6222 4.95201L13.7255 3.95735L13.7254 3.95735L13.6222 4.95201ZM12.2165 5.33388L12.8086 6.13973L12.8086 6.13973L12.2165 5.33388ZM12.0203 5.47802L11.2168 6.07335L11.8098 6.87364L12.6124 6.28386L12.0203 5.47802ZM11.5983 4.9085L12.4018 4.31318L12.4018 4.31315L11.5983 4.9085ZM11.2873 4.4887L12.0907 3.89334L12.0907 3.89334L11.2873 4.4887ZM10.1899 3.83323L10.3336 2.8436L10.3335 2.84359L10.1899 3.83323ZM8.95806 4.14665L9.54911 4.95336L9.55793 4.94674L8.95806 4.14665ZM8.30693 4.62371L7.63666 5.36582L8.24102 5.91168L8.89795 5.43037L8.30693 4.62371ZM7.72342 4.30095L7.9748 3.33306L7.97477 3.33306L7.72342 4.30095ZM6.32193 4.67336L6.91723 5.47686L6.91729 5.47681L6.32193 4.67336ZM5.85674 5.01801L5.05326 5.61334L5.64857 6.4168L6.45205 5.82151L5.85674 5.01801ZM4.84185 3.64827L4.03836 4.24358L4.03837 4.2436L4.84185 3.64827ZM3.19009 2.79714L3.21631 3.7968L3.21631 3.7968L3.19009 2.79714ZM1.72931 3.58465L2.56288 4.13706L2.56291 4.13702L1.72931 3.58465ZM1.7881 5.89782L2.59295 5.30434L2.59156 5.30247L1.7881 5.89782ZM5.64085 11.1228L5.66471 12.1225L7.58666 12.0766L6.4457 10.5293L5.64085 11.1228ZM4.96516 11.2163L4.71986 10.2469L4.71954 10.247L4.96516 11.2163ZM3.60869 12.0694L4.32517 12.767L4.37841 12.7123L4.42273 12.6502L3.60869 12.0694ZM3.55564 12.1379L4.40962 12.6582L4.40965 12.6581L3.55564 12.1379ZM3.33916 13.5381L2.37647 13.8087L2.37649 13.8088L3.33916 13.5381ZM4.69935 15.0026L5.15759 14.1137L5.1571 14.1135L4.69935 15.0026ZM4.71047 15.0081L5.13939 14.1047L5.13345 14.1019L4.71047 15.0081ZM10.8516 17.9238L11.2808 17.0206L11.2805 17.0205L10.8516 17.9238ZM11.2461 17.8853L10.6508 17.0819L10.6505 17.082L11.2461 17.8853ZM17.963 12.9085L17.3678 12.1049L17.3677 12.105L17.963 12.9085ZM18.1139 12.5372L17.1269 12.6976L17.1269 12.6977L18.1139 12.5372ZM18.0067 11.8777L17.0197 12.0381L17.0197 12.0381L18.0067 11.8777ZM12.987 8.07679L12.1835 8.67208L12.1835 8.67208L12.987 8.07679ZM13.5259 8.15696L12.9306 7.35342L12.9302 7.35369L13.5259 8.15696ZM13.606 7.61812L12.8026 8.21346L12.8026 8.2135L13.606 7.61812ZM12.4789 6.09699L11.8868 5.29112L11.0777 5.88561L11.6755 6.69233L12.4789 6.09699ZM12.6726 5.95468L13.2647 6.76055L13.2648 6.76049L12.6726 5.95468ZM14.3413 6.12819L13.5922 6.79057L13.5923 6.7907L14.3413 6.12819ZM14.4607 6.27551L13.6571 6.87066L13.6572 6.87086L14.4607 6.27551ZM15.3176 7.43204L16.1211 6.83672L16.1211 6.83669L15.3176 7.43204ZM17.2463 12.0013L18.2334 11.8409L18.2334 11.8409L17.2463 12.0013ZM17.3158 12.4292L17.9112 13.2326L18.4006 12.87L18.3029 12.2688L17.3158 12.4292ZM10.9732 17.1287L10.5443 18.0321L11.0864 18.2895L11.5686 17.9322L10.9732 17.1287ZM5.04673 14.3148L4.58737 15.2031L4.60247 15.2109L4.61782 15.2182L5.04673 14.3148ZM4.08091 13.3296L3.11824 13.6002L3.11824 13.6003L4.08091 13.3296ZM4.17451 12.6072L3.39432 11.9817L3.33588 12.0546L3.29195 12.137L4.17451 12.6072ZM4.20327 12.5662L5.05715 13.0867L5.05727 13.0865L4.20327 12.5662ZM6.34496 12.0103L6.86056 11.1535L6.80373 11.1193L6.74289 11.0929L6.34496 12.0103ZM7.92134 12.9589L7.40573 13.8158L7.4058 13.8158L7.92134 12.9589ZM8.45004 12.8275L9.30675 13.3433L9.30683 13.3432L8.45004 12.8275ZM8.31861 12.2988L8.83428 11.442L8.83423 11.442L8.31861 12.2988ZM6.78482 11.3758L5.97997 11.9693L6.09833 12.1298L6.2692 12.2326L6.78482 11.3758ZM2.40773 5.43981L3.21258 4.84633L3.21121 4.84448L2.40773 5.43981ZM2.37165 4.01017L3.20521 4.56261L3.20526 4.56253L2.37165 4.01017ZM3.21044 3.56725L3.23657 4.56691L3.23664 4.56691L3.21044 3.56725ZM4.22298 4.10686L5.02646 3.51152L5.02645 3.51151L4.22298 4.10686ZM7.53148 8.57209L8.33499 7.97679L8.33496 7.97675L7.53148 8.57209ZM8.07032 8.65226L7.47494 7.84881L7.4747 7.84899L8.07032 8.65226ZM8.15049 8.11342L7.34702 8.70876L7.34705 8.7088L8.15049 8.11342ZM6.31555 5.63695L5.72021 4.83347L4.91673 5.4288L5.51207 6.23228L6.31555 5.63695ZM6.78076 5.29225L6.18554 4.48869L6.18542 4.48877L6.78076 5.29225ZM7.52995 5.04655L7.78137 4.07867L7.78134 4.07866L7.52995 5.04655ZM7.94539 5.36871L8.74887 4.77338L8.74882 4.77331L7.94539 5.36871ZM9.89653 8.00204L10.7 7.40674L10.7 7.4067L9.89653 8.00204ZM10.4354 8.08221L9.83999 7.27876L9.83975 7.27894L10.4354 8.08221ZM10.5155 7.54337L9.71206 8.1387L9.7121 8.13875L10.5155 7.54337ZM8.79495 5.22119L8.20392 4.41455L7.39295 5.00874L7.99147 5.81652L8.79495 5.22119ZM9.41533 4.76665L10.0064 5.57332L10.0132 5.56826L9.41533 4.76665ZM9.41921 4.76375L10.0171 5.56537L10.0203 5.56294L9.41921 4.76375ZM10.0794 4.59551L9.93579 5.58514L9.93584 5.58515L10.0794 4.59551ZM10.6684 4.94721L9.86489 5.5425L9.8649 5.5425L10.6684 4.94721ZM16.7401 6.37808L15.8832 5.22157L14.2763 6.41226L15.1332 7.56876L16.7401 6.37808ZM15.8834 5.22179C15.8154 5.13 15.7428 5.04036 15.6671 4.95492L14.1697 6.28073C14.2066 6.32242 14.2426 6.36682 14.2761 6.41203L15.8834 5.22179ZM15.6676 4.95549C15.1675 4.38973 14.4763 4.03527 13.7255 3.95735L13.519 5.94667C13.7728 5.97301 14.0023 6.09141 14.1692 6.28017L15.6676 4.95549ZM13.7254 3.95735C12.9774 3.87976 12.2304 4.08273 11.6243 4.52804L12.8086 6.13973C13.0143 5.9886 13.2656 5.92038 13.5191 5.94667L13.7254 3.95735ZM11.6243 4.52804L11.4282 4.67217L12.6124 6.28386L12.8086 6.13973L11.6243 4.52804ZM12.8238 4.88269L12.4018 4.31318L10.7948 5.50383L11.2168 6.07335L12.8238 4.88269ZM12.4018 4.31315L12.0907 3.89334L10.4838 5.08405L10.7949 5.50386L12.4018 4.31315ZM12.0907 3.89334C11.6663 3.32058 11.039 2.94599 10.3336 2.8436L10.0463 4.82286C10.2248 4.84877 10.3769 4.9398 10.4838 5.08406L12.0907 3.89334ZM10.3335 2.84359C9.63121 2.74169 8.92618 2.9207 8.35819 3.34655L9.55793 4.94674C9.69933 4.84074 9.86902 4.79714 10.0463 4.82286L10.3335 2.84359ZM8.36705 3.33999L7.71592 3.81705L8.89795 5.43037L9.54908 4.95331L8.36705 3.33999ZM8.97721 3.8816C8.69248 3.62444 8.35639 3.43217 7.9748 3.33306L7.47205 5.26884C7.51338 5.27958 7.56776 5.30359 7.63666 5.36582L8.97721 3.8816ZM7.97477 3.33306C7.15037 3.11897 6.37147 3.39201 5.72656 3.8699L6.91729 5.47681C7.24897 5.23103 7.41311 5.25354 7.47208 5.26885L7.97477 3.33306ZM5.72662 3.86986L5.26143 4.21451L6.45205 5.82151L6.91723 5.47686L5.72662 3.86986ZM6.66022 4.42268L5.64533 3.05294L4.03837 4.2436L5.05326 5.61334L6.66022 4.42268ZM5.64534 3.05295C5.05849 2.26089 4.1592 1.77137 3.16386 1.79748L3.21631 3.7968C3.49408 3.78951 3.79891 3.92041 4.03836 4.24358L5.64534 3.05295ZM3.16387 1.79748C2.25689 1.82127 1.40156 2.26888 0.895713 3.03228L2.56291 4.13702C2.68975 3.94561 2.92645 3.8044 3.21631 3.7968L3.16387 1.79748ZM0.895743 3.03223C0.189224 4.09834 0.223116 5.46546 0.98463 6.49317L2.59156 5.30247C2.33262 4.95301 2.31997 4.50361 2.56288 4.13706L0.895743 3.03223ZM0.983246 6.4913L4.836 11.7162L6.4457 10.5293L2.59294 5.30434L0.983246 6.4913ZM5.61699 10.123C5.31855 10.1302 5.01623 10.1719 4.71986 10.2469L5.21047 12.1858C5.36542 12.1466 5.51925 12.1259 5.66471 12.1225L5.61699 10.123ZM4.71954 10.247C3.95849 10.4398 3.24465 10.8579 2.79465 11.4886L4.42273 12.6502C4.53877 12.4876 4.79967 12.2899 5.21079 12.1857L4.71954 10.247ZM2.89221 11.3718C2.82043 11.4455 2.75635 11.5278 2.70162 11.6176L4.40965 12.6581C4.38565 12.6975 4.35724 12.7341 4.32517 12.767L2.89221 11.3718ZM2.70166 11.6176C2.29698 12.2818 2.16338 13.0507 2.37647 13.8087L4.30185 13.2675C4.25198 13.0901 4.26801 12.8906 4.40962 12.6582L2.70166 11.6176ZM2.37649 13.8088C2.63925 14.7434 3.35773 15.4366 4.2416 15.8916L5.1571 14.1135C4.59 13.8215 4.36777 13.502 4.30183 13.2675L2.37649 13.8088ZM4.24111 15.8914C4.25233 15.8972 4.26833 15.9053 4.2875 15.9142L5.13345 14.1019C5.1451 14.1074 5.15371 14.1117 5.15759 14.1137L4.24111 15.8914ZM4.28157 15.9114L10.4227 18.8272L11.2805 17.0205L5.13938 14.1047L4.28157 15.9114ZM10.4223 18.827C10.7085 18.963 11.0265 18.9942 11.3239 18.9266L10.8806 16.9763C11.0122 16.9464 11.1535 16.9601 11.2808 17.0206L10.4223 18.827ZM11.3239 18.9266C11.5079 18.8848 11.6847 18.805 11.8417 18.6886L10.6505 17.082C10.7202 17.0304 10.7989 16.9949 10.8806 16.9763L11.3239 18.9266ZM11.8414 18.6888L18.5584 13.712L17.3677 12.105L10.6508 17.0819L11.8414 18.6888ZM18.5582 13.7121C18.9748 13.4035 19.1841 12.8882 19.1009 12.3767L17.1269 12.6977C17.09 12.4707 17.1828 12.2419 17.3678 12.1049L18.5582 13.7121ZM19.101 12.3768L18.9937 11.7172L17.0197 12.0381L17.1269 12.6976L19.101 12.3768ZM18.9938 11.7173C18.6807 9.79109 17.9019 7.94608 16.7401 6.37808L15.1332 7.56876C16.105 8.88027 16.7578 10.427 17.0197 12.0381L18.9938 11.7173ZM12.1835 8.67208C12.522 9.12893 13.0865 9.31582 13.6038 9.19825L13.1605 7.248C13.3887 7.19612 13.6398 7.27801 13.7905 7.48149L12.1835 8.67208ZM13.6038 9.19825C13.7866 9.15671 13.9634 9.07741 14.1215 8.96023L12.9302 7.35369C12.9998 7.30213 13.0787 7.2666 13.1605 7.248L13.6038 9.19825ZM14.1211 8.9605C14.7359 8.50505 14.865 7.63741 14.4095 7.02274L12.8026 8.2135C12.6004 7.94071 12.6577 7.55561 12.9306 7.35342L14.1211 8.9605ZM14.4095 7.02279L13.2824 5.50165L11.6755 6.69233L12.8026 8.21346L14.4095 7.02279ZM13.071 6.90285L13.2647 6.76055L12.0805 5.14881L11.8868 5.29112L13.071 6.90285ZM13.2648 6.76049C13.3758 6.67895 13.5107 6.69841 13.5922 6.79057L15.0905 5.4658C14.3166 4.59047 13.0166 4.46093 12.0805 5.14887L13.2648 6.76049ZM13.5923 6.7907C13.6148 6.81613 13.6367 6.8432 13.6571 6.87066L15.2643 5.68036C15.2095 5.60639 15.1512 5.53437 15.0904 5.46567L13.5923 6.7907ZM13.6572 6.87086L14.5142 8.02739L16.1211 6.83669L15.2641 5.68016L13.6572 6.87086ZM14.5141 8.02736C15.413 9.24056 16.017 10.6715 16.2593 12.1617L18.2334 11.8409C17.9399 10.0355 17.21 8.30636 16.1211 6.83672L14.5141 8.02736ZM16.2593 12.1617L16.3288 12.5895L18.3029 12.2688L18.2334 11.8409L16.2593 12.1617ZM16.7205 11.6257L10.3779 16.3253L11.5686 17.9322L17.9112 13.2326L16.7205 11.6257ZM11.4021 16.2254L5.47564 13.4115L4.61782 15.2182L10.5443 18.0321L11.4021 16.2254ZM5.50608 13.4266C5.32029 13.3305 5.19642 13.2351 5.12165 13.1589C5.04602 13.0817 5.03943 13.0441 5.04358 13.0589L3.11824 13.6003C3.32853 14.3482 3.95214 14.8746 4.58737 15.2031L5.50608 13.4266ZM5.04359 13.0589C5.04453 13.0623 5.04588 13.0685 5.0465 13.0768C5.04711 13.0851 5.04677 13.0927 5.04601 13.0986C5.04526 13.1043 5.04442 13.1061 5.04537 13.1032C5.04638 13.1002 5.04952 13.0916 5.05708 13.0774L3.29195 12.137C3.05658 12.5788 2.97364 13.0859 3.11824 13.6002L5.04359 13.0589ZM4.9547 13.2328C4.99182 13.1865 5.02604 13.1377 5.05715 13.0867L3.34939 12.0457C3.36289 12.0236 3.37789 12.0022 3.39432 11.9817L4.9547 13.2328ZM5.05727 13.0865C5.04099 13.1132 5.04548 13.0918 5.11542 13.0482C5.18167 13.007 5.27846 12.9641 5.39764 12.9332C5.66065 12.8652 5.86888 12.8939 5.94703 12.9277L6.74289 11.0929C6.13781 10.8305 5.44741 10.8544 4.89647 10.997C4.3632 11.1351 3.71177 11.4509 3.34927 12.0459L5.05727 13.0865ZM5.82935 12.8672L7.40573 13.8158L8.43694 12.1021L6.86056 11.1535L5.82935 12.8672ZM7.4058 13.8158C7.72439 14.0075 8.09153 14.0559 8.42695 13.9797L7.98365 12.0294C8.13186 11.9957 8.29575 12.0172 8.43688 12.1021L7.4058 13.8158ZM8.42695 13.9797C8.78015 13.8994 9.10442 13.6794 9.30675 13.3433L7.59333 12.3117C7.68301 12.1627 7.82781 12.0648 7.98365 12.0294L8.42695 13.9797ZM9.30683 13.3432C9.7014 12.6876 9.48963 11.8365 8.83428 11.442L7.80294 13.1556C7.51214 12.9806 7.4181 12.6029 7.59325 12.3118L9.30683 13.3432ZM8.83423 11.442L7.30044 10.519L6.2692 12.2326L7.80299 13.1556L8.83423 11.442ZM7.58967 10.7823L3.21257 4.84633L1.60288 6.03329L5.97997 11.9693L7.58967 10.7823ZM3.21121 4.84448C3.18216 4.80528 3.17033 4.77634 3.16487 4.7583C3.15923 4.73968 3.15707 4.72157 3.15782 4.70211C3.15954 4.65776 3.17729 4.60473 3.20521 4.56261L1.5381 3.45774C1.13309 4.06884 0.910973 5.09946 1.60424 6.03514L3.21121 4.84448ZM3.20526 4.56253C3.19847 4.57278 3.19303 4.57796 3.19133 4.57947C3.18968 4.58093 3.19077 4.57965 3.1953 4.57726C3.1998 4.57488 3.20614 4.57224 3.2139 4.5702C3.2216 4.56817 3.22933 4.5671 3.23657 4.56691L3.18431 2.56759C2.54672 2.58426 1.90958 2.8971 1.53804 3.45782L3.20526 4.56253ZM3.23664 4.56691C3.25283 4.56648 3.26905 4.56909 3.29224 4.58145C3.31784 4.59509 3.36454 4.62802 3.41951 4.70221L5.02645 3.51151C4.60047 2.93662 3.95023 2.54752 3.18424 2.56759L3.23664 4.56691ZM3.4195 4.70219L6.72801 9.16742L8.33496 7.97675L5.02646 3.51152L3.4195 4.70219ZM6.72798 9.16738C7.06645 9.62423 7.631 9.81112 8.14824 9.69355L7.70495 7.7433C7.93318 7.69142 8.18424 7.77331 8.33499 7.97679L6.72798 9.16738ZM8.14824 9.69355C8.33101 9.65201 8.5079 9.57271 8.66594 9.45553L7.4747 7.84899C7.54424 7.79743 7.62315 7.76189 7.70495 7.7433L8.14824 9.69355ZM8.6657 9.4557C9.28027 9.00029 9.4095 8.13281 8.95394 7.51804L7.34705 8.7088C7.14483 8.43591 7.20224 8.05089 7.47494 7.84881L8.6657 9.4557ZM8.95397 7.51809L7.11902 5.04161L5.51207 6.23228L7.34702 8.70876L8.95397 7.51809ZM6.91088 6.44042L7.37609 6.09573L6.18542 4.48877L5.72021 4.83347L6.91088 6.44042ZM7.37598 6.09581C7.41874 6.06414 7.45141 6.0438 7.47399 6.03138C7.49676 6.01886 7.50508 6.0167 7.49958 6.01851C7.48765 6.02242 7.40256 6.04664 7.27855 6.01443L7.78134 4.07866C7.12848 3.90909 6.55263 4.21677 6.18554 4.48869L7.37598 6.09581ZM7.27852 6.01442C7.19894 5.99375 7.14964 5.96092 7.13038 5.94599C7.11265 5.93224 7.11848 5.93243 7.14196 5.96412L8.74882 4.77331C8.543 4.49559 8.22951 4.19508 7.78137 4.07867L7.27852 6.01442ZM7.14191 5.96405L9.09305 8.59737L10.7 7.4067L8.74887 4.77338L7.14191 5.96405ZM9.09303 8.59733C9.4315 9.05418 9.99606 9.24107 10.5133 9.1235L10.07 7.17325C10.2982 7.12137 10.5493 7.20326 10.7 7.40674L9.09303 8.59733ZM10.5133 9.1235C10.6961 9.08196 10.8729 9.00267 11.031 8.88548L9.83975 7.27894C9.90929 7.22738 9.9882 7.19184 10.07 7.17325L10.5133 9.1235ZM11.0307 8.88565C11.6453 8.43024 11.7745 7.56276 11.319 6.94799L9.7121 8.13875C9.50988 7.86586 9.56729 7.48084 9.83999 7.27876L11.0307 8.88565ZM11.319 6.94804L9.59843 4.62586L7.99147 5.81652L9.71206 8.1387L11.319 6.94804ZM9.38598 6.02784L10.0064 5.57329L8.8243 3.96L8.20392 4.41455L9.38598 6.02784ZM10.0132 5.56826L10.0171 5.56536L8.82137 3.96213L8.81749 3.96503L10.0132 5.56826ZM10.0203 5.56294C10.01 5.57066 9.99583 5.57799 9.97894 5.58229C9.96208 5.58659 9.94693 5.58676 9.93579 5.58514L10.2231 3.60588C9.72454 3.53352 9.22179 3.66097 8.81814 3.96455L10.0203 5.56294ZM9.93584 5.58515C9.92503 5.58358 9.91107 5.57924 9.89677 5.57071C9.88247 5.56217 9.87176 5.55176 9.86489 5.5425L11.4719 4.35191C11.1705 3.94503 10.7236 3.6785 10.223 3.60587L9.93584 5.58515ZM9.8649 5.5425L12.1835 8.67208L13.7905 7.48149L11.4719 4.35191L9.8649 5.5425Z" fill="white" mask="url(#path-2-inside-1)"/>
</g>
</svg>
