<svg width="19" height="21" viewBox="0 0 19 21" fill="none" xmlns="http://www.w3.org/2000/svg">
<path d="M9.5 10C11.0111 10 12.3197 9.50727 13.3889 8.53511C14.458 7.56312 15 6.37382 15 4.99984C15 3.62634 14.458 2.43688 13.3887 1.46457C12.3193 0.49273 11.011 0 9.5 0C7.98868 0 6.68049 0.49273 5.61132 1.46473C4.54216 2.43673 4 3.62618 4 4.99984C4 6.37382 4.54216 7.56327 5.6115 8.53527C6.68084 9.50711 7.9892 10 9.5 10Z" fill="#2AA4D9"/>
<path d="M18.954 16.0836C18.9232 15.669 18.861 15.2167 18.7694 14.7391C18.677 14.258 18.558 13.8031 18.4155 13.3873C18.2683 12.9576 18.0682 12.5333 17.8208 12.1266C17.564 11.7045 17.2624 11.337 16.9239 11.0346C16.57 10.7182 16.1366 10.4638 15.6356 10.2782C15.1362 10.0937 14.5828 10.0002 13.9909 10.0002C13.7584 10.0002 13.5336 10.0893 13.0994 10.3534C12.8321 10.5162 12.5196 10.7045 12.1707 10.9128C11.8723 11.0904 11.4682 11.2568 10.969 11.4075C10.482 11.5547 9.98754 11.6294 9.49948 11.6294C9.01142 11.6294 8.51711 11.5547 8.02957 11.4075C7.53092 11.257 7.12678 11.0906 6.8288 10.913C6.48322 10.7067 6.17047 10.5183 5.89925 10.3532C5.46558 10.0891 5.24058 10 5.0081 10C4.41597 10 3.86276 10.0937 3.36358 10.2784C2.86284 10.4636 2.42934 10.718 2.07507 11.0347C1.73678 11.3373 1.43498 11.7047 1.17853 12.1266C0.931287 12.5333 0.73113 12.9575 0.583792 13.3875C0.441493 13.8032 0.322476 14.258 0.230042 14.7391C0.138477 15.2161 0.0762752 15.6685 0.0455219 16.0841C0.0152898 16.4912 0 16.9138 0 17.3406C0 18.4513 0.377901 19.3505 1.1231 20.0136C1.8591 20.668 2.83296 21 4.01722 21H14.9828C16.167 21 17.1406 20.6682 17.8767 20.0136C18.6221 19.351 19 18.4516 19 17.3404C18.9998 16.9117 18.9844 16.4888 18.954 16.0836Z" fill="#2AA4D9"/>
</svg>
