<svg width="33" height="33" viewBox="0 0 33 33" fill="none" xmlns="http://www.w3.org/2000/svg">
<path d="M16.5 0C7.40186 0 0 7.40186 0 16.5C0 25.5981 7.40186 33 16.5 33C25.5981 33 33 25.5981 33 16.5C33 7.40186 25.5981 0 16.5 0ZM16.5 31.0664C8.46805 31.0664 1.93359 24.532 1.93359 16.5C1.93359 8.46805 8.46805 1.93359 16.5 1.93359C24.532 1.93359 31.0664 8.46805 31.0664 16.5C31.0664 24.532 24.532 31.0664 16.5 31.0664Z" fill="#17C2E8"/>
<path d="M16.5 17.4023C20.2316 17.4023 23.2676 14.3664 23.2676 10.6348C23.2676 6.90312 20.2316 3.86719 16.5 3.86719C12.7684 3.86719 9.73242 6.90312 9.73242 10.6348C9.73242 14.3664 12.7684 17.4023 16.5 17.4023ZM16.5 5.80078C19.1655 5.80078 21.334 7.96931 21.334 10.6348C21.334 13.3002 19.1655 15.4688 16.5 15.4688C13.8345 15.4688 11.666 13.3002 11.666 10.6348C11.666 7.96931 13.8345 5.80078 16.5 5.80078Z" fill="#17C2E8"/>
<path d="M27.37 21.6203C26.0853 20.1685 24.2376 19.3359 22.3009 19.3359H10.6993C8.76256 19.3359 6.91488 20.1685 5.63014 21.6203L5.17188 22.1382L5.51386 22.7393C7.75793 26.683 11.9676 29.1328 16.5001 29.1328C21.0326 29.1328 25.2423 26.6829 27.4864 22.7392L27.8284 22.1382L27.37 21.6203ZM16.5001 27.1992C12.9077 27.1992 9.55456 25.3818 7.58087 22.4107C8.4479 21.679 9.55179 21.2695 10.6993 21.2695H22.3009C23.4484 21.2695 24.5523 21.679 25.4193 22.4107C23.4456 25.3818 20.0925 27.1992 16.5001 27.1992Z" fill="#17C2E8"/>
</svg>
