<svg width="19" height="18" viewBox="0 0 19 18" fill="none" xmlns="http://www.w3.org/2000/svg">
<path d="M6.86841 3.63577C6.92055 3.91423 7.19679 4.13385 7.52265 4.07291C7.83905 4.00686 8.01899 3.70349 7.9598 3.41831C7.89029 3.0867 7.56277 2.90197 7.25246 2.99452C6.97529 3.07723 6.81134 3.36346 6.86841 3.63577Z" fill="white"/>
<path d="M18.8604 11.4108C15.8315 2.5939 16.0399 3.19798 16.0269 3.16796C15.7116 2.43826 15.0996 1.87099 14.3477 1.61155C14.2401 1.57441 8.14335 0.148255 7.96715 0.0872452C7.42678 -0.0999023 6.67604 0.00500867 6.149 0.489744L0.92427 5.29735C0.336888 5.83761 0 6.60668 0 7.40745V15.9209C0 16.9242 0.811863 17.7405 1.8098 17.7405H12.9876C13.9856 17.7405 14.7974 16.9242 14.7974 15.9209V15.0981L17.913 13.7647C18.8188 13.3727 19.2402 12.3206 18.8604 11.4108V11.4108ZM12.9876 16.6271H1.8098C1.42574 16.6271 1.11331 16.3103 1.11331 15.9209V7.40745C1.11331 6.91726 1.31912 6.44677 1.67802 6.11668C6.15427 1.99787 3.38747 4.56695 6.92056 1.3087C7.10481 1.13888 7.35921 1.07067 7.61152 1.14675C7.83704 1.2141 7.4391 0.88998 13.1195 6.11675C13.4783 6.44681 13.6841 6.91726 13.6841 7.40745V15.9209C13.6841 16.3103 13.3716 16.6271 12.9876 16.6271V16.6271ZM17.4729 12.742L14.7974 13.8871V7.40745C14.7974 6.60668 14.4605 5.83761 13.8732 5.29743L9.98224 1.71713L14.0088 2.67258C14.4484 2.83167 14.8066 3.1647 14.9969 3.59132C18.0201 12.3914 17.8162 11.8008 17.8294 11.8312C17.9814 12.1826 17.8206 12.5916 17.4729 12.742Z" fill="white"/>
<path d="M8.97917 6.87749C8.69576 6.75851 8.36945 6.89196 8.25048 7.17541L5.54057 13.6341C5.38597 14.0026 5.65906 14.4063 6.05362 14.4063C6.27112 14.4063 6.47775 14.278 6.56719 14.0649L9.2771 7.60619C9.39603 7.32267 9.26266 6.99643 8.97917 6.87749V6.87749Z" fill="white"/>
<path d="M6.37032 8.48161C6.37032 7.40726 5.58347 6.5332 4.61626 6.5332C3.64906 6.5332 2.86224 7.40726 2.86224 8.48161C2.86224 9.55595 3.64909 10.43 4.6163 10.43C5.58351 10.43 6.37032 9.55595 6.37032 8.48161V8.48161ZM4.6163 9.3167C4.26899 9.3167 3.97555 8.93428 3.97555 8.48161C3.97555 8.02894 4.26895 7.64651 4.6163 7.64651C4.96365 7.64651 5.25705 8.02894 5.25705 8.48161C5.25701 8.93428 4.96362 9.3167 4.6163 9.3167V9.3167Z" fill="white"/>
<path d="M10.2332 10.9492C9.26598 10.9492 8.47913 11.8233 8.47913 12.8976C8.47913 13.972 9.26598 14.846 10.2332 14.846C11.2004 14.846 11.9872 13.972 11.9872 12.8976C11.9872 11.8233 11.2004 10.9492 10.2332 10.9492ZM10.2332 13.7327C9.88587 13.7327 9.59244 13.3503 9.59244 12.8976C9.59244 12.445 9.88583 12.0625 10.2332 12.0625C10.5805 12.0625 10.8739 12.445 10.8739 12.8976C10.8739 13.3503 10.5805 13.7327 10.2332 13.7327Z" fill="white"/>
</svg>
