<svg width="48" height="50" viewBox="0 0 48 50" fill="none" xmlns="http://www.w3.org/2000/svg">
<ellipse cx="24" cy="24.9896" rx="24" ry="24.5053" fill="#17D663"/>
<path fill-rule="evenodd" clip-rule="evenodd" d="M33.317 15.6731C31.1996 13.5075 28.3811 12.3145 25.3821 12.3145C19.1999 12.3145 14.1649 17.4518 14.1649 23.7678C14.1649 25.7851 14.6819 27.7555 15.6627 29.4944L14.0693 35.4308L20.0178 33.8364C21.6572 34.7475 23.5019 35.2283 25.3786 35.2319H25.3821C31.5643 35.2319 36.5993 30.0946 36.5993 23.7786C36.6028 20.7164 35.4343 17.8387 33.317 15.6731ZM25.3821 33.2977H25.3786C23.7038 33.2977 22.0644 32.8386 20.6339 31.9709L20.294 31.7648L16.7639 32.7084L17.7057 29.1943L17.4826 28.8328C16.5479 27.318 16.0557 25.5682 16.0592 23.7678C16.0592 18.5183 20.2409 14.2486 25.3856 14.2486C27.8748 14.2486 30.2188 15.2392 31.9785 17.0397C33.7383 18.8401 34.7085 21.2298 34.7085 23.775C34.7049 29.0244 30.5198 33.2977 25.3821 33.2977ZM30.495 26.1647C30.2152 26.0201 28.8379 25.3296 28.5794 25.232C28.3209 25.138 28.1368 25.0874 27.9492 25.3766C27.7615 25.6622 27.2268 26.3093 27.0604 26.4973C26.8975 26.6889 26.7347 26.7106 26.4514 26.5696C26.1717 26.425 25.2688 26.1249 24.1959 25.1488C23.3639 24.3896 22.8009 23.4532 22.638 23.1676C22.4751 22.882 22.638 22.741 22.7619 22.5819C23.0664 22.1987 23.3709 21.7938 23.463 21.6022C23.5551 21.4106 23.509 21.2443 23.4382 21.0997C23.3674 20.955 22.808 19.5487 22.5743 18.9739C22.3477 18.4171 22.114 18.493 21.944 18.4822C21.7811 18.4749 21.5935 18.4713 21.4058 18.4713C21.2182 18.4713 20.9136 18.5436 20.6587 18.8292C20.4002 19.1149 19.6779 19.809 19.6779 21.2154C19.6779 22.6217 20.6835 23.9847 20.8216 24.1763C20.9632 24.3679 22.7973 27.2565 25.6087 28.4966C26.2779 28.793 26.7984 28.9666 27.2056 29.1003C27.8783 29.3173 28.4874 29.2883 28.9724 29.2124C29.5106 29.1293 30.6295 28.5183 30.8632 27.8531C31.0969 27.1842 31.0969 26.613 31.0261 26.4937C30.9623 26.3816 30.7747 26.3093 30.495 26.1647Z" fill="white"/>
</svg>
