<svg width="24" height="24" viewBox="0 0 24 24" fill="none" xmlns="http://www.w3.org/2000/svg">
<g clip-path="url(#clip0)">
<path d="M15.6947 10.9215L10.3926 8.02036C10.0877 7.85355 9.72735 7.85978 9.42853 8.03684C9.12952 8.21408 8.95117 8.52719 8.95117 8.87472V14.6271C8.95117 14.973 9.12842 15.2856 9.42541 15.463C9.5805 15.5557 9.75244 15.6022 9.92474 15.6022C10.0826 15.6022 10.2408 15.5632 10.3863 15.4848L15.6887 12.6337C16.0035 12.4643 16.1999 12.1371 16.2014 11.7795C16.2027 11.4219 16.0086 11.0932 15.6947 10.9215ZM10.3576 13.9035V9.60421L14.3204 11.7725L10.3576 13.9035Z" fill="#17C2E8"/>
<path d="M23.8244 7.19658L23.8233 7.18559C23.8029 6.99242 23.6006 5.27416 22.7653 4.4002C21.7998 3.37225 20.7052 3.24737 20.1788 3.1875C20.1352 3.18256 20.0953 3.17798 20.0596 3.17322L20.0176 3.16882C16.8448 2.93811 12.0531 2.90662 12.0051 2.90643L12.0009 2.90625L11.9967 2.90643C11.9487 2.90662 7.15708 2.93811 3.95567 3.16882L3.91338 3.17322C3.87932 3.17779 3.84178 3.18201 3.80095 3.18677C3.28057 3.24682 2.19768 3.37189 1.22943 4.43701C0.433836 5.30163 0.203857 6.98308 0.180236 7.17204L0.17749 7.19658C0.170348 7.27696 0.000976562 9.19059 0.000976562 11.1117V12.9076C0.000976562 14.8287 0.170348 16.7424 0.17749 16.8229L0.178771 16.835C0.199096 17.0251 0.401244 18.7119 1.23272 19.5862C2.14056 20.5797 3.28844 20.7112 3.90587 20.7819C4.00346 20.793 4.08751 20.8025 4.14482 20.8126L4.2003 20.8203C6.03226 20.9946 11.7761 21.0805 12.0196 21.084L12.0269 21.0842L12.0343 21.084C12.0822 21.0838 16.8737 21.0523 20.0466 20.8216L20.0885 20.8172C20.1286 20.8119 20.1736 20.8071 20.2231 20.802C20.7405 20.7471 21.8175 20.633 22.7724 19.5823C23.568 18.7175 23.7982 17.0361 23.8216 16.8473L23.8244 16.8228C23.8315 16.7422 24.0011 14.8287 24.0011 12.9076V11.1117C24.0009 9.19059 23.8315 7.27714 23.8244 7.19658ZM22.5945 12.9076C22.5945 14.6857 22.4392 16.517 22.4245 16.6851C22.3648 17.1481 22.1222 18.212 21.7346 18.6333C21.1369 19.2908 20.523 19.356 20.0747 19.4034C20.0205 19.4091 19.9704 19.4146 19.925 19.4203C16.8561 19.6422 12.2454 19.6763 12.033 19.6775C11.7948 19.6741 6.13499 19.5875 4.35887 19.4225C4.26787 19.4076 4.16954 19.3963 4.0659 19.3846C3.54021 19.3243 2.82061 19.2419 2.26726 18.6333L2.25426 18.6194C1.87341 18.2226 1.63775 17.2278 1.57787 16.6906C1.56671 16.5635 1.4074 14.7106 1.4074 12.9076V11.1117C1.4074 9.33561 1.56231 7.50639 1.57733 7.33482C1.64855 6.78935 1.89574 5.78997 2.26726 5.38604C2.88323 4.70855 3.5327 4.63348 3.96226 4.58386C4.00328 4.5791 4.04155 4.5747 4.07689 4.57012C7.1904 4.3471 11.8343 4.31396 12.0009 4.31268C12.1676 4.31378 16.8098 4.3471 19.8957 4.57012C19.9336 4.57488 19.975 4.57964 20.0195 4.58477C20.4613 4.63513 21.1291 4.7113 21.7419 5.36498L21.7476 5.37102C22.1285 5.76781 22.3641 6.78001 22.424 7.32805C22.4346 7.44798 22.5945 9.30485 22.5945 11.1117V12.9076Z" fill="#17C2E8"/>
</g>
<defs>
<clipPath id="clip0">
<rect width="24" height="23.9999" fill="white" transform="translate(0.000976562)"/>
</clipPath>
</defs>
</svg>
