<svg width="212" height="218" viewBox="0 0 212 218" fill="none" xmlns="http://www.w3.org/2000/svg">
<path d="M117.78 24.978H90.4932V217.385H117.78C169.45 217.385 211.336 174.314 211.336 121.182C211.336 68.0497 169.45 24.978 117.78 24.978Z" fill="#F7B030"/>
<path d="M211.337 121.177H184.05C183.016 121.177 182.024 120.754 181.293 120.003C180.562 119.251 180.151 118.231 180.151 117.168C180.151 116.105 180.562 115.085 181.293 114.334C182.024 113.582 183.016 113.16 184.05 113.16H211.015C211.23 115.805 211.337 118.478 211.337 121.177Z" fill="#EBA72E"/>
<path d="M206.011 89.1139H176.254C175.22 89.1139 174.228 88.6916 173.497 87.9398C172.766 87.1881 172.355 86.1685 172.355 85.1054C172.355 84.0423 172.766 83.0227 173.497 82.271C174.228 81.5192 175.22 81.0969 176.254 81.0969H202.849C204.018 83.7075 205.073 86.3798 206.011 89.1139Z" fill="#EBA72E"/>
<path d="M187.51 57.0429H156.763C155.73 57.0429 154.738 56.6205 154.007 55.8688C153.276 55.1171 152.865 54.0975 152.865 53.0344C152.865 51.9712 153.276 50.9517 154.007 50.1999C154.738 49.4482 155.73 49.0259 156.763 49.0259H179.66C182.429 51.5362 185.05 54.2132 187.51 57.0429Z" fill="#EBA72E"/>
<path d="M208.388 145.231C207.706 147.952 206.914 150.625 206.011 153.248H180.151C179.117 153.248 178.126 152.826 177.395 152.074C176.664 151.323 176.253 150.303 176.253 149.24C176.253 148.177 176.664 147.157 177.395 146.406C178.126 145.654 179.117 145.231 180.151 145.231H208.388Z" fill="#EBA72E"/>
<path d="M193.777 177.3C191.83 180.086 189.738 182.762 187.511 185.317H160.662C159.628 185.317 158.636 184.895 157.905 184.143C157.174 183.391 156.764 182.372 156.764 181.309C156.764 180.245 157.174 179.226 157.905 178.474C158.636 177.722 159.628 177.3 160.662 177.3H193.777Z" fill="#EBA72E"/>
<path d="M94.394 217.385C146.064 217.385 187.95 174.313 187.95 121.182C187.95 68.0499 146.064 24.978 94.394 24.978C42.7244 24.978 0.837891 68.0499 0.837891 121.182C0.837891 174.313 42.7244 217.385 94.394 217.385Z" fill="#FFD33A"/>
<path d="M0 24.0509C9.26303 18.1434 11.1809 9.34779 11.6945 0C11.6146 8.83771 14.7867 18.9576 23.389 24.0509C15.3559 29.7334 12.4361 40.6591 11.6945 48.1018C10.9529 40.6591 8.03316 29.7334 0 24.0509Z" fill="#EB3FA6"/>
<path d="M121.68 24.9752C130.943 19.0677 132.861 10.2721 133.374 0.924316C133.294 9.76202 136.466 19.8819 145.069 24.9752C137.036 30.6578 134.116 41.5834 133.374 49.0261C132.633 41.5834 129.713 30.6578 121.68 24.9752Z" fill="#EB3FA6"/>
<path d="M24.2256 193.331C33.4886 187.423 35.4065 178.628 35.9201 169.28C35.8402 178.118 39.0123 188.238 47.6146 193.331C39.5815 199.013 36.6617 209.939 35.9201 217.382C35.1785 209.939 32.2587 199.013 24.2256 193.331Z" fill="#EB423F"/>
<path d="M94.394 117.17C92.081 117.17 89.82 116.465 87.8969 115.143C85.9737 113.822 84.4748 111.944 83.5897 109.746C82.7045 107.549 82.4729 105.131 82.9242 102.798C83.3754 100.466 84.4892 98.323 86.1247 96.6413C87.7602 94.9595 89.844 93.8142 92.1125 93.3502C94.381 92.8861 96.7324 93.1243 98.8693 94.0345C101.006 94.9446 102.833 96.486 104.118 98.4636C105.403 100.441 106.088 102.766 106.088 105.145C106.088 106.208 106.499 107.227 107.23 107.979C107.961 108.731 108.953 109.153 109.987 109.153C111.021 109.153 112.012 108.731 112.743 107.979C113.474 107.227 113.885 106.208 113.885 105.145C113.879 100.526 112.325 96.0512 109.485 92.4738C106.644 88.8964 102.691 86.4353 98.2921 85.5055V77.0851C98.2921 76.022 97.8815 75.0025 97.1504 74.2507C96.4194 73.499 95.4278 73.0767 94.394 73.0767C93.3601 73.0767 92.3686 73.499 91.6376 74.2507C90.9065 75.0025 90.4958 76.022 90.4958 77.0851V85.5055C85.7616 86.4972 81.5543 89.2616 78.69 93.2626C75.8257 97.2636 74.5087 102.216 74.9942 107.159C75.4798 112.102 77.7335 116.683 81.318 120.014C84.9026 123.346 89.5625 125.189 94.394 125.187C96.7069 125.187 98.9679 125.892 100.891 127.214C102.814 128.535 104.313 130.413 105.198 132.61C106.083 134.808 106.315 137.226 105.864 139.558C105.413 141.891 104.299 144.034 102.663 145.716C101.028 147.397 98.944 148.543 96.6755 149.007C94.407 149.471 92.0556 149.233 89.9187 148.322C87.7818 147.412 85.9553 145.871 84.6703 143.893C83.3853 141.916 82.6995 139.591 82.6995 137.212C82.6995 136.149 82.2888 135.13 81.5577 134.378C80.8267 133.626 79.8351 133.204 78.8013 133.204C77.7674 133.204 76.7759 133.626 76.0449 134.378C75.3138 135.13 74.9031 136.149 74.9031 137.212C74.9083 141.831 76.4621 146.307 79.3025 149.885C82.1429 153.463 86.0962 155.924 90.4958 156.854V165.272C90.4958 166.335 90.9065 167.355 91.6376 168.106C92.3686 168.858 93.3601 169.28 94.394 169.28C95.4278 169.28 96.4194 168.858 97.1504 168.106C97.8815 167.355 98.2921 166.335 98.2921 165.272V156.854C103.029 155.865 107.24 153.101 110.106 149.099C112.973 145.098 114.292 140.143 113.806 135.198C113.32 130.253 111.065 125.67 107.478 122.338C103.89 119.007 99.2275 117.165 94.394 117.17Z" fill="#EBA72E"/>
<path d="M94.3934 197.34C84.4991 197.36 74.7025 195.327 65.5893 191.365C64.6369 190.952 63.8834 190.166 63.4944 189.181C63.1055 188.196 63.1129 187.092 63.5152 186.113C63.9175 185.133 64.6817 184.359 65.6396 183.959C66.5975 183.559 67.6707 183.566 68.6231 183.98C76.7766 187.524 85.5414 189.341 94.3934 189.323C130.934 189.323 160.662 158.754 160.662 121.179C160.684 107.701 156.799 94.5218 149.504 83.324C148.929 82.4403 148.719 81.3578 148.92 80.3148C149.121 79.2717 149.716 78.3536 150.576 77.7622C151.435 77.1708 152.488 76.9547 153.502 77.1615C154.516 77.3682 155.409 77.9808 155.985 78.8645C164.139 91.3814 168.482 106.113 168.459 121.179C168.459 163.175 135.233 197.34 94.3934 197.34Z" fill="#EBA72E"/>
<path d="M26.9662 145.231C26.121 145.231 25.2989 144.948 24.6236 144.425C23.9484 143.902 23.4567 143.168 23.2225 142.333C21.2972 135.457 20.3225 128.336 20.3272 121.18C20.3272 79.1849 53.5527 45.019 94.3924 45.019C98.5269 45.0183 102.654 45.3703 106.732 46.0713C107.24 46.1553 107.726 46.3417 108.163 46.6199C108.6 46.898 108.98 47.2623 109.28 47.6917C109.579 48.1212 109.793 48.6075 109.91 49.1224C110.026 49.6374 110.042 50.1709 109.957 50.6922C109.872 51.2136 109.687 51.7125 109.414 52.1602C109.141 52.6079 108.784 52.9956 108.364 53.3009C107.944 53.6063 107.47 53.8233 106.969 53.9394C106.467 54.0555 105.948 54.0685 105.442 53.9775C101.79 53.3502 98.0945 53.0353 94.3924 53.036C57.8515 53.036 28.1235 83.6052 28.1235 121.18C28.1188 127.584 28.9906 133.957 30.7134 140.111C30.8804 140.708 30.9103 141.337 30.8006 141.948C30.6909 142.559 30.4447 143.136 30.0814 143.632C29.718 144.129 29.2475 144.531 28.7069 144.809C28.1663 145.086 27.5704 145.231 26.9662 145.231Z" fill="#EBA72E"/>
</svg>
