<svg width="300" height="300" viewBox="0 0 300 300" fill="none" xmlns="http://www.w3.org/2000/svg">
<path d="M106.404 262.698C120.342 250.656 121.74 230.826 119.34 213.384C118.938 210.474 118.944 207.36 117.288 204.936C115.632 202.518 112.206 201.096 109.722 202.602C107.658 203.85 106.974 206.472 105.972 208.68C104.646 211.626 102.474 214.17 99.7921 215.934C98.0281 217.092 95.7901 217.92 93.8461 217.098C91.1821 215.97 90.5281 212.514 90.2461 209.604C89.7241 204.186 89.1961 198.762 88.6741 193.344C88.3921 190.434 88.0921 187.47 86.9041 184.8C85.7161 182.136 83.4541 179.778 80.6101 179.286C77.7661 178.8 74.5081 180.744 74.2201 183.648C74.1001 184.854 74.4661 186.06 74.5081 187.278C74.5501 188.496 74.1301 189.888 73.0141 190.338C71.8921 190.8 70.6441 190.092 69.6841 189.336C66.3841 186.708 63.9541 183.138 61.6681 179.58C59.3761 176.016 57.1321 172.356 54.0841 169.44C51.0301 166.518 47.0041 164.37 42.8161 164.568C38.6281 164.76 34.4581 167.79 33.8281 171.984C33.1981 176.19 36.0181 180.102 38.9581 183.15C43.3261 187.674 48.3421 191.556 53.7961 194.634C54.7801 195.192 55.8421 195.792 56.3041 196.83C57.1381 198.702 55.5001 200.814 53.6521 201.648C51.5581 202.596 49.1881 202.608 46.9501 203.112C44.7121 203.61 42.3601 204.864 41.7241 207.096C40.8421 210.192 43.6441 213.048 46.3021 214.836C51.6181 218.418 57.5401 221.064 63.7321 222.636C65.9521 223.2 68.2741 223.65 70.1521 224.976C72.0301 226.302 73.3441 228.804 72.5101 230.958C71.6761 233.118 69.0721 234.048 66.7921 233.862C64.5121 233.676 62.3821 232.668 60.1621 232.086C56.0101 230.988 50.8801 231.798 48.6781 235.512C47.2321 237.954 47.4061 241.128 48.5401 243.744C49.6681 246.36 51.6361 248.514 53.6881 250.47C60.8641 257.322 69.6841 262.524 79.2781 264.78C88.8721 267.03 97.5421 267.012 106.404 262.698Z" fill="#F5F5F5"/>
<path d="M107.976 275.652C106.626 268.782 104.262 260.748 100.758 252.186C97.2721 243.618 92.6701 234.54 87.5281 225.216C86.2321 222.888 84.9541 220.59 83.6941 218.322C82.4341 216.066 81.1801 213.822 79.8181 211.704C77.1181 207.462 74.1961 203.586 71.3041 199.992C68.4181 196.398 65.5441 193.092 62.8381 190.026C60.1261 186.96 57.5401 184.152 55.0741 181.692C50.1601 176.748 45.7321 173.244 42.5941 170.958C41.0281 169.812 39.7801 168.96 38.9281 168.396C38.5201 168.126 38.1961 167.916 37.9561 167.76C37.7341 167.622 37.6201 167.55 37.6141 167.562C37.6081 167.568 37.7161 167.652 37.9261 167.808C38.1601 167.976 38.4721 168.204 38.8681 168.486C39.6961 169.08 40.9261 169.956 42.4681 171.132C45.5641 173.466 49.9381 177.006 54.8041 181.968C57.2461 184.44 59.8081 187.254 62.5021 190.332C65.1901 193.416 68.0461 196.722 70.9201 200.316C73.7881 203.904 76.6921 207.774 79.3741 211.998C80.7241 214.104 81.9601 216.324 83.2261 218.592C84.4861 220.854 85.7581 223.158 87.0541 225.48C92.1901 234.798 96.7921 243.846 100.296 252.378C103.812 260.904 106.206 268.89 107.598 275.724" fill="#E0E0E0"/>
<path d="M79.6619 211.704C79.6979 211.704 79.7519 211.254 79.8179 210.432C79.8899 209.616 79.9499 208.428 80.0039 206.958C80.1179 204.024 80.1359 199.962 80.1359 195.486C80.1359 191.004 80.2139 186.96 80.3699 184.032C80.4419 182.568 80.5139 181.386 80.5739 180.57C80.6279 179.754 80.6459 179.298 80.6039 179.292C80.5679 179.286 80.484 179.736 80.3639 180.546C80.2379 181.356 80.1119 182.544 79.9859 184.008C79.7279 186.936 79.5959 191.004 79.5959 195.486C79.6079 199.902 79.6139 203.898 79.6199 206.952C79.6139 208.332 79.6079 209.496 79.6019 210.426C79.6079 211.242 79.6259 211.698 79.6619 211.704Z" fill="#E0E0E0"/>
<path d="M41.574 208.573C41.574 208.609 42.114 208.615 43.08 208.597C44.046 208.585 45.45 208.555 47.178 208.579C50.64 208.597 55.416 208.783 60.684 209.227C65.952 209.677 70.698 210.289 74.118 210.829C75.834 211.087 77.214 211.333 78.168 211.495C79.122 211.663 79.656 211.741 79.662 211.705C79.668 211.669 79.152 211.525 78.21 211.291C77.268 211.063 75.894 210.757 74.184 210.451C70.77 209.815 66.012 209.137 60.732 208.687C55.452 208.249 50.652 208.117 47.184 208.201C45.45 208.231 44.046 208.315 43.08 208.393C42.102 208.471 41.574 208.537 41.574 208.573Z" fill="#E0E0E0"/>
<path d="M100.224 251.544C100.242 251.55 100.314 251.382 100.434 251.064C100.572 250.68 100.734 250.212 100.932 249.648C101.358 248.418 101.934 246.612 102.612 244.38C103.974 239.916 105.66 233.682 107.424 226.788C109.194 219.888 110.82 213.648 112.086 209.16C112.71 206.976 113.22 205.182 113.598 203.85C113.76 203.274 113.892 202.794 114 202.404C114.084 202.074 114.126 201.894 114.108 201.888C114.09 201.882 114.018 202.05 113.898 202.374C113.76 202.758 113.598 203.226 113.4 203.79C112.974 205.026 112.398 206.826 111.72 209.058C110.358 213.522 108.672 219.756 106.902 226.656C105.132 233.556 103.506 239.79 102.24 244.278C101.616 246.462 101.106 248.256 100.728 249.588C100.566 250.17 100.434 250.644 100.326 251.034C100.242 251.364 100.206 251.538 100.224 251.544Z" fill="#E0E0E0"/>
<path d="M48.9183 240.666C48.9183 240.684 49.0923 240.738 49.4343 240.816C49.8363 240.906 50.3283 241.014 50.9283 241.152C52.3023 241.446 54.1623 241.842 56.4243 242.328C61.0623 243.324 67.4583 244.764 74.5203 246.372C81.5823 247.98 87.9963 249.366 92.6583 250.266C94.9863 250.716 96.8763 251.058 98.1903 251.268C98.7963 251.364 99.2943 251.436 99.7023 251.502C100.05 251.55 100.23 251.568 100.236 251.544C100.236 251.526 100.062 251.472 99.7203 251.388C99.3183 251.298 98.8263 251.19 98.2263 251.052C96.8523 250.758 94.9923 250.362 92.7303 249.876C88.0923 248.886 81.6963 247.44 74.6343 245.832C67.5723 244.224 61.1583 242.838 56.5023 241.944C54.1743 241.494 52.2843 241.152 50.9703 240.942C50.3643 240.846 49.8663 240.768 49.4583 240.708C49.1043 240.66 48.9183 240.648 48.9183 240.666Z" fill="#E0E0E0"/>
<path d="M92.142 130.092C91.692 130.092 91.26 129.84 91.056 129.408L88.452 123.99C88.29 123.648 88.296 123.252 88.464 122.916C88.638 122.58 88.956 122.346 89.328 122.28C90.306 122.112 91.2 121.5 91.782 120.6C92.322 119.772 92.508 118.818 92.298 117.972C92.088 117.132 91.476 116.364 90.606 115.872C89.682 115.344 88.578 115.188 87.66 115.464C85.782 116.022 84.438 118.224 84.726 120.264C84.816 120.924 84.36 121.536 83.7 121.626C83.028 121.716 82.428 121.26 82.338 120.6C81.888 117.39 83.964 114.048 86.976 113.148C88.536 112.68 90.3 112.908 91.806 113.772C93.24 114.594 94.272 115.908 94.644 117.39C95.016 118.878 94.71 120.528 93.804 121.914C93.15 122.916 92.25 123.702 91.218 124.182L93.222 128.358C93.51 128.958 93.258 129.678 92.658 129.966C92.496 130.056 92.316 130.092 92.142 130.092Z" fill="#E0E0E0"/>
<path d="M94.7342 131.651C94.9802 132.137 94.7882 132.731 94.3082 132.977C93.8222 133.223 93.2282 133.031 92.9822 132.551C92.7362 132.065 92.9282 131.471 93.4082 131.225C93.8882 130.973 94.4822 131.165 94.7342 131.651Z" fill="#E0E0E0"/>
<path d="M59.166 111.948C58.854 111.948 58.554 111.774 58.404 111.468L56.586 107.688C56.472 107.448 56.478 107.172 56.598 106.938C56.718 106.704 56.94 106.536 57.204 106.494C57.888 106.374 58.512 105.948 58.92 105.318C59.298 104.742 59.43 104.076 59.28 103.482C59.136 102.894 58.704 102.36 58.098 102.012C57.45 101.64 56.682 101.538 56.04 101.73C54.726 102.12 53.79 103.656 53.988 105.084C54.054 105.546 53.73 105.972 53.274 106.038C52.806 106.104 52.386 105.78 52.32 105.318C52.008 103.074 53.46 100.74 55.56 100.116C56.646 99.7924 57.882 99.9484 58.932 100.554C59.934 101.124 60.654 102.048 60.912 103.08C61.17 104.124 60.96 105.27 60.33 106.242C59.874 106.938 59.244 107.49 58.524 107.826L59.928 110.742C60.132 111.162 59.952 111.666 59.532 111.864C59.412 111.918 59.286 111.948 59.166 111.948Z" fill="#F5F5F5"/>
<path d="M60.9782 113.035C61.1522 113.371 61.0202 113.791 60.6782 113.965C60.3422 114.139 59.9222 114.007 59.7482 113.665C59.5742 113.323 59.7062 112.909 60.0482 112.735C60.3842 112.561 60.8042 112.699 60.9782 113.035Z" fill="#F5F5F5"/>
<path d="M208.878 113.987C209.01 114.269 208.98 114.617 208.77 114.881L206.13 118.139C205.962 118.343 205.71 118.457 205.446 118.451C205.182 118.445 204.936 118.313 204.786 118.097C204.384 117.533 203.73 117.149 202.992 117.047C202.308 116.951 201.648 117.119 201.18 117.503C200.712 117.887 200.412 118.505 200.358 119.195C200.298 119.939 200.532 120.677 200.982 121.175C201.9 122.195 203.688 122.387 204.888 121.595C205.278 121.337 205.8 121.445 206.052 121.835C206.31 122.231 206.202 122.747 205.812 123.005C203.922 124.247 201.192 123.935 199.722 122.303C198.96 121.457 198.576 120.275 198.672 119.069C198.762 117.917 199.284 116.873 200.106 116.201C200.934 115.523 202.068 115.223 203.214 115.379C204.042 115.493 204.804 115.829 205.422 116.333L207.456 113.819C207.75 113.459 208.278 113.399 208.644 113.693C208.752 113.777 208.824 113.879 208.878 113.987Z" fill="#F5F5F5"/>
<path d="M209.088 111.887C209.322 111.587 209.754 111.527 210.054 111.761C210.354 111.995 210.414 112.427 210.18 112.727C209.946 113.027 209.514 113.087 209.214 112.853C208.914 112.619 208.854 112.187 209.088 111.887Z" fill="#F5F5F5"/>
<path d="M200.082 35.7175C200.214 35.9995 200.184 36.3475 199.974 36.6115L197.334 39.8695C197.166 40.0735 196.914 40.1875 196.65 40.1815C196.386 40.1755 196.14 40.0435 195.99 39.8275C195.588 39.2635 194.934 38.8795 194.196 38.7775C193.512 38.6815 192.852 38.8495 192.384 39.2335C191.916 39.6175 191.616 40.2355 191.562 40.9255C191.502 41.6695 191.736 42.4075 192.186 42.9055C193.104 43.9255 194.892 44.1175 196.092 43.3255C196.482 43.0675 197.004 43.1755 197.256 43.5655C197.514 43.9615 197.406 44.4775 197.016 44.7355C195.126 45.9775 192.396 45.6655 190.926 44.0335C190.164 43.1875 189.78 42.0055 189.876 40.7995C189.966 39.6475 190.488 38.6035 191.31 37.9315C192.138 37.2535 193.272 36.9535 194.418 37.1095C195.246 37.2235 196.008 37.5595 196.626 38.0635L198.66 35.5495C198.954 35.1895 199.482 35.1295 199.848 35.4235C199.95 35.5075 200.028 35.6095 200.082 35.7175Z" fill="#F5F5F5"/>
<path d="M200.292 33.6179C200.526 33.3179 200.958 33.2579 201.258 33.4919C201.558 33.7259 201.618 34.1579 201.384 34.4579C201.15 34.7579 200.718 34.8179 200.418 34.5839C200.118 34.3559 200.058 33.9179 200.292 33.6179Z" fill="#F5F5F5"/>
<path d="M133.47 47.7539C133.878 47.7539 134.268 47.9819 134.46 48.3779L136.818 53.2919C136.968 53.6039 136.962 53.9639 136.806 54.2639C136.65 54.5699 136.356 54.7799 136.02 54.8399C135.132 54.9959 134.322 55.5479 133.788 56.3639C133.302 57.1139 133.128 57.9839 133.32 58.7459C133.506 59.5079 134.07 60.2039 134.856 60.6539C135.696 61.1339 136.698 61.2719 137.532 61.0259C139.236 60.5159 140.454 58.5239 140.196 56.6699C140.112 56.0699 140.526 55.5179 141.126 55.4339C141.738 55.3499 142.278 55.7699 142.362 56.3639C142.77 59.2799 140.886 62.3099 138.156 63.1259C136.74 63.5459 135.138 63.3419 133.77 62.5619C132.468 61.8179 131.532 60.6239 131.196 59.2799C130.86 57.9239 131.136 56.4299 131.958 55.1759C132.552 54.2699 133.368 53.5559 134.304 53.1179L132.486 49.3319C132.222 48.7859 132.456 48.1319 133.002 47.8679C133.152 47.7839 133.314 47.7539 133.47 47.7539Z" fill="#E0E0E0"/>
<path d="M131.118 46.3375C130.89 45.8995 131.064 45.3595 131.508 45.1315C131.946 44.9035 132.486 45.0775 132.714 45.5215C132.942 45.9595 132.768 46.4995 132.324 46.7275C131.886 46.9495 131.346 46.7755 131.118 46.3375Z" fill="#E0E0E0"/>
<path d="M214.866 144.834C215.274 144.834 215.664 145.062 215.856 145.458L218.214 150.372C218.364 150.684 218.358 151.044 218.202 151.344C218.046 151.65 217.752 151.86 217.416 151.92C216.528 152.076 215.718 152.628 215.184 153.444C214.698 154.194 214.524 155.064 214.716 155.826C214.902 156.588 215.466 157.284 216.252 157.734C217.092 158.214 218.094 158.352 218.928 158.106C220.632 157.596 221.85 155.604 221.592 153.75C221.508 153.15 221.922 152.598 222.522 152.514C223.134 152.43 223.674 152.85 223.758 153.444C224.166 156.36 222.282 159.39 219.552 160.206C218.136 160.626 216.534 160.422 215.166 159.642C213.864 158.898 212.928 157.704 212.592 156.36C212.256 155.004 212.532 153.51 213.354 152.256C213.948 151.35 214.764 150.636 215.7 150.198L213.882 146.412C213.618 145.866 213.852 145.212 214.398 144.948C214.548 144.864 214.71 144.834 214.866 144.834Z" fill="#E0E0E0"/>
<path d="M212.514 143.418C212.286 142.98 212.46 142.44 212.904 142.212C213.348 141.984 213.882 142.158 214.11 142.602C214.338 143.04 214.164 143.58 213.72 143.808C213.282 144.03 212.742 143.856 212.514 143.418Z" fill="#E0E0E0"/>
<path d="M231.246 176.592C231.246 176.592 226.632 173.046 219.906 184.206C213.18 195.366 210.468 201.882 210.468 201.882C210.468 201.882 208.734 204.198 207.18 202.494C205.626 200.79 203.664 196.128 200.772 196.734C197.772 197.364 196.572 200.574 196.788 205.434C197.004 210.294 197.088 220.95 197.094 221.916C197.1 222.864 196.458 224.208 195.216 223.218C193.974 222.228 187.044 213.306 183.006 216.846C178.968 220.386 181.794 233.82 182.076 235.296C182.358 236.772 182.028 237.366 181.314 237.678C180.6 237.99 178.554 234.768 176.478 232.314C174.402 229.86 171.57 227.376 169.41 229.614C167.25 231.852 165.912 241.686 174.168 258.402L178.5 265.896L187.194 266.034C205.818 265.194 213.786 259.272 214.704 256.302C215.622 253.332 212.076 252.048 208.926 251.418C205.776 250.788 201.966 250.548 201.894 249.774C201.822 249 202.188 248.424 203.616 247.962C205.044 247.494 218.172 243.486 219.324 238.242C220.476 232.998 209.322 231.234 207.852 230.628C206.382 230.016 207.258 228.81 208.086 228.354C208.932 227.892 218.31 222.816 222.666 220.662C227.022 218.508 229.254 215.904 228.36 212.976C227.496 210.15 222.468 210.684 220.224 210.144C217.98 209.604 219.174 206.97 219.174 206.97C219.174 206.97 223.572 201.45 230.1 190.17C236.622 178.89 231.144 176.532 231.144 176.532" fill="#EBEBEB"/>
<path d="M225.204 186.576C225.204 186.576 225.168 186.66 225.078 186.822C224.982 186.99 224.856 187.224 224.688 187.524C224.334 188.148 223.824 189.048 223.164 190.206C221.838 192.534 219.9 195.882 217.488 200.016C212.664 208.278 205.902 219.642 198.396 232.164C190.89 244.692 184.104 256.038 179.238 264.276C176.814 268.392 174.852 271.722 173.484 274.038C172.806 275.184 172.284 276.072 171.918 276.69C171.738 276.984 171.606 277.212 171.504 277.374C171.408 277.53 171.354 277.602 171.354 277.602C171.354 277.602 171.39 277.518 171.48 277.356C171.57 277.188 171.702 276.954 171.87 276.654C172.224 276.03 172.734 275.13 173.394 273.978C174.72 271.656 176.658 268.302 179.07 264.174C183.894 255.912 190.656 244.548 198.162 232.02C205.668 219.498 212.454 208.152 217.32 199.914C219.744 195.798 221.706 192.468 223.074 190.152C223.752 189.006 224.274 188.112 224.64 187.5C224.82 187.206 224.952 186.978 225.054 186.816C225.15 186.654 225.204 186.576 225.204 186.576Z" fill="#E0E0E0"/>
<path d="M203.25 203.364C203.268 203.358 203.328 203.574 203.424 203.964C203.52 204.354 203.646 204.924 203.796 205.626C204.09 207.036 204.444 208.992 204.798 211.158C205.14 213.294 205.446 215.226 205.68 216.702C205.788 217.368 205.884 217.926 205.956 218.382C206.022 218.778 206.052 219 206.034 219.006C206.016 219.012 205.95 218.796 205.854 218.406C205.758 218.016 205.632 217.446 205.494 216.738C205.218 215.328 204.888 213.366 204.534 211.2C204.18 209.07 203.856 207.138 203.616 205.662C203.502 204.996 203.406 204.438 203.328 203.982C203.262 203.592 203.232 203.37 203.25 203.364Z" fill="#E0E0E0"/>
<path d="M206.82 219.216C206.802 219.144 210.804 218.232 215.754 217.188C220.704 216.138 224.73 215.352 224.742 215.424C224.76 215.496 220.758 216.408 215.808 217.452C210.858 218.496 206.832 219.288 206.82 219.216Z" fill="#E0E0E0"/>
<path d="M194.424 237.93C194.424 237.912 194.652 237.918 195.066 237.948C195.528 237.984 196.11 238.026 196.8 238.08C198.264 238.188 200.286 238.326 202.518 238.398C204.756 238.476 206.778 238.476 208.248 238.464C208.938 238.458 209.52 238.452 209.988 238.452C210.396 238.452 210.624 238.458 210.624 238.476C210.624 238.494 210.396 238.524 209.988 238.554C209.58 238.584 208.986 238.626 208.254 238.65C206.784 238.71 204.756 238.74 202.512 238.662C200.268 238.59 198.246 238.422 196.788 238.266C196.056 238.182 195.468 238.11 195.06 238.05C194.646 237.99 194.418 237.948 194.424 237.93Z" fill="#E0E0E0"/>
<path d="M188.04 224.304C188.058 224.298 188.166 224.478 188.346 224.814C188.544 225.204 188.796 225.678 189.084 226.242C189.696 227.454 190.524 229.134 191.43 230.994C192.33 232.854 193.134 234.552 193.704 235.782C193.962 236.358 194.184 236.85 194.364 237.246C194.514 237.594 194.592 237.792 194.574 237.798C194.556 237.804 194.448 237.624 194.268 237.288C194.07 236.898 193.818 236.424 193.53 235.86C192.918 234.648 192.09 232.968 191.184 231.108C190.284 229.248 189.48 227.55 188.91 226.32C188.652 225.744 188.43 225.252 188.25 224.856C188.1 224.508 188.028 224.31 188.04 224.304Z" fill="#E0E0E0"/>
<path d="M175.002 239.43C175.02 239.424 175.152 239.652 175.386 240.084C175.632 240.558 175.956 241.17 176.34 241.908C177.132 243.456 178.212 245.598 179.394 247.974C180.57 250.35 181.626 252.51 182.376 254.076C182.73 254.826 183.024 255.456 183.252 255.942C183.456 256.386 183.558 256.632 183.54 256.644C183.522 256.65 183.39 256.422 183.156 255.99C182.91 255.516 182.586 254.904 182.202 254.166C181.41 252.618 180.33 250.476 179.148 248.1C177.972 245.724 176.916 243.564 176.166 241.998C175.812 241.248 175.518 240.618 175.29 240.132C175.086 239.688 174.984 239.442 175.002 239.43Z" fill="#E0E0E0"/>
<path d="M183.444 256.176C183.444 256.158 183.732 256.158 184.254 256.176C184.824 256.2 185.562 256.224 186.456 256.26C188.316 256.332 190.884 256.416 193.722 256.434C196.56 256.452 199.134 256.404 200.994 256.356C201.888 256.332 202.632 256.314 203.196 256.302C203.718 256.29 204.006 256.296 204.006 256.314C204.006 256.332 203.718 256.368 203.202 256.41C202.68 256.452 201.93 256.506 201 256.554C199.14 256.65 196.566 256.734 193.722 256.71C190.878 256.692 188.304 256.578 186.45 256.458C185.52 256.398 184.77 256.338 184.248 256.29C183.732 256.23 183.444 256.194 183.444 256.176Z" fill="#E0E0E0"/>
<path d="M259.59 275.616C259.59 275.7 210.942 275.772 150.948 275.772C90.9299 275.772 42.2939 275.7 42.2939 275.616C42.2939 275.532 90.9299 275.46 150.948 275.46C210.942 275.46 259.59 275.532 259.59 275.616Z" fill="#263238"/>
<path d="M206.928 238.529L197.79 194.945C197.79 194.945 192.432 173.939 173.994 166.703L172.722 166.313C172.692 166.301 170.97 165.779 170.946 165.767C170.202 165.479 167.178 164.519 166.38 164.273C141.516 155.651 134.916 157.895 109.008 166.739C109.008 166.739 97.4942 169.835 91.9202 184.853C86.3402 199.871 75.6602 223.355 75.6602 223.355L101.508 232.481L106.464 225.119V252.293V275.471H137.142H177.564L175.602 252.293L175.26 223.739" fill="#B2B6BD"/>
<path d="M134.556 169.404C134.568 169.422 134.358 169.614 133.962 169.956C133.764 170.13 133.518 170.333 133.218 170.543C132.918 170.759 132.582 171.017 132.18 171.257C131.394 171.767 130.41 172.284 129.27 172.77C128.124 173.232 126.822 173.652 125.424 173.934C124.02 174.197 122.658 174.305 121.422 174.305C120.186 174.287 119.076 174.179 118.158 173.999C117.696 173.933 117.288 173.813 116.928 173.729C116.568 173.651 116.262 173.549 116.016 173.465C115.524 173.297 115.254 173.201 115.26 173.177C115.278 173.117 116.37 173.495 118.194 173.777C119.106 173.927 120.204 174.005 121.422 174.011C122.64 173.993 123.978 173.879 125.364 173.621C126.744 173.345 128.028 172.943 129.162 172.499C130.29 172.037 131.274 171.545 132.066 171.065C133.65 170.123 134.52 169.356 134.556 169.404Z" fill="#FAFAFA"/>
<g opacity="0.3">
<path opacity="0.3" d="M106.458 244.278L112.284 251.01H118.014V258.336L177.264 272.04L176.784 266.334L121.038 247.188H111.696L107.196 243.594L106.458 244.278Z" fill="black"/>
</g>
<path d="M123.906 238.283L118.962 237.365C118.962 237.365 107.25 224.555 105.054 224.369C103.248 224.219 93.2823 224.315 89.8083 224.357C89.1483 224.363 88.6143 224.903 88.6143 225.563C88.6143 226.211 89.1243 226.745 89.7723 226.769L101.544 227.225L101.598 228.173L89.8083 228.329C88.6083 228.419 87.8403 230.321 91.6803 230.663L101.544 231.011V231.623L91.5423 233.021C91.0383 233.093 89.7063 233.351 89.6943 233.861C89.6943 233.861 89.0883 235.115 91.9383 235.469C92.9163 235.589 101.598 235.301 101.598 235.301L101.262 236.081L92.2743 238.019C91.6203 238.163 91.1883 238.781 91.2783 239.447C91.3743 240.125 91.9803 240.605 92.6643 240.539L102.264 239.651L111.684 247.175H124.284L123.906 238.283Z" fill="#FFC3BD"/>
<path d="M206.928 238.529L178.17 244.187L175.254 223.733" fill="#B2B6BD"/>
<path d="M174.342 239.309L121.044 237.587L121.05 256.007L156.414 263.033L181.242 266.999C196.674 266.999 209.016 252.833 206.628 237.587L206.562 237.605L174.342 239.309Z" fill="#B2B6BD"/>
<path d="M189.012 238.973C189.012 238.985 188.772 239.003 188.322 239.021C187.83 239.033 187.17 239.051 186.342 239.075C184.578 239.105 182.1 239.153 179.052 239.207C172.896 239.297 164.394 239.399 155.004 239.309C145.608 239.219 137.106 238.877 130.962 238.463C127.89 238.259 125.406 238.061 123.696 237.887C122.868 237.803 122.214 237.737 121.722 237.683C121.272 237.635 121.038 237.599 121.038 237.587C121.038 237.575 121.278 237.581 121.728 237.599C122.22 237.629 122.874 237.671 123.708 237.725C125.424 237.845 127.908 238.001 130.98 238.169C137.124 238.511 145.62 238.799 155.01 238.895C164.394 238.985 172.896 238.925 179.052 238.913C182.1 238.913 184.578 238.913 186.342 238.913C187.176 238.925 187.836 238.931 188.322 238.937C188.778 238.943 189.012 238.955 189.012 238.973Z" fill="#263238"/>
<path d="M121.044 237.756C121.05 237.756 121.056 237.87 121.062 238.086C121.068 238.32 121.074 238.638 121.08 239.04C121.086 239.898 121.104 241.122 121.116 242.67C121.128 245.82 121.152 250.302 121.176 255.69L121.074 255.564C127.092 256.854 134.31 258.45 142.074 260.082C152.724 262.332 162.414 264.114 169.464 265.2C172.986 265.74 175.848 266.136 177.822 266.4C178.794 266.526 179.556 266.628 180.096 266.7C180.342 266.736 180.54 266.766 180.69 266.784C180.822 266.808 180.888 266.82 180.888 266.826C180.888 266.832 180.816 266.826 180.684 266.82C180.534 266.808 180.336 266.79 180.09 266.766C179.55 266.706 178.782 266.628 177.804 266.526C175.824 266.304 172.956 265.938 169.428 265.422C162.366 264.39 152.658 262.644 142.008 260.388C134.238 258.756 127.026 257.142 121.014 255.822L120.912 255.798V255.69C120.93 250.302 120.948 245.82 120.96 242.67C120.972 241.122 120.984 239.898 120.996 239.04C121.002 238.638 121.008 238.32 121.014 238.086C121.026 237.864 121.032 237.756 121.044 237.756Z" fill="#263238"/>
<path d="M116.49 187.367C116.466 187.367 116.484 187.043 116.526 186.467C116.562 185.891 116.622 185.057 116.64 184.025C116.7 181.967 116.604 179.105 116.082 176.003C115.536 172.913 114.846 170.099 113.772 168.353C113.25 167.477 112.638 166.895 112.182 166.559C111.714 166.229 111.42 166.103 111.432 166.073C111.438 166.061 111.51 166.091 111.654 166.145C111.798 166.199 112.002 166.301 112.254 166.457C112.746 166.769 113.4 167.345 113.964 168.233C114.534 169.115 115.02 170.273 115.404 171.593C115.788 172.913 116.136 174.383 116.394 175.949C116.922 179.075 116.982 181.961 116.868 184.031C116.82 185.069 116.724 185.903 116.652 186.479C116.568 187.055 116.514 187.373 116.49 187.367Z" fill="#263238"/>
<path d="M175.104 171.174C175.188 171.174 175.26 183.42 175.26 198.522C175.26 213.63 175.188 225.876 175.104 225.876C175.02 225.876 174.948 213.63 174.948 198.522C174.948 183.42 175.02 171.174 175.104 171.174Z" fill="#263238"/>
<path d="M193.5 232.697C193.5 232.757 192.594 232.727 191.154 232.907C190.434 232.991 189.582 233.153 188.658 233.393C187.734 233.645 186.738 233.987 185.724 234.437C184.716 234.899 183.804 235.427 183.006 235.949C182.214 236.489 181.53 237.017 180.99 237.503C179.904 238.469 179.328 239.165 179.286 239.129C179.268 239.117 179.4 238.931 179.658 238.613C179.91 238.289 180.312 237.851 180.84 237.341C181.368 236.831 182.046 236.273 182.844 235.709C183.648 235.163 184.572 234.617 185.598 234.149C186.624 233.693 187.644 233.351 188.586 233.111C189.534 232.883 190.398 232.739 191.13 232.685C191.862 232.625 192.456 232.607 192.87 232.637C193.278 232.655 193.5 232.673 193.5 232.697Z" fill="#263238"/>
<g opacity="0.3">
<g opacity="0.3">
<path opacity="0.3" d="M116.988 235.247C125.97 229.883 131.58 220.997 137.058 212.087C142.536 203.177 147.642 193.817 155.238 186.623C158.73 183.317 162.81 180.533 164.094 175.907L150.438 186.761L112.398 230.507L116.988 235.247Z" fill="black"/>
</g>
</g>
<path d="M92.3282 211.776C92.3402 211.896 90.1802 211.812 87.7262 212.646C86.5022 213.066 85.4522 213.6 84.6902 213.984C83.9342 214.374 83.4602 214.62 83.4362 214.584C83.4182 214.548 83.8442 214.236 84.5822 213.792C85.3202 213.354 86.3702 212.778 87.6242 212.352C88.8782 211.926 90.0722 211.764 90.9362 211.722C91.7942 211.686 92.3282 211.734 92.3282 211.776Z" fill="#263238"/>
<path d="M92.3282 211.776C92.3402 211.896 90.1802 211.812 87.7262 212.646C86.5022 213.066 85.4522 213.6 84.6902 213.984C83.9342 214.374 83.4602 214.62 83.4362 214.584C83.4182 214.548 83.8442 214.236 84.5822 213.792C85.3202 213.354 86.3702 212.778 87.6242 212.352C88.8782 211.926 90.0722 211.764 90.9362 211.722C91.7942 211.686 92.3282 211.734 92.3282 211.776Z" fill="#263238"/>
<path d="M174.876 231.383C174.846 231.437 174.228 230.837 172.8 230.429C171.39 229.991 169.176 229.997 166.668 230.813C164.124 231.563 161.484 233.363 158.226 234.719C156.6 235.373 154.752 235.889 152.802 235.757C150.852 235.661 148.95 234.917 147.138 234.017C145.32 233.111 143.622 232.085 141.9 231.287C140.184 230.477 138.408 229.979 136.68 229.811C133.206 229.481 130.05 230.285 127.692 231.437C125.298 232.559 123.69 234.047 122.688 235.115C122.448 235.391 122.226 235.637 122.034 235.853C121.866 236.075 121.722 236.267 121.602 236.429C121.494 236.573 121.404 236.687 121.332 236.783C121.272 236.861 121.236 236.903 121.23 236.897C121.224 236.897 121.248 236.849 121.302 236.765C121.368 236.669 121.446 236.543 121.548 236.393C121.662 236.225 121.8 236.027 121.956 235.793C122.142 235.571 122.352 235.319 122.592 235.037C123.576 233.933 125.178 232.409 127.59 231.245C128.778 230.639 130.17 230.147 131.706 229.823C133.242 229.499 134.934 229.361 136.698 229.529C138.462 229.685 140.28 230.195 142.02 231.011C143.766 231.815 145.464 232.841 147.264 233.741C149.058 234.635 150.924 235.355 152.808 235.457C154.692 235.589 156.492 235.103 158.106 234.461C161.328 233.141 163.998 231.347 166.59 230.609C169.14 229.811 171.402 229.835 172.824 230.321C173.538 230.543 174.054 230.825 174.384 231.035C174.534 231.137 174.648 231.227 174.75 231.293C174.84 231.347 174.882 231.377 174.876 231.383Z" fill="#FAFAFA"/>
<path d="M200.94 209.189C200.928 209.231 200.568 209.009 199.86 208.985C199.158 208.943 198.126 209.195 197.04 209.849C195.93 210.467 194.862 211.595 193.35 212.447C192.6 212.861 191.688 213.173 190.722 213.107C189.762 213.053 188.832 212.669 187.956 212.231C187.074 211.787 186.258 211.289 185.412 210.953C184.572 210.605 183.714 210.377 182.886 210.245C182.058 210.107 181.26 210.077 180.51 210.113C179.766 210.143 179.07 210.245 178.452 210.383C177.21 210.659 176.256 211.073 175.62 211.397C174.984 211.715 174.654 211.943 174.636 211.913C174.63 211.907 174.708 211.841 174.864 211.733C175.02 211.625 175.248 211.457 175.566 211.289C176.19 210.929 177.144 210.479 178.404 210.167C179.034 210.011 179.736 209.891 180.498 209.855C181.26 209.807 182.082 209.825 182.928 209.957C183.78 210.083 184.656 210.311 185.526 210.665C186.402 211.007 187.224 211.511 188.094 211.943C188.958 212.381 189.84 212.741 190.734 212.795C191.628 212.861 192.474 212.579 193.206 212.189C194.67 211.391 195.768 210.275 196.92 209.657C198.048 209.009 199.128 208.781 199.86 208.865C200.226 208.895 200.496 208.985 200.676 209.057C200.856 209.135 200.946 209.183 200.94 209.189Z" fill="#FAFAFA"/>
<path d="M174.552 200.982C174.546 200.994 174.408 200.97 174.144 200.91C174.012 200.886 173.85 200.838 173.658 200.808C173.46 200.784 173.232 200.754 172.986 200.718C171.972 200.604 170.472 200.664 168.708 201.156C166.944 201.648 164.958 202.572 162.864 203.79C160.77 205.002 158.52 206.496 155.898 207.576C154.59 208.11 153.252 208.518 151.92 208.668C150.588 208.824 149.274 208.728 148.08 208.404C146.886 208.086 145.824 207.594 144.852 207.114C143.88 206.634 142.992 206.16 142.164 205.77C140.514 204.972 139.068 204.582 138.048 204.528C137.538 204.522 137.142 204.516 136.872 204.564C136.602 204.594 136.458 204.6 136.458 204.588C136.458 204.576 136.596 204.546 136.86 204.498C137.124 204.432 137.526 204.414 138.048 204.402C139.086 204.42 140.574 204.786 142.248 205.566C143.088 205.944 143.988 206.406 144.96 206.874C145.932 207.336 146.982 207.816 148.146 208.116C149.304 208.422 150.576 208.512 151.878 208.356C153.18 208.212 154.488 207.81 155.778 207.282C158.364 206.22 160.602 204.744 162.72 203.538C164.838 202.326 166.86 201.414 168.654 200.94C170.448 200.466 171.978 200.442 173.004 200.598C173.256 200.64 173.478 200.682 173.682 200.718C173.874 200.76 174.036 200.814 174.168 200.85C174.42 200.928 174.552 200.97 174.552 200.982Z" fill="#FAFAFA"/>
<path d="M193.134 182.52C193.146 182.538 192.918 182.67 192.492 182.892C192.066 183.114 191.454 183.42 190.668 183.762C189.882 184.104 188.934 184.476 187.824 184.746C186.726 185.022 185.448 185.148 184.14 184.998C182.832 184.86 181.626 184.584 180.516 184.434C179.412 184.272 178.404 184.26 177.57 184.38C175.884 184.608 175.062 185.376 175.038 185.316C175.032 185.31 175.08 185.262 175.17 185.178C175.266 185.094 175.416 184.98 175.62 184.854C176.028 184.602 176.682 184.308 177.534 184.164C178.386 184.014 179.424 184.002 180.552 184.152C181.68 184.29 182.892 184.56 184.17 184.692C186.744 184.998 189.024 184.176 190.584 183.564C191.37 183.252 192 182.97 192.438 182.784C192.876 182.598 193.122 182.502 193.134 182.52Z" fill="#FAFAFA"/>
<path d="M115.554 192.51C115.542 192.552 115.2 192.282 114.492 192.252C113.79 192.216 112.764 192.504 111.744 193.272C111.222 193.638 110.688 194.094 110.04 194.514C109.398 194.94 108.618 195.258 107.766 195.426C106.05 195.756 104.118 195.438 102.264 194.772C100.404 194.1 98.7422 193.248 97.1462 192.684C96.3542 192.396 95.5802 192.18 94.8482 192.054C94.1102 191.934 93.4142 191.898 92.7842 191.928C91.5122 191.994 90.5222 192.348 89.9102 192.696C89.2922 193.044 89.0042 193.326 88.9802 193.302C88.9742 193.296 89.0402 193.224 89.1782 193.092C89.3162 192.96 89.5382 192.78 89.8442 192.594C90.4562 192.204 91.4642 191.802 92.7662 191.712C93.4142 191.664 94.1342 191.688 94.8902 191.802C95.6462 191.922 96.4382 192.132 97.2422 192.414C98.8622 192.966 100.536 193.818 102.366 194.478C104.184 195.132 106.068 195.444 107.712 195.144C108.528 194.994 109.272 194.7 109.896 194.298C110.526 193.902 111.072 193.458 111.612 193.092C112.668 192.33 113.766 192.054 114.492 192.132C114.858 192.162 115.134 192.264 115.302 192.348C115.482 192.438 115.554 192.504 115.554 192.51Z" fill="#FAFAFA"/>
<path d="M149.352 238.469C149.358 238.463 149.424 238.517 149.544 238.637C149.67 238.751 149.826 238.937 150.018 239.189C150.384 239.699 150.834 240.539 150.996 241.673C151.158 242.789 151.032 244.241 150.198 245.537C149.4 246.827 148.044 247.853 147.276 249.335C146.91 250.079 146.82 250.901 146.976 251.669C147.126 252.437 147.438 253.151 147.756 253.811C148.41 255.119 149.016 256.391 148.992 257.567C148.974 258.743 148.386 259.589 147.87 259.961C147.612 260.153 147.366 260.237 147.21 260.279C147.042 260.309 146.958 260.315 146.958 260.309C146.946 260.273 147.318 260.255 147.798 259.865C148.26 259.487 148.788 258.665 148.776 257.567C148.77 256.463 148.176 255.251 147.498 253.937C147.168 253.271 146.838 252.545 146.676 251.723C146.502 250.907 146.598 249.989 146.994 249.191C147.39 248.399 147.96 247.751 148.494 247.151C149.034 246.551 149.556 245.981 149.952 245.369C150.756 244.151 150.906 242.771 150.774 241.691C150.642 240.593 150.24 239.765 149.91 239.243C149.58 238.733 149.328 238.487 149.352 238.469Z" fill="#FAFAFA"/>
<path d="M174.504 264.809C174.498 264.815 174.42 264.749 174.276 264.611C174.144 264.467 173.958 264.233 173.814 263.891C173.496 263.207 173.454 262.037 173.964 260.795C174.21 260.177 174.606 259.535 175.128 258.953C175.638 258.359 176.244 257.789 176.85 257.177C177.456 256.565 178.068 255.893 178.518 255.083C178.968 254.279 179.22 253.337 179.322 252.353C179.52 250.379 179.166 248.477 179.064 246.737C178.938 244.997 179.088 243.365 179.646 242.141C180.18 240.911 180.978 240.107 181.62 239.723C181.938 239.525 182.208 239.417 182.394 239.357C182.58 239.303 182.682 239.279 182.682 239.291C182.694 239.327 182.286 239.417 181.686 239.825C181.086 240.227 180.342 241.019 179.85 242.225C179.34 243.419 179.214 244.997 179.352 246.719C179.466 248.441 179.838 250.349 179.634 252.389C179.532 253.403 179.268 254.387 178.788 255.233C178.314 256.079 177.672 256.769 177.06 257.381C175.818 258.599 174.648 259.661 174.174 260.885C173.658 262.073 173.664 263.183 173.934 263.855C174.186 264.527 174.54 264.779 174.504 264.809Z" fill="#FAFAFA"/>
<path d="M177.588 272.765C177.588 272.765 177.378 272.945 176.922 273.185C176.466 273.431 175.734 273.713 174.744 273.809C173.76 273.911 172.53 273.803 171.18 273.407C169.824 273.029 168.384 272.297 166.866 271.415C165.342 270.551 163.704 269.513 161.76 268.859C159.822 268.205 157.572 268.151 155.322 268.637C153.06 269.105 150.804 270.035 148.47 271.007C146.142 271.967 143.718 273.029 141.06 273.563C139.734 273.839 138.384 273.923 137.064 273.785C135.744 273.659 134.478 273.251 133.338 272.681C131.04 271.535 129.21 269.873 127.338 268.517C126.402 267.839 125.466 267.203 124.488 266.735C124.242 266.615 123.996 266.501 123.756 266.387C123.51 266.279 123.258 266.201 123.006 266.105C122.514 265.907 122.004 265.793 121.512 265.661C119.52 265.175 117.576 265.187 115.854 265.433C114.126 265.685 112.608 266.177 111.36 266.777C111.042 266.915 110.754 267.095 110.472 267.239C110.184 267.383 109.92 267.545 109.674 267.713C109.428 267.875 109.182 268.025 108.96 268.181C108.744 268.349 108.546 268.505 108.354 268.661C107.958 268.949 107.658 269.267 107.382 269.519C107.1 269.771 106.89 270.011 106.722 270.203C106.56 270.383 106.428 270.527 106.326 270.641C106.236 270.737 106.188 270.785 106.182 270.785C106.176 270.779 106.218 270.725 106.302 270.623C106.398 270.509 106.518 270.353 106.674 270.167C106.836 269.963 107.04 269.717 107.316 269.459C107.592 269.195 107.886 268.871 108.276 268.571C108.468 268.415 108.672 268.253 108.882 268.079C109.104 267.917 109.344 267.761 109.596 267.593C109.842 267.419 110.106 267.251 110.394 267.101C110.682 266.951 110.97 266.765 111.288 266.621C112.548 265.997 114.078 265.493 115.83 265.217C117.576 264.953 119.55 264.929 121.584 265.415C122.088 265.547 122.61 265.661 123.108 265.859C123.36 265.955 123.618 266.033 123.87 266.141C124.116 266.255 124.368 266.375 124.62 266.495C125.622 266.975 126.576 267.611 127.518 268.295C129.408 269.651 131.238 271.301 133.482 272.417C134.598 272.969 135.822 273.365 137.106 273.485C138.384 273.611 139.704 273.533 141.006 273.263C143.616 272.735 146.028 271.691 148.362 270.731C150.696 269.765 152.97 268.835 155.268 268.361C157.554 267.869 159.864 267.935 161.85 268.619C163.83 269.297 165.468 270.353 166.986 271.229C168.492 272.123 169.902 272.855 171.24 273.245C172.566 273.653 173.772 273.773 174.744 273.689C175.716 273.617 176.442 273.353 176.904 273.131C177.354 272.915 177.576 272.747 177.588 272.765Z" fill="#FAFAFA"/>
<path d="M144.204 172.685C150.9 173.015 156.66 167.993 157.248 161.315C157.596 157.355 157.872 153.971 157.872 153.971C157.872 153.971 168.096 153.713 169.518 143.711C170.94 133.709 172.188 110.477 172.188 110.477C161.238 103.991 147.63 103.937 136.626 110.339L134.994 111.287L132.36 159.545C131.988 166.451 137.298 172.343 144.204 172.685Z" fill="#FFC3BD"/>
<path d="M159.288 136.8C159.294 136.692 160.17 136.632 161.58 136.614C161.946 136.62 162.24 136.578 162.294 136.386C162.39 136.176 162.3 135.774 162.168 135.318C161.934 134.358 161.694 133.392 161.442 132.372C160.452 128.184 159.822 124.746 160.038 124.692C160.248 124.644 161.226 127.998 162.216 132.186C162.444 133.206 162.666 134.184 162.882 135.144C162.96 135.576 163.146 136.098 162.882 136.668C162.744 136.956 162.432 137.13 162.186 137.166C161.94 137.208 161.736 137.178 161.562 137.166C160.146 137.04 159.282 136.908 159.288 136.8Z" fill="#263238"/>
<path d="M157.908 153.834C157.908 153.834 151.512 153.528 145.326 148.428C145.326 148.428 147.48 156.042 157.596 156.432L157.908 153.834Z" fill="#EB996E"/>
<path d="M172.068 113.022C172.068 113.022 165.768 115.656 157.998 111.228C152.898 108.324 146.862 106.704 145.458 107.688C144.054 108.666 143.472 114.054 138.192 115.344C138.192 115.344 137.982 125.67 133.89 125.076C129.804 124.482 133.248 108.66 133.248 108.66L143.574 104.304L154.656 102.834L164.91 104.862L172.788 107.49L172.068 113.022Z" fill="#263238"/>
<path d="M134.886 121.824C134.724 121.728 128.268 118.896 127.596 125.772C126.924 132.648 133.968 131.904 134.004 131.706C134.028 131.514 134.886 121.824 134.886 121.824Z" fill="#FFC3BD"/>
<path d="M132.15 128.899C132.12 128.875 132.024 128.971 131.808 129.043C131.604 129.115 131.256 129.145 130.908 128.977C130.206 128.641 129.708 127.429 129.798 126.181C129.84 125.551 130.032 124.969 130.302 124.495C130.56 124.015 130.92 123.691 131.292 123.661C131.664 123.613 131.904 123.859 131.97 124.057C132.042 124.261 131.988 124.393 132.024 124.405C132.042 124.423 132.18 124.303 132.156 124.015C132.138 123.877 132.078 123.703 131.928 123.559C131.778 123.409 131.538 123.319 131.28 123.319C130.746 123.307 130.224 123.745 129.924 124.261C129.6 124.777 129.372 125.431 129.324 126.139C129.234 127.531 129.816 128.893 130.782 129.277C131.256 129.451 131.67 129.343 131.898 129.199C132.12 129.067 132.174 128.917 132.15 128.899Z" fill="#EB996E"/>
<path d="M142.758 108.792C141.354 110.292 139.926 111.804 138.18 112.89C136.434 113.976 134.304 114.594 132.306 114.132C130.302 113.67 128.538 111.936 128.454 109.884C128.37 107.832 130.38 105.828 132.384 106.266C131.022 106.29 129.882 104.748 130.308 103.452C130.734 102.156 132.564 101.592 133.644 102.42C131.904 102.096 131.706 99.3298 133.092 98.2258C134.478 97.1218 136.518 97.3618 138.156 98.0278C139.8 98.6938 141.306 99.7258 143.04 100.098C145.758 100.68 148.548 99.5518 150.954 98.1538C153.36 96.7558 155.646 95.0458 158.322 94.3078C161.61 93.3958 165.168 94.0618 168.312 95.3818C170.922 96.4798 173.4 98.0638 175.098 100.332C176.796 102.6 177.636 105.612 176.88 108.342C176.124 111.072 173.586 113.34 170.748 113.352C170.748 113.352 164.382 113.994 159.198 110.148C154.014 106.302 143.088 106.812 143.088 106.812L142.758 108.792Z" fill="#263238"/>
<path d="M133.17 100.781C133.158 100.805 133.296 100.913 133.566 101.099C133.836 101.291 134.256 101.543 134.802 101.855C135.9 102.467 137.574 103.235 139.764 103.829C141.942 104.417 144.654 104.795 147.654 104.579C150.666 104.381 153.828 103.409 157.122 102.605C160.404 101.795 163.668 101.393 166.482 102.089C169.296 102.737 171.516 104.441 172.488 106.367C173.478 108.311 173.358 110.213 173.01 111.359C172.65 112.535 172.152 113.057 172.218 113.099C172.236 113.117 172.362 112.991 172.578 112.739C172.77 112.469 173.064 112.055 173.28 111.449C173.736 110.273 173.958 108.257 172.956 106.133C171.96 104.015 169.608 102.149 166.644 101.423C163.668 100.655 160.272 101.063 156.948 101.885C153.612 102.701 150.516 103.673 147.6 103.901C144.69 104.147 142.038 103.835 139.89 103.319C135.564 102.275 133.236 100.637 133.17 100.781Z" fill="#455A64"/>
<path d="M130.08 111.414C130.002 111.456 130.224 112.128 130.968 112.98C131.694 113.826 133.014 114.804 134.73 115.182C136.446 115.554 138.054 115.206 139.068 114.732C140.094 114.264 140.58 113.742 140.526 113.676C140.46 113.58 139.884 113.934 138.882 114.246C137.892 114.564 136.428 114.792 134.886 114.462C133.344 114.126 132.108 113.316 131.34 112.614C130.56 111.912 130.182 111.354 130.08 111.414Z" fill="#455A64"/>
<path d="M132.228 108.011C132.054 108.095 132.582 109.343 133.914 110.255C135.24 111.179 136.596 111.233 136.608 111.041C136.65 110.831 135.504 110.477 134.328 109.649C133.146 108.845 132.408 107.903 132.228 108.011Z" fill="#455A64"/>
<path d="M175.446 117.612C175.536 117.636 175.734 117.294 175.782 116.676C175.836 116.07 175.704 115.176 175.176 114.366C174.648 113.556 173.886 113.07 173.31 112.872C172.728 112.668 172.338 112.71 172.32 112.8C172.26 112.998 173.676 113.394 174.558 114.762C175.452 116.13 175.242 117.582 175.446 117.612Z" fill="#263238"/>
<path d="M179.01 107.748C178.806 107.664 178.05 109.488 176.25 110.988C174.48 112.524 172.56 112.98 172.614 113.19C172.608 113.382 174.78 113.22 176.73 111.546C178.698 109.89 179.202 107.772 179.01 107.748Z" fill="#455A64"/>
<path d="M168.582 125.718C168.504 126.534 167.754 127.14 166.902 127.074C166.05 127.008 165.426 126.3 165.498 125.484C165.576 124.668 166.326 124.062 167.178 124.128C168.03 124.194 168.66 124.908 168.582 125.718Z" fill="#263238"/>
<path d="M169.8 125.586C169.584 125.76 168.534 124.752 166.878 124.536C165.228 124.302 163.908 124.992 163.752 124.77C163.674 124.668 163.914 124.332 164.496 124.02C165.066 123.708 166.002 123.45 167.028 123.588C168.054 123.726 168.87 124.218 169.32 124.674C169.782 125.124 169.908 125.508 169.8 125.586Z" fill="#263238"/>
<path d="M153.552 123.63C153.474 124.446 152.724 125.052 151.872 124.986C151.02 124.92 150.396 124.212 150.468 123.396C150.546 122.58 151.296 121.974 152.148 122.04C153.006 122.106 153.63 122.82 153.552 123.63Z" fill="#263238"/>
<path d="M154.632 123.588C154.416 123.762 153.366 122.754 151.71 122.538C150.06 122.304 148.74 122.994 148.584 122.772C148.506 122.67 148.746 122.334 149.328 122.022C149.898 121.71 150.834 121.452 151.86 121.59C152.886 121.728 153.702 122.22 154.152 122.676C154.608 123.126 154.734 123.51 154.632 123.588Z" fill="#263238"/>
<path d="M153.997 119.046C153.673 119.334 152.431 118.434 150.763 118.278C149.095 118.08 147.697 118.704 147.439 118.35C147.319 118.182 147.541 117.756 148.159 117.348C148.759 116.94 149.785 116.604 150.931 116.724C152.077 116.844 153.007 117.39 153.511 117.918C154.021 118.44 154.147 118.908 153.997 119.046Z" fill="#263238"/>
<path d="M169.698 121.782C169.77 121.98 169.488 122.304 168.882 122.568C168.288 122.832 167.37 122.982 166.38 122.832C165.39 122.676 164.568 122.25 164.082 121.818C163.59 121.386 163.422 120.984 163.548 120.822C163.836 120.486 165.066 121.068 166.626 121.29C168.18 121.554 169.53 121.374 169.698 121.782Z" fill="#263238"/>
<path d="M158.022 139.548C158.196 139.56 158.316 139.872 158.292 140.244C158.268 140.616 158.112 140.91 157.938 140.898C157.764 140.886 157.644 140.574 157.668 140.202C157.692 139.83 157.848 139.536 158.022 139.548Z" fill="#263238"/>
<path d="M133.662 134.328C133.68 134.334 133.656 134.49 133.512 134.73C133.374 134.97 133.098 135.294 132.642 135.522C132.198 135.756 131.538 135.87 130.89 135.624C130.254 135.396 129.648 134.844 129.384 134.094C129.132 133.338 129.27 132.546 129.594 131.958C129.918 131.358 130.434 130.98 130.89 130.782C131.352 130.578 131.766 130.536 132.036 130.542C132.312 130.548 132.462 130.59 132.462 130.608C132.468 130.668 131.832 130.566 130.986 130.98C130.572 131.19 130.122 131.55 129.846 132.09C129.564 132.624 129.456 133.332 129.678 133.992C129.9 134.646 130.434 135.138 130.986 135.354C131.55 135.582 132.12 135.504 132.54 135.318C133.41 134.934 133.614 134.286 133.662 134.328Z" fill="#455A64"/>
<path d="M140.298 175.416C140.298 175.416 143.646 170.688 145.746 168.03C148.296 164.814 149.814 162.036 149.814 160.536C149.814 159.03 149.814 152.568 149.814 152.568C149.814 152.568 152.988 151.818 153.438 155.424C153.894 159.03 153.438 159.936 153.438 159.936C153.438 159.936 166.758 150.966 167.664 151.614C169.254 152.76 166.242 155.154 166.242 155.154L158.124 162.492L162.75 161.028C163.872 160.674 165.078 161.28 165.456 162.39C165.768 163.302 165.432 164.31 164.628 164.856L161.892 167.226L163.272 166.674C164.292 166.266 165.456 166.704 165.948 167.682C166.344 168.468 166.206 169.416 165.606 170.058L163.11 172.716L164.28 172.092C165.036 171.69 165.972 171.99 166.35 172.746C166.668 173.382 166.494 174.156 165.936 174.6L151.02 186.39L140.298 175.416Z" fill="#FFC3BD"/>
<path d="M151.026 186.389C151.026 186.389 150.966 186.335 150.84 186.215C150.708 186.083 150.528 185.903 150.294 185.669C149.802 185.177 149.094 184.463 148.176 183.539C146.316 181.655 143.616 178.919 140.226 175.487L140.166 175.427L140.214 175.361C141.192 173.981 142.248 172.499 143.4 170.933C143.976 170.153 144.576 169.349 145.2 168.533C145.836 167.717 146.484 166.895 147.096 166.007C147.714 165.119 148.308 164.189 148.818 163.187C149.316 162.179 149.784 161.117 149.67 159.929C149.67 157.565 149.664 155.105 149.664 152.573V152.453L149.778 152.429C150.588 152.279 151.458 152.369 152.184 152.825C152.544 153.059 152.826 153.389 153.06 153.743C153.258 154.115 153.414 154.517 153.498 154.931C153.66 155.759 153.714 156.575 153.768 157.421C153.792 157.841 153.798 158.267 153.78 158.693C153.75 159.125 153.744 159.533 153.576 160.001L153.354 159.809C155.412 158.429 157.542 157.031 159.744 155.639C160.848 154.943 161.964 154.247 163.11 153.569C164.262 152.897 165.408 152.213 166.668 151.661C166.836 151.595 167.004 151.529 167.184 151.475C167.274 151.451 167.364 151.427 167.472 151.421C167.526 151.415 167.586 151.421 167.652 151.433C167.748 151.469 167.784 151.505 167.814 151.535C168.138 151.751 168.324 152.207 168.264 152.591C168.15 153.371 167.658 153.941 167.196 154.457C166.71 154.979 166.158 155.405 165.666 155.873C165.156 156.335 164.652 156.791 164.148 157.247C162.132 159.071 160.152 160.853 158.226 162.599L158.076 162.341C158.988 162.053 159.888 161.771 160.782 161.483C161.226 161.339 161.676 161.201 162.114 161.063C162.336 160.997 162.552 160.919 162.78 160.859C163.014 160.793 163.266 160.763 163.506 160.775C164.496 160.805 165.384 161.543 165.624 162.473C165.888 163.403 165.48 164.447 164.7 164.963L164.712 164.951C163.782 165.755 162.87 166.547 161.97 167.321L161.826 167.087C162.276 166.907 162.726 166.727 163.164 166.553C163.626 166.361 164.16 166.325 164.64 166.457C165.612 166.715 166.314 167.663 166.284 168.635C166.278 169.115 166.116 169.583 165.828 169.955C165.528 170.315 165.228 170.609 164.928 170.933C164.334 171.563 163.752 172.181 163.182 172.787L163.038 172.595C163.458 172.373 163.878 172.151 164.292 171.935C164.748 171.719 165.288 171.743 165.72 171.965C166.158 172.181 166.47 172.607 166.566 173.075C166.662 173.543 166.542 174.035 166.26 174.401C166.116 174.587 165.93 174.719 165.768 174.851C165.6 174.983 165.432 175.115 165.27 175.241C164.94 175.499 164.616 175.757 164.298 176.009C163.656 176.513 163.038 176.999 162.438 177.467C160.044 179.345 157.974 180.965 156.276 182.297C154.59 183.611 153.276 184.637 152.37 185.345C151.932 185.687 151.59 185.945 151.356 186.131C151.146 186.311 151.026 186.389 151.026 186.389C151.026 186.389 151.146 186.281 151.374 186.095C151.614 185.903 151.95 185.627 152.388 185.273C153.288 184.553 154.596 183.503 156.27 182.165C157.95 180.821 159.996 179.189 162.366 177.299C162.96 176.825 163.572 176.339 164.202 175.835C164.52 175.583 164.838 175.331 165.162 175.067C165.324 174.935 165.486 174.809 165.654 174.677C165.822 174.539 165.984 174.425 166.104 174.263C166.35 173.951 166.452 173.519 166.362 173.123C166.278 172.727 166.008 172.361 165.63 172.175C165.258 171.983 164.79 171.965 164.406 172.151C163.998 172.367 163.584 172.589 163.164 172.811L162.522 173.153L163.02 172.625C163.59 172.019 164.166 171.395 164.76 170.765C165.048 170.447 165.372 170.129 165.642 169.805C165.894 169.475 166.038 169.061 166.044 168.635C166.068 167.783 165.45 166.943 164.592 166.721C164.166 166.607 163.704 166.637 163.29 166.811C162.846 166.991 162.402 167.171 161.952 167.351L161.184 167.657L161.808 167.117C162.702 166.343 163.614 165.551 164.544 164.741L164.55 164.735L164.556 164.729C165.24 164.273 165.594 163.361 165.36 162.551C165.15 161.735 164.37 161.093 163.506 161.069C163.08 161.027 162.666 161.207 162.216 161.345C161.772 161.483 161.328 161.627 160.884 161.765C159.99 162.047 159.09 162.335 158.178 162.623L157.512 162.833L158.028 162.365C159.954 160.619 161.934 158.831 163.956 157.007C164.46 156.551 164.97 156.095 165.48 155.633C165.984 155.159 166.524 154.739 166.986 154.241C167.436 153.749 167.886 153.179 167.97 152.555C168.006 152.249 167.898 151.955 167.634 151.775C167.598 151.685 167.442 151.733 167.28 151.775C167.124 151.817 166.962 151.883 166.8 151.949C165.582 152.483 164.424 153.167 163.284 153.833C162.144 154.511 161.028 155.201 159.924 155.897C157.722 157.289 155.592 158.681 153.534 160.055L153.15 160.313L153.312 159.863C153.432 159.527 153.468 159.077 153.486 158.675C153.504 158.261 153.498 157.847 153.474 157.433C153.426 156.611 153.366 155.771 153.216 154.991C153.138 154.601 152.994 154.235 152.814 153.893C152.604 153.569 152.352 153.275 152.034 153.071C151.398 152.663 150.576 152.573 149.85 152.711L149.964 152.573C149.964 155.111 149.958 157.565 149.958 159.929C149.952 160.229 149.964 160.511 149.94 160.823C149.898 161.123 149.838 161.417 149.748 161.699C149.568 162.263 149.328 162.791 149.07 163.301C148.548 164.321 147.942 165.257 147.318 166.145C146.7 167.039 146.034 167.867 145.404 168.677C144.774 169.487 144.174 170.285 143.598 171.065C142.44 172.625 141.372 174.101 140.394 175.475L140.382 175.349C143.718 178.799 146.382 181.541 148.212 183.437C149.118 184.379 149.826 185.111 150.312 185.621C150.546 185.867 150.726 186.053 150.852 186.191C150.966 186.317 151.026 186.389 151.026 186.389Z" fill="#EB996E"/>
<path d="M151.026 186.389L110.142 240.365C103.938 248.555 92.7541 251.555 83.4601 247.109C76.6681 243.857 71.6881 237.029 75.8521 222.977L115.014 196.181L138.816 173.207L151.026 186.389Z" fill="#B2B6BD"/>
<path d="M83.4659 247.109C83.4659 247.109 83.6159 247.181 83.9099 247.331C84.2039 247.487 84.6299 247.715 85.1879 248.009C86.3579 248.495 88.1159 249.221 90.5339 249.443C91.7339 249.533 93.0839 249.581 94.5359 249.371C95.2679 249.311 96.0119 249.125 96.7919 248.975C97.1819 248.885 97.5659 248.759 97.9619 248.651C98.3639 248.549 98.7599 248.411 99.1619 248.255C100.776 247.685 102.444 246.899 104.076 245.843C105.708 244.799 107.316 243.491 108.684 241.817C111.474 238.517 114.36 234.749 117.474 230.723C120.582 226.697 123.87 222.359 127.326 217.799C134.226 208.667 141.768 198.593 149.646 187.991C150.066 187.427 150.486 186.863 150.9 186.299L150.912 186.497C146.73 181.973 142.644 177.563 138.714 173.309L138.924 173.321C130.59 180.197 122.88 186.767 115.884 192.617C108.9 198.473 102.636 203.615 97.3379 207.803C92.0459 211.997 87.7439 215.261 84.7439 217.451C83.2559 218.561 82.0739 219.377 81.2879 219.947C80.8979 220.223 80.5979 220.433 80.3879 220.583C80.1839 220.727 80.0759 220.793 80.0759 220.793C80.0759 220.793 80.1719 220.709 80.3699 220.559C80.5739 220.403 80.8679 220.187 81.2519 219.899C82.0259 219.317 83.1959 218.483 84.6719 217.367C87.6479 215.153 91.9319 211.865 97.2059 207.653C102.48 203.441 108.726 198.287 115.704 192.419C122.682 186.557 130.386 179.981 138.72 173.093L138.834 173.003L138.93 173.111C142.866 177.359 146.952 181.775 151.134 186.293L151.224 186.389L151.146 186.491C150.732 187.055 150.312 187.619 149.892 188.183C142.008 198.785 134.46 208.853 127.548 217.979C124.086 222.539 120.792 226.865 117.672 230.891C114.546 234.911 111.654 238.667 108.846 241.967C107.46 243.653 105.828 244.967 104.178 246.017C102.528 247.073 100.842 247.859 99.2159 248.429C98.8139 248.579 98.4119 248.717 98.0039 248.819C97.6019 248.927 97.2119 249.053 96.8219 249.137C96.0359 249.287 95.2799 249.467 94.5419 249.527C93.0779 249.725 91.7159 249.677 90.5099 249.575C88.0799 249.329 86.3159 248.585 85.1519 248.081C84.5879 247.781 84.1679 247.535 83.8859 247.373C83.6039 247.199 83.4659 247.109 83.4659 247.109Z" fill="#263238"/>
<path d="M114.462 233.045C114.438 233.081 114 232.661 113.034 232.223C112.074 231.779 110.526 231.473 108.636 231.671C107.694 231.761 106.674 231.977 105.606 232.301C104.538 232.625 103.428 233.081 102.252 233.543C101.076 234.005 99.8342 234.497 98.4962 234.857C97.1582 235.211 95.7062 235.427 94.2302 235.271C92.7542 235.115 91.3742 234.653 90.1022 234.125C88.8242 233.597 87.6422 232.991 86.4962 232.475C84.2222 231.413 82.0082 230.729 80.1122 230.837C78.2162 230.921 76.7762 231.653 75.9842 232.337C75.1742 233.027 74.9282 233.591 74.8922 233.567C74.8802 233.561 74.9522 233.429 75.0962 233.183C75.2582 232.949 75.4982 232.601 75.9062 232.241C76.6922 231.515 78.1562 230.729 80.1002 230.615C82.0502 230.477 84.3182 231.161 86.6102 232.211C87.7682 232.727 88.9502 233.321 90.2162 233.843C91.4762 234.365 92.8322 234.809 94.2602 234.959C95.6882 235.109 97.1042 234.905 98.4182 234.557C99.7382 234.209 100.968 233.729 102.144 233.273C103.32 232.817 104.436 232.367 105.528 232.049C106.614 231.731 107.652 231.527 108.612 231.443C110.538 231.269 112.116 231.617 113.076 232.109C114.054 232.595 114.462 233.045 114.462 233.045Z" fill="#FAFAFA"/>
<path d="M128.91 214.95C128.862 214.938 129.15 214.59 129.066 213.882C128.976 213.204 128.424 212.202 127.26 211.686C126.69 211.422 126.012 211.248 125.274 211.08C124.542 210.912 123.732 210.714 122.952 210.336C121.374 209.604 119.922 208.338 118.578 206.91C117.228 205.476 116.028 204.042 114.744 202.944C113.478 201.834 112.128 201.084 110.898 200.748C109.674 200.4 108.618 200.412 107.922 200.544C107.22 200.67 106.854 200.844 106.842 200.814C106.836 200.802 106.926 200.76 107.1 200.682C107.274 200.604 107.538 200.502 107.898 200.43C108.6 200.256 109.692 200.208 110.952 200.538C112.218 200.85 113.628 201.606 114.924 202.728C116.238 203.838 117.456 205.278 118.794 206.7C120.132 208.122 121.548 209.358 123.066 210.084C124.566 210.828 126.162 210.882 127.344 211.494C128.562 212.07 129.114 213.15 129.174 213.876C129.204 214.248 129.132 214.536 129.048 214.71C128.982 214.872 128.916 214.956 128.91 214.95Z" fill="#FAFAFA"/>
<path d="M243.726 72.7984L241.938 72.9184L238.398 78.6124L238.638 82.1824C238.638 82.1824 235.884 82.5364 235.902 77.8444C235.914 73.1524 235.644 74.3644 235.644 74.3644C235.644 74.3644 229.776 74.7304 229.254 74.2564C228.876 73.9084 228.33 68.0944 228.054 64.9384C227.916 63.3484 228.792 61.8064 230.25 61.3324C230.454 61.2664 230.67 61.2184 230.874 61.2064C232.338 61.1104 239.892 61.8004 239.892 61.8004L242.982 61.5964L243.726 72.7984Z" fill="#455A64"/>
<path d="M248.91 73.4342L246.996 61.2842L243.936 61.4882L244.734 73.4642L248.91 73.4342Z" fill="#455A64"/>
<path d="M201.87 83.7122C201.876 83.7002 201.96 83.7242 202.128 83.7722C202.212 83.7962 202.314 83.8322 202.428 83.8862C202.548 83.9342 202.68 84.0002 202.818 84.0902C203.382 84.4202 204.138 85.0982 204.6 86.2142C204.822 86.7662 204.972 87.4262 204.924 88.1342C204.87 88.8422 204.624 89.5922 204.132 90.2282C203.658 90.8702 202.974 91.4042 202.164 91.7222C201.366 92.0522 200.424 92.1542 199.518 91.9262C198.618 91.6802 197.85 91.1282 197.316 90.4442C196.776 89.7662 196.44 88.9622 196.344 88.1762C196.23 87.3842 196.386 86.6042 196.686 85.9682C196.998 85.3262 197.448 84.8282 197.916 84.4562C198.864 83.7182 199.86 83.4962 200.514 83.4902C200.682 83.4782 200.826 83.4902 200.952 83.5082C201.078 83.5142 201.186 83.5322 201.27 83.5562C201.438 83.5922 201.528 83.6162 201.522 83.6282C201.516 83.6642 201.162 83.5682 200.52 83.6162C199.89 83.6582 198.942 83.9042 198.054 84.6362C197.616 85.0022 197.202 85.4822 196.92 86.0822C196.65 86.6822 196.512 87.4022 196.626 88.1462C196.818 89.6042 197.916 91.1762 199.59 91.6322C201.27 92.0582 203.004 91.2362 203.892 90.0602C204.354 89.4722 204.594 88.7822 204.654 88.1222C204.708 87.4622 204.582 86.8322 204.384 86.3042C203.976 85.2362 203.274 84.5522 202.746 84.2042C202.212 83.8382 201.858 83.7422 201.87 83.7122Z" fill="#263238"/>
<path d="M189.378 94.3985C189.378 94.3865 189.618 94.4105 189.984 94.6205C190.344 94.8245 190.836 95.2505 191.13 95.9585C191.274 96.3125 191.37 96.7325 191.34 97.1825C191.31 97.6325 191.148 98.1185 190.836 98.5265C190.236 99.3365 189.06 99.9125 187.878 99.6185C186.702 99.2885 185.964 98.2085 185.844 97.2065C185.772 96.6965 185.874 96.1985 186.072 95.7905C186.27 95.3825 186.564 95.0645 186.864 94.8305C187.47 94.3625 188.106 94.2305 188.52 94.2305C188.94 94.2305 189.162 94.3265 189.156 94.3385C189.15 94.3685 188.928 94.3145 188.526 94.3505C188.13 94.3865 187.548 94.5425 187.002 94.9985C186.462 95.4365 185.982 96.2405 186.132 97.1705C186.252 98.0705 186.936 99.0365 187.962 99.3185C188.994 99.5825 190.062 99.0785 190.614 98.3525C191.202 97.6205 191.184 96.6845 190.926 96.0365C190.674 95.3705 190.248 94.9445 189.918 94.7165C189.588 94.4945 189.366 94.4285 189.378 94.3985Z" fill="#263238"/>
<path d="M207.564 65.3822C207.564 65.3822 207.582 65.2142 207.636 64.8842C207.69 64.5482 207.768 64.0562 207.876 63.4202C207.93 63.0962 207.99 62.7362 208.056 62.3402C208.14 61.9442 208.272 61.5242 208.392 61.0622C208.518 60.6002 208.656 60.1082 208.8 59.5742C208.866 59.3042 208.962 59.0402 209.07 58.7702C209.178 58.5002 209.286 58.2182 209.394 57.9302C210.21 55.5902 211.662 52.8782 213.786 50.0762C215.922 47.2862 218.874 44.4542 222.708 42.2042C223.188 41.9282 223.674 41.6462 224.166 41.3642C224.676 41.1122 225.204 40.8842 225.732 40.6442C226.266 40.4162 226.782 40.1282 227.352 39.9482C227.916 39.7562 228.48 39.5642 229.056 39.3662C229.344 39.2702 229.632 39.1682 229.92 39.0722C230.22 39.0002 230.52 38.9342 230.82 38.8622C231.42 38.7182 232.032 38.5802 232.644 38.4362C233.262 38.3102 233.898 38.2562 234.534 38.1662C235.17 38.1002 235.806 37.9562 236.466 37.9622C237.774 37.9322 239.1 37.8242 240.444 37.9742C241.116 38.0282 241.8 38.0462 242.478 38.1362C243.156 38.2502 243.834 38.3702 244.518 38.4902C244.86 38.5562 245.208 38.5922 245.55 38.6822C245.886 38.7782 246.228 38.8682 246.564 38.9642C247.242 39.1622 247.932 39.3302 248.61 39.5522C249.936 40.0862 251.322 40.5362 252.606 41.2622C252.936 41.4302 253.26 41.5982 253.59 41.7662C253.752 41.8502 253.92 41.9282 254.082 42.0242L254.55 42.3242C255.174 42.7262 255.804 43.1282 256.44 43.5362C257.052 43.9682 257.634 44.4602 258.234 44.9222C258.528 45.1622 258.846 45.3782 259.122 45.6422L259.956 46.4402C261.114 47.4602 262.086 48.6782 263.118 49.8602C263.574 50.5022 264.03 51.1442 264.486 51.7922L264.828 52.2782L265.128 52.7942L265.722 53.8322L266.322 54.8762L266.826 55.9742L267.324 57.0782L267.576 57.6302C267.648 57.8222 267.708 58.0142 267.774 58.2062C268.038 58.9742 268.302 59.7482 268.566 60.5282C268.752 61.3262 268.944 62.1302 269.13 62.9342C269.766 66.1742 269.91 69.5582 269.544 72.9302C269.088 76.2962 268.14 79.5422 266.748 82.5422C266.37 83.2802 265.998 84.0122 265.626 84.7382C265.182 85.4282 264.744 86.1182 264.3 86.8022L263.97 87.3122L263.592 87.7922L262.842 88.7462L262.092 89.6942L261.258 90.5642L260.43 91.4282L260.016 91.8542L259.566 92.2442C258.966 92.7602 258.366 93.2762 257.772 93.7922C256.488 94.6982 255.252 95.6402 253.878 96.3542L252.882 96.9242C252.552 97.1162 252.192 97.2482 251.85 97.4102C251.154 97.7162 250.476 98.0522 249.774 98.3282C249.06 98.5682 248.352 98.8082 247.65 99.0482L247.122 99.2282C246.942 99.2762 246.762 99.3122 246.582 99.3602C246.222 99.4442 245.862 99.5282 245.508 99.6122C244.086 100.008 242.634 100.11 241.218 100.314C240.504 100.374 239.79 100.368 239.088 100.398C238.734 100.41 238.386 100.416 238.032 100.428C237.684 100.428 237.336 100.386 236.988 100.368C236.292 100.32 235.602 100.266 234.918 100.218C234.24 100.146 233.568 99.9962 232.902 99.8882C231.558 99.7142 230.292 99.2882 229.032 98.9462C228.396 98.8022 227.808 98.5082 227.208 98.2862C226.614 98.0402 226.008 97.8362 225.438 97.5662C224.88 97.2782 224.322 96.9962 223.77 96.7142C223.494 96.5762 223.224 96.4322 222.948 96.2942C222.69 96.1322 222.432 95.9642 222.18 95.8022C221.67 95.4722 221.166 95.1482 220.668 94.8302C220.164 94.5182 219.732 94.1162 219.264 93.7682C218.814 93.4022 218.352 93.0602 217.92 92.6942C217.512 92.2982 217.104 91.9142 216.702 91.5302C213.516 88.4282 211.332 84.9662 209.928 81.7442C208.536 78.5102 207.78 75.5342 207.546 73.0622C207.504 72.7562 207.468 72.4562 207.432 72.1682C207.39 71.8802 207.36 71.5982 207.366 71.3222C207.354 70.7762 207.336 70.2602 207.324 69.7802C207.318 69.3062 207.288 68.8622 207.3 68.4602C207.33 68.0582 207.36 67.6982 207.384 67.3682C207.438 66.7262 207.474 66.2342 207.504 65.8922C207.54 65.5502 207.564 65.3822 207.564 65.3822C207.564 65.3822 207.564 65.5562 207.546 65.8862C207.528 66.2282 207.498 66.7202 207.456 67.3622C207.438 67.6862 207.414 68.0522 207.384 68.4482C207.378 68.8502 207.408 69.2882 207.42 69.7622C207.438 70.2362 207.456 70.7522 207.474 71.2982C207.474 71.5742 207.504 71.8562 207.552 72.1442C207.594 72.4322 207.63 72.7322 207.672 73.0382C207.924 75.4922 208.692 78.4562 210.09 81.6602C211.5 84.8582 213.684 88.2842 216.858 91.3562C217.254 91.7342 217.662 92.1242 218.07 92.5082C218.502 92.8742 218.958 93.2162 219.408 93.5702C219.87 93.9122 220.302 94.3142 220.806 94.6202C221.304 94.9382 221.802 95.2562 222.312 95.5802C222.564 95.7422 222.822 95.9042 223.08 96.0662C223.35 96.2042 223.62 96.3422 223.896 96.4802C224.442 96.7562 224.994 97.0382 225.552 97.3202C226.116 97.5842 226.716 97.7882 227.304 98.0282C227.904 98.2442 228.48 98.5322 229.116 98.6762C230.364 99.0122 231.618 99.4322 232.956 99.6002C233.616 99.7022 234.276 99.8522 234.954 99.9242C235.632 99.9722 236.316 100.02 237.006 100.068C237.348 100.086 237.696 100.128 238.044 100.128C238.392 100.116 238.74 100.104 239.088 100.098C239.784 100.068 240.492 100.074 241.2 100.014C242.604 99.8102 244.044 99.7082 245.448 99.3122C245.802 99.2282 246.156 99.1442 246.516 99.0602C246.696 99.0182 246.876 98.9822 247.05 98.9282L247.572 98.7482C248.268 98.5082 248.97 98.2742 249.678 98.0282C250.368 97.7522 251.046 97.4222 251.736 97.1162C252.078 96.9542 252.432 96.8222 252.762 96.6302L253.752 96.0602C255.108 95.3522 256.332 94.4162 257.604 93.5162C258.192 93.0062 258.786 92.4962 259.38 91.9862L259.824 91.6022L260.232 91.1762L261.054 90.3182L261.876 89.4602L262.62 88.5242L263.364 87.5822L263.736 87.1082L264.066 86.6042C264.498 85.9262 264.936 85.2422 265.374 84.5642C265.746 83.8382 266.112 83.1182 266.484 82.3862C267.864 79.4222 268.8 76.2062 269.25 72.8702C269.61 69.5282 269.472 66.1802 268.842 62.9702C268.656 62.1722 268.47 61.3802 268.284 60.5882C268.02 59.8202 267.762 59.0522 267.504 58.2902C267.438 58.0982 267.378 57.9062 267.306 57.7202L267.06 57.1742L266.568 56.0822L266.07 54.9962L265.476 53.9642L264.888 52.9382L264.594 52.4282L264.252 51.9482C263.796 51.3062 263.346 50.6702 262.896 50.0342C261.876 48.8582 260.916 47.6522 259.77 46.6442L258.948 45.8582C258.678 45.5942 258.36 45.3842 258.072 45.1442C257.478 44.6822 256.902 44.1962 256.296 43.7642C255.666 43.3622 255.042 42.9602 254.424 42.5642L253.962 42.2642C253.8 42.1742 253.638 42.0962 253.476 42.0122C253.152 41.8442 252.822 41.6822 252.498 41.5142C251.226 40.7942 249.852 40.3442 248.544 39.8102C247.872 39.5822 247.188 39.4202 246.516 39.2222C246.18 39.1262 245.844 39.0362 245.508 38.9402C245.172 38.8562 244.824 38.8142 244.488 38.7482C243.81 38.6282 243.132 38.5142 242.466 38.3942C241.794 38.3042 241.116 38.2862 240.45 38.2262C239.118 38.0702 237.798 38.1782 236.502 38.2022C235.854 38.1902 235.218 38.3342 234.588 38.4002C233.958 38.4902 233.328 38.5442 232.716 38.6642C232.11 38.8082 231.504 38.9462 230.904 39.0842C230.604 39.1562 230.31 39.2222 230.01 39.2942C229.722 39.3842 229.434 39.4862 229.152 39.5822C228.582 39.7742 228.018 39.9662 227.46 40.1522C226.896 40.3262 226.386 40.6142 225.852 40.8362C225.33 41.0762 224.802 41.2982 224.298 41.5502C223.806 41.8322 223.326 42.1082 222.846 42.3782C219.03 44.5982 216.09 47.4002 213.948 50.1662C211.824 52.9442 210.36 55.6322 209.532 57.9602C209.418 58.2482 209.31 58.5242 209.202 58.8002C209.088 59.0702 208.992 59.3342 208.926 59.5982C208.776 60.1262 208.638 60.6182 208.506 61.0742C208.38 61.5302 208.242 61.9502 208.158 62.3402C208.086 62.7362 208.02 63.0902 207.966 63.4142C207.852 64.0502 207.762 64.5362 207.696 64.8722C207.6 65.2142 207.564 65.3822 207.564 65.3822Z" fill="#263238"/>
<path d="M113.334 75.6484C113.34 75.6844 112.974 75.7324 112.404 76.0204C111.834 76.3024 111.06 76.8964 110.52 77.9104C110.256 78.4144 110.058 79.0204 110.034 79.6804C110.016 80.3404 110.166 81.0544 110.556 81.6964C111.294 82.9684 112.914 83.9944 114.636 83.7724C116.352 83.5204 117.636 82.0924 118.002 80.6704C118.206 79.9504 118.158 79.2184 117.96 78.5884C117.756 77.9584 117.396 77.4304 117.012 77.0164C116.22 76.1884 115.314 75.8284 114.69 75.7084C114.06 75.5824 113.694 75.6364 113.694 75.6004C113.694 75.5884 113.784 75.5764 113.958 75.5584C114.042 75.5464 114.15 75.5404 114.276 75.5524C114.402 75.5524 114.552 75.5584 114.714 75.5884C115.362 75.6724 116.322 76.0144 117.174 76.8604C117.594 77.2864 117.984 77.8324 118.212 78.5044C118.434 79.1764 118.494 79.9684 118.284 80.7424C118.092 81.5164 117.666 82.2724 117.042 82.8784C116.43 83.4904 115.602 83.9464 114.678 84.0844C113.754 84.1984 112.83 83.9884 112.08 83.5624C111.318 83.1484 110.706 82.5364 110.31 81.8404C109.902 81.1504 109.74 80.3764 109.776 79.6684C109.812 78.9604 110.04 78.3244 110.328 77.8024C110.916 76.7524 111.75 76.1704 112.35 75.9124C112.5 75.8404 112.638 75.7924 112.764 75.7564C112.884 75.7144 112.986 75.6904 113.076 75.6784C113.238 75.6484 113.328 75.6364 113.334 75.6484Z" fill="#263238"/>
<path d="M124.722 85.3379C124.728 85.3679 124.5 85.4039 124.146 85.5959C123.792 85.7819 123.318 86.1539 122.988 86.7839C122.658 87.3959 122.526 88.3259 123.018 89.1239C123.474 89.9099 124.476 90.5399 125.532 90.4019C126.582 90.2459 127.38 89.3699 127.608 88.4939C127.866 87.5939 127.488 86.7359 127.008 86.2319C126.522 85.7159 125.958 85.4819 125.574 85.4039C125.184 85.3199 124.95 85.3439 124.95 85.3139C124.944 85.3019 125.178 85.2359 125.598 85.2839C126.012 85.3319 126.624 85.5419 127.17 86.0819C127.44 86.3519 127.692 86.6999 127.836 87.1319C127.98 87.5639 128.022 88.0739 127.89 88.5659C127.65 89.5499 126.786 90.5339 125.58 90.7139C124.368 90.8639 123.276 90.1499 122.772 89.2739C122.508 88.8299 122.412 88.3319 122.436 87.8759C122.466 87.4199 122.61 87.0179 122.796 86.6819C123.174 86.0159 123.714 85.6499 124.098 85.4879C124.488 85.3199 124.722 85.3199 124.722 85.3379Z" fill="#263238"/>
<path d="M80.4478 52.4045H78.5098L74.2798 46.5125V42.6425C74.2798 42.6425 71.2858 42.4565 71.6398 47.5205C71.9938 52.5845 71.6098 51.2945 71.6098 51.2945C71.6098 51.2945 65.2498 51.3185 64.7218 51.8705C64.3378 52.2725 64.1638 58.5905 64.0978 62.0165C64.0618 63.7385 65.1238 65.3465 66.7258 65.7545C66.9538 65.8145 67.1818 65.8445 67.4098 65.8445C68.9938 65.8445 77.0998 64.5545 77.0998 64.5545H80.4478V52.4045Z" fill="#B2B6BD"/>
<path d="M85.9978 51.3428L84.8038 64.5908H81.4858V51.6068L85.9978 51.3428Z" fill="#B2B6BD"/>
<path d="M109.896 54.2403C109.896 54.2403 109.878 54.0543 109.854 53.6943C109.83 53.3283 109.8 52.7943 109.758 52.0923C109.74 51.7383 109.716 51.3483 109.692 50.9163C109.65 50.4843 109.554 50.0163 109.482 49.5063C109.404 48.9963 109.314 48.4503 109.224 47.8623C109.188 47.5683 109.116 47.2683 109.032 46.9683C108.954 46.6623 108.87 46.3503 108.786 46.0263C108.198 43.4223 106.98 40.3443 105.06 37.0803C103.122 33.8283 100.332 30.4323 96.5219 27.5463C96.0419 27.1923 95.5619 26.8263 95.0699 26.4663C94.5599 26.1303 94.026 25.8243 93.492 25.5003C93.228 25.3383 92.9579 25.1763 92.6879 25.0143C92.4179 24.8463 92.1479 24.6843 91.8539 24.5523C91.2779 24.2763 90.6959 24.0003 90.1139 23.7183C89.8199 23.5803 89.526 23.4303 89.226 23.2983C88.92 23.1843 88.608 23.0703 88.296 22.9563C87.672 22.7283 87.0419 22.5003 86.4059 22.2663C85.7639 22.0563 85.092 21.9183 84.426 21.7383C84.09 21.6543 83.7599 21.5643 83.4179 21.4803C83.2499 21.4383 83.0819 21.3903 82.9079 21.3543L82.392 21.2763C81.006 21.0783 79.6019 20.7903 78.1499 20.7843C77.4239 20.7603 76.6979 20.6883 75.9599 20.7003C75.2279 20.7363 74.4839 20.7783 73.7399 20.8143C73.3679 20.8383 72.9899 20.8383 72.6179 20.8863C72.2459 20.9403 71.8739 21.0003 71.5019 21.0603C70.7579 21.1863 69.9959 21.2703 69.2459 21.4263C67.7639 21.8283 66.2339 22.1283 64.7699 22.7403C64.3979 22.8783 64.0319 23.0103 63.6599 23.1483C63.4739 23.2203 63.2879 23.2803 63.1019 23.3583L62.5619 23.6163C61.8419 23.9643 61.1219 24.3123 60.3959 24.6603C59.6879 25.0443 59.0099 25.4943 58.3079 25.9083C57.9659 26.1303 57.5999 26.3163 57.2699 26.5623L56.2799 27.3003C54.9179 28.2363 53.7239 29.4063 52.4759 30.5343C51.9119 31.1583 51.3419 31.7823 50.7719 32.4123L50.3459 32.8863C50.2139 33.0543 50.0879 33.2283 49.9619 33.3963L49.1999 34.4223L48.4259 35.4543L47.7479 36.5583L47.0759 37.6683L46.7399 38.2203C46.6379 38.4123 46.5479 38.6103 46.4519 38.8083C46.0739 39.5943 45.6959 40.3803 45.3119 41.1723C45.0119 41.9943 44.7059 42.8223 44.3999 43.6563C43.3079 47.0223 42.7199 50.5983 42.6659 54.2343C42.7139 57.8763 43.3019 61.4523 44.3939 64.8183C44.6999 65.6523 44.9999 66.4803 45.3059 67.3023C45.6899 68.0943 46.0679 68.8803 46.4459 69.6663L46.7339 70.2543L47.0699 70.8123L47.7419 71.9223L48.4199 73.0263L49.1939 74.0583L49.9619 75.0843L50.3459 75.5943L50.7719 76.0683C51.3419 76.6983 51.9119 77.3223 52.4759 77.9463C53.7239 79.0743 54.9179 80.2443 56.2799 81.1803L57.2699 81.9183C57.5939 82.1643 57.9659 82.3563 58.3079 82.5723C59.0099 82.9863 59.6879 83.4363 60.3959 83.8203C61.1219 84.1683 61.8479 84.5223 62.5619 84.8643L63.1019 85.1223C63.2879 85.2003 63.4739 85.2603 63.6599 85.3323C64.0319 85.4703 64.4039 85.6023 64.7699 85.7403C66.2279 86.3463 67.7639 86.6523 69.2459 87.0543C69.9959 87.2103 70.7579 87.2943 71.5019 87.4203C71.8739 87.4803 72.2519 87.5343 72.6179 87.5943C72.9899 87.6423 73.3679 87.6423 73.7399 87.6663C74.4839 87.7023 75.2279 87.7443 75.9599 87.7803C76.6919 87.7923 77.4239 87.7203 78.1499 87.6963C79.6019 87.6903 81.006 87.4023 82.392 87.2043L82.9079 87.1263C83.0819 87.0903 83.2439 87.0423 83.4179 87.0003C83.7539 86.9163 84.09 86.8263 84.426 86.7423C85.092 86.5623 85.7639 86.4243 86.4059 86.2143C87.0419 85.9803 87.672 85.7523 88.296 85.5243C88.608 85.4103 88.92 85.2963 89.226 85.1823C89.52 85.0443 89.8199 84.9003 90.1139 84.7623C90.7019 84.4803 91.2839 84.2043 91.8539 83.9283C92.1479 83.8023 92.4179 83.6343 92.6879 83.4663C92.9579 83.3043 93.228 83.1423 93.492 82.9803C94.026 82.6503 94.5599 82.3443 95.0699 82.0143C95.5619 81.6483 96.0419 81.2883 96.5219 80.9343C100.332 78.0483 103.122 74.6523 105.06 71.4003C105.306 70.9923 105.558 70.6023 105.786 70.2063C105.984 69.7923 106.182 69.3903 106.374 68.9943C106.566 68.5983 106.752 68.2083 106.938 67.8303C107.028 67.6383 107.13 67.4523 107.208 67.2603C107.28 67.0683 107.352 66.8703 107.424 66.6843C107.706 65.9223 107.976 65.1903 108.234 64.4943C108.474 63.7923 108.612 63.0963 108.792 62.4543C108.876 62.1303 108.96 61.8183 109.038 61.5123C109.122 61.2063 109.194 60.9123 109.23 60.6183C109.32 60.0363 109.41 59.4843 109.488 58.9803C109.56 58.4703 109.656 58.0023 109.698 57.5703C109.722 57.1383 109.746 56.7423 109.764 56.3943C109.806 55.6983 109.836 55.1643 109.86 54.7923C109.872 54.4263 109.896 54.2403 109.896 54.2403C109.896 54.2403 109.896 54.4263 109.884 54.7863C109.866 55.1583 109.848 55.6923 109.818 56.3883C109.8 56.7423 109.788 57.1383 109.764 57.5703C109.722 58.0023 109.638 58.4703 109.566 58.9863C109.488 59.4963 109.41 60.0483 109.32 60.6363C109.29 60.9303 109.218 61.2303 109.134 61.5363C109.056 61.8423 108.978 62.1603 108.894 62.4843C108.72 63.1323 108.582 63.8283 108.348 64.5363C108.096 65.2383 107.826 65.9703 107.55 66.7383C107.478 66.9303 107.412 67.1223 107.34 67.3203C107.262 67.5123 107.16 67.6983 107.076 67.8903C106.89 68.2743 106.704 68.6643 106.512 69.0663C106.32 69.4683 106.128 69.8703 105.93 70.2903C105.702 70.6923 105.45 71.0883 105.21 71.4963C103.278 74.7723 100.482 78.1983 96.66 81.1143C96.18 81.4743 95.6939 81.8403 95.2019 82.2063C94.6919 82.5423 94.1519 82.8543 93.6179 83.1843C93.3479 83.3463 93.0779 83.5143 92.8079 83.6763C92.5379 83.8443 92.2679 84.0123 91.9739 84.1443C91.3979 84.4263 90.8099 84.7083 90.2219 84.9903C89.9279 85.1283 89.634 85.2783 89.328 85.4163C89.016 85.5303 88.704 85.6443 88.392 85.7583C87.762 85.9863 87.1319 86.2203 86.4899 86.4543C85.8419 86.6703 85.1699 86.8083 84.4979 86.9943C84.1619 87.0783 83.8259 87.1683 83.4839 87.2583C83.3159 87.3003 83.1479 87.3483 82.9739 87.3843L82.4519 87.4623C81.0539 87.6663 79.6439 87.9543 78.1739 87.9663C77.4419 87.9903 76.7099 88.0623 75.9719 88.0563C75.2339 88.0203 74.4839 87.9843 73.7339 87.9423C73.3559 87.9183 72.9779 87.9183 72.6059 87.8703C72.2339 87.8163 71.8559 87.7563 71.4779 87.6963C70.7219 87.5703 69.9599 87.4863 69.2039 87.3303C67.7099 86.9283 66.1619 86.6283 64.6919 86.0163C64.3199 85.8783 63.9419 85.7403 63.5699 85.6083C63.3839 85.5363 63.1919 85.4763 63.0059 85.3983L62.4659 85.1343C61.7399 84.7863 61.0139 84.4323 60.2759 84.0843C59.5619 83.7003 58.8719 83.2503 58.1639 82.8303C57.8159 82.6083 57.4499 82.4223 57.1199 82.1703L56.1239 81.4263C54.7499 80.4843 53.5439 79.3023 52.2839 78.1683C51.7139 77.5383 51.1379 76.9083 50.5619 76.2723L50.1299 75.7983L49.7399 75.2823L48.9659 74.2443L48.1859 73.2003L47.5019 72.0843L46.8179 70.9623L46.4759 70.3983L46.1879 69.8043C45.8039 69.0123 45.4199 68.2143 45.0359 67.4163C44.7299 66.5823 44.4239 65.7483 44.1179 64.9083C43.0139 61.5123 42.4199 57.9003 42.3719 54.2283C42.4199 50.5563 43.0139 46.9503 44.1179 43.5483C44.4239 42.7083 44.7299 41.8743 45.0359 41.0403C45.4199 40.2423 45.8039 39.4443 46.1879 38.6523C46.2839 38.4543 46.3739 38.2563 46.4759 38.0583L46.8179 37.4943L47.5019 36.3723L48.1859 35.2623L48.9659 34.2183L49.7399 33.1803C49.8719 33.0063 49.9979 32.8323 50.1299 32.6643L50.5619 32.1903C51.1379 31.5543 51.7139 30.9243 52.2839 30.3003C53.5439 29.1603 54.7499 27.9843 56.1239 27.0423L57.1199 26.2983C57.4499 26.0463 57.8219 25.8603 58.1639 25.6383C58.8719 25.2183 59.5559 24.7683 60.2699 24.3843C61.0019 24.0303 61.7339 23.6823 62.4599 23.3343L62.9999 23.0763C63.1859 22.9983 63.3779 22.9383 63.5639 22.8663C63.9419 22.7283 64.3139 22.5903 64.6859 22.4583C66.1559 21.8463 67.7039 21.5463 69.1979 21.1443C69.9539 20.9883 70.7219 20.9043 71.4719 20.7783C71.8499 20.7183 72.2279 20.6643 72.5999 20.6043C72.9779 20.5563 73.3559 20.5563 73.7279 20.5323C74.4779 20.4963 75.2279 20.4603 75.9659 20.4183C76.7039 20.4063 77.4419 20.4783 78.1679 20.5083C79.6319 20.5203 81.048 20.8083 82.446 21.0123L82.9679 21.0903C83.1419 21.1263 83.31 21.1743 83.478 21.2163C83.82 21.3063 84.156 21.3903 84.492 21.4803C85.158 21.6663 85.8359 21.8043 86.4839 22.0203C87.1259 22.2543 87.7559 22.4883 88.3859 22.7163C88.6979 22.8303 89.0099 22.9443 89.3219 23.0583C89.6219 23.1963 89.9159 23.3403 90.2159 23.4843C90.8039 23.7723 91.3919 24.0543 91.9679 24.3303C92.2619 24.4623 92.5319 24.6303 92.8019 24.7983C93.0719 24.9663 93.342 25.1283 93.612 25.2903C94.146 25.6203 94.686 25.9323 95.196 26.2683C95.688 26.6343 96.1739 27.0003 96.6539 27.3603C100.476 30.2763 103.278 33.7023 105.204 36.9783C107.118 40.2663 108.324 43.3683 108.894 45.9843C108.978 46.3083 109.056 46.6263 109.134 46.9323C109.218 47.2383 109.284 47.5383 109.32 47.8323C109.41 48.4203 109.488 48.9723 109.566 49.4823C109.638 49.9923 109.722 50.4603 109.764 50.8983C109.782 51.3303 109.8 51.7263 109.818 52.0803C109.848 52.7823 109.866 53.3163 109.884 53.6823C109.896 54.0603 109.896 54.2403 109.896 54.2403Z" fill="#263238"/>
<path d="M163.764 65.9461C163.758 65.9461 163.746 65.9461 163.74 65.9461C163.242 65.9341 162.852 65.5201 162.864 65.0221L163.068 57.0121C163.074 56.7301 163.212 56.4661 163.446 56.3041C163.674 56.1421 163.968 56.0941 164.238 56.1781C165.69 56.6281 167.328 56.4241 168.738 55.6141C170.046 54.8641 170.976 53.6761 171.288 52.3561C171.594 51.0421 171.294 49.5601 170.46 48.2821C169.566 46.9141 168.21 45.9721 166.746 45.7021C163.8 45.1561 160.566 47.1181 159.54 50.0821C159.378 50.5501 158.862 50.8021 158.394 50.6401C157.926 50.4781 157.674 49.9621 157.836 49.4941C159.144 45.7261 163.284 43.2361 167.07 43.9321C169.014 44.2921 170.796 45.5221 171.96 47.2981C173.058 48.9841 173.454 50.9761 173.034 52.7641C172.614 54.5701 171.372 56.1721 169.626 57.1741C168.138 58.0261 166.446 58.3561 164.838 58.1461L164.664 65.0701C164.652 65.5561 164.25 65.9461 163.764 65.9461Z" fill="#263238"/>
<path d="M165.156 69.9058C165.156 70.6318 164.568 71.2198 163.842 71.2198C163.116 71.2198 162.528 70.6318 162.528 69.9058C162.528 69.1798 163.116 68.5918 163.842 68.5918C164.568 68.5858 165.156 69.1738 165.156 69.9058Z" fill="#263238"/>
<path d="M65.2798 158.292C63.9298 158.292 62.5978 157.902 61.5238 157.098C60.2638 156.15 59.4238 154.65 59.2258 152.97C59.0338 151.38 59.4658 149.82 60.3958 148.692C61.3378 147.552 62.7958 146.844 64.3858 146.748C65.6578 146.67 66.9058 146.982 67.9438 147.624L70.3138 143.13C70.5478 142.692 71.0878 142.524 71.5318 142.752C71.9698 142.986 72.1378 143.526 71.9098 143.97L69.0418 149.406C68.9098 149.658 68.6698 149.826 68.3938 149.874C68.1178 149.922 67.8298 149.832 67.6258 149.64C66.8218 148.878 65.6878 148.482 64.4998 148.554C63.4018 148.62 62.4118 149.094 61.7878 149.85C61.1638 150.606 60.8818 151.668 61.0138 152.772C61.1578 153.96 61.7338 155.016 62.6038 155.67C64.3318 156.966 67.1578 156.72 68.7718 155.13C69.1258 154.782 69.6958 154.788 70.0438 155.142C70.3918 155.496 70.3858 156.066 70.0318 156.414C68.7778 157.65 67.0138 158.292 65.2798 158.292Z" fill="#263238"/>
<path d="M71.8138 139.734C72.0598 139.236 72.6658 139.032 73.1698 139.278C73.6678 139.524 73.8718 140.13 73.6258 140.628C73.3798 141.126 72.7738 141.33 72.2698 141.084C71.7718 140.838 71.5678 140.232 71.8138 139.734Z" fill="#263238"/>
<path d="M246.924 143.148C246.648 143.148 246.372 143.016 246.192 142.776L242.592 137.796C242.424 137.568 242.376 137.274 242.46 137.004C242.544 136.734 242.748 136.518 243.012 136.422C244.05 136.044 244.914 135.198 245.376 134.1C245.802 133.086 245.82 131.994 245.418 131.094C245.016 130.2 244.188 129.48 243.144 129.108C242.016 128.706 240.81 128.76 239.844 129.246C237.918 130.224 236.886 132.864 237.588 135.018C237.744 135.492 237.486 135.996 237.012 136.152C236.538 136.308 236.034 136.05 235.878 135.576C234.894 132.576 236.304 129.012 239.028 127.638C240.432 126.93 242.154 126.846 243.744 127.41C245.25 127.944 246.462 129.018 247.062 130.356C247.668 131.706 247.656 133.326 247.038 134.796C246.54 135.972 245.712 136.95 244.68 137.598L247.656 141.72C247.95 142.122 247.854 142.686 247.452 142.974C247.29 143.094 247.104 143.148 246.924 143.148Z" fill="#263238"/>
<path d="M250.032 144.565C250.368 145.009 250.284 145.639 249.84 145.981C249.396 146.317 248.766 146.233 248.424 145.789C248.088 145.345 248.172 144.709 248.616 144.373C249.06 144.037 249.696 144.121 250.032 144.565Z" fill="#263238"/>
</svg>
