<svg width="300" height="300" viewBox="0 0 300 300" fill="none" xmlns="http://www.w3.org/2000/svg">
<path d="M300 229.439H0V229.589H300V229.439Z" fill="#EBEBEB"/>
<path d="M269.94 239.094H250.068V239.244H269.94V239.094Z" fill="#EBEBEB"/>
<path d="M198.732 240.726H193.518V240.876H198.732V240.726Z" fill="#EBEBEB"/>
<path d="M249.468 233.525H237.954V233.675H249.468V233.525Z" fill="#EBEBEB"/>
<path d="M57.3901 234.534H31.4761V234.684H57.3901V234.534Z" fill="#EBEBEB"/>
<path d="M66.5342 234.534H62.7362V234.684H66.5342V234.534Z" fill="#EBEBEB"/>
<path d="M135.09 237.065H78.8821V237.215H135.09V237.065Z" fill="#EBEBEB"/>
<path d="M142.206 202.68H26.352C24.462 202.68 22.926 201.144 22.926 199.254V36.3957C22.926 34.5057 24.462 32.9697 26.352 32.9697H142.212C144.102 32.9697 145.638 34.5057 145.638 36.3957V199.254C145.632 201.144 144.096 202.68 142.206 202.68ZM26.352 33.1197C24.546 33.1197 23.076 34.5897 23.076 36.3957V199.254C23.076 201.06 24.546 202.53 26.352 202.53H142.212C144.018 202.53 145.488 201.06 145.488 199.254V36.3957C145.488 34.5897 144.018 33.1197 142.212 33.1197H26.352Z" fill="#EBEBEB"/>
<path d="M271.986 202.68H156.126C154.236 202.68 152.7 201.144 152.7 199.254V36.3957C152.7 34.5057 154.236 32.9697 156.126 32.9697H271.986C273.876 32.9697 275.412 34.5057 275.412 36.3957V199.254C275.412 201.144 273.876 202.68 271.986 202.68ZM156.126 33.1197C154.32 33.1197 152.85 34.5897 152.85 36.3957V199.254C152.85 201.06 154.32 202.53 156.126 202.53H271.986C273.792 202.53 275.262 201.06 275.262 199.254V36.3957C275.262 34.5897 273.792 33.1197 271.986 33.1197H156.126Z" fill="#EBEBEB"/>
<path d="M246.888 208.686C246.888 208.686 242.28 199.662 247.548 190.764C252.816 181.866 254.346 179.772 250.986 177.948C247.626 176.124 246.084 185.064 246.084 185.064C246.084 185.064 243.252 178.914 245.592 172.482C247.932 166.044 249.396 155.562 246.204 154.44C243.012 153.318 245.592 167.514 242.826 172.356C242.826 172.356 240.498 166.968 240.114 161.796C239.73 156.63 240.33 148.374 237.81 146.256C235.29 144.138 233.676 145.602 236.154 157.008C238.632 168.414 238.614 177.69 238.614 177.69C238.614 177.69 233.142 162.726 229.47 162.288C225.798 161.85 225.804 166.698 228.948 170.898C232.092 175.104 238.152 182.628 239.148 186.504C239.148 186.504 233.142 175.242 227.742 178.692C222.342 182.142 232.446 188.946 236.946 191.4C241.452 193.86 244.578 209.262 244.578 209.262L246.888 208.686Z" fill="#E0E0E0"/>
<path d="M243.246 212.388C243.246 212.388 247.734 203.304 242.352 194.478C236.964 185.652 235.41 183.582 238.746 181.71C242.082 179.844 243.738 188.76 243.738 188.76C243.738 188.76 246.486 182.574 244.062 176.172C241.638 169.77 240.03 159.306 243.21 158.142C246.384 156.972 243.996 171.21 246.828 176.01C246.828 176.01 249.084 170.592 249.396 165.42C249.708 160.248 249 152.004 251.496 149.85C253.992 147.696 255.624 149.142 253.296 160.584C250.968 172.026 251.112 181.296 251.112 181.296C251.112 181.296 256.38 166.26 260.046 165.774C263.712 165.288 263.772 170.136 260.688 174.378C257.604 178.62 251.64 186.234 250.698 190.122C250.698 190.122 256.554 178.782 262.002 182.16C267.45 185.538 257.436 192.474 252.966 194.994C248.496 197.514 245.574 212.958 245.574 212.958L243.246 212.388Z" fill="#E6E6E6"/>
<path d="M263.958 205.914H226.866L229.866 229.722H260.952L263.958 205.914Z" fill="#F0F0F0"/>
<path d="M197.796 55.2354H130.224V130.007H197.796V55.2354Z" fill="#E9E9E9"/>
<path d="M195 58.1992H133.2V127.199H195V58.1992Z" fill="#F4F4F4"/>
<path d="M150.666 58.1992L133.2 123.611V88.1992L141.192 58.1992H150.666Z" fill="white"/>
<path d="M158.472 58.1992L140.052 127.199H136.578L154.998 58.1992H158.472Z" fill="white"/>
<path d="M195 77.0156V112.434L191.088 127.2H181.614L195 77.0156Z" fill="white"/>
<path d="M165.21 55.2354H162.81V130.007H165.21V55.2354Z" fill="#E9E9E9"/>
<path d="M196.5 70.4092H131.4V72.8092H196.5V70.4092Z" fill="#E9E9E9"/>
<path d="M105.396 55.2354H37.824V130.007H105.396V55.2354Z" fill="#E9E9E9"/>
<path d="M102.6 58.1992H40.8V127.199H102.6V58.1992Z" fill="#F4F4F4"/>
<path d="M58.266 58.1992L40.8 123.611V88.1992L48.792 58.1992H58.266Z" fill="white"/>
<path d="M66.072 58.1992L47.652 127.199H44.178L62.598 58.1992H66.072Z" fill="white"/>
<path d="M102.6 77.0156V112.434L98.6879 127.2H89.2139L102.6 77.0156Z" fill="white"/>
<path d="M72.8102 55.2354H70.4102V130.007H72.8102V55.2354Z" fill="#E9E9E9"/>
<path d="M104.1 70.4092H39V72.8092H104.1V70.4092Z" fill="#E9E9E9"/>
<path d="M150 256.536C214.249 256.536 266.334 253.495 266.334 249.744C266.334 245.993 214.249 242.952 150 242.952C85.7504 242.952 33.6659 245.993 33.6659 249.744C33.6659 253.495 85.7504 256.536 150 256.536Z" fill="#F5F5F5"/>
<path d="M228.996 229.722H136.902C134.532 229.722 132.762 227.802 132.948 225.426L144.558 76.4815C144.744 74.1115 146.814 72.1855 149.184 72.1855H241.278C243.648 72.1855 245.418 74.1055 245.232 76.4815L233.622 225.426C233.436 227.796 231.366 229.722 228.996 229.722Z" fill="#2E353A"/>
<path opacity="0.2" d="M228.996 229.722H136.902C134.532 229.722 132.762 227.802 132.948 225.426L144.558 76.4815C144.744 74.1115 146.814 72.1855 149.184 72.1855H241.278C243.648 72.1855 245.418 74.1055 245.232 76.4815L233.622 225.426C233.436 227.796 231.366 229.722 228.996 229.722Z" fill="white"/>
<path d="M216.522 81.9238H172.422C171.594 81.9238 170.976 81.2518 171.042 80.4238L171.72 71.7178C171.786 70.8898 172.506 70.2178 173.334 70.2178H217.434C218.262 70.2178 218.88 70.8898 218.82 71.7178L218.142 80.4238C218.07 81.2518 217.35 81.9238 216.522 81.9238Z" fill="#545965"/>
<path opacity="0.2" d="M216.522 81.9238H172.422C171.594 81.9238 170.976 81.2518 171.042 80.4238L171.72 71.7178C171.786 70.8898 172.506 70.2178 173.334 70.2178H217.434C218.262 70.2178 218.88 70.8898 218.82 71.7178L218.142 80.4238C218.07 81.2518 217.35 81.9238 216.522 81.9238Z" fill="black"/>
<path d="M198.624 72.9176H191.724L191.994 69.4676C192.144 67.5596 193.806 66.0176 195.714 66.0176C197.622 66.0176 199.044 67.5656 198.894 69.4676L198.624 72.9176Z" fill="#545965"/>
<path opacity="0.4" d="M198.624 72.9176H191.724L191.994 69.4676C192.144 67.5596 193.806 66.0176 195.714 66.0176C197.622 66.0176 199.044 67.5656 198.894 69.4676L198.624 72.9176Z" fill="white"/>
<path d="M227.754 223.499H139.11L150.42 78.4014H239.064L227.754 223.499Z" fill="white"/>
<path d="M208.32 85.9976H179.988C178.038 85.9976 176.58 84.4136 176.73 82.4576L177.09 77.8496C177.24 75.8996 178.95 74.3096 180.9 74.3096H209.232C211.182 74.3096 212.64 75.8936 212.49 77.8496L212.13 82.4576C211.974 84.4076 210.27 85.9976 208.32 85.9976ZM180.804 75.5156C179.514 75.5156 178.386 76.5656 178.29 77.8496L177.93 82.4576C177.828 83.7476 178.794 84.7916 180.084 84.7916H208.416C209.706 84.7916 210.834 83.7416 210.93 82.4576L211.29 77.8496C211.392 76.5596 210.426 75.5156 209.136 75.5156H180.804Z" fill="#545965"/>
<g opacity="0.4">
<path opacity="0.4" d="M208.32 85.9976H179.988C178.038 85.9976 176.58 84.4136 176.73 82.4576L177.09 77.8496C177.24 75.8996 178.95 74.3096 180.9 74.3096H209.232C211.182 74.3096 212.64 75.8936 212.49 77.8496L212.13 82.4576C211.974 84.4076 210.27 85.9976 208.32 85.9976ZM180.804 75.5156C179.514 75.5156 178.386 76.5656 178.29 77.8496L177.93 82.4576C177.828 83.7476 178.794 84.7916 180.084 84.7916H208.416C209.706 84.7916 210.834 83.7416 210.93 82.4576L211.29 77.8496C211.392 76.5596 210.426 75.5156 209.136 75.5156H180.804Z" fill="white"/>
</g>
<path d="M206.856 76.9671H182.856C182.4 76.9671 182.058 76.5951 182.094 76.1391L182.28 73.7391C182.316 73.2831 182.712 72.9111 183.168 72.9111H207.168C207.624 72.9111 207.966 73.2831 207.93 73.7391L207.744 76.1391C207.708 76.6011 207.312 76.9671 206.856 76.9671Z" fill="#545965"/>
<path d="M227.178 99.5996H159.978L160.548 92.2676H227.748L227.178 99.5996Z" fill="#545965"/>
<path d="M199.98 109.806H155.244L155.394 107.916H200.13L199.98 109.806Z" fill="#545965"/>
<path d="M199.56 115.266H154.824L154.968 113.37H199.704L199.56 115.266Z" fill="#545965"/>
<path d="M199.134 120.726H154.398L154.542 118.83H199.278L199.134 120.726Z" fill="#545965"/>
<path d="M198.708 126.18H153.972L154.116 124.29H198.852L198.708 126.18Z" fill="#545965"/>
<path d="M228.06 126.179H209.808L211.236 107.915H229.488L228.06 126.179Z" fill="#545965"/>
<path d="M219.546 128.029C219.605 127.269 219.76 126.592 220.011 125.999C220.262 125.406 220.552 124.896 220.883 124.47C221.215 124.025 221.666 123.488 222.236 122.857C223.05 121.949 223.617 121.245 223.934 120.744C224.272 120.225 224.469 119.613 224.524 118.909C224.596 117.982 224.344 117.278 223.768 116.796C223.212 116.296 222.516 116.045 221.679 116.045C220.471 116.045 219.244 116.397 217.999 117.102L217.924 114.85C219.269 114.053 220.796 113.654 222.507 113.654C223.622 113.654 224.563 113.877 225.327 114.321C226.111 114.766 226.677 115.369 227.027 116.129C227.378 116.87 227.519 117.686 227.45 118.575C227.398 119.243 227.239 119.854 226.972 120.411C226.726 120.948 226.458 121.402 226.169 121.773C225.881 122.125 225.391 122.69 224.698 123.469C223.864 124.396 223.246 125.165 222.845 125.777C222.464 126.37 222.243 127.065 222.181 127.862L222.113 128.724H219.492L219.546 128.029ZM219.154 130.559H222.166L221.936 133.506H218.924L219.154 130.559Z" fill="white"/>
<path d="M197.826 137.448H153.09L153.24 135.552H197.976L197.826 137.448Z" fill="#545965"/>
<path d="M197.4 142.902H152.664L152.814 141.012H197.55L197.4 142.902Z" fill="#545965"/>
<path d="M196.98 148.362H152.244L152.388 146.472H197.124L196.98 148.362Z" fill="#545965"/>
<path d="M196.554 153.822H151.818L151.962 151.926H196.698L196.554 153.822Z" fill="#545965"/>
<path d="M225.906 153.822H207.654L209.076 135.552H227.334L225.906 153.822Z" fill="#545965"/>
<path d="M217.391 155.669C217.451 154.909 217.606 154.232 217.856 153.639C218.107 153.046 218.398 152.536 218.729 152.11C219.061 151.665 219.512 151.127 220.081 150.497C220.896 149.589 221.462 148.884 221.78 148.384C222.118 147.865 222.314 147.253 222.369 146.549C222.441 145.622 222.189 144.918 221.613 144.436C221.058 143.935 220.361 143.685 219.525 143.685C218.316 143.685 217.089 144.037 215.845 144.742L215.769 142.489C217.114 141.692 218.642 141.294 220.352 141.294C221.468 141.294 222.408 141.516 223.173 141.961C223.956 142.406 224.523 143.008 224.873 143.768C225.224 144.51 225.365 145.325 225.296 146.215C225.244 146.882 225.084 147.494 224.818 148.05C224.571 148.588 224.304 149.042 224.014 149.413C223.727 149.765 223.236 150.33 222.544 151.109C221.709 152.035 221.091 152.805 220.69 153.416C220.31 154.01 220.088 154.705 220.026 155.502L219.959 156.364H217.337L217.391 155.669ZM216.999 158.199H220.011L219.781 161.146H216.769L216.999 158.199Z" fill="white"/>
<path d="M195.672 165.083H150.936L151.086 163.193H195.822L195.672 165.083Z" fill="#545965"/>
<path d="M195.246 170.543H150.51L150.66 168.647H195.396L195.246 170.543Z" fill="#545965"/>
<path d="M194.82 176.003H150.09L150.234 174.107H194.97L194.82 176.003Z" fill="#545965"/>
<path d="M194.4 181.457H149.664L149.808 179.567H194.544L194.4 181.457Z" fill="#545965"/>
<path d="M223.752 181.457H205.5L206.922 163.193H225.174L223.752 181.457Z" fill="#545965"/>
<path d="M215.237 183.308C215.296 182.548 215.451 181.872 215.702 181.278C215.953 180.685 216.244 180.176 216.574 179.749C216.906 179.304 217.357 178.767 217.927 178.137C218.742 177.228 219.308 176.524 219.626 176.023C219.964 175.504 220.16 174.893 220.215 174.188C220.287 173.262 220.035 172.557 219.459 172.075C218.903 171.575 218.207 171.325 217.37 171.325C216.162 171.325 214.935 171.677 213.69 172.381L213.615 170.129C214.96 169.332 216.488 168.933 218.198 168.933C219.314 168.933 220.254 169.156 221.019 169.601C221.802 170.046 222.369 170.648 222.718 171.408C223.07 172.149 223.211 172.965 223.141 173.855C223.089 174.522 222.93 175.134 222.664 175.69C222.417 176.227 222.149 176.682 221.86 177.052C221.572 177.404 221.082 177.97 220.389 178.748C219.555 179.675 218.937 180.444 218.536 181.056C218.155 181.649 217.934 182.344 217.872 183.141L217.805 184.003H215.183L215.237 183.308ZM214.845 185.838H217.857L217.627 188.786H214.615L214.845 185.838Z" fill="white"/>
<path d="M193.518 192.725H148.782L148.932 190.829H193.668L193.518 192.725Z" fill="#545965"/>
<path d="M193.092 198.179H148.356L148.506 196.289H193.242L193.092 198.179Z" fill="#545965"/>
<path d="M192.666 203.639H147.93L148.08 201.749H192.816L192.666 203.639Z" fill="#545965"/>
<path d="M192.246 209.099H147.51L147.654 207.203H192.39L192.246 209.099Z" fill="#545965"/>
<path d="M221.598 209.099H203.346L204.768 190.829H223.02L221.598 209.099Z" fill="#545965"/>
<path d="M213.083 210.947C213.142 210.187 213.297 209.51 213.548 208.917C213.799 208.324 214.089 207.814 214.42 207.388C214.752 206.943 215.203 206.406 215.773 205.775C216.587 204.867 217.153 204.163 217.471 203.662C217.809 203.143 218.006 202.531 218.061 201.827C218.133 200.9 217.881 200.196 217.305 199.714C216.749 199.214 216.053 198.963 215.216 198.963C214.008 198.963 212.781 199.315 211.536 200.02L211.461 197.768C212.806 196.971 214.333 196.572 216.044 196.572C217.159 196.572 218.099 196.795 218.864 197.239C219.648 197.684 220.214 198.287 220.564 199.047C220.915 199.788 221.056 200.604 220.987 201.493C220.935 202.161 220.776 202.772 220.509 203.329C220.263 203.866 219.995 204.32 219.706 204.691C219.418 205.043 218.928 205.608 218.235 206.387C217.401 207.314 216.783 208.083 216.382 208.695C216.001 209.288 215.78 209.983 215.717 210.78L215.65 211.642H213.029L213.083 210.947ZM212.69 213.477H215.702L215.473 216.424H212.461L212.69 213.477Z" fill="white"/>
<path opacity="0.7" d="M227.178 99.5996H159.978L160.548 92.2676H227.748L227.178 99.5996Z" fill="white"/>
<path opacity="0.7" d="M199.98 109.806H155.244L155.394 107.916H200.13L199.98 109.806Z" fill="white"/>
<path opacity="0.7" d="M199.56 115.266H154.824L154.968 113.37H199.704L199.56 115.266Z" fill="white"/>
<path opacity="0.7" d="M199.134 120.726H154.398L154.542 118.83H199.278L199.134 120.726Z" fill="white"/>
<path opacity="0.7" d="M198.708 126.18H153.972L154.116 124.29H198.852L198.708 126.18Z" fill="white"/>
<path opacity="0.7" d="M228.06 126.18H209.808L211.236 107.916H229.488L228.06 126.18Z" fill="white"/>
<path opacity="0.7" d="M197.826 137.448H153.09L153.24 135.552H197.976L197.826 137.448Z" fill="white"/>
<path opacity="0.7" d="M197.4 142.902H152.664L152.814 141.012H197.55L197.4 142.902Z" fill="white"/>
<path opacity="0.7" d="M196.98 148.362H152.244L152.388 146.472H197.124L196.98 148.362Z" fill="white"/>
<path opacity="0.7" d="M196.554 153.822H151.818L151.962 151.926H196.698L196.554 153.822Z" fill="white"/>
<path opacity="0.7" d="M225.906 153.822H207.654L209.076 135.552H227.334L225.906 153.822Z" fill="white"/>
<path opacity="0.7" d="M195.672 165.083H150.936L151.086 163.193H195.822L195.672 165.083Z" fill="white"/>
<path opacity="0.7" d="M195.246 170.543H150.51L150.66 168.647H195.396L195.246 170.543Z" fill="white"/>
<path opacity="0.7" d="M194.82 176.003H150.09L150.234 174.107H194.97L194.82 176.003Z" fill="white"/>
<path opacity="0.7" d="M194.4 181.457H149.664L149.808 179.567H194.544L194.4 181.457Z" fill="white"/>
<path opacity="0.7" d="M223.752 181.457H205.5L206.922 163.193H225.174L223.752 181.457Z" fill="white"/>
<path opacity="0.7" d="M193.518 192.725H148.782L148.932 190.829H193.668L193.518 192.725Z" fill="white"/>
<path opacity="0.7" d="M193.092 198.179H148.356L148.506 196.289H193.242L193.092 198.179Z" fill="white"/>
<path opacity="0.7" d="M192.666 203.639H147.93L148.08 201.749H192.816L192.666 203.639Z" fill="white"/>
<path opacity="0.7" d="M192.246 209.099H147.51L147.654 207.203H192.39L192.246 209.099Z" fill="white"/>
<path opacity="0.7" d="M221.598 209.099H203.346L204.768 190.829H223.02L221.598 209.099Z" fill="white"/>
<path d="M120 154.2V170.724C120 173.982 118.746 177.114 116.49 179.466L101.07 195.6H109.8L125.82 179.832C128.238 177.456 129.6 174.204 129.6 170.814V154.2H120Z" fill="#545965"/>
<path opacity="0.4" d="M129.6 154.2V170.814C129.6 171.756 129.498 172.68 129.288 173.58C128.766 175.938 127.572 178.116 125.82 179.832L109.8 195.6H101.07L116.49 179.466C118.746 177.114 120 173.982 120 170.724V154.2H129.6Z" fill="white"/>
<path opacity="0.2" d="M129.6 154.2V170.814C129.6 171.756 129.498 172.68 129.288 173.58L120 169.83V154.2H129.6Z" fill="black"/>
<path d="M95.0041 197.4L82.0861 246.636C81.8461 247.554 81.0121 248.196 80.0641 248.196H56.9641C56.5741 248.196 56.2201 248.022 55.9801 247.71C55.7401 247.404 55.6621 247.008 55.7641 246.636L68.6941 197.4H66.2101L53.4421 246.03C53.1541 247.128 53.3881 248.28 54.0841 249.18C54.7801 250.08 55.8301 250.596 56.9701 250.596H80.0641C82.1041 250.596 83.8921 249.216 84.4081 247.242L97.4881 197.394H95.0041V197.4Z" fill="#545965"/>
<g opacity="0.4">
<path opacity="0.4" d="M95.0041 197.4L82.0861 246.636C81.8461 247.554 81.0121 248.196 80.0641 248.196H56.9641C56.5741 248.196 56.2201 248.022 55.9801 247.71C55.7401 247.404 55.6621 247.008 55.7641 246.636L68.6941 197.4H66.2101L53.4421 246.03C53.1541 247.128 53.3881 248.28 54.0841 249.18C54.7801 250.08 55.8301 250.596 56.9701 250.596H80.0641C82.1041 250.596 83.8921 249.216 84.4081 247.242L97.4881 197.394H95.0041V197.4Z" fill="white"/>
</g>
<path d="M100.29 250.602L86.1599 196.722L83.8379 197.328L97.8059 250.602H100.29Z" fill="#545965"/>
<path d="M129.09 250.602L114.96 196.722L112.638 197.328L126.606 250.602H129.09Z" fill="#545965"/>
<g opacity="0.5">
<path opacity="0.5" d="M100.29 250.602L86.1599 196.722L83.8379 197.328L97.8059 250.602H100.29Z" fill="white"/>
</g>
<g opacity="0.5">
<path opacity="0.5" d="M129.09 250.602L114.96 196.722L112.638 197.328L126.606 250.602H129.09Z" fill="white"/>
</g>
<path opacity="0.2" d="M66.21 197.4H68.694L66.744 204.822L64.446 204.12L66.21 197.4Z" fill="black"/>
<path opacity="0.2" d="M86.1599 196.722L89.3699 208.968L86.6759 208.152L83.8379 197.328L86.1599 196.722Z" fill="black"/>
<path opacity="0.2" d="M95.0039 197.4H97.4819L93.4139 212.94L91.1099 212.238L95.0039 197.4Z" fill="black"/>
<path opacity="0.2" d="M120.63 218.49L117.924 217.662L112.638 197.478L114.96 196.818L120.63 218.49Z" fill="black"/>
<path d="M64.02 198.222L52.776 137.484L52.626 136.566C52.41 135.39 52.704 134.196 53.436 133.32C54.144 132.468 55.17 132 56.322 132H80.61C82.848 132 85.014 133.866 85.446 136.152L85.626 137.178L96.84 197.778L94.482 198.216L83.232 137.43L83.082 136.578C82.866 135.426 81.708 134.4 80.61 134.4H56.322C55.89 134.4 55.53 134.556 55.278 134.856C55.002 135.186 54.9 135.66 54.99 136.158L55.158 137.166L66.384 197.79L64.02 198.222Z" fill="#545965"/>
<g opacity="0.5">
<path opacity="0.5" d="M64.02 198.222L52.776 137.484L52.626 136.566C52.41 135.39 52.704 134.196 53.436 133.32C54.144 132.468 55.17 132 56.322 132H80.61C82.848 132 85.014 133.866 85.446 136.152L85.626 137.178L96.84 197.778L94.482 198.216L83.232 137.43L83.082 136.578C82.866 135.426 81.708 134.4 80.61 134.4H56.322C55.89 134.4 55.53 134.556 55.278 134.856C55.002 135.186 54.9 135.66 54.99 136.158L55.158 137.166L66.384 197.79L64.02 198.222Z" fill="white"/>
</g>
<path d="M115.086 192.198H68.9277C67.2717 192.198 65.9277 193.542 65.9277 195.198V199.212H118.086V195.198C118.086 193.542 116.742 192.198 115.086 192.198Z" fill="#545965"/>
<path d="M118.806 195.708H65.2138C64.5478 195.708 64.0078 196.248 64.0078 196.914V198.006C64.0078 198.672 64.5478 199.212 65.2138 199.212H118.806C119.472 199.212 120.012 198.672 120.012 198.006V196.914C120.012 196.248 119.472 195.708 118.806 195.708Z" fill="#545965"/>
<path opacity="0.6" d="M118.806 195.708H65.2138C64.5478 195.708 64.0078 196.248 64.0078 196.914V198.006C64.0078 198.672 64.5478 199.212 65.2138 199.212H118.806C119.472 199.212 120.012 198.672 120.012 198.006V196.914C120.012 196.248 119.472 195.708 118.806 195.708Z" fill="white"/>
<path d="M88.998 162H58.5L53.952 137.4H84.444L88.956 161.772L88.998 162Z" fill="#545965"/>
<path d="M118.998 109.578C118.998 109.578 115.164 100.674 114.828 99.7199C114.492 98.7659 114.888 93.9479 114.6 93.0899C114.312 92.2319 109.848 91.6679 108.906 91.7759C107.964 91.8839 108.798 99.3359 109.182 99.9239C109.572 100.518 110.892 101.556 110.892 101.556L114.282 111.78L118.998 109.578Z" fill="#FFC3BD"/>
<path d="M99.5818 126.384C102.198 126.798 112.908 128.34 115.302 126.75C117.234 125.46 111.792 104.574 111.792 104.574L116.634 102.6C116.634 102.6 128.136 127.926 121.992 133.716C118.872 136.656 110.1 137.4 97.4818 137.4L99.5818 126.384Z" fill="#545965"/>
<path opacity="0.8" d="M99.5818 126.384C102.198 126.798 112.908 128.34 115.302 126.75C117.234 125.46 111.792 104.574 111.792 104.574L116.634 102.6C116.634 102.6 128.136 127.926 121.992 133.716C118.872 136.656 110.1 137.4 97.4818 137.4L99.5818 126.384Z" fill="white"/>
<path opacity="0.1" d="M104.034 137.316C102.174 137.37 100.188 137.394 98.1001 137.394L99.9001 130.5C99.9001 130.5 102.948 133.224 104.034 137.316Z" fill="black"/>
<path d="M114.702 140.994L127.398 154.422" stroke="#2E353A" stroke-width="2" stroke-miterlimit="10"/>
<path d="M105.6 148.901C105.6 148.901 115.29 148.601 116.298 148.499C117.3 148.397 121.5 145.997 122.4 145.901C123.3 145.799 125.7 149.603 126 150.503C126.3 151.403 119.202 153.803 118.5 153.701C117.798 153.599 116.298 152.843 116.298 152.843L105.6 154.103V148.901Z" fill="#FFC3BD"/>
<path d="M99.9 245.898L104.682 245.238L105.342 233.88L100.572 234.54L99.9 245.898Z" fill="#FFC3BD"/>
<path d="M105.042 244.668L99.6418 244.332C99.4558 244.314 99.2878 244.446 99.2638 244.638V244.644L98.7358 248.904C98.7058 249.372 99.0598 249.774 99.5218 249.804C101.406 249.888 102.312 249.84 104.688 249.966C106.146 250.056 109.02 250.362 111.036 250.17C113.046 249.978 112.8 247.992 111.93 247.896C109.866 247.662 107.136 246.144 105.852 244.998C105.624 244.8 105.342 244.68 105.042 244.668Z" fill="#2E353A"/>
<path d="M106.698 245.592C106.266 245.556 105.84 245.472 105.426 245.34C105.384 245.328 105.348 245.292 105.348 245.25C105.342 245.208 105.366 245.166 105.396 245.136C105.558 245.04 106.98 244.194 107.556 244.458C107.688 244.524 107.778 244.65 107.796 244.794C107.862 245.016 107.79 245.256 107.622 245.412C107.346 245.586 107.016 245.646 106.698 245.592ZM107.46 244.686C107.154 244.542 106.326 244.896 105.744 245.214C106.596 245.436 107.226 245.448 107.466 245.244C107.568 245.142 107.61 244.992 107.574 244.848C107.568 244.776 107.526 244.716 107.46 244.686Z" fill="#545965"/>
<path d="M105.45 245.34C105.438 245.346 105.42 245.346 105.402 245.346C105.372 245.328 105.348 245.292 105.348 245.256C105.348 245.214 105.33 243.804 105.84 243.366C105.978 243.252 106.158 243.21 106.332 243.24C106.53 243.258 106.686 243.408 106.716 243.606C106.794 244.134 106.014 245.1 105.516 245.352C105.492 245.352 105.468 245.352 105.45 245.34ZM106.23 243.468C106.14 243.462 106.05 243.492 105.984 243.558C105.672 243.822 105.594 244.608 105.576 245.064C106.014 244.74 106.518 244.008 106.488 243.654C106.482 243.588 106.446 243.51 106.284 243.48L106.23 243.468Z" fill="#545965"/>
<path opacity="0.2" d="M100.572 234.54L105.342 233.886L104.964 240.378L100.2 240.798L100.572 234.54Z" fill="black"/>
<path d="M100.092 179.106L98.928 171.798L72.132 170.196C72.132 170.196 69.282 185.4 71.472 189.45C75.378 196.68 96.444 193.032 102.606 193.74C98.922 208.806 99.282 238.248 99.282 238.248L108.084 238.92C108.084 238.92 114.858 207.192 116.226 192.12C117.15 181.95 108.72 182.202 100.092 179.106Z" fill="#2E353A"/>
<path d="M98.2498 238.662L108.828 239.358L109.734 234.828L98.1118 234.288L98.2498 238.662Z" fill="#545965"/>
<path d="M110.928 241.655L115.74 242.009L118.752 231.035L113.946 230.688L110.928 241.655Z" fill="#FFC3BD"/>
<path d="M116.214 241.518L111 240.066C110.82 240.006 110.628 240.102 110.568 240.282V240.288L109.164 244.344C109.038 244.794 109.296 245.262 109.746 245.388C111.57 245.868 112.47 246 114.768 246.624C116.178 247.014 118.926 247.914 120.93 248.142C122.94 248.37 123.114 246.378 122.28 246.102C120.312 245.442 117.96 243.396 116.934 241.998C116.754 241.77 116.502 241.596 116.214 241.518Z" fill="#2E353A"/>
<path d="M117.642 242.772C117.228 242.646 116.826 242.472 116.448 242.262C116.406 242.244 116.382 242.202 116.388 242.16C116.394 242.118 116.418 242.076 116.46 242.058C116.64 241.998 118.206 241.47 118.71 241.848C118.824 241.938 118.89 242.082 118.872 242.226C118.89 242.46 118.77 242.676 118.572 242.79C118.272 242.898 117.936 242.892 117.642 242.772ZM118.572 242.04C118.302 241.836 117.42 242.01 116.784 242.202C117.57 242.598 118.188 242.742 118.464 242.586C118.584 242.508 118.656 242.37 118.65 242.22C118.662 242.154 118.626 242.082 118.572 242.04Z" fill="#545965"/>
<path d="M116.472 242.268C116.454 242.274 116.436 242.268 116.424 242.262C116.4 242.238 116.382 242.196 116.388 242.16C116.4 242.118 116.67 240.738 117.258 240.414C117.414 240.336 117.6 240.324 117.762 240.39C117.948 240.45 118.074 240.63 118.062 240.828C118.026 241.362 117.06 242.142 116.526 242.286C116.508 242.286 116.484 242.28 116.472 242.268ZM117.624 240.594C117.534 240.57 117.444 240.582 117.366 240.63C117.012 240.822 116.766 241.578 116.652 242.016C117.144 241.788 117.792 241.182 117.834 240.828C117.84 240.762 117.822 240.678 117.672 240.612L117.624 240.594Z" fill="#545965"/>
<path opacity="0.2" d="M113.946 230.688L118.752 231.041L117.03 237.312L112.278 236.73L113.946 230.688Z" fill="black"/>
<path d="M120.384 236.538L111.912 234.048C111.912 234.048 116.97 205.5 122.1 195.6C121.716 195.474 121.206 195.312 120.576 195.126C119.442 194.784 117.936 194.358 116.166 193.866C103.854 190.452 78.9 184.05 78.9 184.05L90.3 173.412C90.3 173.412 135.708 180.336 136.65 192.3C137.1 198.054 120.384 236.538 120.384 236.538Z" fill="#2E353A"/>
<path d="M110.82 234.234L121.02 237.12L122.85 232.878L111.594 229.926L110.82 234.234Z" fill="#545965"/>
<path opacity="0.2" d="M120.576 195.126C119.442 194.784 117.936 194.358 116.166 193.866C116.52 190.962 116.526 187.632 115.128 185.934C112.35 182.55 105.204 180.564 101.136 179.844C97.7337 179.244 86.3037 178.05 86.3037 178.05C86.3037 178.05 101.136 176.628 116.298 181.05C123.792 183.24 122.334 190.566 120.576 195.126Z" fill="black"/>
<path d="M99.582 126.384C99.582 126.384 103.47 140.784 98.928 171.798C90.462 171.618 76.236 171.288 72.114 171.198C72.012 166.878 75.198 145.71 71.472 125.292C74.154 124.824 76.866 124.56 79.59 124.488C83.574 124.344 87.564 124.428 91.536 124.746C94.254 125.082 96.948 125.628 99.582 126.384Z" fill="#545965"/>
<path opacity="0.7" d="M99.582 126.384C99.582 126.384 103.47 140.784 98.928 171.798C90.462 171.618 76.236 171.288 72.114 171.198C72.012 166.878 75.198 145.71 71.472 125.292C74.154 124.824 76.866 124.56 79.59 124.488C83.574 124.344 87.564 124.428 91.536 124.746C94.254 125.082 96.948 125.628 99.582 126.384Z" fill="white"/>
<path opacity="0.1" d="M80.898 151.602C78.516 151.074 75.636 148.764 73.278 146.484C73.26 142.428 73.08 138.114 72.642 133.716C75.978 138.654 85.014 152.508 80.898 151.602Z" fill="black"/>
<path d="M71.4719 125.292C62.2979 128.598 78.4019 153.438 83.3999 156C88.3979 158.562 113.802 153.198 113.802 153.198L112.8 148.062C112.8 148.062 90.3239 148.638 88.2539 148.11C86.1839 147.588 81.2639 136.998 78.4319 132C75.5999 127.002 71.4719 125.292 71.4719 125.292Z" fill="#545965"/>
<path opacity="0.8" d="M71.4719 125.292C62.2979 128.598 78.4019 153.438 83.3999 156C88.3979 158.562 113.802 153.198 113.802 153.198L112.8 148.062C112.8 148.062 90.3239 148.638 88.2539 148.11C86.1839 147.588 81.2639 136.998 78.4319 132C75.5999 127.002 71.4719 125.292 71.4719 125.292Z" fill="white"/>
<path d="M111 147.6L112.302 154.422L114.702 153.6L113.802 147.6H111Z" fill="#545965"/>
<path opacity="0.7" d="M111 147.6L112.302 154.422L114.702 153.6L113.802 147.6H111Z" fill="white"/>
<path d="M111.648 106.068L118.104 103.512L116.85 101.31L111.12 103.314L111.648 106.068Z" fill="#545965"/>
<path opacity="0.7" d="M111.648 106.068L118.104 103.512L116.85 101.31L111.12 103.314L111.648 106.068Z" fill="white"/>
<path opacity="0.1" d="M78.1439 124.548C78.1439 124.548 78.3119 127.35 83.8199 130.05L87.6239 127.296C87.6239 127.296 88.7099 134.322 89.3879 139.572C89.3879 139.572 89.3399 131.172 88.6199 127.944L91.5299 128.976C91.5299 128.976 89.0519 124.716 84.8339 123.744C80.6159 122.772 78.1439 124.548 78.1439 124.548Z" fill="black"/>
<path d="M81.0599 111.096C81.7319 114.954 82.3318 122.01 79.5898 124.518L87.6238 126.75L91.5358 124.776C87.2698 123.66 87.4499 120.48 88.2599 117.51L81.0599 111.096Z" fill="#FFC3BD"/>
<path opacity="0.2" d="M83.9937 113.712L88.2537 117.51C88.0557 118.2 87.9177 118.908 87.8397 119.622C86.2077 119.352 83.9997 117.504 83.8617 115.788C83.7777 115.098 83.8197 114.39 83.9937 113.712Z" fill="black"/>
<path d="M86.7419 100.374C84.9959 102.27 86.5019 104.436 92.0759 107.07C93.4019 104.148 92.5919 99.2695 90.7919 98.4175C88.9919 97.5655 88.2659 98.7295 86.7419 100.374Z" fill="#2E353A"/>
<path d="M78.7198 106.338C80.1358 111.36 80.7118 114.366 83.8438 116.424C88.5598 119.514 94.3378 115.824 94.4518 110.478C94.5478 105.678 92.2198 98.2675 86.8018 97.3255C82.9318 96.6295 79.2358 99.2035 78.5398 103.074C78.3478 104.166 78.4078 105.282 78.7198 106.338Z" fill="#FFC3BD"/>
<path d="M86.6221 106.086C86.7121 106.5 87.0061 106.788 87.2761 106.728C87.5461 106.668 87.6901 106.29 87.6001 105.876C87.5101 105.462 87.2221 105.174 86.9521 105.228C86.6821 105.282 86.5621 105.672 86.6221 106.086Z" fill="#2E353A"/>
<path d="M91.332 105.072C91.422 105.486 91.7159 105.774 91.9859 105.714C92.256 105.654 92.406 105.276 92.316 104.856C92.226 104.436 91.932 104.154 91.662 104.214C91.392 104.274 91.242 104.658 91.332 105.072Z" fill="#2E353A"/>
<path d="M89.8379 105.6C90.6059 106.758 91.5299 107.808 92.5859 108.714C91.9859 109.56 90.6839 109.512 90.6839 109.512L89.8379 105.6Z" fill="#ED968D"/>
<path d="M85.0138 104.88C84.9598 104.898 84.9058 104.898 84.8518 104.88C84.7258 104.82 84.6718 104.676 84.7258 104.55C85.0438 103.812 85.7038 103.278 86.4898 103.116C86.6218 103.092 86.7478 103.176 86.7718 103.308C86.7718 103.314 86.7718 103.32 86.7718 103.326C86.7838 103.458 86.6938 103.584 86.5618 103.608C85.9438 103.746 85.4278 104.172 85.1818 104.754C85.1458 104.82 85.0858 104.868 85.0138 104.88Z" fill="#2E353A"/>
<path d="M93.1318 103.02C93.0358 103.038 92.9398 103.002 92.8798 102.93C92.5018 102.42 91.9078 102.12 91.2718 102.126C91.1338 102.138 91.0138 102.036 91.0018 101.898C90.9898 101.766 91.0918 101.646 91.2238 101.628C92.0278 101.61 92.7898 101.982 93.2698 102.624C93.3538 102.732 93.3358 102.888 93.2278 102.972C93.1978 102.996 93.1678 103.014 93.1318 103.02Z" fill="#2E353A"/>
<path d="M79.7701 101.388C82.3261 101.688 82.5901 104.316 80.0701 109.938C77.1601 108.582 74.5981 104.346 75.4201 102.534C76.2421 100.722 77.5381 101.13 79.7701 101.388Z" fill="#2E353A"/>
<path d="M77.1781 110.934C77.8021 112.092 78.8521 112.956 80.1121 113.334C81.7801 113.82 82.6321 112.332 82.1881 110.748C81.7861 109.32 80.4301 107.346 78.7501 107.556C77.0701 107.766 76.4221 109.512 77.1781 110.934Z" fill="#FFC3BD"/>
<path d="M75.6478 102.114C75.6478 102.114 74.3818 100.476 76.8658 97.212C79.3498 93.948 85.3558 92.946 89.9758 93.846C94.5958 94.746 91.8478 99.846 90.1978 100.698L90.3958 99.9C90.3958 99.9 87.5578 101.448 84.7018 101.448L85.6078 100.596C85.6138 100.602 78.3478 102.48 75.6478 102.114Z" fill="#2E353A"/>
<path d="M90.3781 110.892C90.2341 111.558 90.2101 112.758 90.2101 112.758C90.1021 112.776 89.9941 112.794 89.8801 112.806C88.3981 113.004 87.6421 112.602 87.2581 112.104C87.0481 111.828 86.9521 111.516 86.9101 111.258C86.8561 110.958 86.8861 110.736 86.8861 110.736C87.7321 111.102 89.1301 111.024 89.8741 110.952C90.1801 110.928 90.3781 110.892 90.3781 110.892Z" fill="#2E353A"/>
<path d="M89.868 110.952L89.802 111.498C88.404 111.678 87.396 111.618 86.904 111.258C86.85 110.958 86.88 110.736 86.88 110.736C87.726 111.102 89.124 111.024 89.868 110.952Z" fill="white"/>
<path d="M89.8802 112.806C88.3982 113.004 87.6422 112.602 87.2582 112.104C87.7682 112.056 88.3862 112.056 88.9502 112.212C89.3762 112.326 89.6702 112.56 89.8802 112.806Z" fill="#ED968D"/>
<path d="M80.9938 122.147C80.9938 122.147 85.3258 125.399 87.6238 126.149C87.6238 126.149 88.6858 124.145 88.2538 122.489L91.5358 124.775C91.5358 124.775 92.1718 126.863 91.5358 128.981L87.6238 126.749L83.9218 129.449C83.9218 129.449 78.4558 127.865 78.1378 124.547L80.9938 122.147Z" fill="#545965"/>
<path opacity="0.8" d="M80.9938 122.147C80.9938 122.147 85.3258 125.399 87.6238 126.149C87.6238 126.149 88.6858 124.145 88.2538 122.489L91.5358 124.775C91.5358 124.775 92.1718 126.863 91.5358 128.981L87.6238 126.749L83.9218 129.449C83.9218 129.449 78.4558 127.865 78.1378 124.547L80.9938 122.147Z" fill="white"/>
<path d="M152.508 156.078H92.7C92.316 156.078 91.998 155.766 91.998 155.376V153.618C91.998 153.234 92.31 152.916 92.7 152.916H152.508C152.892 152.916 153.21 153.228 153.21 153.618V155.376C153.204 155.766 152.892 156.078 152.508 156.078Z" fill="#545965"/>
<path opacity="0.5" d="M153 153.54V155.298C153 155.688 152.892 156 152.508 156H92.7C92.31 156 91.8 155.688 91.8 155.298V153.54C91.8 153.156 92.31 153 92.7 153H152.508C152.892 153 153 153.156 153 153.54Z" fill="white"/>
<path opacity="0.2" d="M117 153.54V155.298C117 155.688 116.868 156 116.484 156H92.7C92.31 156 91.8 155.688 91.8 155.298V153.54C91.8 153.156 92.31 153 92.7 153H116.484C116.868 153 117 153.156 117 153.54Z" fill="black"/>
<path d="M103.416 65.4777C101.646 58.9917 94.6562 55.3257 88.2122 57.7857C83.1902 59.7057 80.1422 65.0157 81.0122 70.3197C81.6842 74.4177 84.4082 77.6157 87.8702 79.0977C88.6322 79.4217 89.2622 80.0037 89.5982 80.7657L89.9942 81.6537L101.034 78.6477L100.926 77.6877C100.83 76.8537 101.082 76.0317 101.58 75.3537C103.59 72.6177 104.37 68.9997 103.416 65.4777Z" fill="#545965"/>
<path d="M93.6003 81.6722C93.6003 81.6722 91.9383 76.4522 88.9983 74.1482L90.6243 73.7042L90.7503 71.2022L93.4023 75.0482L93.1863 70.3682L95.8083 74.6342L96.0723 72.2162L98.3943 71.5862C98.3943 71.5862 96.3423 75.4922 97.7463 80.6582" stroke="white" stroke-miterlimit="10" stroke-linecap="round" stroke-linejoin="round"/>
<path d="M95.6882 80.7961C93.7322 81.3301 92.6462 83.5741 93.2522 85.8121C93.8642 88.0501 95.9402 89.4361 97.8962 88.9021C99.8522 88.3681 100.938 86.1241 100.332 83.8861C99.7202 81.6481 97.6442 80.2681 95.6882 80.7961Z" fill="#2E353A"/>
<path d="M99.456 86.8439L95.52 87.9179C93.57 88.4519 91.536 87.3839 90.864 85.4819L89.574 81.8399C89.466 81.5339 89.64 81.2039 89.952 81.1199L100.806 78.1619C101.118 78.0779 101.436 78.2759 101.496 78.5939L102.228 82.3859C102.618 84.3659 101.406 86.3159 99.456 86.8439Z" fill="#545965"/>
<path opacity="0.4" d="M99.456 86.8439L95.52 87.9179C93.57 88.4519 91.536 87.3839 90.864 85.4819L89.574 81.8399C89.466 81.5339 89.64 81.2039 89.952 81.1199L100.806 78.1619C101.118 78.0779 101.436 78.2759 101.496 78.5939L102.228 82.3859C102.618 84.3659 101.406 86.3159 99.456 86.8439Z" fill="white"/>
<path d="M77.0281 76.9498C75.9481 76.7518 74.8561 76.6498 73.7641 76.6438C73.2181 76.6438 72.6781 76.6678 72.1381 76.7338C71.8741 76.7758 71.6041 76.8058 71.3401 76.8778C71.2081 76.9138 71.0761 76.9318 70.9501 76.9798L70.5661 77.0998L70.1341 77.2378L70.3921 76.8598C71.1181 75.7918 71.7061 74.6038 72.1141 73.3738C72.3181 72.7618 72.4741 72.1318 72.5641 71.4958C72.6061 71.1778 72.6421 70.8598 72.6541 70.5418C72.6661 70.2238 72.6661 69.9058 72.6361 69.5878C72.6181 69.2698 72.5641 68.9578 72.5041 68.6518L72.3901 68.1958L72.2401 67.7518C72.1261 67.4638 72.0121 67.1698 71.8501 66.8998C71.7061 66.6178 71.5261 66.3658 71.3521 66.1078C71.1541 65.8678 70.9681 65.6098 70.7401 65.3878L70.4101 65.0518L70.0501 64.7398C69.8161 64.5238 69.5461 64.3558 69.2941 64.1638C69.0301 63.9838 68.7541 63.8218 68.4841 63.6538L67.8601 63.2578L68.5261 62.9398C68.8441 62.7838 69.1801 62.5978 69.5041 62.4118C69.8281 62.2198 70.1401 62.0158 70.4521 61.8058C71.0701 61.3798 71.6581 60.9178 72.2101 60.4138C72.4861 60.1618 72.7501 59.8978 73.0021 59.6278C73.2541 59.3518 73.4941 59.0758 73.7221 58.7818C73.9441 58.4878 74.1601 58.1878 74.3461 57.8758C74.5321 57.5638 74.7241 57.2518 74.8741 56.9158C75.0361 56.5918 75.1621 56.2498 75.2821 55.9078L75.4381 55.3918L75.5521 54.8638C75.6061 54.5098 75.6721 54.1498 75.6721 53.7898C75.6961 53.4298 75.6721 53.0698 75.6541 52.7098C75.6061 52.3498 75.5761 51.9898 75.4861 51.6358L75.3661 51.1018L75.1981 50.5798C75.1021 50.2258 74.9341 49.8958 74.8021 49.5538C74.6521 49.2178 74.4781 48.8938 74.3161 48.5578L73.4581 46.7878L75.1021 47.8438C75.3901 48.0298 75.7261 48.2218 76.0441 48.3958C76.3681 48.5698 76.7041 48.7378 77.0401 48.8878C77.7121 49.1998 78.4021 49.4638 79.1041 49.6798C79.4581 49.7878 79.8121 49.8838 80.1661 49.9558C80.5201 50.0338 80.8801 50.0998 81.2401 50.1358C81.6001 50.1838 81.9601 50.2018 82.3141 50.2018C82.6741 50.2078 83.0281 50.1778 83.3761 50.1298L83.8921 50.0398L84.3961 49.9078C84.7261 49.7938 85.0501 49.6738 85.3561 49.5118C85.5181 49.4458 85.6561 49.3438 85.8061 49.2538C85.9561 49.1698 86.1001 49.0678 86.2321 48.9538C86.5141 48.7498 86.7601 48.4978 87.0121 48.2578C87.2341 47.9878 87.4861 47.7358 87.6781 47.4358C87.8941 47.1538 88.0741 46.8418 88.2481 46.5238C88.4341 46.2178 88.5601 45.8698 88.7221 45.5458C88.8601 45.2098 88.9801 44.8618 89.1121 44.5198L89.8681 42.5518L90.2401 44.6038C90.2941 44.9098 90.3901 45.2638 90.4981 45.5938C90.6061 45.9298 90.7321 46.2538 90.8761 46.5778C91.1581 47.2198 91.5061 47.8318 91.9321 48.3838C92.3521 48.9358 92.8381 49.4278 93.3901 49.8418C93.6601 50.0518 93.9541 50.2318 94.2541 50.3938C94.5541 50.5618 94.8721 50.6878 95.1961 50.8138C95.5261 50.9158 95.8561 51.0238 96.1981 51.0838C96.5341 51.1618 96.8881 51.1978 97.2301 51.2278C97.5781 51.2458 97.9321 51.2698 98.2861 51.2518C98.6401 51.2578 98.9941 51.2038 99.3481 51.1738C99.7021 51.1378 100.05 51.0598 100.404 51.0058L101.454 50.7538L102.492 50.4418L103.518 50.0758L104.946 49.5658L104.124 50.8318C103.98 51.0538 103.824 51.3238 103.686 51.5818C103.548 51.8458 103.422 52.1098 103.302 52.3798C103.068 52.9198 102.876 53.4778 102.744 54.0478C102.612 54.6178 102.54 55.1938 102.546 55.7698C102.552 56.3398 102.648 56.9098 102.84 57.4438L103.002 57.8398L103.2 58.2178C103.35 58.4578 103.506 58.6978 103.698 58.9138C103.872 59.1418 104.094 59.3338 104.298 59.5318C104.52 59.7178 104.742 59.9038 104.994 60.0598C105.228 60.2338 105.498 60.3658 105.75 60.5158C106.008 60.6598 106.29 60.7738 106.554 60.8998L107.394 61.2178L108.258 61.4878L108.876 61.6798L108.366 62.0698C108.042 62.3218 107.712 62.6218 107.418 62.9338C107.112 63.2458 106.842 63.5818 106.584 63.9298C106.446 64.0978 106.338 64.2838 106.224 64.4698C106.098 64.6498 106.008 64.8418 105.912 65.0338C105.81 65.2258 105.72 65.4178 105.654 65.6218C105.582 65.8258 105.492 66.0238 105.45 66.2338C105.408 66.4438 105.336 66.6478 105.312 66.8638L105.252 67.5058C105.252 67.7218 105.276 67.9378 105.288 68.1538C105.288 68.3698 105.348 68.5798 105.396 68.7898C105.456 68.9998 105.468 69.2218 105.564 69.4198L105.81 70.0258C105.876 70.2358 106.014 70.4158 106.116 70.6078L106.452 71.1778L106.572 71.3878H106.344C105.468 71.3938 104.574 71.5078 103.716 71.7358C103.29 71.8618 102.87 72.0058 102.48 72.2218C102.378 72.2698 102.288 72.3358 102.198 72.3958C102.102 72.4498 102.012 72.5158 101.928 72.5938C101.844 72.6658 101.748 72.7258 101.676 72.8158L101.448 73.0618L101.664 72.8038C101.73 72.7138 101.826 72.6478 101.904 72.5698C101.988 72.4918 102.072 72.4198 102.168 72.3598C102.264 72.2998 102.348 72.2218 102.45 72.1678C102.834 71.9278 103.254 71.7538 103.68 71.6038C104.538 71.3158 105.438 71.1718 106.35 71.1298L106.242 71.3398L105.87 70.7638C105.75 70.5718 105.606 70.3918 105.522 70.1758L105.24 69.5458C105.132 69.3418 105.108 69.1078 105.036 68.8858C104.976 68.6638 104.904 68.4418 104.898 68.2078C104.88 67.9798 104.844 67.7458 104.832 67.5118L104.868 66.8158C104.88 66.5818 104.946 66.3598 104.988 66.1258C105.024 65.8918 105.108 65.6758 105.18 65.4538C105.246 65.2318 105.33 65.0158 105.438 64.8058C105.534 64.5958 105.63 64.3798 105.75 64.1878C105.864 63.9898 105.978 63.7798 106.116 63.5938C106.374 63.2098 106.662 62.8438 106.974 62.5078C107.286 62.1598 107.61 61.8478 107.988 61.5418L108.102 62.1238L107.196 61.8658L106.302 61.5478C106.014 61.4158 105.714 61.3018 105.432 61.1578C105.15 61.0078 104.862 60.8698 104.598 60.6838C104.322 60.5218 104.064 60.3178 103.812 60.1138C103.572 59.8978 103.32 59.6878 103.11 59.4298C102.888 59.1898 102.696 58.9138 102.516 58.6378L102.276 58.1998L102.078 57.7438C101.838 57.1198 101.712 56.4598 101.688 55.7998C101.664 55.1398 101.73 54.4858 101.862 53.8558C101.994 53.2198 102.186 52.6018 102.432 52.0078C102.552 51.7078 102.684 51.4198 102.828 51.1318C102.978 50.8438 103.116 50.5678 103.308 50.2738L103.914 51.0298L102.846 51.4198L101.754 51.7558C101.388 51.8518 101.01 51.9418 100.644 52.0318C100.266 52.0918 99.8881 52.1758 99.5041 52.2178C99.1201 52.2538 98.7361 52.3078 98.3461 52.3138C97.9561 52.3378 97.5661 52.3198 97.1761 52.3018C96.7861 52.2658 96.3961 52.2298 96.0061 52.1458C95.6161 52.0798 95.2381 51.9598 94.8601 51.8458C94.4881 51.7078 94.1161 51.5578 93.7681 51.3718C93.4141 51.1858 93.0721 50.9758 92.7541 50.7358C92.1121 50.2618 91.5481 49.6978 91.0621 49.0738C90.5761 48.4498 90.1801 47.7658 89.8621 47.0578C89.7001 46.7038 89.5561 46.3378 89.4361 45.9658C89.3101 45.5878 89.2081 45.2338 89.1301 44.8078L90.2521 44.8918C90.1141 45.2638 89.9881 45.6418 89.8381 46.0078C89.6641 46.3678 89.5321 46.7458 89.3221 47.0938C89.1301 47.4478 88.9321 47.8018 88.6861 48.1318C88.4701 48.4738 88.1821 48.7798 87.9241 49.0918C87.6301 49.3798 87.3361 49.6738 86.9941 49.9198C86.8321 50.0518 86.6641 50.1718 86.4781 50.2738C86.2981 50.3818 86.1301 50.5018 85.9321 50.5798C85.5601 50.7718 85.1701 50.9158 84.7741 51.0478L84.1741 51.2038C83.9701 51.2458 83.7661 51.2698 83.5621 51.3058C83.1541 51.3538 82.7461 51.3838 82.3381 51.3778C81.9301 51.3778 81.5281 51.3478 81.1321 51.2938C80.7301 51.2518 80.3401 51.1738 79.9501 51.0838C79.5601 50.9998 79.1761 50.8918 78.7981 50.7718C78.0421 50.5318 77.3101 50.2438 76.5961 49.9078C76.2421 49.7398 75.8881 49.5598 75.5461 49.3738C75.1981 49.1818 74.8681 48.9898 74.5201 48.7618L75.3061 48.0478C75.4801 48.4078 75.6661 48.7618 75.8221 49.1278C75.9661 49.4998 76.1401 49.8658 76.2421 50.2558L76.4221 50.8318L76.5541 51.4258C76.6501 51.8158 76.6861 52.2238 76.7341 52.6258C76.7581 53.0338 76.7821 53.4418 76.7461 53.8498C76.7401 54.2578 76.6681 54.6658 76.6021 55.0618L76.4701 55.6618L76.2901 56.2438C76.1521 56.6278 76.0081 57.0058 75.8221 57.3658C75.6541 57.7318 75.4441 58.0798 75.2281 58.4158C75.0121 58.7518 74.7661 59.0758 74.5201 59.3878C74.2681 59.6998 73.9981 59.9938 73.7221 60.2818C73.4401 60.5638 73.1521 60.8398 72.8581 61.0978C72.2581 61.6198 71.6281 62.0938 70.9681 62.5198C70.6381 62.7358 70.3021 62.9398 69.9601 63.1318C69.6121 63.3238 69.2761 63.5038 68.8981 63.6718L68.9401 62.9578C69.2221 63.1498 69.5161 63.3238 69.7921 63.5218C70.0621 63.7378 70.3441 63.9238 70.5901 64.1638L70.9741 64.5058L71.3281 64.8838C71.5741 65.1238 71.7661 65.4178 71.9761 65.6878C72.1681 65.9758 72.3601 66.2638 72.5101 66.5758C72.6781 66.8758 72.7981 67.2058 72.9181 67.5298L73.0681 68.0278L73.1821 68.5318C73.2361 68.8738 73.2901 69.2098 73.3021 69.5578C73.3681 70.9318 73.0741 72.2818 72.6061 73.5358C72.3721 74.1658 72.0901 74.7718 71.7661 75.3598C71.4421 75.9478 71.0941 76.5118 70.6861 77.0518L70.5121 76.8118L70.9201 76.6978C71.0521 76.6558 71.1961 76.6378 71.3281 76.6078C71.6041 76.5478 71.8801 76.5298 72.1561 76.4938C72.7081 76.4458 73.2601 76.4458 73.8121 76.4698C74.8741 76.5358 75.9601 76.6978 77.0281 76.9498Z" fill="#545965"/>
<path opacity="0.7" d="M77.0281 76.9498C75.9481 76.7518 74.8561 76.6498 73.7641 76.6438C73.2181 76.6438 72.6781 76.6678 72.1381 76.7338C71.8741 76.7758 71.6041 76.8058 71.3401 76.8778C71.2081 76.9138 71.0761 76.9318 70.9501 76.9798L70.5661 77.0998L70.1341 77.2378L70.3921 76.8598C71.1181 75.7918 71.7061 74.6038 72.1141 73.3738C72.3181 72.7618 72.4741 72.1318 72.5641 71.4958C72.6061 71.1778 72.6421 70.8598 72.6541 70.5418C72.6661 70.2238 72.6661 69.9058 72.6361 69.5878C72.6181 69.2698 72.5641 68.9578 72.5041 68.6518L72.3901 68.1958L72.2401 67.7518C72.1261 67.4638 72.0121 67.1698 71.8501 66.8998C71.7061 66.6178 71.5261 66.3658 71.3521 66.1078C71.1541 65.8678 70.9681 65.6098 70.7401 65.3878L70.4101 65.0518L70.0501 64.7398C69.8161 64.5238 69.5461 64.3558 69.2941 64.1638C69.0301 63.9838 68.7541 63.8218 68.4841 63.6538L67.8601 63.2578L68.5261 62.9398C68.8441 62.7838 69.1801 62.5978 69.5041 62.4118C69.8281 62.2198 70.1401 62.0158 70.4521 61.8058C71.0701 61.3798 71.6581 60.9178 72.2101 60.4138C72.4861 60.1618 72.7501 59.8978 73.0021 59.6278C73.2541 59.3518 73.4941 59.0758 73.7221 58.7818C73.9441 58.4878 74.1601 58.1878 74.3461 57.8758C74.5321 57.5638 74.7241 57.2518 74.8741 56.9158C75.0361 56.5918 75.1621 56.2498 75.2821 55.9078L75.4381 55.3918L75.5521 54.8638C75.6061 54.5098 75.6721 54.1498 75.6721 53.7898C75.6961 53.4298 75.6721 53.0698 75.6541 52.7098C75.6061 52.3498 75.5761 51.9898 75.4861 51.6358L75.3661 51.1018L75.1981 50.5798C75.1021 50.2258 74.9341 49.8958 74.8021 49.5538C74.6521 49.2178 74.4781 48.8938 74.3161 48.5578L73.4581 46.7878L75.1021 47.8438C75.3901 48.0298 75.7261 48.2218 76.0441 48.3958C76.3681 48.5698 76.7041 48.7378 77.0401 48.8878C77.7121 49.1998 78.4021 49.4638 79.1041 49.6798C79.4581 49.7878 79.8121 49.8838 80.1661 49.9558C80.5201 50.0338 80.8801 50.0998 81.2401 50.1358C81.6001 50.1838 81.9601 50.2018 82.3141 50.2018C82.6741 50.2078 83.0281 50.1778 83.3761 50.1298L83.8921 50.0398L84.3961 49.9078C84.7261 49.7938 85.0501 49.6738 85.3561 49.5118C85.5181 49.4458 85.6561 49.3438 85.8061 49.2538C85.9561 49.1698 86.1001 49.0678 86.2321 48.9538C86.5141 48.7498 86.7601 48.4978 87.0121 48.2578C87.2341 47.9878 87.4861 47.7358 87.6781 47.4358C87.8941 47.1538 88.0741 46.8418 88.2481 46.5238C88.4341 46.2178 88.5601 45.8698 88.7221 45.5458C88.8601 45.2098 88.9801 44.8618 89.1121 44.5198L89.8681 42.5518L90.2401 44.6038C90.2941 44.9098 90.3901 45.2638 90.4981 45.5938C90.6061 45.9298 90.7321 46.2538 90.8761 46.5778C91.1581 47.2198 91.5061 47.8318 91.9321 48.3838C92.3521 48.9358 92.8381 49.4278 93.3901 49.8418C93.6601 50.0518 93.9541 50.2318 94.2541 50.3938C94.5541 50.5618 94.8721 50.6878 95.1961 50.8138C95.5261 50.9158 95.8561 51.0238 96.1981 51.0838C96.5341 51.1618 96.8881 51.1978 97.2301 51.2278C97.5781 51.2458 97.9321 51.2698 98.2861 51.2518C98.6401 51.2578 98.9941 51.2038 99.3481 51.1738C99.7021 51.1378 100.05 51.0598 100.404 51.0058L101.454 50.7538L102.492 50.4418L103.518 50.0758L104.946 49.5658L104.124 50.8318C103.98 51.0538 103.824 51.3238 103.686 51.5818C103.548 51.8458 103.422 52.1098 103.302 52.3798C103.068 52.9198 102.876 53.4778 102.744 54.0478C102.612 54.6178 102.54 55.1938 102.546 55.7698C102.552 56.3398 102.648 56.9098 102.84 57.4438L103.002 57.8398L103.2 58.2178C103.35 58.4578 103.506 58.6978 103.698 58.9138C103.872 59.1418 104.094 59.3338 104.298 59.5318C104.52 59.7178 104.742 59.9038 104.994 60.0598C105.228 60.2338 105.498 60.3658 105.75 60.5158C106.008 60.6598 106.29 60.7738 106.554 60.8998L107.394 61.2178L108.258 61.4878L108.876 61.6798L108.366 62.0698C108.042 62.3218 107.712 62.6218 107.418 62.9338C107.112 63.2458 106.842 63.5818 106.584 63.9298C106.446 64.0978 106.338 64.2838 106.224 64.4698C106.098 64.6498 106.008 64.8418 105.912 65.0338C105.81 65.2258 105.72 65.4178 105.654 65.6218C105.582 65.8258 105.492 66.0238 105.45 66.2338C105.408 66.4438 105.336 66.6478 105.312 66.8638L105.252 67.5058C105.252 67.7218 105.276 67.9378 105.288 68.1538C105.288 68.3698 105.348 68.5798 105.396 68.7898C105.456 68.9998 105.468 69.2218 105.564 69.4198L105.81 70.0258C105.876 70.2358 106.014 70.4158 106.116 70.6078L106.452 71.1778L106.572 71.3878H106.344C105.468 71.3938 104.574 71.5078 103.716 71.7358C103.29 71.8618 102.87 72.0058 102.48 72.2218C102.378 72.2698 102.288 72.3358 102.198 72.3958C102.102 72.4498 102.012 72.5158 101.928 72.5938C101.844 72.6658 101.748 72.7258 101.676 72.8158L101.448 73.0618L101.664 72.8038C101.73 72.7138 101.826 72.6478 101.904 72.5698C101.988 72.4918 102.072 72.4198 102.168 72.3598C102.264 72.2998 102.348 72.2218 102.45 72.1678C102.834 71.9278 103.254 71.7538 103.68 71.6038C104.538 71.3158 105.438 71.1718 106.35 71.1298L106.242 71.3398L105.87 70.7638C105.75 70.5718 105.606 70.3918 105.522 70.1758L105.24 69.5458C105.132 69.3418 105.108 69.1078 105.036 68.8858C104.976 68.6638 104.904 68.4418 104.898 68.2078C104.88 67.9798 104.844 67.7458 104.832 67.5118L104.868 66.8158C104.88 66.5818 104.946 66.3598 104.988 66.1258C105.024 65.8918 105.108 65.6758 105.18 65.4538C105.246 65.2318 105.33 65.0158 105.438 64.8058C105.534 64.5958 105.63 64.3798 105.75 64.1878C105.864 63.9898 105.978 63.7798 106.116 63.5938C106.374 63.2098 106.662 62.8438 106.974 62.5078C107.286 62.1598 107.61 61.8478 107.988 61.5418L108.102 62.1238L107.196 61.8658L106.302 61.5478C106.014 61.4158 105.714 61.3018 105.432 61.1578C105.15 61.0078 104.862 60.8698 104.598 60.6838C104.322 60.5218 104.064 60.3178 103.812 60.1138C103.572 59.8978 103.32 59.6878 103.11 59.4298C102.888 59.1898 102.696 58.9138 102.516 58.6378L102.276 58.1998L102.078 57.7438C101.838 57.1198 101.712 56.4598 101.688 55.7998C101.664 55.1398 101.73 54.4858 101.862 53.8558C101.994 53.2198 102.186 52.6018 102.432 52.0078C102.552 51.7078 102.684 51.4198 102.828 51.1318C102.978 50.8438 103.116 50.5678 103.308 50.2738L103.914 51.0298L102.846 51.4198L101.754 51.7558C101.388 51.8518 101.01 51.9418 100.644 52.0318C100.266 52.0918 99.8881 52.1758 99.5041 52.2178C99.1201 52.2538 98.7361 52.3078 98.3461 52.3138C97.9561 52.3378 97.5661 52.3198 97.1761 52.3018C96.7861 52.2658 96.3961 52.2298 96.0061 52.1458C95.6161 52.0798 95.2381 51.9598 94.8601 51.8458C94.4881 51.7078 94.1161 51.5578 93.7681 51.3718C93.4141 51.1858 93.0721 50.9758 92.7541 50.7358C92.1121 50.2618 91.5481 49.6978 91.0621 49.0738C90.5761 48.4498 90.1801 47.7658 89.8621 47.0578C89.7001 46.7038 89.5561 46.3378 89.4361 45.9658C89.3101 45.5878 89.2081 45.2338 89.1301 44.8078L90.2521 44.8918C90.1141 45.2638 89.9881 45.6418 89.8381 46.0078C89.6641 46.3678 89.5321 46.7458 89.3221 47.0938C89.1301 47.4478 88.9321 47.8018 88.6861 48.1318C88.4701 48.4738 88.1821 48.7798 87.9241 49.0918C87.6301 49.3798 87.3361 49.6738 86.9941 49.9198C86.8321 50.0518 86.6641 50.1718 86.4781 50.2738C86.2981 50.3818 86.1301 50.5018 85.9321 50.5798C85.5601 50.7718 85.1701 50.9158 84.7741 51.0478L84.1741 51.2038C83.9701 51.2458 83.7661 51.2698 83.5621 51.3058C83.1541 51.3538 82.7461 51.3838 82.3381 51.3778C81.9301 51.3778 81.5281 51.3478 81.1321 51.2938C80.7301 51.2518 80.3401 51.1738 79.9501 51.0838C79.5601 50.9998 79.1761 50.8918 78.7981 50.7718C78.0421 50.5318 77.3101 50.2438 76.5961 49.9078C76.2421 49.7398 75.8881 49.5598 75.5461 49.3738C75.1981 49.1818 74.8681 48.9898 74.5201 48.7618L75.3061 48.0478C75.4801 48.4078 75.6661 48.7618 75.8221 49.1278C75.9661 49.4998 76.1401 49.8658 76.2421 50.2558L76.4221 50.8318L76.5541 51.4258C76.6501 51.8158 76.6861 52.2238 76.7341 52.6258C76.7581 53.0338 76.7821 53.4418 76.7461 53.8498C76.7401 54.2578 76.6681 54.6658 76.6021 55.0618L76.4701 55.6618L76.2901 56.2438C76.1521 56.6278 76.0081 57.0058 75.8221 57.3658C75.6541 57.7318 75.4441 58.0798 75.2281 58.4158C75.0121 58.7518 74.7661 59.0758 74.5201 59.3878C74.2681 59.6998 73.9981 59.9938 73.7221 60.2818C73.4401 60.5638 73.1521 60.8398 72.8581 61.0978C72.2581 61.6198 71.6281 62.0938 70.9681 62.5198C70.6381 62.7358 70.3021 62.9398 69.9601 63.1318C69.6121 63.3238 69.2761 63.5038 68.8981 63.6718L68.9401 62.9578C69.2221 63.1498 69.5161 63.3238 69.7921 63.5218C70.0621 63.7378 70.3441 63.9238 70.5901 64.1638L70.9741 64.5058L71.3281 64.8838C71.5741 65.1238 71.7661 65.4178 71.9761 65.6878C72.1681 65.9758 72.3601 66.2638 72.5101 66.5758C72.6781 66.8758 72.7981 67.2058 72.9181 67.5298L73.0681 68.0278L73.1821 68.5318C73.2361 68.8738 73.2901 69.2098 73.3021 69.5578C73.3681 70.9318 73.0741 72.2818 72.6061 73.5358C72.3721 74.1658 72.0901 74.7718 71.7661 75.3598C71.4421 75.9478 71.0941 76.5118 70.6861 77.0518L70.5121 76.8118L70.9201 76.6978C71.0521 76.6558 71.1961 76.6378 71.3281 76.6078C71.6041 76.5478 71.8801 76.5298 72.1561 76.4938C72.7081 76.4458 73.2601 76.4458 73.8121 76.4698C74.8741 76.5358 75.9601 76.6978 77.0281 76.9498Z" fill="white"/>
</svg>
